<?xml version="1.0" standalone="no"?>
<!DOCTYPE svg PUBLIC "-//W3C//DTD SVG 1.1//EN" "http://www.w3.org/Graphics/SVG/1.1/DTD/svg11.dtd" >
<svg xmlns="http://www.w3.org/2000/svg">
<metadata></metadata>
<defs>
<font id="mostra_nuova_regular" horiz-adv-x="546" >
<font-face units-per-em="1000" ascent="800" descent="-200" />
<missing-glyph horiz-adv-x="267" />
<glyph unicode="&#xfb01;" horiz-adv-x="426" d="M220 438v-66h-78v-372h-66v372h-66v66h66v123q0 57 33.5 93t87.5 36q13 0 23 -5v-64q-6 2 -16 2q-27 0 -44.5 -17.5t-17.5 -44.5v-123h78zM360 0h-65v438h65v-438zM360 516h-65v100h65v-100z" />
<glyph unicode="&#xfb02;" horiz-adv-x="425" d="M220 438v-66h-78v-372h-66v372h-66v66h66v123q0 57 33.5 93t87.5 36q13 0 23 -5v-64q-6 2 -16 2q-27 0 -44.5 -17.5t-17.5 -44.5v-123h78zM360 0h-65v685h65v-685z" />
<glyph horiz-adv-x="0" />
<glyph horiz-adv-x="0" />
<glyph horiz-adv-x="333" />
<glyph unicode="&#xd;" horiz-adv-x="267" />
<glyph unicode=" "  horiz-adv-x="267" />
<glyph unicode="&#x09;" horiz-adv-x="267" />
<glyph unicode="&#xa0;" horiz-adv-x="267" />
<glyph unicode="!" horiz-adv-x="252" d="M160 547l-32 -319h-4l-32 319v138h68v-138zM177 0h-102v103h102v-103z" />
<glyph unicode="&#x22;" horiz-adv-x="428" d="M353 619l-101 -119v185h101v-66zM177 619l-102 -119v185h102v-66z" />
<glyph unicode="#" horiz-adv-x="557" d="M132 0h-68l44 176h-84v68h100l49 197h-84v68h101l43 176h68l-43 -176h123l44 176h68l-44 -176h84v-68h-100l-49 -197h84v-68h-101l-43 -176h-68l43 176h-123zM241 441l-49 -197h124l49 197h-124z" />
<glyph unicode="$" horiz-adv-x="310" d="M112 0l6 67q-18 -2 -27 -2q-17 0 -33 3v70q15 -7 33 -7q44 0 72.5 25t28.5 69q0 27 -14.5 48t-35.5 37.5t-42 34.5t-35.5 49t-14.5 72q0 34 19 68.5t52 56.5l-9 94h76l-6 -70q12 3 27 3t28 -3v-66q-12 3 -25 3q-39 0 -67 -24t-28 -62q0 -26 10.5 -47.5t26.5 -35 t34.5 -29.5t34.5 -31t26.5 -40.5t10.5 -57.5q0 -90 -79 -137l7 -88h-76z" />
<glyph unicode="%" horiz-adv-x="745" d="M346 550q0 -62 -44 -105.5t-105 -43.5q-62 0 -106 43.5t-44 105.5t44 105.5t106 43.5q61 0 105 -43.5t44 -105.5zM554 685l-295 -685h-67l295 685h67zM698 135q0 -61 -44 -105t-105 -44t-105 44t-44 105t44 105t105 44t105 -44t44 -105zM637 135q0 37 -25.5 62.5 t-62.5 25.5t-63 -25.5t-26 -62.5t26 -62.5t63 -25.5t62.5 25.5t25.5 62.5zM285 550q0 37 -26 62.5t-62 25.5q-37 0 -63 -25.5t-26 -62.5t26 -63t63 -26q36 0 62 26t26 63z" />
<glyph unicode="&#x26;" horiz-adv-x="651" d="M244 617l231 -398l70 123h82l-111 -194l86 -148h-79l-48 82q-75 -96 -190 -96q-98 0 -168 69.5t-70 167.5q0 90 60.5 157t149.5 78l-131 227h333v-68h-215zM285 56q94 0 151 94l-139 240h-12q-69 0 -118 -49t-49 -118t49 -118t118 -49z" />
<glyph unicode="'" horiz-adv-x="252" d="M177 619l-102 -119v185h102v-66z" />
<glyph unicode="(" horiz-adv-x="318" d="M291 -20l-36 -49q-96 72 -152 179.5t-56 231.5t56 232t152 179l36 -48q-85 -63 -133.5 -158t-48.5 -205q0 -109 48.5 -204t133.5 -158z" />
<glyph unicode=")" horiz-adv-x="318" d="M271 342q0 -124 -55.5 -231.5t-151.5 -179.5l-37 49q85 63 134 158t49 204q0 110 -49 204.5t-134 158.5l37 48q96 -71 151.5 -179t55.5 -232z" />
<glyph unicode="*" horiz-adv-x="385" d="M61 399l-34 59l111 56l-111 56l34 59l104 -69l-7 125h68l-7 -124l104 68l34 -59l-111 -56l112 -57l-34 -58l-105 68l7 -125h-68l7 125z" />
<glyph unicode="+" horiz-adv-x="553" d="M533 311h-225v-225h-62v225h-226v62h226v226h62v-226h225v-62z" />
<glyph unicode="," horiz-adv-x="252" d="M177 38l-102 -119v184h102v-65z" />
<glyph unicode="-" horiz-adv-x="330" d="M310 190h-290v58h290v-58z" />
<glyph unicode="." horiz-adv-x="252" d="M177 0h-102v103h102v-103z" />
<glyph unicode="/" horiz-adv-x="425" d="M413 729l-344 -798l-57 25l344 797z" />
<glyph unicode="0" horiz-adv-x="808" d="M761 342q0 -148 -104.5 -252t-252.5 -104t-252.5 104t-104.5 252t104.5 252.5t252.5 104.5t252.5 -104.5t104.5 -252.5zM690 342q0 119 -84 203t-202 84t-202 -84t-84 -203q0 -118 84 -202t202 -84t202 84t84 202z" />
<glyph unicode="1" horiz-adv-x="268" d="M168 0h-68v609l68 94v-703z" />
<glyph unicode="2" horiz-adv-x="378" d="M338 0h-288l161 369q15 33 15 72q0 76 -54 130.5t-127 54.5h-5v68h5q101 0 175 -74.5t74 -178.5q0 -53 -21 -100l-119 -273h184v-68z" />
<glyph unicode="3" horiz-adv-x="380" d="M330 238q0 -105 -73.5 -179.5t-174.5 -74.5h-5v66h5q73 0 127.5 55.5t54.5 132.5q0 68 -45 121t-113 63l86 195h-162v68h267l-99 -225q61 -33 96.5 -92.5t35.5 -129.5z" />
<glyph unicode="4" horiz-adv-x="516" d="M499 132h-108v-132h-68v132h-323q11 17 109.5 167t190 289.5t91.5 140.5v-529h108v-68zM323 200v317l-208 -317h208z" />
<glyph unicode="5" horiz-adv-x="379" d="M329 240q0 -105 -74 -179.5t-175 -74.5h-5v65h5q74 0 128.5 55.5t54.5 133.5q0 76 -54 132t-129 56h-5v257h250v-68h-182v-133q82 -22 134 -90.5t52 -153.5z" />
<glyph unicode="6" horiz-adv-x="485" d="M327 685l-139 -321q24 7 54 7q80 0 136.5 -56.5t56.5 -136.5t-56.5 -136t-136.5 -56t-136 56t-56 136q0 41 17 80l185 427h75zM365 178q0 51 -36 87t-87 36q-50 0 -86 -36t-36 -87t36 -87t86 -36q51 0 87 36t36 87z" />
<glyph unicode="7" horiz-adv-x="397" d="M389 685l-295 -685h-74l266 617h-229v68h332z" />
<glyph unicode="8" horiz-adv-x="517" d="M457 184q0 -82 -58 -140t-140 -58t-140.5 58t-58.5 140q0 54 27 97.5t72 68.5q-43 23 -68 64t-25 93q0 80 56.5 136t136.5 56q79 0 135.5 -56.5t56.5 -135.5q0 -52 -25 -93t-68 -64q45 -25 72 -68.5t27 -97.5zM384 507q0 52 -36.5 88t-88.5 36t-88.5 -36t-36.5 -88 t36.5 -88.5t88.5 -36.5t88.5 36.5t36.5 88.5zM388 184q0 54 -38 92t-91 38q-54 0 -92 -38t-38 -92q0 -53 38 -91t92 -38q53 0 91 38t38 91z" />
<glyph unicode="9" horiz-adv-x="485" d="M233 0h-75l139 321q-24 -7 -54 -7q-80 0 -136.5 56.5t-56.5 136.5t56.5 136t136.5 56q79 0 135.5 -56.5t56.5 -135.5q0 -41 -17 -80zM120 507q0 -51 36 -87t87 -36q50 0 86 36t36 87t-36 87t-86 36q-51 0 -87 -36t-36 -87z" />
<glyph unicode=":" horiz-adv-x="252" d="M177 334h-102v104h102v-104zM177 0h-102v103h102v-103z" />
<glyph unicode=";" horiz-adv-x="253" d="M178 334h-102v104h102v-104zM177 38l-102 -119v184h102v-65z" />
<glyph unicode="&#x3c;" horiz-adv-x="410" d="M307 619l43 -44l-233 -233l233 -233l-43 -43l-277 276z" />
<glyph unicode="=" horiz-adv-x="553" d="M533 435h-513v62h513v-62zM533 188h-513v62h513v-62z" />
<glyph unicode="&#x3e;" horiz-adv-x="410" d="M60 575l44 44l276 -277l-276 -276l-44 43l233 233z" />
<glyph unicode="?" horiz-adv-x="357" d="M75 235v64q70 0 119 49t49 119t-49 119t-119 49v64q96 0 164 -68t68 -164t-68 -164t-164 -68zM177 0h-102v103h102v-103z" />
<glyph unicode="@" horiz-adv-x="808" d="M761 296q0 -103 -59 -173t-150 -70h-41v47q-37 -47 -114 -47q-78 0 -135 58.5t-57 139.5q0 82 57 140.5t135 58.5q77 0 114 -47v35h65v-323q59 0 96.5 56.5t37.5 124.5q0 117 -83.5 189t-211.5 72t-222 -89.5t-94 -216.5t89 -216t216 -89v-51q-148 0 -252.5 104 t-104.5 252q0 147 109 252t258 105t248 -87.5t99 -224.5zM273 251q0 -54 38.5 -92.5t92.5 -38.5q71 0 107 53v158q-39 52 -107 52q-54 0 -92.5 -38.5t-38.5 -93.5z" />
<glyph unicode="A" d="M471 0l-37 99h-322l-37 -99h-73l271 706l271 -706h-73zM273 523l-139 -368h278z" />
<glyph unicode="B" horiz-adv-x="467" d="M407 189q0 -78 -55.5 -133.5t-133.5 -55.5h-118v685h102q77 0 131 -55t54 -133q0 -49 -24.5 -88t-68.5 -61q52 -19 82.5 -61.5t30.5 -97.5zM339 189q0 50 -35.5 85.5t-85.5 35.5h-50v-242h50q50 0 85.5 35.5t35.5 85.5zM319 497q0 49 -34.5 84.5t-82.5 35.5h-34v-239h32 q49 0 84 35t35 84z" />
<glyph unicode="C" horiz-adv-x="676" d="M607 140l49 -50q-104 -104 -252 -104t-252.5 104t-104.5 252t104.5 252.5t252.5 104.5q149 0 252 -105l-49 -49q-84 84 -203 84q-118 0 -202 -84t-84 -203q0 -118 84 -202t202 -84q119 0 203 84z" />
<glyph unicode="D" horiz-adv-x="596" d="M548 342q0 -142 -100 -242t-242 -100h-106v685h106q142 0 242 -100.5t100 -242.5zM480 342q0 114 -80.5 194.5t-193.5 80.5h-38v-549h38q113 0 193.5 80.5t80.5 193.5z" />
<glyph unicode="E" horiz-adv-x="457" d="M397 0h-297v685h297v-68h-229v-240h229v-68h-229v-241h229v-68z" />
<glyph unicode="F" horiz-adv-x="457" d="M397 309h-229v-309h-68v685h297v-68h-229v-240h229v-68z" />
<glyph unicode="G" horiz-adv-x="766" d="M404 56q80 0 147.5 41t104.5 110h-257v68h355q-24 -126 -123 -207.5t-227 -81.5q-148 0 -252.5 104.5t-104.5 251.5q0 148 104.5 252.5t252.5 104.5q147 0 252 -105l-49 -49q-86 84 -203 84q-118 0 -202 -84t-84 -203q0 -118 84 -202t202 -84z" />
<glyph unicode="H" horiz-adv-x="563" d="M463 0h-68v309h-227v-309h-68v685h68v-308h227v308h68v-685z" />
<glyph unicode="I" horiz-adv-x="268" d="M168 0h-68v685h68v-685z" />
<glyph unicode="J" horiz-adv-x="346" d="M246 685v-491q0 -87 -55 -145t-148 -58q-16 0 -26 3v70q9 -5 26 -5q60 0 98 37.5t38 97.5v491h67z" />
<glyph unicode="K" horiz-adv-x="454" d="M453 0h-79l-182 302l-24 -41v-261h-68v685h68v-294l174 294h80l-190 -316z" />
<glyph unicode="L" horiz-adv-x="412" d="M397 0h-297v685h68v-617h229v-68z" />
<glyph unicode="M" horiz-adv-x="636" d="M536 0h-68v498l-150 -203l-150 203v-498h-68v704l218 -296l218 296v-704z" />
<glyph unicode="N" horiz-adv-x="558" d="M458 -19l-290 481v-462h-68v704l290 -483v464h68v-704z" />
<glyph unicode="O" horiz-adv-x="808" d="M761 342q0 -148 -104.5 -252t-252.5 -104t-252.5 104t-104.5 252t104.5 252.5t252.5 104.5t252.5 -104.5t104.5 -252.5zM118 342q0 -118 84 -202t202 -84t202 84t84 202q0 119 -84 203t-202 84t-202 -84t-84 -203z" />
<glyph unicode="P" horiz-adv-x="492" d="M442 448q0 -98 -69.5 -167.5t-167.5 -69.5h-37v-211h-68v685h105q98 0 167.5 -69.5t69.5 -167.5zM374 448q0 70 -49.5 119.5t-119.5 49.5h-37v-338h37q70 0 119.5 49.5t49.5 119.5z" />
<glyph unicode="Q" horiz-adv-x="808" d="M770 24l-47 -48l-92 91q-98 -81 -227 -81q-148 0 -252.5 104t-104.5 252t104.5 252.5t252.5 104.5t252.5 -104.5t104.5 -252.5q0 -127 -82 -227zM690 342q0 119 -84 203t-202 84t-202 -84t-84 -203q0 -118 84 -202t202 -84t202 84t84 202z" />
<glyph unicode="R" horiz-adv-x="507" d="M442 448q0 -83 -51.5 -148t-132.5 -83l189 -217h-91l-188 214v-214h-68v685h105q98 0 167.5 -69.5t69.5 -167.5zM374 448q0 70 -49.5 119.5t-119.5 49.5h-37v-338h37q70 0 119.5 49.5t49.5 119.5z" />
<glyph unicode="S" horiz-adv-x="329" d="M279 194q0 -90 -56.5 -146.5t-146.5 -56.5q-18 0 -26 3v70q10 -5 26 -5q60 0 98 37.5t38 97.5q0 32 -14.5 61.5t-35.5 54.5t-42 51t-35.5 62t-14.5 77q0 86 56.5 140t139.5 54h5v-66h-5q-54 0 -91.5 -35.5t-37.5 -92.5q0 -37 22 -74t49 -65t49 -72.5t22 -94.5z" />
<glyph unicode="T" horiz-adv-x="399" d="M382 617h-149v-617h-68v617h-148v68h365v-68z" />
<glyph unicode="U" horiz-adv-x="563" d="M463 172q0 -75 -53.5 -128t-128.5 -53t-128 53t-53 128v513h68v-513q0 -47 33 -80.5t80 -33.5t80.5 33.5t33.5 80.5v513h68v-513z" />
<glyph unicode="V" horiz-adv-x="545" d="M272 162l198 523h73l-271 -706l-271 706h73z" />
<glyph unicode="W" horiz-adv-x="777" d="M776 685l-229 -706l-158 488l-158 -488l-230 706h72l158 -492l156 492h4l156 -492l158 492h71z" />
<glyph unicode="X" horiz-adv-x="519" d="M509 0h-79l-170 282l-171 -282h-79l210 347l-204 338h79l165 -272l164 272h79l-204 -338z" />
<glyph unicode="Y" horiz-adv-x="532" d="M530 685l-230 -383v-302h-68v302l-231 383h79l186 -307l185 307h79z" />
<glyph unicode="Z" horiz-adv-x="464" d="M421 0h-396l305 617h-296v68h405l-305 -617h287v-68z" />
<glyph unicode="[" horiz-adv-x="326" d="M302 -55h-202v795h202v-62h-140v-671h140v-62z" />
<glyph unicode="\" horiz-adv-x="425" d="M356 -69l-344 798l57 24l344 -797z" />
<glyph unicode="]" horiz-adv-x="326" d="M226 -55h-202v62h140v671h-140v62h202v-795z" />
<glyph unicode="^" horiz-adv-x="321" d="M68 519l-44 43l136 137l137 -137l-44 -43l-93 92z" />
<glyph unicode="_" horiz-adv-x="553" d="M533 -103h-513v58h513v-58z" />
<glyph unicode="`" horiz-adv-x="228" d="M204 529l-44 -43l-136 136l44 44z" />
<glyph unicode="a" horiz-adv-x="525" d="M395 0v32q-54 -46 -129 -46q-92 0 -159 68.5t-67 164.5t67 164.5t159 68.5q75 0 129 -46v32h65v-438h-65zM395 105v229q-53 53 -122 53t-118.5 -49.5t-49.5 -118.5t49.5 -118t118.5 -49q71 0 122 53z" />
<glyph unicode="b" horiz-adv-x="525" d="M130 685v-279q54 46 129 46q92 0 159 -68.5t67 -164.5t-67 -164.5t-159 -68.5q-75 0 -129 46v-32h-65v685h65zM252 387q-69 0 -122 -53v-229q51 -53 122 -53q69 0 118.5 49t49.5 118t-49.5 118.5t-118.5 49.5z" />
<glyph unicode="c" horiz-adv-x="468" d="M391 100l46 -46q-68 -68 -164 -68q-97 0 -165 68t-68 165q0 96 68 164.5t165 68.5q94 0 165 -69l-47 -45q-52 49 -118 49q-69 0 -118.5 -49.5t-49.5 -118.5t49.5 -118.5t118.5 -49.5q67 0 118 49z" />
<glyph unicode="d" horiz-adv-x="525" d="M395 0v32q-54 -46 -129 -46q-92 0 -159 68.5t-67 164.5t67 164.5t159 68.5q75 0 129 -46v279h65v-685h-65zM395 105v229q-53 53 -122 53t-118.5 -49.5t-49.5 -118.5t49.5 -118t118.5 -49q71 0 122 53z" />
<glyph unicode="e" d="M391 100l46 -46q-68 -68 -164 -68q-97 0 -165 68t-68 165q0 96 68 164.5t165 68.5q95 0 162.5 -66t70.5 -167q0 -18 -1 -28h-398q10 -60 57 -100t109 -40q67 0 118 49zM273 387q-62 0 -109 -40.5t-57 -100.5h332q-10 60 -57 100.5t-109 40.5z" />
<glyph unicode="f" horiz-adv-x="230" d="M220 438v-66h-78v-372h-66v372h-66v66h66v123q0 57 33.5 93t87.5 36q13 0 23 -5v-64q-6 2 -16 2q-27 0 -44.5 -17.5t-17.5 -44.5v-123h78z" />
<glyph unicode="g" horiz-adv-x="525" d="M460 438v-424q0 -98 -60.5 -155.5t-147.5 -57.5q-25 0 -38 4v65q18 -3 34 -3q64 0 105.5 40t41.5 107v18q-54 -46 -129 -46q-92 0 -159 68.5t-67 164.5t67 164.5t159 68.5q75 0 129 -46v32h65zM395 105v229q-53 53 -122 53t-118.5 -49.5t-49.5 -118.5t49.5 -118 t118.5 -49q71 0 122 53z" />
<glyph unicode="h" horiz-adv-x="431" d="M130 685v-283q39 50 106 50q56 0 93 -39.5t37 -106.5v-306h-65v298q0 42 -22.5 65.5t-58.5 23.5q-29 0 -54 -15.5t-36 -39.5v-332h-65v685h65z" />
<glyph unicode="i" horiz-adv-x="196" d="M130 0h-65v438h65v-438zM130 516h-65v100h65v-100z" />
<glyph unicode="j" horiz-adv-x="195" d="M130 438v-507q0 -58 -32.5 -94t-86.5 -36q-13 0 -23 5v64q12 -2 16 -2q27 0 44 17.5t17 45.5v507h65zM130 516h-65v100h65v-100z" />
<glyph unicode="k" horiz-adv-x="371" d="M356 0h-83l-129 175l-14 -19v-156h-65v685h65v-424l129 177h84l-157 -209z" />
<glyph unicode="l" horiz-adv-x="195" d="M130 0h-65v685h65v-685z" />
<glyph unicode="m" horiz-adv-x="667" d="M301 298q0 42 -22.5 65.5t-58.5 23.5q-29 0 -54 -15.5t-36 -39.5v-332h-65v438h65v-36q39 50 106 50q72 0 109 -62q20 28 53.5 45t70.5 17q58 0 95.5 -39.5t37.5 -106.5v-306h-65v298q0 42 -22.5 65.5t-58.5 23.5q-30 0 -55.5 -16t-36.5 -41q2 -16 2 -24v-306h-65v298z " />
<glyph unicode="n" horiz-adv-x="431" d="M130 438v-36q39 50 106 50q56 0 93 -39.5t37 -106.5v-306h-65v298q0 42 -22.5 65.5t-58.5 23.5q-29 0 -54 -15.5t-36 -39.5v-332h-65v438h65z" />
<glyph unicode="o" d="M273 -14q-97 0 -165 68t-68 165q0 96 68 164.5t165 68.5t165 -68t68 -165t-68 -165t-165 -68zM105 219q0 -69 49.5 -118.5t118.5 -49.5t118.5 49.5t49.5 118.5t-49.5 118.5t-118.5 49.5t-118.5 -49.5t-49.5 -118.5z" />
<glyph unicode="p" horiz-adv-x="525" d="M130 438v-32q54 46 129 46q92 0 159 -68.5t67 -164.5t-67 -164.5t-159 -68.5q-75 0 -129 46v-217h-65v623h65zM252 387q-69 0 -122 -53v-229q51 -53 122 -53q69 0 118.5 49t49.5 118t-49.5 118.5t-118.5 49.5z" />
<glyph unicode="q" horiz-adv-x="525" d="M395 -186v218q-54 -46 -129 -46q-92 0 -159 68.5t-67 164.5t67 164.5t159 68.5q75 0 129 -46v33h65v-625h-65zM395 105v229q-53 53 -122 53t-118.5 -49.5t-49.5 -118.5t49.5 -118t118.5 -49q71 0 122 53z" />
<glyph unicode="r" horiz-adv-x="246" d="M236 452v-65h-3q-31 0 -60.5 -18.5t-42.5 -46.5v-322h-65v438h65v-37q36 51 106 51z" />
<glyph unicode="s" horiz-adv-x="239" d="M199 119q0 -57 -39.5 -95t-99.5 -38q-15 0 -20 2v66q6 -3 20 -3q32 0 51.5 20t19.5 51q0 28 -21.5 59t-43.5 67t-22 78q0 54 38 90t96 36h3v-65h-3q-27 0 -46 -18.5t-19 -48.5q0 -29 21.5 -58.5t43 -64.5t21.5 -78z" />
<glyph unicode="t" horiz-adv-x="240" d="M225 438v-65h-78v-373h-66v373h-66v65h66v147l66 33v-180h78z" />
<glyph unicode="u" horiz-adv-x="431" d="M301 0v36q-37 -50 -106 -50q-56 0 -93 39.5t-37 106.5v306h65v-298q0 -42 22.5 -65.5t58.5 -23.5q29 0 53.5 15t36.5 39v333h65v-438h-65z" />
<glyph unicode="v" horiz-adv-x="366" d="M366 438l-183 -459l-183 459h71l112 -291l112 291h71z" />
<glyph unicode="w" horiz-adv-x="573" d="M287 440l101 -294l114 292h71l-184 -459l-103 295l-103 -295l-183 459h71l113 -292l101 294h2z" />
<glyph unicode="x" horiz-adv-x="375" d="M360 0h-75l-97 165l-98 -165h-75l134 224l-129 214h76l92 -154l91 154h76l-130 -214z" />
<glyph unicode="y" horiz-adv-x="373" d="M153 56l-153 382h71l116 -298l115 298h71l-248 -623h-71z" />
<glyph unicode="z" horiz-adv-x="356" d="M327 0h-300l195 373h-186v65h293l-196 -373h194v-65z" />
<glyph unicode="{" horiz-adv-x="328" d="M299 -59q-68 0 -117 50.5t-49 120.5v90q0 45 -31 77t-73 32h-5v63h5q42 0 73 31.5t31 76.5v90q0 71 49 121.5t117 50.5h5v-63h-5q-42 0 -73 -32t-31 -77v-90q0 -45 -23 -82t-64 -58q41 -20 64 -57t23 -83v-90q0 -45 31 -77t73 -32h5v-62h-5z" />
<glyph unicode="|" horiz-adv-x="262" d="M162 -55h-62v795h62v-795z" />
<glyph unicode="}" horiz-adv-x="328" d="M29 -59h-5v63h5q42 0 73 32t31 77v90q0 45 23 82t64 58q-41 20 -64 57t-23 83v90q0 45 -31 77t-73 32h-5v62h5q68 0 117 -50.5t49 -120.5v-90q0 -45 31 -77t73 -32h5v-63h-5q-42 0 -73 -31.5t-31 -76.5v-90q0 -71 -49 -121.5t-117 -50.5z" />
<glyph unicode="~" horiz-adv-x="370" d="M346 389q0 -46 -30 -73.5t-74 -27.5q-31 0 -65 23t-49 23q-18 0 -30 -12t-12 -29h-62v4q0 45 30 72t74 27q30 0 64 -23t50 -23q18 0 30 12.5t12 29.5h62v-3z" />
<glyph unicode="&#xa1;" horiz-adv-x="252" d="M92 -48l32 318h4l32 -318v-138h-68v138zM75 439h102v-104h-102v104z" />
<glyph unicode="&#xa2;" horiz-adv-x="535" d="M278 0l7 73q-102 13 -170 90t-68 179q0 103 68 180t170 90l-7 73h76l-6 -73q94 -9 163 -78l-48 -47q-60 60 -144 60q-85 0 -144.5 -60t-59.5 -145q0 -84 59.5 -144t144.5 -60q84 0 144 60l48 -48q-69 -68 -162 -77l5 -73h-76z" />
<glyph unicode="&#xa3;" horiz-adv-x="456" d="M396 308h-102q34 -57 34 -114q0 -88 -62 -126h130v-68h-336v68h64q60 0 98.5 33.5t38.5 92.5q0 49 -50 114h-151v68h98q-40 57 -40 124q0 87 56.5 140.5t140.5 53.5h5v-66h-5q-55 0 -92 -35t-37 -93q0 -52 57 -124h153v-68z" />
<glyph unicode="&#xa4;" d="M506 148l-39 -39l-50 50q-65 -50 -144 -50q-81 0 -144 50l-50 -50l-39 39l50 50q-50 63 -50 144q0 79 50 144l-50 51l39 39l50 -51q65 50 144 50q80 0 143 -50l51 51l39 -39l-50 -51q50 -63 50 -144t-50 -144zM105 342q0 -69 49.5 -118.5t118.5 -49.5t118.5 49.5 t49.5 118.5t-49.5 118.5t-118.5 49.5t-118.5 -49.5t-49.5 -118.5z" />
<glyph unicode="&#xa5;" horiz-adv-x="529" d="M29 308v68h163l-192 309h79l186 -307l185 307h79l-192 -309h163v-68h-202v-103h202v-68h-202v-137h-67v137h-202v68h202v103h-202z" />
<glyph unicode="&#xa6;" horiz-adv-x="262" d="M162 445h-62v295h62v-295zM162 -55h-62v295h62v-295z" />
<glyph unicode="&#xa7;" horiz-adv-x="386" d="M47 375q0 48 27 89.5t74 62.5q-21 42 -21 87q0 68 50 121h76q-66 -48 -66 -120q0 -35 15.5 -65t38 -54.5t45 -49.5t38 -60.5t15.5 -77.5q0 -48 -26.5 -88t-74.5 -62q21 -42 21 -84q0 -72 -51 -126h-77q68 48 68 122q0 34 -15.5 64.5t-38 55t-45 50t-38 60.5t-15.5 75z M98 371q0 -37 16.5 -65.5t49 -60t43.5 -46.5q37 14 59 44.5t22 70.5q0 36 -16.5 64t-49 60.5t-43.5 47.5q-36 -13 -58.5 -44t-22.5 -71z" />
<glyph unicode="&#xa8;" horiz-adv-x="291" d="M24 566q0 19 13 32t31 13q19 0 31.5 -13t12.5 -32q0 -18 -12.5 -31t-31.5 -13q-18 0 -31 13t-13 31zM179 566q0 19 13 32t31 13t31 -13t13 -32q0 -18 -13 -31t-31 -13t-31 13t-13 31z" />
<glyph unicode="&#xa9;" horiz-adv-x="807" d="M760 342q0 -148 -104 -252t-252 -104t-252.5 104t-104.5 252t104.5 252.5t252.5 104.5t252 -104.5t104 -252.5zM92 342q0 -129 91 -220.5t221 -91.5q129 0 220.5 91.5t91.5 220.5q0 130 -91.5 221t-220.5 91q-130 0 -221 -91t-91 -221zM518 228l47 -47q-67 -67 -161 -67 t-161 67t-67 161t67 161t161 67q95 0 161 -66l-47 -47q-47 47 -114 47q-68 0 -115.5 -47.5t-47.5 -114.5t48 -114.5t115 -47.5q68 0 114 48z" />
<glyph unicode="&#xaa;" horiz-adv-x="461" d="M396 685v-369h-58v26q-44 -38 -107 -38q-78 0 -134.5 58t-56.5 139t56.5 138.5t134.5 57.5q62 0 107 -37v25h58zM237 363q59 0 101 45v187q-42 44 -101 44q-58 0 -98 -40t-40 -98t40 -98t98 -40zM396 103h-329v65h329v-65z" />
<glyph unicode="&#xab;" horiz-adv-x="447" d="M423 10h-71l-129 209l129 209h71l-129 -209zM223 10h-70l-129 209l129 209h70l-128 -209z" />
<glyph unicode="&#xad;" horiz-adv-x="330" d="M310 190h-290v58h290v-58z" />
<glyph unicode="&#xae;" horiz-adv-x="447" d="M407 518q0 -76 -53.5 -130t-129.5 -54t-130 54t-54 130t54 129.5t130 53.5t129.5 -53.5t53.5 -129.5zM292 547q0 -47 -41 -68l55 -63h-55l-47 54v-54h-42v209h53q32 0 54.5 -23t22.5 -55zM251 547q0 15 -10.5 25.5t-25.5 10.5h-11v-72h11q15 0 25.5 11t10.5 25zM73 518 q0 -62 44.5 -106.5t106.5 -44.5t106.5 44.5t44.5 106.5t-44.5 106.5t-106.5 44.5t-106.5 -44.5t-44.5 -106.5z" />
<glyph unicode="&#xaf;" horiz-adv-x="369" d="M345 597v-62h-321v62h321z" />
<glyph unicode="&#xb0;" horiz-adv-x="288" d="M263 580q0 -50 -34.5 -84.5t-84.5 -34.5q-49 0 -84 35t-35 84t35 84t84 35q50 0 84.5 -34.5t34.5 -84.5zM214 580q0 29 -20.5 49t-49.5 20q-28 0 -48.5 -20.5t-20.5 -48.5t20.5 -48.5t48.5 -20.5q29 0 49.5 20t20.5 49z" />
<glyph unicode="&#xb4;" horiz-adv-x="228" d="M68 486l-44 43l136 137l44 -44z" />
<glyph unicode="&#xb6;" horiz-adv-x="443" d="M343 -55h-31v709h-85v-709h-30v442q-62 0 -106 43.5t-44 105.5t44 105.5t106 43.5h146v-740z" />
<glyph unicode="&#xb7;" horiz-adv-x="252" d="M177 168h-102v103h102v-103z" />
<glyph unicode="&#xb8;" horiz-adv-x="150" d="M74 -200l-44 44q23 21 23 56t-23 56l44 44q41 -41 41 -100t-41 -100z" />
<glyph unicode="&#xba;" horiz-adv-x="476" d="M40 500q0 82 58 140t140 58t140 -58t58 -140q0 -81 -58 -139.5t-140 -58.5t-140 58.5t-58 139.5zM423 168v-65h-369v65h369zM238 360q58 0 99.5 41t41.5 99q0 59 -41 100t-100 41t-99.5 -41t-40.5 -100q0 -58 41 -99t99 -41z" />
<glyph unicode="&#xbb;" horiz-adv-x="447" d="M95 10h-71l129 209l-129 209h71l128 -209zM294 10h-71l129 209l-129 209h71l129 -209z" />
<glyph unicode="&#xbf;" horiz-adv-x="357" d="M180 439h102v-104h-102v104zM282 199q-70 0 -119 -49t-49 -118q0 -70 49 -119t119 -49v-64q-96 0 -164 68t-68 164t68 164t164 68v-65z" />
<glyph unicode="&#xc0;" d="M471 0l-37 99h-322l-37 -99h-73l271 706l271 -706h-73zM273 523l-139 -368h278zM363 752l-44 -43l-136 136l44 44z" />
<glyph unicode="&#xc1;" d="M471 0l-37 99h-322l-37 -99h-73l271 706l271 -706h-73zM273 523l-139 -368h278zM227 709l-44 43l136 137l44 -44z" />
<glyph unicode="&#xc2;" d="M471 0l-37 99h-322l-37 -99h-73l271 706l271 -706h-73zM273 523l-139 -368h278zM181 709l-44 43l136 137l137 -137l-44 -43l-93 92z" />
<glyph unicode="&#xc3;" d="M471 0l-37 99h-322l-37 -99h-73l271 706l271 -706h-73zM273 523l-139 -368h278zM434 839q0 -46 -30 -73.5t-74 -27.5q-31 0 -65 23t-49 23q-18 0 -30 -12t-12 -29h-62v4q0 45 30 72t74 27q30 0 64 -23t50 -23q18 0 30 12.5t12 29.5h62v-3z" />
<glyph unicode="&#xc4;" d="M471 0l-37 99h-322l-37 -99h-73l271 706l271 -706h-73zM273 523l-139 -368h278zM152 792q0 19 13 32t31 13q19 0 31.5 -13t12.5 -32q0 -18 -12.5 -31t-31.5 -13q-18 0 -31 13t-13 31zM307 792q0 19 13 32t31 13t31 -13t13 -32q0 -18 -13 -31t-31 -13t-31 13t-13 31z" />
<glyph unicode="&#xc5;" d="M471 0l-37 99h-322l-37 -99h-73l271 706l271 -706h-73zM273 523l-139 -368h278zM372 808q0 -41 -29 -70t-70 -29t-70 29t-29 70t29 70t70 29t70 -29t29 -70zM331 808q0 24 -17 41t-41 17t-41 -17t-17 -41t17 -41t41 -17t41 17t17 41z" />
<glyph unicode="&#xc6;" horiz-adv-x="816" d="M82 0h-82l458 685h298v-68h-229v-240h229v-68h-229v-241h229v-68h-297v99h-312zM185 155h274v413z" />
<glyph unicode="&#xc7;" horiz-adv-x="676" d="M404 -200l-44 44q23 21 23 56t-23 56l30 31q-144 5 -243.5 108t-99.5 247q0 148 104.5 252.5t252.5 104.5q149 0 252 -105l-49 -49q-84 84 -203 84q-118 0 -202 -84t-84 -203q0 -118 84 -202t202 -84q119 0 203 84l49 -50q-100 -100 -240 -104q29 -37 29 -86 q0 -59 -41 -100z" />
<glyph unicode="&#xc8;" horiz-adv-x="457" d="M397 0h-297v685h297v-68h-229v-240h229v-68h-229v-241h229v-68zM338 752l-44 -43l-136 136l44 44z" />
<glyph unicode="&#xc9;" horiz-adv-x="457" d="M397 0h-297v685h297v-68h-229v-240h229v-68h-229v-241h229v-68zM202 709l-44 43l136 137l44 -44z" />
<glyph unicode="&#xca;" horiz-adv-x="457" d="M397 0h-297v685h297v-68h-229v-240h229v-68h-229v-241h229v-68zM156 709l-44 43l136 137l137 -137l-44 -43l-93 92z" />
<glyph unicode="&#xcb;" horiz-adv-x="457" d="M397 0h-297v685h297v-68h-229v-240h229v-68h-229v-241h229v-68zM127 792q0 19 13 32t31 13q19 0 31.5 -13t12.5 -32q0 -18 -12.5 -31t-31.5 -13q-18 0 -31 13t-13 31zM282 792q0 19 13 32t31 13t31 -13t13 -32q0 -18 -13 -31t-31 -13t-31 13t-13 31z" />
<glyph unicode="&#xcc;" horiz-adv-x="268" d="M168 0h-68v685h68v-685zM224 752l-44 -43l-136 136l44 44z" />
<glyph unicode="&#xcd;" horiz-adv-x="268" d="M168 0h-68v685h68v-685zM88 709l-44 43l136 137l44 -44z" />
<glyph unicode="&#xce;" horiz-adv-x="268" d="M168 0h-68v685h68v-685zM42 709l-44 43l136 137l137 -137l-44 -43l-93 92z" />
<glyph unicode="&#xcf;" horiz-adv-x="268" d="M168 0h-68v685h68v-685zM13 792q0 19 13 32t31 13q19 0 31.5 -13t12.5 -32q0 -18 -12.5 -31t-31.5 -13q-18 0 -31 13t-13 31zM168 792q0 19 13 32t31 13t31 -13t13 -32q0 -18 -13 -31t-31 -13t-31 13t-13 31z" />
<glyph unicode="&#xd0;" horiz-adv-x="596" d="M25 313v61h75v311h106q142 0 242 -100.5t100 -242.5t-100 -242t-242 -100h-106v313h-75zM480 342q0 114 -80.5 194.5t-193.5 80.5h-38v-243h154v-61h-154v-245h38q113 0 193.5 80.5t80.5 193.5z" />
<glyph unicode="&#xd1;" horiz-adv-x="558" d="M458 -19l-290 481v-462h-68v704l290 -483v464h68v-704zM440 839q0 -46 -30 -73.5t-74 -27.5q-31 0 -65 23t-49 23q-18 0 -30 -12t-12 -29h-62v4q0 45 30 72t74 27q30 0 64 -23t50 -23q18 0 30 12.5t12 29.5h62v-3z" />
<glyph unicode="&#xd2;" horiz-adv-x="808" d="M761 342q0 -148 -104.5 -252t-252.5 -104t-252.5 104t-104.5 252t104.5 252.5t252.5 104.5t252.5 -104.5t104.5 -252.5zM118 342q0 -118 84 -202t202 -84t202 84t84 202q0 119 -84 203t-202 84t-202 -84t-84 -203zM494 752l-44 -43l-136 136l44 44z" />
<glyph unicode="&#xd3;" horiz-adv-x="808" d="M761 342q0 -148 -104.5 -252t-252.5 -104t-252.5 104t-104.5 252t104.5 252.5t252.5 104.5t252.5 -104.5t104.5 -252.5zM118 342q0 -118 84 -202t202 -84t202 84t84 202q0 119 -84 203t-202 84t-202 -84t-84 -203zM358 709l-44 43l136 137l44 -44z" />
<glyph unicode="&#xd4;" horiz-adv-x="808" d="M761 342q0 -148 -104.5 -252t-252.5 -104t-252.5 104t-104.5 252t104.5 252.5t252.5 104.5t252.5 -104.5t104.5 -252.5zM118 342q0 -118 84 -202t202 -84t202 84t84 202q0 119 -84 203t-202 84t-202 -84t-84 -203zM312 709l-44 43l136 137l137 -137l-44 -43l-93 92z" />
<glyph unicode="&#xd5;" horiz-adv-x="808" d="M761 342q0 -148 -104.5 -252t-252.5 -104t-252.5 104t-104.5 252t104.5 252.5t252.5 104.5t252.5 -104.5t104.5 -252.5zM118 342q0 -118 84 -202t202 -84t202 84t84 202q0 119 -84 203t-202 84t-202 -84t-84 -203zM565 839q0 -46 -30 -73.5t-74 -27.5q-31 0 -65 23 t-49 23q-18 0 -30 -12t-12 -29h-62v4q0 45 30 72t74 27q30 0 64 -23t50 -23q18 0 30 12.5t12 29.5h62v-3z" />
<glyph unicode="&#xd6;" horiz-adv-x="808" d="M761 342q0 -148 -104.5 -252t-252.5 -104t-252.5 104t-104.5 252t104.5 252.5t252.5 104.5t252.5 -104.5t104.5 -252.5zM118 342q0 -118 84 -202t202 -84t202 84t84 202q0 119 -84 203t-202 84t-202 -84t-84 -203zM283 792q0 19 13 32t31 13q19 0 31.5 -13t12.5 -32 q0 -18 -12.5 -31t-31.5 -13q-18 0 -31 13t-13 31zM438 792q0 19 13 32t31 13t31 -13t13 -32q0 -18 -13 -31t-31 -13t-31 13t-13 31z" />
<glyph unicode="&#xd7;" horiz-adv-x="527" d="M423 546l44 -44l-160 -160l160 -159l-44 -44l-159 160l-160 -160l-44 44l160 159l-160 160l44 44l160 -160z" />
<glyph unicode="&#xd8;" horiz-adv-x="808" d="M761 342q0 -148 -104.5 -252t-252.5 -104q-129 0 -227 81l-62 -62l-48 48l62 62q-82 100 -82 227q0 148 104.5 252.5t252.5 104.5q127 0 227 -82l62 63l48 -48l-62 -62q82 -100 82 -228zM118 342q0 -98 61 -177l402 402q-78 62 -177 62q-118 0 -202 -84t-84 -203z M690 342q0 99 -62 177l-401 -402q79 -61 177 -61q118 0 202 84t84 202z" />
<glyph unicode="&#xd9;" horiz-adv-x="563" d="M463 172q0 -75 -53.5 -128t-128.5 -53t-128 53t-53 128v513h68v-513q0 -47 33 -80.5t80 -33.5t80.5 33.5t33.5 80.5v513h68v-513zM371 752l-44 -43l-136 136l44 44z" />
<glyph unicode="&#xda;" horiz-adv-x="563" d="M463 172q0 -75 -53.5 -128t-128.5 -53t-128 53t-53 128v513h68v-513q0 -47 33 -80.5t80 -33.5t80.5 33.5t33.5 80.5v513h68v-513zM235 709l-44 43l136 137l44 -44z" />
<glyph unicode="&#xdb;" horiz-adv-x="563" d="M463 172q0 -75 -53.5 -128t-128.5 -53t-128 53t-53 128v513h68v-513q0 -47 33 -80.5t80 -33.5t80.5 33.5t33.5 80.5v513h68v-513zM189 709l-44 43l136 137l137 -137l-44 -43l-93 92z" />
<glyph unicode="&#xdc;" horiz-adv-x="563" d="M463 172q0 -75 -53.5 -128t-128.5 -53t-128 53t-53 128v513h68v-513q0 -47 33 -80.5t80 -33.5t80.5 33.5t33.5 80.5v513h68v-513zM160 792q0 19 13 32t31 13q19 0 31.5 -13t12.5 -32q0 -18 -12.5 -31t-31.5 -13q-18 0 -31 13t-13 31zM315 792q0 19 13 32t31 13t31 -13 t13 -32q0 -18 -13 -31t-31 -13t-31 13t-13 31z" />
<glyph unicode="&#xdd;" horiz-adv-x="532" d="M530 685l-230 -383v-302h-68v302l-231 383h79l186 -307l185 307h79zM220 712l-44 43l136 137l44 -44z" />
<glyph unicode="&#xde;" horiz-adv-x="492" d="M442 344q0 -98 -69 -166.5t-168 -69.5h-37v-108h-68v685h68v-104h37q98 0 167.5 -69.5t69.5 -167.5zM374 344q0 70 -49.5 119.5t-119.5 49.5h-37v-337h37q70 0 119.5 49t49.5 119z" />
<glyph unicode="&#xdf;" horiz-adv-x="470" d="M229 412l86 203q-22 5 -40 5q-61 0 -102.5 -40.5t-41.5 -104.5v-475h-66v475q0 94 61 152t149 58q66 0 119 -34l-87 -199q58 -35 90.5 -91.5t32.5 -123.5q0 -104 -72.5 -177.5t-173.5 -73.5h-5v64h5q74 0 127.5 54.5t53.5 131.5q0 66 -37 112.5t-88 60.5z" />
<glyph unicode="&#xe0;" horiz-adv-x="525" d="M395 0v32q-54 -46 -129 -46q-92 0 -159 68.5t-67 164.5t67 164.5t159 68.5q75 0 129 -46v32h65v-438h-65zM395 105v229q-53 53 -122 53t-118.5 -49.5t-49.5 -118.5t49.5 -118t118.5 -49q71 0 122 53zM363 529l-44 -43l-136 136l44 44z" />
<glyph unicode="&#xe1;" horiz-adv-x="525" d="M395 0v32q-54 -46 -129 -46q-92 0 -159 68.5t-67 164.5t67 164.5t159 68.5q75 0 129 -46v32h65v-438h-65zM395 105v229q-53 53 -122 53t-118.5 -49.5t-49.5 -118.5t49.5 -118t118.5 -49q71 0 122 53zM227 486l-44 43l136 137l44 -44z" />
<glyph unicode="&#xe2;" horiz-adv-x="525" d="M395 0v32q-54 -46 -129 -46q-92 0 -159 68.5t-67 164.5t67 164.5t159 68.5q75 0 129 -46v32h65v-438h-65zM395 105v229q-53 53 -122 53t-118.5 -49.5t-49.5 -118.5t49.5 -118t118.5 -49q71 0 122 53zM181 487l-44 43l136 137l137 -137l-44 -43l-93 92z" />
<glyph unicode="&#xe3;" horiz-adv-x="525" d="M395 0v32q-54 -46 -129 -46q-92 0 -159 68.5t-67 164.5t67 164.5t159 68.5q75 0 129 -46v32h65v-438h-65zM395 105v229q-53 53 -122 53t-118.5 -49.5t-49.5 -118.5t49.5 -118t118.5 -49q71 0 122 53zM434 613q0 -46 -30 -73.5t-74 -27.5q-31 0 -65 23t-49 23 q-18 0 -30 -12t-12 -29h-62v4q0 45 30 72t74 27q30 0 64 -23t50 -23q18 0 30 12.5t12 29.5h62v-3z" />
<glyph unicode="&#xe4;" horiz-adv-x="525" d="M395 0v32q-54 -46 -129 -46q-92 0 -159 68.5t-67 164.5t67 164.5t159 68.5q75 0 129 -46v32h65v-438h-65zM395 105v229q-53 53 -122 53t-118.5 -49.5t-49.5 -118.5t49.5 -118t118.5 -49q71 0 122 53zM152 566q0 19 13 32t31 13q19 0 31.5 -13t12.5 -32q0 -18 -12.5 -31 t-31.5 -13q-18 0 -31 13t-13 31zM307 566q0 19 13 32t31 13t31 -13t13 -32q0 -18 -13 -31t-31 -13t-31 13t-13 31z" />
<glyph unicode="&#xe5;" horiz-adv-x="525" d="M395 0v32q-54 -46 -129 -46q-92 0 -159 68.5t-67 164.5t67 164.5t159 68.5q75 0 129 -46v32h65v-438h-65zM395 105v229q-53 53 -122 53t-118.5 -49.5t-49.5 -118.5t49.5 -118t118.5 -49q71 0 122 53zM372 567q0 -41 -29 -70t-70 -29t-70 29t-29 70t29 70t70 29t70 -29 t29 -70zM331 567q0 24 -17 41t-41 17t-41 -17t-17 -41t17 -41t41 -17t41 17t17 41z" />
<glyph unicode="&#xe6;" horiz-adv-x="855" d="M266 -14q-92 0 -159 68.5t-67 164.5t67 164.5t159 68.5q75 0 129 -46v32h65v-32q54 46 129 46q90 0 156.5 -66.5t69.5 -166.5q0 -18 -1 -28h-354v-87q48 -53 122 -53q67 0 118 49l46 -46q-68 -68 -157 -68q-75 0 -129 46v-32h-65v32q-54 -46 -129 -46zM273 52 q71 0 122 53v229q-53 53 -122 53t-118.5 -49.5t-49.5 -118.5t49.5 -118t118.5 -49zM582 387q-72 0 -122 -53v-88h288q-10 60 -57 100.5t-109 40.5z" />
<glyph unicode="&#xe7;" horiz-adv-x="468" d="M273 -200l-44 44q23 21 23 56t-23 56l30 31q-92 5 -155.5 72t-63.5 160q0 96 68 164.5t165 68.5q94 0 165 -69l-47 -45q-52 49 -118 49q-69 0 -118.5 -49.5t-49.5 -118.5t49.5 -118.5t118.5 -49.5q67 0 118 49l46 -46q-62 -62 -152 -67q29 -39 29 -87q0 -59 -41 -100z " />
<glyph unicode="&#xe8;" d="M391 100l46 -46q-68 -68 -164 -68q-97 0 -165 68t-68 165q0 96 68 164.5t165 68.5q95 0 162.5 -66t70.5 -167q0 -18 -1 -28h-398q10 -60 57 -100t109 -40q67 0 118 49zM273 387q-62 0 -109 -40.5t-57 -100.5h332q-10 60 -57 100.5t-109 40.5zM363 529l-44 -43l-136 136 l44 44z" />
<glyph unicode="&#xe9;" d="M391 100l46 -46q-68 -68 -164 -68q-97 0 -165 68t-68 165q0 96 68 164.5t165 68.5q95 0 162.5 -66t70.5 -167q0 -18 -1 -28h-398q10 -60 57 -100t109 -40q67 0 118 49zM273 387q-62 0 -109 -40.5t-57 -100.5h332q-10 60 -57 100.5t-109 40.5zM227 486l-44 43l136 137 l44 -44z" />
<glyph unicode="&#xea;" d="M391 100l46 -46q-68 -68 -164 -68q-97 0 -165 68t-68 165q0 96 68 164.5t165 68.5q95 0 162.5 -66t70.5 -167q0 -18 -1 -28h-398q10 -60 57 -100t109 -40q67 0 118 49zM273 387q-62 0 -109 -40.5t-57 -100.5h332q-10 60 -57 100.5t-109 40.5zM181 487l-44 43l136 137 l137 -137l-44 -43l-93 92z" />
<glyph unicode="&#xeb;" d="M391 100l46 -46q-68 -68 -164 -68q-97 0 -165 68t-68 165q0 96 68 164.5t165 68.5q95 0 162.5 -66t70.5 -167q0 -18 -1 -28h-398q10 -60 57 -100t109 -40q67 0 118 49zM273 387q-62 0 -109 -40.5t-57 -100.5h332q-10 60 -57 100.5t-109 40.5zM152 566q0 19 13 32t31 13 q19 0 31.5 -13t12.5 -32q0 -18 -12.5 -31t-31.5 -13q-18 0 -31 13t-13 31zM307 566q0 19 13 32t31 13t31 -13t13 -32q0 -18 -13 -31t-31 -13t-31 13t-13 31z" />
<glyph unicode="&#xec;" horiz-adv-x="196" d="M130 0h-65v438h65v-438zM187 529l-44 -43l-136 136l44 44z" />
<glyph unicode="&#xed;" horiz-adv-x="196" d="M130 0h-65v438h65v-438zM51 486l-44 43l136 137l44 -44z" />
<glyph unicode="&#xee;" horiz-adv-x="196" d="M130 0h-65v438h65v-438zM5 487l-44 43l136 137l137 -137l-44 -43l-93 92z" />
<glyph unicode="&#xef;" horiz-adv-x="196" d="M130 0h-65v438h65v-438zM-24 566q0 19 13 32t31 13q19 0 31.5 -13t12.5 -32q0 -18 -12.5 -31t-31.5 -13q-18 0 -31 13t-13 31zM131 566q0 19 13 32t31 13t31 -13t13 -32q0 -18 -13 -31t-31 -13t-31 13t-13 31z" />
<glyph unicode="&#xf0;" horiz-adv-x="547" d="M489 660v-57l-110 -41l108 -248q20 -44 20 -95q0 -96 -68 -164.5t-165 -68.5t-165.5 68t-68.5 165q0 96 68.5 164.5t165.5 68.5q43 0 86 -17l-45 103l-131 -49v56l110 41l-42 99h74l32 -75zM276 50q71 0 122 50.5t51 121.5t-51 122t-122 51t-121.5 -51t-50.5 -122 t50.5 -121.5t121.5 -50.5z" />
<glyph unicode="&#xf1;" horiz-adv-x="431" d="M130 438v-36q39 50 106 50q56 0 93 -39.5t37 -106.5v-306h-65v298q0 42 -22.5 65.5t-58.5 23.5q-29 0 -54 -15.5t-36 -39.5v-332h-65v438h65zM376 613q0 -46 -30 -73.5t-74 -27.5q-31 0 -65 23t-49 23q-18 0 -30 -12t-12 -29h-62v4q0 45 30 72t74 27q30 0 64 -23t50 -23 q18 0 30 12.5t12 29.5h62v-3z" />
<glyph unicode="&#xf2;" d="M273 -14q-97 0 -165 68t-68 165q0 96 68 164.5t165 68.5t165 -68t68 -165t-68 -165t-165 -68zM105 219q0 -69 49.5 -118.5t118.5 -49.5t118.5 49.5t49.5 118.5t-49.5 118.5t-118.5 49.5t-118.5 -49.5t-49.5 -118.5zM363 529l-44 -43l-136 136l44 44z" />
<glyph unicode="&#xf3;" d="M273 -14q-97 0 -165 68t-68 165q0 96 68 164.5t165 68.5t165 -68t68 -165t-68 -165t-165 -68zM105 219q0 -69 49.5 -118.5t118.5 -49.5t118.5 49.5t49.5 118.5t-49.5 118.5t-118.5 49.5t-118.5 -49.5t-49.5 -118.5zM227 486l-44 43l136 137l44 -44z" />
<glyph unicode="&#xf4;" d="M273 -14q-97 0 -165 68t-68 165q0 96 68 164.5t165 68.5t165 -68t68 -165t-68 -165t-165 -68zM105 219q0 -69 49.5 -118.5t118.5 -49.5t118.5 49.5t49.5 118.5t-49.5 118.5t-118.5 49.5t-118.5 -49.5t-49.5 -118.5zM181 487l-44 43l136 137l137 -137l-44 -43l-93 92z" />
<glyph unicode="&#xf5;" d="M273 -14q-97 0 -165 68t-68 165q0 96 68 164.5t165 68.5t165 -68t68 -165t-68 -165t-165 -68zM105 219q0 -69 49.5 -118.5t118.5 -49.5t118.5 49.5t49.5 118.5t-49.5 118.5t-118.5 49.5t-118.5 -49.5t-49.5 -118.5zM434 613q0 -46 -30 -73.5t-74 -27.5q-31 0 -65 23 t-49 23q-18 0 -30 -12t-12 -29h-62v4q0 45 30 72t74 27q30 0 64 -23t50 -23q18 0 30 12.5t12 29.5h62v-3z" />
<glyph unicode="&#xf6;" d="M273 -14q-97 0 -165 68t-68 165q0 96 68 164.5t165 68.5t165 -68t68 -165t-68 -165t-165 -68zM105 219q0 -69 49.5 -118.5t118.5 -49.5t118.5 49.5t49.5 118.5t-49.5 118.5t-118.5 49.5t-118.5 -49.5t-49.5 -118.5zM152 566q0 19 13 32t31 13q19 0 31.5 -13t12.5 -32 q0 -18 -12.5 -31t-31.5 -13q-18 0 -31 13t-13 31zM307 566q0 19 13 32t31 13t31 -13t13 -32q0 -18 -13 -31t-31 -13t-31 13t-13 31z" />
<glyph unicode="&#xf8;" d="M79 -14l-39 39l50 50q-50 63 -50 144q0 96 68 164.5t165 68.5q80 0 143 -50l51 51l39 -39l-51 -51q51 -62 51 -144q0 -97 -68 -165t-165 -68q-81 0 -144 50zM273 51q69 0 118.5 49.5t49.5 118.5q0 53 -32 98l-234 -235q43 -31 98 -31zM105 219q0 -55 31 -98l234 234 q-45 32 -97 32q-69 0 -118.5 -49.5t-49.5 -118.5z" />
<glyph unicode="&#xf9;" horiz-adv-x="431" d="M301 0v36q-37 -50 -106 -50q-56 0 -93 39.5t-37 106.5v306h65v-298q0 -42 22.5 -65.5t58.5 -23.5q29 0 53.5 15t36.5 39v333h65v-438h-65zM305 530l-44 -43l-136 136l44 44z" />
<glyph unicode="&#xfa;" horiz-adv-x="431" d="M301 0v36q-37 -50 -106 -50q-56 0 -93 39.5t-37 106.5v306h65v-298q0 -42 22.5 -65.5t58.5 -23.5q29 0 53.5 15t36.5 39v333h65v-438h-65zM169 487l-44 43l136 137l44 -44z" />
<glyph unicode="&#xfb;" horiz-adv-x="431" d="M301 0v36q-37 -50 -106 -50q-56 0 -93 39.5t-37 106.5v306h65v-298q0 -42 22.5 -65.5t58.5 -23.5q29 0 53.5 15t36.5 39v333h65v-438h-65zM123 488l-44 43l136 137l137 -137l-44 -43l-93 92z" />
<glyph unicode="&#xfc;" horiz-adv-x="431" d="M301 0v36q-37 -50 -106 -50q-56 0 -93 39.5t-37 106.5v306h65v-298q0 -42 22.5 -65.5t58.5 -23.5q29 0 53.5 15t36.5 39v333h65v-438h-65zM94 567q0 19 13 32t31 13q19 0 31.5 -13t12.5 -32q0 -18 -12.5 -31t-31.5 -13q-18 0 -31 13t-13 31zM249 567q0 19 13 32t31 13 t31 -13t13 -32q0 -18 -13 -31t-31 -13t-31 13t-13 31z" />
<glyph unicode="&#xfd;" horiz-adv-x="373" d="M153 56l-153 382h71l116 -298l115 298h71l-248 -623h-71zM141 486l-44 43l136 137l44 -44z" />
<glyph unicode="&#xfe;" horiz-adv-x="525" d="M130 685v-279q54 46 129 46q92 0 159 -68.5t67 -164.5t-67 -164.5t-159 -68.5q-75 0 -129 46v-217h-65v870h65zM252 387q-69 0 -122 -53v-229q51 -53 122 -53q69 0 118.5 49t49.5 118t-49.5 118.5t-118.5 49.5z" />
<glyph unicode="&#xff;" horiz-adv-x="373" d="M153 56l-153 382h71l116 -298l115 298h71l-248 -623h-71zM66 566q0 19 13 32t31 13q19 0 31.5 -13t12.5 -32q0 -18 -12.5 -31t-31.5 -13q-18 0 -31 13t-13 31zM221 566q0 19 13 32t31 13t31 -13t13 -32q0 -18 -13 -31t-31 -13t-31 13t-13 31z" />
<glyph unicode="&#x152;" horiz-adv-x="1050" d="M990 0h-297v153q-45 -79 -121.5 -123t-167.5 -44q-148 0 -252.5 104.5t-104.5 251.5q0 148 104.5 252.5t252.5 104.5q92 0 168 -44.5t121 -123.5v154h297v-68h-229v-240h229v-68h-229v-241h229v-68zM118 342q0 -118 84 -202t202 -84t202 84t84 202q0 119 -84 203t-202 84 t-202 -84t-84 -203z" />
<glyph unicode="&#x153;" horiz-adv-x="848" d="M273 -14q-97 0 -165 68t-68 165q0 96 68 164.5t165 68.5q85 0 151 -56q66 56 151 56q95 0 162.5 -66t70.5 -167q0 -18 -1 -28h-303q-6 -56 -37 -101q47 -39 108 -39q67 0 118 49l46 -46q-68 -68 -164 -68q-88 0 -152 55q-65 -55 -150 -55zM105 219q0 -69 49.5 -118.5 t118.5 -49.5t118.5 49.5t49.5 118.5t-49.5 118.5t-118.5 49.5t-118.5 -49.5t-49.5 -118.5zM467 348q31 -46 37 -102h237q-10 60 -57 100.5t-109 40.5q-59 0 -108 -39z" />
<glyph unicode="&#x178;" horiz-adv-x="532" d="M530 685l-230 -383v-302h-68v302l-231 383h79l186 -307l185 307h79zM145 792q0 19 13 32t31 13q19 0 31.5 -13t12.5 -32q0 -18 -12.5 -31t-31.5 -13q-18 0 -31 13t-13 31zM300 792q0 19 13 32t31 13t31 -13t13 -32q0 -18 -13 -31t-31 -13t-31 13t-13 31z" />
<glyph unicode="&#x2c6;" horiz-adv-x="321" d="M68 487l-44 43l136 137l137 -137l-44 -43l-93 92z" />
<glyph unicode="&#x2dc;" horiz-adv-x="370" d="M346 613q0 -46 -30 -73.5t-74 -27.5q-31 0 -65 23t-49 23q-18 0 -30 -12t-12 -29h-62v4q0 45 30 72t74 27q30 0 64 -23t50 -23q18 0 30 12.5t12 29.5h62v-3z" />
<glyph unicode="&#x2000;" horiz-adv-x="453" />
<glyph unicode="&#x2001;" horiz-adv-x="907" />
<glyph unicode="&#x2002;" horiz-adv-x="453" />
<glyph unicode="&#x2003;" horiz-adv-x="907" />
<glyph unicode="&#x2004;" horiz-adv-x="302" />
<glyph unicode="&#x2005;" horiz-adv-x="226" />
<glyph unicode="&#x2006;" horiz-adv-x="151" />
<glyph unicode="&#x2007;" horiz-adv-x="151" />
<glyph unicode="&#x2008;" horiz-adv-x="113" />
<glyph unicode="&#x2009;" horiz-adv-x="181" />
<glyph unicode="&#x200a;" horiz-adv-x="50" />
<glyph unicode="&#x2010;" horiz-adv-x="330" d="M310 190h-290v58h290v-58z" />
<glyph unicode="&#x2011;" horiz-adv-x="330" d="M310 190h-290v58h290v-58z" />
<glyph unicode="&#x2012;" horiz-adv-x="330" d="M310 190h-290v58h290v-58z" />
<glyph unicode="&#x2013;" horiz-adv-x="475" d="M455 190h-435v58h435v-58z" />
<glyph unicode="&#x2014;" horiz-adv-x="620" d="M600 190h-580v58h580v-58z" />
<glyph unicode="&#x2018;" horiz-adv-x="252" d="M177 500l-102 119v66h102v-185z" />
<glyph unicode="&#x2019;" horiz-adv-x="252" d="M177 619l-102 -119v185h102v-66z" />
<glyph unicode="&#x201a;" horiz-adv-x="252" d="M177 38l-102 -119v184h102v-65z" />
<glyph unicode="&#x201c;" horiz-adv-x="428" d="M353 500l-101 119v66h101v-185zM177 500l-102 119v66h102v-185z" />
<glyph unicode="&#x201d;" horiz-adv-x="428" d="M353 619l-101 -119v185h101v-66zM177 619l-102 -119v185h102v-66z" />
<glyph unicode="&#x201e;" horiz-adv-x="428" d="M353 38l-101 -119v184h101v-65zM177 38l-102 -119v184h102v-65z" />
<glyph unicode="&#x2022;" horiz-adv-x="323" d="M276 219q0 -47 -33.5 -80.5t-80.5 -33.5q-48 0 -81.5 33.5t-33.5 80.5q0 48 33.5 81.5t81.5 33.5q47 0 80.5 -33.5t33.5 -81.5z" />
<glyph unicode="&#x2026;" horiz-adv-x="755" d="M680 0h-102v103h102v-103zM428 0h-101v103h101v-103zM177 0h-102v103h102v-103z" />
<glyph unicode="&#x202f;" horiz-adv-x="181" />
<glyph unicode="&#x2039;" horiz-adv-x="247" d="M223 10h-70l-129 209l129 209h70l-128 -209z" />
<glyph unicode="&#x203a;" horiz-adv-x="247" d="M95 10h-71l129 209l-129 209h71l128 -209z" />
<glyph unicode="&#x205f;" horiz-adv-x="226" />
<glyph unicode="&#x20ac;" horiz-adv-x="753" d="M30 394v68h114q38 105 130 171t207 66q149 0 252 -105l-49 -49q-84 84 -203 84q-85 0 -155 -46t-105 -121h280v-68h-302q-4 -23 -4 -52t4 -52h302v-67h-280q34 -75 104 -121t156 -46q119 0 203 84l49 -50q-104 -104 -252 -104q-115 0 -207.5 66t-129.5 171h-114v67h97 q-3 25 -3 52q0 26 3 52h-97z" />
<glyph unicode="&#x2122;" horiz-adv-x="610" d="M535 342h-50v205l-67 -85l-67 85v-205h-51v352l118 -148l117 148v-352zM220 634h-66v-292h-50v292h-66v51h182v-51z" />
<glyph unicode="&#x25fc;" horiz-adv-x="440" d="M0 440h440v-440h-440v440z" />
</font>
</defs>
</svg>
