<svg xmlns="http://www.w3.org/2000/svg" width="63.063" height="76.625"><path fill="#c1cdd6" d="M0 0l3.22 3.938 1.092 1.28L5.5 6.657l1.344 1.657 1.468 1.78L10 12.157l1.844 2.25 2.094 2.53 2.25 2.72 2.468 3.032 5.75 6.937v.03l3.375 4.095 3.75 4.562 3.782-4.562 3.376-4.125 3.03-3.656 2.688-3.283 2.47-3.03 2.25-2.72 2.093-2.53 1.843-2.25 1.687-2.063 1.47-1.782 1.374-1.656L58.78 5.22l1.064-1.283L63.062 0l-31.53 31.53L0 0zm59.844 3.938l3.218 3.906v-.688l-3.218-3.218zm-1.063 1.28l4.282 5.22V9.53l-4.28-4.31zm-1.186 1.438l5.468 6.657v-1.157l-5.468-5.5zM56.22 8.313l6.843 8.28v-1.468l-6.844-6.813zm-1.47 1.78l8.313 10.063v-1.78l-8.313-8.282zm-1.688 2.063l10 12.125v-2.155l-10-9.97zm-1.843 2.25l11.843 14.406V26.25L51.218 14.406zm-2.095 2.53l13.938 16.94v-3l-13.938-13.94zm-2.25 2.72l16.188 19.657v-3.47L46.874 19.657zm-2.47 3.032l18.657 22.656v-4.032L44.407 22.689zm-2.686 3.28l21.343 25.938v-4.593L41.718 25.968zm-3.032 3.657L63.06 59.28V54L38.69 29.625zm-3.376 4.125l27.75 33.72V61.5l-27.75-27.75zm-3.78 4.563l3.218 3.937 1.063 1.28L37 44.97l1.375 1.655 1.47 1.78 1.686 2.064 1.845 2.25 2.094 2.53 2.25 2.72L50.187 61l2.687 3.28 3.03 3.657 3.376 4.126 3.782 4.562v-6.78l-31.53-31.532zm0 0L0 69.843v6.782l3.78-4.563 3.376-4.124 3.032-3.657L12.874 61l2.47-3.03 2.25-2.72 2.093-2.53 1.875-2.25 1.687-2.064 1.47-1.78 1.343-1.657 1.187-1.44 1.063-1.28 3.218-3.938zm-3.22 3.937l3.22 3.906 3.218-3.906-3.22 3.22-3.218-3.22zm-1.062 1.28l4.28 5.22 4.282-5.22-4.28 4.314-4.282-4.313zm-1.188 1.44l5.47 6.655L37 44.97l-5.47 5.468-5.468-5.47zm-1.343 1.655l6.81 8.28 6.845-8.28-6.844 6.813-6.81-6.813zm-1.47 1.78l8.28 10.064 8.314-10.064-8.313 8.282-8.28-8.282zm-1.688 2.064l9.97 12.124 10-12.125-10 9.968-9.97-9.97zm-1.875 2.25l11.844 14.405L43.376 52.72 31.53 64.562 19.688 52.718zm-2.093 2.53L31.53 72.156 45.47 55.25 31.53 69.188 17.595 55.25zm-2.25 2.72L30.72 76.624h1.624L47.72 57.97 31.53 74.155 15.345 57.97zM12.874 61L25.75 76.625h2.78L12.876 61zm-2.687 3.28l10.157 12.345h2.187L10.188 64.28zm-3.03 3.657l7.124 8.688h1.564l-8.688-8.688zM3.78 72.064l3.75 4.562h.814L3.78 72.062zm55.5 0l-4.56 4.562h.81l3.75-4.563zm-3.374-4.126l-8.687 8.688h1.56l7.126-8.688zm-3.03-3.656L40.53 76.626h2.19L52.874 64.28zM50.187 61L34.53 76.625h2.782L50.188 61zM27.78 33.75L0 61.5v5.97l27.78-33.72zm-3.374-4.094L0 54v5.28l24.406-29.624zm-5.75-6.968L0 41.313v4.03l18.656-22.656zm-2.468-3.032L0 35.844v3.468l16.188-19.656zm-2.25-2.718L0 30.874v3l13.938-16.938zm-2.094-2.532L0 26.25v2.563l11.844-14.407zM10 12.156l-10 9.97v2.155l10-12.124zm-1.688-2.062L0 18.374v1.782l8.313-10.062zm-1.468-1.78L0 15.122v1.47l6.844-8.282zM5.5 6.655l-5.5 5.5v1.156l5.5-6.656zM4.312 5.22L0 9.53v.908l4.313-5.22zM3.22 3.937L0 7.155v.688l3.22-3.907zM7.53 0l24 29.156L55.53 0h-.81L31.53 23.188 8.345 0H7.53zm6.75 0l17.25 20.97L48.78 0h-1.56L31.53 15.688 15.845 0H14.28zm6.064 0L31.53 13.594 42.72 0h-2.19l-9 9-9-9h-2.186zm5.406 0l5.78 7.03L37.313 0h-2.78l-3 3-3-3H25.75zm4.97 0l.81 1 .814-1H30.72zm-9.376 25.97L0 47.312v4.593L21.344 25.97z"/></svg>
