<?xml version="1.0" encoding="UTF-8" standalone="no"?><svg xmlns="http://www.w3.org/2000/svg" viewBox="0 0 330.81815 252.20156"><path d="m16.579,219.57c-0.0023,2.0467,0.00067,4.0767,0,6.125h7.8125v19.125h7.625v-19.125h7.7812v-6.125h-23.219zm65.031,0,0,25.25,7.6562,0,0-9.4062c2.3342-0.0524,4.6882,0.15579,7-0.25,2.9926-0.44643,5.5265-2.8805,6.0312-5.875,0.5438-2.8942,0.0601-6.3731-2.4062-8.2812-2.2816-1.6677-5.226-1.4151-7.9062-1.4375h-10.375zm65.969,0,0,4.7812,6.8125,0,0-4.7812-6.8125,0zm67.719,0-6.8125,3.5312,0,3.4375-2.4688,0,0,5.0312,2.4688,0,0,2.1875c0.05,2.5602-0.18204,5.1539,0.28125,7.6875,0.11918,1.4462,1.2484,2.5896,2.4688,3.25,2.6366,0.96036,5.4986,0.46034,8.1562-0.15625l-0.46875-4.1875c0.14108-0.97726-0.83146-0.2616-1.4062-0.25-1.0598,0.38851-2.3132-0.23542-2.1875-1.4688-0.0535-2.3454-0.0166-4.7159-0.0312-7.0625h3.8438v-5.0312h-3.8438v-6.9688zm-126.03,5.0625c1.4972,0.0695,3.057-0.23659,4.4688,0.40625,1.6345,0.77735,1.845,3.2306,0.53125,4.4062-1.0644,0.98617-2.5984,0.75332-3.9375,0.78125-0.31169-0.0854-0.96936,0.17892-1.0625-0.125v-5.4688zm-40.344,1.3438c-2.8852-0.0475-5.8735,0.94368-7.7812,3.1875-1.7603,1.8861-2.4234,4.5664-2.2812,7.0938,0.04952,2.5239,1.067,5.0824,3.0938,6.6562,2.6877,2.292,6.5168,2.677,9.875,2.0312,2.8292-0.56142,5.4296-2.4076,6.5938-5.0938,1.5854-3.608,1.0814-8.2427-1.75-11.094-2.0118-2.0396-4.9729-2.724-7.75-2.7812zm25.281,0c-0.956,0-1.7858,0.2665-2.4688,0.8125-0.683,0.409-1.2232,1.3648-1.9062,2.5938v-2.8438h-6.4062v18.281h6.9688v-6.1562c0-3.004,0.2545-4.907,0.9375-6,0.546-0.819,1.2315-1.2188,2.1875-1.2188,0.411,0,1.0862,0.25825,1.9062,0.53125l2.0625-4.9062c-1.229-0.683-2.3252-1.0938-3.2812-1.0938zm43.031,0c-0.58005-0.004-1.1458,0.10035-1.6875,0.375-1.2823,0.57374-1.9508,1.8633-2.5938,3.0312v-2.8438h-6.4375c-0.002,6.098,0.00067,12.182,0,18.281h6.9688v-1.9688c0.0311-2.4417-0.081-4.8783,0.15625-7.3125,0.17117-1.4263,0.46697-3.1514,1.875-3.875,0.99296-0.53407,2.0713-0.0116,3.0312,0.3125l1.7812-4.3125c0.2673-0.43352,0.29825-0.79032-0.3125-0.90625-0.8474-0.45299-1.8145-0.77533-2.7812-0.78125zm15.25,0c-2.8449-0.0448-5.8081,0.9081-7.7188,3.0938-1.7915,1.8543-2.6722,4.4737-2.5312,7.0312,0.0393,2.6009,1.2139,5.2008,3.2812,6.8125,2.7493,2.3393,6.6452,2.6972,10.062,1.9688,2.7846-0.60245,5.3238-2.4622,6.4375-5.125,1.5418-3.6306,0.98181-8.2852-1.9062-11.094-2.008-1.978-4.896-2.6064-7.625-2.6875zm35.906,0c-2.9099-0.0487-5.9738,0.96495-7.875,3.25-2.4512,2.8292-2.8312,7.1074-1.4062,10.5,1.0125,2.4851,3.1735,4.5385,5.8438,5.0938,2.5216,0.54915,5.1618,0.5301,7.6875,0.0312,1.7072-0.32012,3.2604-1.2706,4.375-2.5938,0.4684-0.63698,1.5491-1.7239,1.4375-2.25l-6.5-0.625c-0.60814,0.67235-1.212,1.4487-2.1875,1.5312-1.5377,0.38873-3.361-0.2686-4.0625-1.75-0.0845-0.51011-0.97148-2.0085,0-1.8438h13.344c0.0708-2.8108-0.29079-5.8238-2.0938-8.0938-1.0918-1.3179-2.599-2.2948-4.2812-2.6562-1.3972-0.35981-2.8392-0.56245-4.2812-0.59375zm23.969,0c-1.6935,0.0732-3.3686,0.4167-4.9375,1.0625-1.8448,0.85805-3.298,2.5045-4.125,4.3438-0.95163,2.1436-0.89164,4.5977-0.5625,6.875,0.30646,2.3747,1.95,4.4333,4,5.5938,1.7078,1.0264,3.7422,1.2074,5.6875,1.3438,2.2798,0.0746,4.757-0.003,6.7188-1.3125,2.0546-1.1555,3.3929-3.2281,4-5.4688l-6.5312-0.8125c-0.25907,1.103-0.93952,2.059-1.9688,2.5625-1.7697,0.7207-4.282,0.1135-4.9375-1.8438-0.50318-1.5256-0.42684-3.1955-0.0937-4.75,0.34406-1.7032,2.0797-2.8579,3.7812-2.6562,1.3735-0.0677,2.7581,0.91004,2.9375,2.3125l6.4062-0.84375c-0.60279-2.7038-2.6353-5.0713-5.3438-5.8125-1.6275-0.44564-3.3377-0.66693-5.0312-0.59375zm52.469,0c-2.8854-0.0478-5.9043,0.94387-7.8125,3.1875-1.8286,1.9534-2.4904,4.7258-2.2812,7.3438,0.15446,3.1732,2.0541,6.213,4.9375,7.5938,2.5833,1.262,5.6351,1.3711,8.4062,0.75,2.7579-0.65216,5.2223-2.5708,6.3125-5.2188,1.5442-3.684,0.89787-8.4089-2.125-11.156-2.0008-1.8421-4.7921-2.4394-7.4375-2.5zm25.156,0c-0.58005-0.004-1.1458,0.10035-1.6875,0.375-1.2823,0.57374-1.9508,1.8633-2.5938,3.0312v-2.8438h-6.4062c-0.002,6.098-0.0306,12.182-0.0312,18.281h6.9688v-1.9688c0.0311-2.4417-0.0806-4.8783,0.15625-7.3125,0.17068-1.4265,0.4671-3.1513,1.875-3.875,0.993-0.53423,2.0712-0.0113,3.0312,0.3125l1.8125-4.3125c0.2673-0.43352,0.29825-0.79032-0.3125-0.90625-0.8474-0.45299-1.8458-0.77533-2.8125-0.78125zm12.656,0c-2.8685-0.12405-5.5683,1.8713-6.5312,4.5312-0.98089,2.5901-0.87275,5.4714-0.21875,8.125,0.75774,2.845,3.3147,5.1959,6.3125,5.3438,1.6472,0.0857,3.4674-0.25543,4.75-1.3438,0.53263-0.5746,1.3923-1.6555,1.125-0.21875-0.0234,1.4045,0.19184,2.9059-0.40625,4.2188-0.81001,1.2871-2.6537,1.4544-3.9375,0.84375-1.0877-0.0398-0.78886-1.8995-2-1.6562l-5.7812-0.59375c-0.62153,2.6432,1.083,5.6211,3.75,6.2812,2.7265,0.85612,5.6226,0.75441,8.4375,0.5,2.3756-0.2563,4.8485-1.3812,5.9375-3.625,1.0213-1.8249,1.0454-3.9396,1-5.9688v-15.875h-6.4375v2.5938c-1.308-1.9827-3.607-3.2538-6-3.1562zm-135.06,0.5625c0.002,5.0379-0.00067,10.054,0,15.094-0.0529,1.3424,0.14297,2.7415-0.3125,4.0312-0.4297,1.1038-1.7708,1.051-2.7188,0.8125l-1.0625,5.1875c1.9688,0.23153,3.9138,0.66961,5.9062,0.5,1.4083-0.0557,2.7386-0.72964,3.7188-1.7188,1.1444-1.4076,1.212-3.3306,1.2812-5.0625,0.0343-6.2836-0.009-12.56,0-18.844h-6.8125zm21.094,3.6875c1.1095-0.0333,2.3411,0.43409,2.7812,1.5312,0.2123,0.60105,0.90058,1.9604,0.375,2.2812h-6.5625c0.12324-1.5222,0.84008-3.2406,2.4375-3.6875,0.30819-0.0858,0.64947-0.12507,0.96875-0.125zm-119.62,0.6875c1.5991-0.0628,2.9068,1.2918,3.125,2.8125,0.24718,1.5446,0.27975,3.1979-0.25,4.6875-0.50858,1.1089-1.5829,2.0956-2.875,2.0312-1.056,0.15325-2.0501-0.65372-2.6562-1.5-0.8671-1.3782-0.79763-3.0966-0.65625-4.6562,0.12775-1.3635,0.88951-2.767,2.25-3.2188,0.34359-0.11959,0.69978-0.15666,1.0625-0.15625zm83.062,0,0.1875,0,0.1875,0c1.5928-0.11784,2.9709,1.1911,3.2188,2.7188,0.28033,1.5116,0.28317,3.1123-0.15625,4.5938-0.46723,1.2476-1.6557,2.3363-3.0625,2.2188-1.0193,0.13593-2.0157-0.65067-2.5625-1.5-0.88115-1.4194-0.79383-3.2129-0.625-4.8125,0.15791-1.5131,1.185-3.0883,2.8125-3.2188zm112.84,0c1.6461-0.0639,2.9064,1.3986,3.125,2.9375,0.23768,1.5088,0.23055,3.1162-0.3125,4.5625-0.51857,1.0897-1.5223,2.0992-2.8125,2.0312-1.0602,0.14819-2.11-0.64214-2.7188-1.5-0.84808-1.3868-0.74724-3.0972-0.625-4.6562,0.11079-1.3143,0.8-2.6708,2.0938-3.1562,0.39101-0.16049,0.8289-0.21966,1.25-0.21875zm40.156,0.25c1.8043-0.0658,3.1145,1.7469,3.0938,3.4375,0.17938,1.634-0.22222,3.6662-1.875,4.4062-1.4505,0.66785-3.466-0.11-3.8125-1.75-0.50992-1.7059-0.4378-3.7049,0.5625-5.2188,0.47499-0.60714,1.2632-0.94224,2.0312-0.875zm-61.531,6.5625,0,7.0938,7.2188,0,0-7.0938-7.2188,0z" fill="#7d4698"/><path d="m172.22,13.794-4.917,19.529c6.97-13.793,18.03-24.172,30.73-33.323-9.29,10.789-17.75,21.579-22.94,32.368,8.74-12.292,20.48-19.12,33.73-23.627-17.62,15.706-31.6,32.559-42.26,49.494l-8.467-3.687c1.501-13.521,6.6093-27.369,14.121-40.754z" fill="#abcd03"/><path d="m149.61,50.958,16.116,6.6859c0,4.098-0.33313,16.597,2.2294,20.284,26.79,34.522,22.28,103.71-5.44,105.49-42.217,0-58.317-28.679-58.317-55.038,0-24.037,28.816-40.016,46.025-54.219,4.37-3.824,3.6111-12.275-0.62387-23.201z" fill="#fffcdb"/><path d="m165.73,57.403,5.808,2.9628c-0.546,3.823,0.273,12.292,4.096,14.476,16.936,10.516,32.914,21.988,39.197,33.46,22.398,40.426-15.706,77.846-48.62,74.295,17.891-13.248,23.081-40.425,16.389-70.062-2.731-11.609-6.966-22.125-14.478-34.007-3.2542-5.8325-2.118-13.066-2.392-21.125z" fill="#7d4698"/><path d="m162.93,56.405,12.018,1.639c-3.551,11.745,6.966,19.939,10.38,21.852,7.648,4.234,15.023,8.604,20.896,13.93,11.063,10.106,17.345,24.31,17.345,39.333,0,14.886-6.829,29.226-18.301,38.786-10.789,9.014-25.675,12.838-40.152,12.838-9.014,0-17.072-0.409-25.812-3.278-19.939-6.692-34.826-23.763-36.055-44.25-1.093-15.979,2.458-28.134,14.887-40.835,6.418-6.692,19.393-14.34,28.271-20.486,4.371-3.005,9.014-11.473,0.136-27.451l1.776-1.366,13.157,8.812-11.108-4.578c0.956,1.366,3.551,7.512,4.098,9.287,1.229,5.053,0.683,9.971-0.41,12.155-5.599,10.107-15.159,12.838-22.124,18.574-12.292,10.106-25.676,18.164-24.174,45.888,0.683,13.657,11.336,30.319,27.314,38.104,9.014,4.371,19.394,6.146,29.91,6.692,9.423,0.41,27.451-5.19,37.284-13.384,10.516-8.74,16.389-21.988,16.389-35.508,0-13.658-5.463-26.632-15.706-35.783-5.873-5.326-15.569-11.745-21.578-15.16-6.009-3.414-13.521-12.974-11.063-22.124z" fill="#000"/><path d="m159.24,76.618c-1.229,6.283-2.595,17.618-8.058,21.852-2.322,1.638-4.644,3.278-7.102,4.916-9.833,6.693-19.667,12.974-24.173,29.09-0.956,3.415-0.136,7.102,0.684,10.516,2.458,9.833,9.423,20.486,14.886,26.769,0,0.273,1.093,0.956,1.093,1.229,4.507,5.327,5.873,6.829,22.944,10.652l-0.41,1.913c-10.243-2.731-18.71-5.189-24.037-11.336,0-0.136-0.956-1.093-0.956-1.093-5.736-6.556-12.702-17.481-15.296-27.724-0.956-4.098-1.775-7.238-0.683-11.473,4.643-16.661,14.75-23.217,24.993-30.182,2.322-1.502,5.053-2.869,7.238-4.644,4.233-3.14,6.554-12.701,8.877-20.485z" fill="#000"/><path d="m163.61,102.57c0.137,7.102-0.55625,10.665,1.2188,15.719,1.092,3.004,4.782,7.1015,5.875,11.062,1.502,5.327,3.138,11.199,3,14.75,0,4.098-0.25625,11.742-2.0312,19.937-1.3536,6.7711-4.4732,12.582-9.7188,15.875-5.3733-1.1064-11.682-2.9952-15.406-6.1875-7.238-6.282-13.649-16.786-14.469-25.938-0.682-7.511,6.2728-18.588,15.969-24.188,8.194-4.78,10.1-10.228,11.875-18.969-2.458,7.648-4.7665,14.059-12.688,18.156-11.472,6.009-17.358,16.096-16.812,25.656,0.819,12.291,5.7415,20.62,15.438,27.312,4.097,2.868,11.751,5.8988,16.531,6.7188v-0.625c3.6249-0.67888,8.3182-6.6327,10.656-14.688,2.049-7.238,2.8568-16.502,2.7188-22.375-0.137-3.414-1.643-10.808-4.375-17.5-1.502-3.687-3.8095-7.3738-5.3125-9.9688-1.637-2.597-1.6488-8.195-2.4688-14.75z" fill="#000"/><path d="m162.8,129.35c0.136,4.78,2.056,10.905,2.875,17.188,0.684,4.644,0.387,9.3082,0.25,13.406-0.13495,4.7432-1.7152,13.242-3.875,17.375-2.0367-0.93403-2.8329-1.9992-4.1562-3.7188-1.638-2.322-2.7508-4.644-3.8438-7.375-0.819-2.049-1.7765-4.394-2.1875-7.125-0.546-4.097-0.393-10.506,4.25-17.062,3.551-5.19,4.3648-5.5848,5.5938-11.594-1.64,5.326-2.8625,5.869-6.6875,10.375-4.233,4.917-4.9375,12.159-4.9375,18.031,0,2.459,0.9805,5.1872,1.9375,7.7812,1.092,2.732,2.0292,5.452,3.5312,7.5,2.258,3.3208,5.148,5.2092,6.5625,5.5625,0.009,0.002,0.022-0.002,0.0312,0,0.0303,0.007,0.0649,0.0255,0.0937,0.0312v-0.15625c2.6498-2.9544,4.2444-5.8893,4.7812-8.8438,0.683-3.551,0.84-7.1098,1.25-11.344,0.409-3.551,0.11225-8.334-0.84375-13.25-1.365-6.146-3.669-12.412-4.625-16.781z" fill="#000"/><path d="m163.2,70.882c0.137,7.101,0.683,20.35,2.595,25.539,0.546,1.775,5.599,9.56,9.149,18.983,2.459,6.556,3.005,12.565,3.415,14.34,1.639,7.785-0.41,20.896-3.142,33.324-1.365,6.692-6.009,15.023-11.335,18.301l-1.092,1.912c3.005-0.137,10.379-7.375,12.974-16.389,4.371-15.296,6.146-22.398,4.098-39.333-0.273-1.64-0.956-7.238-3.551-13.248-3.824-9.151-9.287-17.891-9.969-19.667-1.23-2.867-2.869-15.295-3.142-23.762z" fill="#000"/><path d="m165.77,61.169c-0.40515,7.2981-0.51351,9.9857,0.85149,15.312,1.502,5.873,9.151,14.34,12.292,24.037,6.009,18.574,4.507,42.884,0.136,61.867-1.638,6.691-9.424,16.389-17.208,19.529l5.736,1.366c3.141-0.137,11.198-7.648,14.34-16.252,5.052-13.521,6.009-29.636,3.96-46.571-0.137-1.639-2.869-16.252-5.463-22.398-3.688-9.15-10.244-17.345-10.926-19.119-1.228-3.005-3.9265-9.2436-3.7185-17.771z" fill="#000"/><rect height="126.02" width="0.55041" y="56.033" x="161.42" fill="#000"/><path d="M7.648,17.891h109.67c4.096,0,7.647,3.414,7.647,7.648v32.367c0,4.234-3.551,7.649-7.647,7.649h-22.528c-5.054,0-7.239,2.867-7.239,6.145v105.98c0,3.551-2.868,6.282-6.282,6.282h-37.284c-3.415,0-6.146-2.731-6.146-6.282v-106.94c0-3.278-3.005-5.189-5.326-5.189h-24.857c-4.234,0-7.648-3.415-7.648-7.649v-32.368c-0.00099998-4.234,3.413-7.648,7.648-7.648z" fill="#7d4698"/><path d="m289.01,60.775,0.136,0,9.56,0c3.551,0,6.419,2.868,6.419,6.282v34.69c0,4.507,0.273,6.282-5.19,6.282-10.789,0-15.705,5.736-15.705,12.018v58.589c0,2.732-2.595,5.053-5.736,5.053h-34.827c-3.141,0-5.736-2.321-5.736-5.053v-66.784c-0.0378-1.1744-0.0148-2.9081,0.137-3.823,1.912-24.72,21.308-44.498,45.888-46.981,0.82399-0.0832,3.7394-0.273,5.054-0.273z" fill="#7d4698"/><path fill="#7d4698" d="m318.25,69.723,0.0562,0c0.53746,0.000018,1.0183-0.0054,1.4083,0.05624,0.37898,0.04993,0.67422,0.19268,0.9013,0.33798,0.23096,0.13321,0.38766,0.29719,0.50697,0.56331,0.10564,0.23578,0.2135,0.58948,0.22533,1.014a0.27042,0.27042,0,0,0,0,0.05624,0.27042,0.27042,0,0,0,0,0.05624,0.27042,0.27042,0,0,0,0,0.05624c-0.0126,0.89792-0.26004,1.4906-0.67597,1.8026-0.44086,0.33065-1.2232,0.507-2.3096,0.50698h-0.11266v-4.4501zm1.1266-4.3938c3.53-0.0676,7.0462,2.0552,8.5191,5.2686,1.7043,3.3306,1.2357,7.7073-1.3473,10.469-0.2587,0.29981-0.0759-0.5692-0.1305-0.80952-0.0426-0.35134-0.51327-0.31558-0.80019-0.4094-0.37015,0.0036-0.58418-0.22875-0.75132-0.53245-0.94744-1.3197-1.8949-2.6393-2.8423-3.9589,1.1405-0.36924,2.1997-1.1387,2.593-2.3144,0.64565-1.6541-0.12167-3.7168-1.7604-4.4596-1.6921-0.84833-3.6314-0.5477-5.4582-0.60538-1.2416,0.01262-2.5014-0.02452-3.7323,0.01802-0.27933,0.27518-0.095,0.74112-0.14817,1.1095,0.0708,0.14655,0.13357,0.29164,0.33121,0.29754,0.34024,0.05101,0.68049,0.10203,1.0207,0.15304v10.252c-0.38929,0.12312-0.89686,0.03154-1.183,0.33798,0.0144,0.39774-0.0285,0.8171,0.018,1.2038,0.21416,0.20394,0.57863,0.0366,0.85338,0.0917,1.7001-0.00002,3.4007,0.00004,5.1005,0,0.24297-0.20283,0.0521-0.58833,0.11266-0.86775,0.0108-0.218,0.0571-0.55256-0.22532-0.59686-0.43186-0.05624-0.86375-0.11266-1.2956-0.1689v-3.8868c0.39433-0.1251,0.54766,0.20261,0.72334,0.48839,1.092,1.621,2.1841,3.242,3.2762,4.863-0.005,0.16457,0.24319,0.20524,0.32162,0.18902,1.2067-0.047,2.4555-0.007,3.6779-0.02-0.98539,1.163-2.389,1.9271-3.8076,2.4467-3.0944,1.057-6.716,0.36814-9.1635-1.8155-2.6548-2.3343-3.7863-6.1935-2.9108-9.6072,0.9401-3.9042,4.5912-7.0509,8.6502-7.1267,0.11969-0.0054,0.23953-0.0072,0.35935-0.0072zm0.0562-1.9153c-3.3501-0.05642-6.6548,1.568-8.7771,4.1356-2.3256,2.8214-3.1884,6.758-2.211,10.285,1.021,3.884,4.2429,7.0659,8.1392,8.0388,4.0769,1.0636,8.7178-0.26783,11.465-3.5031,1.7876-1.9761,2.8119-4.6265,2.7627-7.2958,0.0458-0.99103-0.0651-2.0919-0.29238-3.0983-1.1314-4.9727-6.0251-8.6464-11.086-8.5622z"/></svg>
