<?xml version="1.0" encoding="UTF-8" standalone="no"?>
<svg xmlns="http://www.w3.org/2000/svg"
     version="1.1" viewBox="0 0 1256.3 261.86">
 <path fill="#000" d="m152.94,236.52c-0.83628-1.0076-1.077-14.371-0.88773-49.268l0.25978-47.886h3.5,3.5l0.26019,45.25c0.1431,24.888,0.3681,45.338,0.5,45.445,0.1319,0.10739,9.0148,0.44489,19.74,0.75l19.5,0.55474v3,3l-22.612,0.26842c-18.273,0.21692-22.832,0.003-23.76-1.1142zm151.7-7.5743c4.8666-2.4958,7.5971-5.5519,10.358-11.592,1.8818-4.1176,2.2828-6.7318,2.2988-14.988,0.0175-8.9704-0.27129-10.592-2.8047-15.751-6.4376-13.11-20.849-14.619-32.926-3.4478l-3.75,3.4688v21.077,21.077l3.75,0.97203c2.0625,0.53461,4.875,1.1897,6.25,1.4557,4.3744,0.84624,13.022-0.32095,16.824-2.2707zm-16.324,9.2747c-6.4759-0.74639-14.108-2.612-16.25-3.9719l-2.25-1.4288v-48.002-48.002l2.6216-0.99675c4.9732-1.8908,5.3122-0.6118,5.608,21.155l0.27037,19.898,4.8352-3.4387c9.3156-6.6251,20.733-6.7186,30.397-0.24904,3.6498,2.4434,5.5654,4.7816,8.26,10.082,3.4178,6.7235,3.5076,7.1998,3.4886,18.5-0.0177,10.56-0.2687,12.136-2.8023,17.599-3.1561,6.8048-8.471,12.788-13.808,15.543-3.0169,1.5578-15.148,4.2895-16.871,3.7992-0.275-0.0782-1.85-0.29787-3.5-0.48804zm-50.552-9.9228c9.5035-5.1724,10.052-6.0598,10.052-16.262,0-5.9724-0.41813-9.2723-1.2638-9.9742-1.842-1.5288-16.825,1.283-24.004,4.5047-9.0448,4.0591-12.3,10.019-9.7281,17.812,2.6544,8.0429,14.072,9.837,24.944,3.9196zm-22.448,9.0662c-12.032-4.254-15.154-20.233-5.9452-30.427,4.6575-5.1553,13.179-8.7417,25.831-10.872,5.8298-0.98161,11.109-2.2941,11.732-2.9166,1.9271-1.9271,0.0953-10.012-3.0714-13.556-2.5582-2.8631-3.4508-3.1833-9.8863-3.547-5.4545-0.3082-8.7441,0.13081-14.367,1.9174-9.052,2.876-8.8902,2.873-9.8855,0.18238-1.1552-3.1229,0.90424-4.8312,8.7432-7.2524,7.255-2.2409,20.321-2.7433,25.034-0.9626,1.5483,0.58499,4.108,2.2725,5.6883,3.75,5.3517,5.0038,5.6268,6.7662,5.6268,36.047,0,23.943-0.18015,26.994-1.6268,27.549-2.0685,0.79376-4.3732-1.0846-4.3732-3.5641,0-3.0278-2.5071-3.2002-6.6612-0.45799-8.3049,5.4822-18.529,7.0478-26.839,4.1098zm-176.92,1.367c-16.336-2.32-29.506-14.18-34.843-31.38-3.0994-9.99-3.0848-28.05,0.0309-38.12,4.1294-13.35,12.844-23.57,24.736-29.01,4.6766-2.141,7.8324-2.7829,15.495-3.1519,10.718-0.5161,18.255,1.0671,25.743,5.407,3.5027,2.0303,4.25,2.9891,4.25,5.4527,0,4.2332-1.8821,4.463-8.613,1.0516-8.0929-4.1017-14.294-5.4721-22.202-4.9063-16.626,1.1896-28.776,12.921-32.736,31.607-4.7343,22.338,3.5365,44.203,20.051,53.008,4.5099,2.4045,6.0366,2.6658,15.575,2.6658,10.43,0,10.694-0.0586,19.152-4.25,4.7173-2.3375,8.7971-4.25,9.0662-4.25,0.26914,0,0.7825,1.168,1.1408,2.5956,0.84789,3.3783-0.51672,4.9122-7.511,8.4429-9.1951,4.6417-19.104,6.2716-29.344,4.8264zm50.923,21.144c-0.92063-2.9007,0.1795-4.009,3.9795-4.009,4.9628,0,8.8917-3.855,11.998-11.772l2.64-6.7288-12.555-32c-6.9055-17.6-12.558-32.576-12.56-33.282-0.006-1.6477,4.0789-3.2145,5.8619-2.2483,0.75162,0.40729,3.4879,6.3183,6.0806,13.136,2.5927,6.8172,7.3211,19.258,10.508,27.645,3.1865,8.3875,6.1327,15.25,6.5471,15.25,0.41436,0,4.6871-10.912,9.495-24.25,12.458-34.56,11.121-31.75,15.112-31.75,2.377,0,3.3914,0.45749,3.3914,1.5296,0,1.3081-11.85,33.158-26.218,70.47-6.1322,15.924-10.038,20-19.165,20-3.5973,0-4.607-0.39311-5.1142-1.991z"/>
 <path fill="#c7223e" d="m1153.3,22.654c-4.9358-2.8307-5.9113-8.112-2.25-12.181,5.1162-5.6865,13.75-2.5879,13.75,4.9348,0,6.3768-6.2021,10.285-11.5,7.2467zm-216.73-0.769c-3.0962-2.4355-3.8511-5.8904-2.1638-9.9032,2.1422-5.0947,9.2033-5.9043,13.158-1.5086,6.5159,7.2423-3.3181,17.45-10.994,11.412zm-579.01-0.0067c-5.0123-3.9427-4.2584-11.057,1.425-13.446,2.2643-0.95208,3.9874-1.0614,5.9496-0.37734,3.4796,1.213,4.7044,2.6885,5.4893,6.6129,0.51727,2.5864,0.10732,3.6302-2.4171,6.1547-3.5373,3.5373-6.8645,3.8736-10.447,1.0559zm785.25,60.051c0-0.51347,1.2375-1.076,2.75-1.25l2.75-0.31646v-22.5-22.5l-2.75-0.31642c-5.6919-0.65493-2.4316-2.0026,6-2.4801,4.8125-0.27255,9.65-0.65482,10.75-0.8495,1.9481-0.34477,2.007,0.26718,2.2686,23.599,0.283,25.239,0.334,25.501,4.9814,25.532,1.2375,0.0084,2.25,0.46531,2.25,1.0153,0,0.62069-5.5,1-14.5,1-8.3122,0-14.5-0.3984-14.5-0.93358zm-90-0.0031c0-0.51515,1.4625-1.0777,3.25-1.25l3.25-0.31336v-22.5-22.5l-3.25-0.31336c-6.3484-0.6121-3.1135-1.9561,6-2.4929,5.0875-0.29966,10.15-0.69083,11.25-0.86928,1.6086-0.26095,2.0613,0.31163,2.3134,2.9256,0.3666,3.803,1.1727,4.0401,3.7816,1.112,4.829-5.4197,13.085-6.3354,17.482-1.9389,3.2576,3.2576,3.63,5.8093,1.4601,10.005-1.6737,3.2365-3.3239,4.0715-8.0462,4.0715-4.0503,0-7.4908-3.7746-7.4908-8.2182,0-3.7739-1.8199-3.2477-4.4908,1.2985-1.7612,2.9976-2.0505,5.5659-2.3439,20.808-0.3669,19.061-0.3648,19.068,5.5847,19.096,1.7875,0.0084,3.25,0.46531,3.25,1.0153,0,0.625-6,1-16,1-9.2785,0-16-0.39348-16-0.93664zm-126-0.06336c0-0.55,1.035-1,2.3-1,4.4544,0,4.7-1.2018,4.7-23s-0.24558-23-4.7-23c-1.265,0-2.3-0.45-2.3-1,0-0.5748,3.0855-1,7.2566-1,3.9911,0,8.7988-0.4423,10.684-0.9829,1.8849-0.5406,3.682-0.72905,3.9934-0.41878,0.31143,0.31026,0.79123,11.44,1.0662,24.733l0.5,24.169,2.75,0.31642c1.5125,0.17403,2.75,0.73653,2.75,1.25,0,0.53518-6.1878,0.93358-14.5,0.93358-9,0-14.5-0.37931-14.5-1zm-67,0c0-0.55,1.035-1,2.3-1,4.4544,0,4.7-1.2018,4.7-23s-0.24558-23-4.7-23c-1.265,0-2.3-0.45-2.3-1,0-0.5748,3.0855-1,7.2566-1,3.9911,0,8.8056-0.44425,10.699-0.98723,3.9308-1.1273,5.0044-0.22282,5.0292,4.2372,0.0174,3.1249,1.1381,3.5141,3.1429,1.0915,3.9675-4.7943,16.783-6.9015,23.265-3.8254,6.2844,2.9822,7.0498,5.7475,7.6072,27.484l0.5,19.5,2.75,0.31642c1.5125,0.17403,2.75,0.73653,2.75,1.25,0,0.532-5.807,0.93358-13.5,0.93358-12.59,0-16.869-0.93767-11-2.4106l2.5-0.62746v-19.346c0-18.058-0.13803-19.522-2.0726-21.981-2.731-3.4719-6.0367-3.3558-10.269,0.36054-5.2917,4.6462-5.7404,6.7126-5.4339,25.024,0.27176,16.234,0.30951,16.485,2.5259,16.8,1.2375,0.17575,2.25,0.73825,2.25,1.25,0,0.52962-6.031,0.93045-14,0.93045-8.6667,0-14-0.38095-14-1zm-154,0.06642c0-0.51347,1.2375-1.076,2.75-1.25l2.75-0.31642v-22.5-22.5l-2.75-0.31642c-5.708-0.65678-2.4222-2.0023,6-2.4569,4.8125-0.25976,9.7625-0.80702,11-1.2161,2.0423-0.67516,2.25-0.42534,2.25,2.7061,0,1.8975,0.28493,3.7349,0.63317,4.0831,0.34824,0.34824,2.6394-0.80759,5.0914-2.5685,3.8527-2.7668,5.4307-3.2447,11.617-3.5186,5.8742-0.26004,7.7525,0.05522,10.469,1.7571,5.4282,3.401,6.1898,6.6983,6.1898,26.798,0,18.874,0.31554,20.232,4.7,20.232,1.265,0,2.3,0.45,2.3,1,0,0.61905-5.3333,1-14,1-7.969,0-14-0.40082-14-0.93045,0-0.51175,1.0125-1.0742,2.25-1.25,2.2383-0.31789,2.2514-0.42487,2.5206-20.549,0.25632-19.159,0.1637-20.336-1.75-22.25-2.5453-2.5453-4.6494-2.5444-8.8288,0.0038-5.8207,3.5488-7.1447,8.2624-7.1699,25.526-0.0227,15.553,0.43151,17.45,4.178,17.45,0.99,0,1.8,0.45,1.8,1,0,0.61905-5.3333,1-14,1-8.0026,0-14-0.39993-14-0.93358zm-84-0.06642c0-0.55,1.0699-1,2.3776-1,1.3076,0,2.8884-0.61554,3.5128-1.3679,0.81152-0.97782,1.0603-11.597,0.87244-37.24l-0.26277-35.873-2.9175-0.50957c-1.6046-0.28026-3.1046-1.0721-3.3333-1.7596-0.30986-0.93147,1.6522-1.25,7.6996-1.25,4.7778,0,9.5241-0.58856,11.541-1.4311l3.44-1.4317,0.063,39.559c0.0347,21.758,0.30548,39.952,0.60184,40.431,0.29636,0.47952,1.6373,0.87185,2.9798,0.87185s2.441,0.45,2.441,1c0,0.62069-5.5,1-14.5,1s-14.5-0.37931-14.5-1zm-33,0.06642c0-0.51347,1.2375-1.076,2.75-1.25l2.75-0.31642,0.2621-37.182,0.26211-37.182-2.685-0.31759c-1.4767-0.17467-2.855-0.83588-3.0627-1.4693-0.26054-0.79448,2.5073-1.2814,8.9229-1.5697,5.1153-0.22988,10.088-0.77224,11.051-1.2052,1.6502-0.74237,1.75,1.4322,1.75,38.12,0,41.197,0.0125,41.307,4.7,41.307,1.265,0,2.3,0.45,2.3,1,0,0.62069-5.5,1-14.5,1-8.3122,0-14.5-0.3984-14.5-0.93358zm-142-0.09117c0-0.56361,1.1015-1.4435,2.4477-1.9554,5.5144-2.0966,5.6023-2.7512,5.3158-39.605l-0.26-33.897-2.92-0.5095c-1.6046-0.28025-3.1046-1.072-3.3333-1.7595-0.31901-0.95895,2.7387-1.25,13.132-1.25,11.891,0,13.659,0.21404,14.454,1.75,0.49847,0.9625,4.6456,12.673,9.2158,26.023s8.7468,24.127,9.2814,23.949c0.53457-0.17819,4.8408-11.326,9.5694-24.773s8.9615-25.012,9.4065-25.699c0.57546-0.88914,4.3836-1.25,13.191-1.25,11.785,0,16.904,1.2118,10.791,2.5542-1.535,0.33706-3.3534,0.78613-4.0409,0.99793-1.772,0.54591-1.8204,71.477-0.05,73.248,0.66,0.66,2.46,1.2,4,1.2s2.8,0.45,2.8,1c0,0.62745-6.3333,1-17,1-9.9386,0-17-0.3903-17-0.93964,0-0.5168,1.6875-1.0793,3.75-1.25l3.75-0.31036,0.19912-34c0.14889-25.422-0.0845-33.586-0.92492-32.361-0.61822,0.9015-6.3484,16.651-12.734,35-9.7835,28.113-11.91,33.361-13.519,33.361-1.5596,0-2.8773-2.7483-7.1919-15-2.9054-8.25-8.4983-24.112-12.429-35.25-3.9304-11.138-7.541-20.25-8.0235-20.25-0.48457,0-0.87063,13.988-0.86249,31.25,0.0162,34.331,0.20029,35.52,5.748,37.111,5.8549,1.6792,3.3951,2.6391-6.7627,2.6391-6.161,0-10-0.3934-10-1.0248zm-99,0.09117c0-0.51347,1.2375-1.076,2.75-1.25l2.75-0.31642v-22.5-22.5l-2.75-0.31642c-5.6497-0.65007-2.4848-2.1836,4.5066-2.1836,3.9911,0,8.7988-0.4423,10.684-0.9829,1.8849-0.5406,3.682-0.72905,3.9934-0.41878,0.31143,0.31026,0.79123,11.44,1.0662,24.733l0.5,24.169,2.75,0.31642c1.5125,0.17403,2.75,0.73653,2.75,1.25,0,0.53518-6.1878,0.93358-14.5,0.93358s-14.5-0.3984-14.5-0.93358zm-171-0.06642c0-0.55,0.8632-1,1.9182-1,5.1567,0,5.0818,0.33907,5.0818-23s0.0749-23-5.0818-23c-1.055,0-1.9182-0.39632-1.9182-0.88072s4.1625-1.1259,9.25-1.4256c5.0875-0.29966,10.15-0.69083,11.25-0.86928,1.6605-0.26936,2.0527,0.3122,2.3104,3.4256,0.33889,4.0947,1.2067,4.6419,3.3172,2.0915,4.3083-5.2062,18.278-7.1081,24.404-3.3223,5.5201,3.4116,6.4689,7.5029,6.4689,27.894,0,19.085,0.0005,19.087,5.0818,19.087,1.055,0,1.9182,0.45,1.9182,1,0,0.61905-5.3333,1-14,1-13.028,0-17.429-0.9226-11.5-2.4106l2.5-0.62746v-19.346c0-18.058-0.13803-19.522-2.0726-21.981-2.731-3.4719-6.0367-3.3558-10.269,0.36054-5.2917,4.6462-5.7404,6.7126-5.4339,25.024,0.27176,16.234,0.30951,16.485,2.5259,16.8,1.2375,0.17575,2.25,0.73825,2.25,1.25,0,0.52962-6.031,0.93045-14,0.93045-8.6667,0-14-0.38095-14-1zm-49,0c0-0.55,0.8632-1,1.9182-1,5.1567,0,5.0818,0.33907,5.0818-23s0.0749-23-5.0818-23c-1.055,0-1.9182-0.45-1.9182-1,0-0.5748,3.0855-1,7.2566-1,3.9911,0,8.8056-0.44425,10.699-0.98723,3.8153-1.0942,5.0023-0.21212,5.0292,3.7372,0.0191,2.8114,1.1552,2.8579,3.608,0.14762,8.3183-9.1916,23.425-3.965,19.37,6.7015-1.4317,3.7656-3.8058,5.3316-8.1397,5.3691-4.366,0.03776-7.8226-3.5428-7.8226-8.1031,0-3.28-1.012-3.6276-3.2464-1.1151-3.0416,3.42-3.8679,9.4011-3.5574,25.75l0.30381,16,4.25,0.3075c2.3375,0.16912,4.25,0.73162,4.25,1.25,0,0.55073-6.6507,0.9425-16,0.9425-10,0-16-0.375-16-1zm974.67,1.3333c-0.3667-0.36667-0.6667-4.4167-0.6667-9,0-6.4823,0.3114-8.3333,1.4022-8.3333,0.7712,0,1.8573,1.3057,2.4136,2.9016,1.5074,4.3239,7.8375,10.829,11.815,12.142,7.1327,2.354,14.702-1.7555,14.702-7.9819,0-4.4859-1.7818-5.7921-9.6385-7.0654-14.8-2.3986-18.764-4.8606-20.531-12.748-1.722-7.689,1.0533-14.37,7.928-19.085,3.0286-2.0773,4.1319-2.2658,9.9081-1.6929,8.9545,0.88822,12.247,1.0006,14,0.47782,1.219-0.36355,1.555,0.91098,1.7938,6.8026,0.1616,3.9875-0.089,7.25-0.5575,7.25-0.4682,0-2.2799-2.0267-4.0259-4.5038-5.2142-7.3975-11.21-9.9676-17.593-7.5408-5.5815,2.1221-7.1713,9.6075-2.5642,12.073,1.1163,0.59742,5.9141,1.7642,10.662,2.5929,14.238,2.4852,17.698,5.4648,17.749,15.285,0.075,14.373-10.643,21.769-26.154,18.048-4.2626-1.0226-5.9218-1.0532-7.3897-0.13652-2.2026,1.3755-2.3673,1.4016-3.2534,0.51548zm-124.91-4.084c-1.1626-2.6125-5.806-13.3-10.319-23.75-5.8023-13.436-8.8271-19.289-10.33-19.987-4.2389-1.969-1.885-2.5129,10.875-2.5129,8,0,13,0.38462,13,1,0,0.55-0.68912,1-1.5314,1-0.84227,0-1.7596,0.59484-2.0386,1.3219-0.61504,1.6027,9.6519,24.872,11.202,25.389,1.3623,0.4541,8.4305-15.758,9.1238-20.927,0.4739-3.5331,0.29279-3.8705-2.6234-4.8871-5.2847-1.8423-3.5133-2.8963,4.8676-2.8963,4.4,0,8,0.33896,8,0.75325s-1.3048,1.9848-2.8995,3.49c-1.9896,1.8778-5.6493,9.2521-11.661,23.497-4.8189,11.418-9.1942,21.323-9.7229,22.01-1.8425,2.396-3.8432,1.2176-5.9426-3.5zm-295.62,1.6695c3.8397-2.055,4.8535-6.8428,4.7932-22.637-0.0622-16.291-1.0841-21.044-4.9436-22.991-3.9594-1.9977-6.9278-1.5168-10.077,1.6323l-2.9231,2.9231v18.154,18.154l2.9231,2.9231c3.0822,3.0822,6.695,3.7331,10.227,1.8426zm-15.65,1.2132c-10.129-4.6173-15.474-12.968-15.49-24.203-0.0125-8.4124,3.5621-15.965,9.7655-20.632,5.1964-3.9099,9.8181-5.2871,17.725-5.2816,19.468,0.0136,32.288,20.758,23.488,38.008-2.5234,4.9462-9.9099,11.337-14.795,12.801-5.9157,1.7724-16.03,1.4345-20.693-0.69132zm-96.5-36.633c0-6.1667-0.35556-7.8556-2-9.5-2.6021-2.6021-5.7985-2.5379-8.6856,0.17431-2.0108,1.889-2.3144,3.1355-2.3144,9.5v7.3257h6.5,6.5v-7.5zm-14.863,37.181c-9.6301-3.6272-15.597-12.919-15.528-24.181,0.0503-8.2548,1.7136-12.634,7.0439-18.546,9.7799-10.846,25.427-10.688,34.878,0.35315,3.9967,4.6693,6.8142,12.457,5.2248,14.443-0.71705,0.89564-5.0767,1.25-15.378,1.25h-14.378v8.0989c0,12.463,3.0453,16.901,11.597,16.901,6.4159,0,12.505-4.8644,16.112-12.871,1.4708-3.2648,1.6754-3.3998,2.0372-1.3438,0.58963,3.3507-4.2139,10.834-8.9784,13.987-3.4563,2.2873-5.3441,2.7637-11.695,2.9512-4.251,0.12551-9.0484-0.33206-10.936-1.0431zm-146.15-36.726c0-6.147-0.313-7.3585-2.4546-9.5-3.9747-3.9747-8.5293-2.8083-10.44,2.6736-1.2112,3.4746-1.4992,12.145-0.43851,13.205,0.36666,0.36667,3.5167,0.66667,7,0.66667h6.3333v-7.0455zm-16,36.454c-1.925-0.83251-5.0019-2.9524-6.8376-4.7109-12.873-12.332-9.8205-34.817,5.8376-42.997,4.7958-2.5054,6.3568-2.8264,12.192-2.5073,5.553,0.30361,7.4255,0.89304,11,3.4625,5.4848,3.9426,10.041,11.13,10.192,16.079l0.1154,3.7651-15,0.5-15,0.5-0.33364,5c-0.49802,7.4633,1.4769,15.074,4.5358,17.48,3.1106,2.4468,10.08,2.7006,14.296,0.52067,3.4284-1.7729,7.5534-6.9158,9.0958-11.34,1.1521-3.3048,2.9063-4.2774,2.9063-1.6113,0,4.4903-6.2901,12.497-12.21,15.542-4.5888,2.3604-15.674,2.5291-20.79,0.31647zm-121.19-35.355c0.40567-7.1488-0.31638-9.6845-3.3177-11.651-3.6171-2.37-7.2979-1.1097-9.0573,3.1011-1.4893,3.5644-1.9634,12.634-0.72514,13.872,0.38993,0.38993,3.4274,0.57743,6.75,0.41667l6.041-0.29229,0.30908-5.4466zm-16.348,35.068c-5.0878-2.3111-11.747-9.7938-13.285-14.928-1.6127-5.3828-1.4738-11.827,0.3902-18.104,4.3901-14.783,23.671-22.026,35.672-13.4,5.4429,3.9122,9.9948,11.111,10.146,16.046l0.1154,3.7651-15,0.5-15,0.5-0.33364,5c-0.49802,7.4633,1.4769,15.074,4.5358,17.48,3.1106,2.4468,10.08,2.7006,14.296,0.52067,3.4284-1.7729,7.5534-6.9158,9.0958-11.34,1.1501-3.2993,2.9063-4.2789,2.9063-1.6211,0,4.9217-6.9541,13.291-13.218,15.907-5.1,2.1304-15.273,1.9675-20.321-0.32542zm-156.2-3.903c2.5648-2.2526,3.9258-7.8778,3.5612-14.719-0.29052-5.4503-0.53795-6.0308-2.7008-6.3367-3.8651-0.54659-9.0875,0.80518-11.175,2.8925-1.5308,1.5308-1.9442,3.3403-1.9442,8.51,0,3.6112,0.47942,7.4615,1.0654,8.5564,2.0951,3.9147,7.3936,4.4338,11.193,1.0968zm-21.242,3.93c-5.1421-2.7577-7.1832-6.0677-7.1832-11.649,0-9.089,6.5196-13.753,21.592-15.447,4.9087-0.55162,9.3491-1.4271,9.8675-1.9455s0.76254-4.1282,0.54253-8.0218c-0.52786-9.3419-1.7612-10.592-10.422-10.566-7.7505,0.02376-9.9472,1.8178-5.8938,4.8134,1.7593,1.3002,2.4808,2.7821,2.4808,5.095,0,4.0528-2.6173,6.5716-6.8287,6.5716-4.1715,0-7.1713-3.0584-7.1713-7.3114,0-6.8903,8.1378-11.635,20-11.661,9.6754-0.02114,14.325,1.3276,18.844,5.4663l3.6556,3.3477,0.5,18.033c0.56191,20.266,1.3559,22.855,5.4486,17.767,2.4538-3.0504,3.8372-2.5172,2.5173,0.97028-2.4629,6.5076-12.539,8.5242-19.384,3.8795l-3.6967-2.5087-4.2807,2.5087c-5.4508,3.1944-15.273,3.5079-20.588,0.65721zm956.77-36.019c0.3385-8.4207-1.1101-11.13-5.9512-11.13-4.9337,0-6.845,3.025-6.845,10.833,0,3.7583,0.3196,7.153,0.7103,7.5436,0.3907,0.39066,3.2032,0.57816,6.25,0.41667l5.5397-0.29363,0.2962-7.3702zm-13.049,37.667c-5.374-1.4272-13.211-8.835-15.419-14.574-4.0654-10.567-0.7467-24.414,7.4862-31.236,4.734-3.9228,13.089-6.4172,18.563-5.542,5.4246,0.86725,11.659,4.6026,15.006,8.9905,3.0444,3.9915,5.9205,11.334,5.1876,13.244-0.3555,0.92638-4.4678,1.3421-15.278,1.5445l-14.792,0.27697-0.2909,7.6843c-0.3648,9.6384,1.3138,14.144,6.1244,16.438,6.9462,3.3124,15.557-0.77114,19.666-9.3266,3.0109-6.2681,5.4222-7.2851,3.6643-1.5454-1.5964,5.2128-9.1734,12.779-14.164,14.145-4.7695,1.3048-10.608,1.2685-15.753-0.09801zm-206.01,0.1818c-5.9446-1.5054-11.15-4.5487-14.704-8.5967-6.3268-7.2058-6.4584-7.9769-6.8403-40.074l-0.4-29.193-3.09-0.3075c-1.7018-0.16912-3.2789-0.86999-3.5046-1.5575-0.31725-0.96641,3.3708-1.25,16.256-1.25,12.887,0,16.573,0.28349,16.254,1.25-0.22705,0.6875-1.952,1.475-3.8333,1.75l-3.4205,0.5v29.5c0,29.481,0.002,29.503,2.5,34.448,3.518,6.9628,6.6026,8.9076,14.869,9.3747,9.8332,0.55563,15.271-2.4228,19.761-10.823,1.6643-3.114,1.9064-6.4071,2.1952-29.863,0.35491-28.823-0.0617-31.724-4.7012-32.733-4.5463-0.98918-5.267-1.3624-4.6278-2.3967,0.79969-1.2939,19.188-1.3274,19.986-0.03638,0.32995,0.53388-0.52503,1.253-1.9,1.5981-4.9399,1.2398-5.0493,1.8729-5.584,32.332-0.47077,26.814-0.63619,28.85-2.6495,32.613-2.919,5.4553-7.0136,9.4076-12.103,11.683-4.9644,2.2192-18.81,3.226-24.51,1.7824zm-788.04-0.067c-12.463-2.936-23.224-14.92-26.72-29.758-1.5287-6.488-0.86613-18.591,1.4174-25.891,4.09-13.074,15.191-23.811,27.808-26.897,6.085-1.4881,7.2985-1.5027,12.5-0.14968,3.1684,0.82415,7.8982,2.3347,10.511,3.3567,4.5453,1.7782,4.8779,1.7827,7.7211,0.10315,2.9269-1.729,2.9796-1.721,3.5417,0.53434,0.31379,1.2592,0.43932,7.0144,0.27895,12.789-0.33725,12.145-1.7974,13.758-4.7818,5.2838-4.061-11.531-12.349-19.326-21.312-20.045-4.2409-0.34024-5.8289,0.013664-8.6245,1.922-7.3825,5.0396-10.328,16.008-10.296,38.339,0.03137,22.13,3.2036,33.37,10.48,37.133,4.8367,2.5012,13.724,1.4586,18.998-2.2287,5.0759-3.5485,10.252-10.922,12.089-17.221,2.5359-8.6968,3.6561-6.3274,3.6561,7.7332,0,10.764-0.25713,13.083-1.4503,13.083-0.79767,0-1.8637-0.73873-2.369-1.6416-1.0556-1.8863-2.3088-1.6825-12.681,2.0625-7.2644,2.623-13.93,3.1016-20.766,1.4911zm1184.6,27.086c-2.736-1.1024-4.3154-3.9775-4.3154-7.8558,0-7.9647,11.224-9.5899,14.381-2.0822,1.0848,2.58,1.4721,2.8269,2.497,1.5919,0.6672-0.80392,1.9001-4.8308,2.7399-8.9485l1.5267-7.4869-10.716-25.054c-5.8939-13.78-11.234-25.253-11.866-25.495-0.6326-0.24276-3.8304-0.15357-7.1062,0.19819l-5.956,0.63956-0.2717,19.275c-0.1713,12.157,0.1186,20.004,0.7852,21.25,1.2526,2.3406,3.8544,2.5419,6.5454,0.50657,2.7469-2.0777,3.694-1.8729,2.4125,0.52171-2.9395,5.4924-13.979,7.8271-20.051,4.2404-5.2437-3.0975-5.9205-6.1518-5.9205-26.72v-18.624l-2.5-0.9505c-3.5294-1.3419-3.111-2.5004,1.3902-3.849,6.6682-1.9978,12.305-9.933,14.596-20.546,1.2025-5.5717,2.4417-1.0702,2.7278,9.9084l0.2862,10.986,18.75,0.27206c11.366,0.16492,18.75,0.6572,18.75,1.25,0,0.53786-0.9141,0.97794-2.0314,0.97794-1.1172,0-2.2744,0.63345-2.5715,1.4077-0.6957,1.8128,9.7127,25.592,11.202,25.592,1.1884,0,9.4011-19.599,9.4011-22.435,0-0.91203-1.3472-2.4248-2.9937-3.3617-1.6465-0.93692-2.9965-2.041-3-2.4535-0.01-1.0683,14.762-0.93366,15.426,0.14062,0.3027,0.48984-0.5042,1.5816-1.7932,2.4262-4.2135,2.7608-20.423,40.59-24.223,56.532-1.3568,5.6916-3.1382,11.646-3.9586,13.233-2.5319,4.896-8.7883,7.0689-14.142,4.9116zm-893.37-49.916c3.7074-3.7074,3.9584-21.352,0.36026-25.328-1.7853-1.9727-4.4882-2.2478-7.3-0.74296-5.1286,2.7448-5.2773,23.964-0.18864,26.93,2.6319,1.5343,5.0227,1.246,7.1284-0.8597zm5.6817,46.524c10.442-4.8622,13.825-15.859,5.897-19.172-5.2004-2.1729-26.779-2.0084-29.009,0.22108-5.7879,5.7879-3.7298,16.597,3.782,19.862,5.1055,2.2195,13.451,1.826,19.33-0.91144zm-19.1,4.459c-8.551-2.0817-14.5-7.9248-14.5-14.242,0-3.2647,0.65992-4.6832,3.5-7.5233,3.4432-3.4432,4.359-5.3,2.6139-5.3-1.4588,0-4.1142-6.5581-4.1102-10.151,0.005-4.1462,3.1642-9.5126,6.494-11.03,3.0459-1.3878,3.0986-1.9694,0.39992-4.4117-6.6276-5.9979-6.5077-15.78,0.27101-22.11,5.5515-5.1834,16.815-6.8887,24.689-3.7381,3.6768,1.4712,4.0893,1.443,7.2702-0.49626,6.106-3.7225,12.872-1.7049,12.872,3.8383,0,2.9315-2.6516,6.0983-5.1062,6.0983-2.6514,0-5.8938-3.0569-5.8938-5.5567,0-1.3438-0.42344-2.4433-0.94098-2.4433-1.9617,0-1.9862,1.9423-0.0774,6.1487,3.5008,7.7149,2.2177,13.981-3.9203,19.146-4.6449,3.9085-9.3349,5.0467-17.678,4.2907-8.7579-0.79362-13.727,0.98459-13.195,4.7221,0.30172,2.1201,0.8223,2.2109,15.812,2.759,16.117,0.58934,17.884,1.0217,21.955,5.3737,3.27,3.4958,4.0803,13.561,1.612,20.024-4.2594,11.153-18.881,17.81-32.067,14.6z"/>
</svg>
