<?xml version="1.0"?>
<svg xmlns="http://www.w3.org/2000/svg" version="1.1" viewBox="0 0 460 324">
 <path fill="#0a5190" d="M198.5,321.92c-55.61-5.24-103.76-23.98-143.12-55.7-38.159-30.74-56.122-67.72-54.027-111.22,1.581-32.83,14.591-60.352,40.729-86.146,44.982-44.389,111.76-68.854,187.92-68.854,69.51,0,127.52,18.871,174.65,56.811,36.04,29.012,54.35,64.279,54.35,104.69,0,47.094-24.2,86.207-73.496,118.79-31.305,20.689-65.548,33.284-108,39.724-16.143,2.4488-61.631,3.549-79,1.9108zm11.885-10.735c0.27691-0.44806-2.2332-2.8075-5.578-5.2433s-8.9297-7.5817-12.411-11.435l-6.32-7-15.79-0.27c-16.83-0.29068-20.531,0.45165-16.784,3.3661,8.6657,6.7396,35.633,18.96,45,20.393,7.0474,1.0775,11.299,1.1488,11.885,0.19934zm17.62-10.64c0-10.311-0.19458-11.569-1.9343-12.5-2.2974-1.2295-27.673-1.2713-30.566-0.0504-1.7912,0.75609-1.1497,1.669,6.1453,8.7451,8.2019,7.9557,19.633,15.183,24.105,15.241,2.2042,0.0284,2.25-0.20446,2.25-11.436zm15.354,7.7277c9.0709-4.7436,23.98-18.679,21.646-20.233-1.608-1.0709-27.781-1.4346-30.418-0.42265-1.3197,0.50641-1.5818,2.5776-1.5818,12.5,0,13.977-0.31015,13.733,10.354,8.1559zm29.146,0.005c8.9455-3.1663,29.266-13.589,33.64-17.255l3.3598-2.8157-3.5759-0.67743c-1.9667-0.37258-9.8499-0.52954-17.518-0.3488l-13.942,0.32862-7.3845,7.7769c-4.0615,4.2773-9.5658,9.3781-12.232,11.335-2.666,1.957-4.8473,4.0083-4.8473,4.5584,0,1.7012,14.938-0.22575,22.5-2.9024zm-109.01-4.2824c-0.34478-0.55786-2.2838-1.8603-4.309-2.8943-2.0252-1.0337-7.2822-4.4875-11.682-7.6748l-8-5.795-9.728-0.42612c-10.247-0.44888-17.195,0.31185-16.285,1.7832,0.84822,1.3725,18.737,8.0732,32.513,12.178,12.578,3.7482,18.668,4.7332,17.491,2.8287zm148.68-2.5252c14.192-4.0741,30.84-10.016,33.489-11.953,1.6564-1.2112,1.4932-1.3886-1.8546-2.0167-2.0189-0.37876-7.8632-0.51002-12.987-0.29171l-9.32,0.39-12.25,8.28c-6.7375,4.5567-12.25,8.4726-12.25,8.7019,0,0.94966,3.4782,0.23372,15.17-3.1226zm-182.23-19.41c1.143-0.72315-0.0631-2.5008-5.7791-8.5184-3.973-4.1825-9.9589-11.302-13.302-15.821-3.3432-4.519-6.6795-8.5619-7.4141-8.9842-2.2339-1.2844-49.722-0.4161-50.166,0.91725-0.88455,2.6574,28.536,24.413,41.217,30.479,5.7296,2.7407,6.6308,2.8694,20,2.8555,7.7-0.008,14.65-0.42576,15.444-0.92838zm50.06-0.04c1.309-0.83268,1.3181-1.2446,0.0711-3.2347-3.8204-6.0975-9.0591-15.93-11.605-21.781-1.5554-3.575-3.2518-7.0625-3.7698-7.75-1.2245-1.6253-51.226-1.8216-52.225-0.20495-1.4565,2.3567,23.16,29.961,29.028,32.552,3.5733,1.5776,36.122,1.9309,38.5,0.41795zm46.066-0.0504c1.7827-0.95405,1.9343-2.2316,1.9343-16.3,0-10.539-0.37148-15.636-1.2-16.465-0.87257-0.87257-8.3848-1.2-27.531-1.2-21.771,0-26.425,0.2449-26.874,1.4139-1.244,3.2417,13.925,32.001,17.35,32.896,3.6592,0.95551,34.437,0.66328,36.321-0.34485zm46.84-1.8638c5.0442-5.3998,16.979-29.617,15.382-31.213-0.5294-0.5294-12.375-0.8077-27.854-0.65443l-26.94,0.25-0.27561,16.425c-0.20926,12.471,0.0315,16.62,1,17.235,0.70159,0.44524,9.0826,0.81643,18.624,0.82485l17.349,0.0153,2.708-2.899zm45.377,1.5344c6.242-2.6469,30.434-28.985,29.42-32.031-0.37536-1.1278-46.029-2.1985-50.212-1.1776-1.3427,0.32771-2.973,2.744-4.9133,7.2818-1.5971,3.7352-5.3134,11.035-8.2584,16.221-3.9962,7.0378-5.0329,9.6341-4.0867,10.235,2.2674,1.4392,34.464,0.99137,38.05-0.52918zm48.351-1.8648c13.62-7.14,40.36-27.24,40.36-30.35,0-1.2598-3.5832-1.4307-25.195-1.2016l-25.195,0.26717-6.7579,8.903c-3.7169,4.8966-9.9154,12.321-13.774,16.498-5.8473,6.3293-6.7301,7.7161-5.2976,8.3226,0.94542,0.40026,8.244,0.6165,16.219,0.48052,13.544-0.23093,14.839-0.42438,19.633-2.9332zm54.491-44.754c12.67-15.665,21.004-32.37,25.052-50.221,2.9369-12.948,2.9472-33.6,0.0232-46.486-4.29-18.9-14.42-38.599-27.05-52.57l-3.38-3.75h-185.8-185.8l-4.185,4.75c-15.317,17.385-25.615,40.705-28.228,63.922-3.3226,29.52,7.8538,62.541,29.319,86.625l5.084,5.7h184.25,184.25l6.4572-7.9833zm-289.63,2.08c-2.2-1.0154-5.0909-3.0305-6.4243-4.478-3.21-3.48-4.08-3.32-4.08,0.76,0,3.9-1.15,4.61-7.45,4.61-2.8192,0-5.184-0.70848-6.9182-2.0726-2.495-1.9625-2.6349-2.5466-2.6349-11,0-7.5941-0.29871-9.2261-2-10.927-2.3187-2.3187-2.7497-8-0.60699-8,1.69,0,2.61-2.15,2.61-6.08,0-2.9,0.04-2.92,6-2.92h6v4.0248c0,3.3729,0.40488,4.1787,2.5,4.9752,1.8635,0.70852,2.5,1.6797,2.5,3.8147,0,2.0848-0.68035,3.1742-2.5,4.0033-2.2654,1.0322-2.5,1.7064-2.5,7.1853,0,5.5701,0.202,6.123,2.5651,7.0214,1.4108,0.53639,2.7608,0.97525,3,0.97525,0.23,0,0.43-2.52,0.43-5.6,0-11.14,5.88-17.4,16.35-17.4,9.3669,0,16.083,4.9073,18.025,13.171,1.2577,5.3519,0.36313,5.8295-10.919,5.8295-10.496,0-12.722,0.76436-10.395,3.5689,0.99845,1.2031,2.893,1.3557,10.086,0.81271,8.3702-0.63186,8.8567-0.56041,8.8567,1.3006,0,2.6184-3.8699,6.1333-8.0833,7.3417-5.0842,1.4581-9.9448,1.15-14.417-0.91392zm11.31-20.86c-0.25352-1.3164-1.3212-1.75-4.3096-1.75s-4.0561,0.43357-4.3096,1.75c-0.28193,1.4639,0.42253,1.75,4.3096,1.75s4.5916-0.28606,4.3096-1.75zm80.205,18.919c-6.206-6.206-2.382-12.485,9.8154-16.118,5.7243-1.7048,7.1698-2.53,7.1698-4.0929,0-2.4044-4.1233-2.7189-6-0.45765-0.82415,0.99304-3.0624,1.5-6.6224,1.5-4.59,0-5.39-0.28-5.39-1.87,0-3.0373,3.5835-6.6935,7.7981-7.9562,8.1587-2.4444,19.216-0.58852,21.876,3.6719,0.63615,1.0186,1.2725,7.2753,1.4476,14.234l0.31245,12.416-7.9673,0.22513c-4.382,0.12383-10.548,0.50259-13.703,0.8417-5.421,0.58278-5.9004,0.45139-8.75-2.3982zm16.414-5.74c1.76-1.76,2.13-5.43,0.54-5.43-1.86,0-7.97,2.88-7.97,3.75,0,3.0741,4.9214,4.1868,7.4286,1.6796zm22.076,6.1667c-2.33-2.33-2.51-3.2-2.51-12.05,0-5.25-0.36-9.55-0.81-9.55-0.44488,0-1.6023-0.58014-2.572-1.2892-2.2258-1.6276-1.2927-6.3014,1.3985-7.0052,1.3158-0.34408,1.9396-1.5958,2.1653-4.3445l0.31-3.86,5.75-0.2999,5.75-0.29991v4.0747c0,3.4262,0.39788,4.2259,2.5,5.0252,1.8635,0.70852,2.5,1.6797,2.5,3.8147,0,2.0848-0.68035,3.1742-2.5,4.0033-2.2654,1.0322-2.5,1.7064-2.5,7.1853,0,5.5655,0.20335,6.1235,2.5576,7.0186,2.2697,0.86296,2.523,1.4511,2.25,5.2252l-0.31,4.25-5.7457,0.29977c-5.0158,0.2617-6.0638-0.0183-8.25-2.2045zm40.736,0.29465c-4.334-2.1453-7.1981-5.335-9.4366-10.509-1.1837-2.7361-1.2727-2.5294-1.7749,4.1194l-0.52869,7h-5.5-5.5v-15-15h5.5,5.5l0.5,7,0.5,7,2.1312-4.6085c3.0658-6.6295,8.1496-10.176,15.333-10.695,10.406-0.75269,17.881,5.128,18.81,14.799,1.2553,13.064-13.144,22.028-25.533,15.895zm12.366-9.411c3.08-4.73,0.29-13.48-4.31-13.48-0.72,0-2.21,0.9-3.31,2-2.2154,2.2154-2.7381,8.7523-0.96482,12.066,1.554,2.9036,6.5057,2.5646,8.5706-0.58684zm54.847,9.2344c-2.21-1.89-2.87-3.32-2.87-6.21,0-4.9894,3.3139-7.794,12.41-10.503,5.564-1.657,6.99-2.4811,6.99-4.0394,0-2.4044-4.1233-2.7189-6-0.45765-0.82415,0.99304-3.0624,1.5-6.6224,1.5-4.58,0-5.38-0.28-5.38-1.87,0-5.12,7.17-9.13,16.35-9.13,5.3378,0,12.323,2.5058,13.577,4.8702,0.47526,0.89636,1.0246,7.2548,1.2208,14.13l0.35672,12.5-8,0.22513c-4.4,0.12383-10.519,0.49898-13.597,0.83368-4.9796,0.54142-5.9116,0.33786-8.45-1.8455zm15.976-6.2847c1.69-1.71,2.12-5.43,0.62-5.43-1.8117,0-6.533,2.139-7.2376,3.279-0.94432,1.528,0.95549,3.721,3.2235,3.721,0.99337,0,2.5133-0.70714,3.3776-1.5714zm-336.78,6.9c-0.367-0.36-0.667-9.81-0.667-21v-20.33h6.5,6.5v21,21h-5.8333c-3.2083,0-6.1333-0.3-6.5-0.66667zm15.772-0.63149c-0.27398-0.71398-0.37236-7.5765-0.21862-15.25l0.28-13.95,4.8277-0.30796c2.6552-0.16938,5.4369,0.19759,6.1814,0.81549,1.0172,0.84416,2.6202,0.67362,6.4484-0.68601,4.9832-1.7699,5.1762-1.7658,8.8186,0.18451,5.8906,3.1541,7.3036,7.0949,6.9897,19.494l-0.266,10.51-5.75,0.3-5.75,0.3-0.1-7.8c-0.143-11.25-0.737-12.8-4.9-12.8-4.1593,0-4.7563,1.5534-4.9003,12.75l-0.1,7.75h-5.5314c-3.612,0-5.7042-0.45045-6.0295-1.2982zm94.781-13.9,0.28-15.3l3.9326-0.32125c2.1629-0.17669,4.9601,0.22864,6.2159,0.90073,1.7958,0.96111,2.5969,0.96176,3.7521,0.003,0.80782-0.67044,2.9607-1.0758,4.7841-0.90074,2.6047,0.25002,3.3867,0.82232,3.6482,2.6699,0.61033,4.3118-0.67579,7.1483-3.2412,7.1483-1.3036,0-3.4325,0.85889-4.731,1.9086-2.0465,1.6546-2.4274,3.0192-2.8608,10.25l-0.5,8.3414-5.7763,0.30069-5.7763,0.30069,0.27632-15.301zm26,0l0.28-15.3,3.9326-0.32125c2.1629-0.17669,4.9142,0.20405,6.1138,0.8461,1.739,0.93071,2.8069,0.84379,5.2677-0.42875,3.9126-2.0233,6.5029-2.014,10.829,0.0387,5.3309,2.5297,6.3571,5.575,6.3571,18.865v11.6l-5.75-0.29991-5.75-0.2999-0.29182-8.9479c-0.31-9.54-1.13-11.55-4.71-11.55-3.5788,0-4.3969,2.0072-4.7082,11.552l-0.29,8.95-5.7763,0.30069-5.7763,0.30069,0.27632-15.301zm145.78-0.25,0-15.55h4.8c2.64,0,5.3106,0.51062,5.9347,1.1347,0.84627,0.84627,2.2197,0.70057,5.4031-0.57319,5.4778-2.1918,9.6782-1.406,13.437,2.5139,2.9067,3.0312,2.9252,3.1276,2.9252,15.238v12.187l-5.75,0.2999-5.75,0.29991v-8.6156c0-9.67-0.99-12.48-4.41-12.48-3.6714,0-4.4824,1.9537-4.7954,11.552l-0.29,8.95-5.75,0.2999-5.75,0.29991v-15.55zm72-6.55v-22h5.5,5.5v22,22h-5.5-5.5v-22zm-123.59-14.36c-0.30986-0.8075-0.41733-2.7437-0.23881-4.3026,0.32-2.74,0.53-2.84,5.83-2.84h5.5v4,4l-5.2612,0.30265c-3.9094,0.22488-5.4059-0.0746-5.8246-1.1655zm-194.91-10.79c-28.137-3.12-46.573-14.33-47.737-29.04l-0.263-3.31,25.057-0.26676,25.057-0.26677,1.659,3.479c2.8985,6.0783,13.356,9.5294,28.928,9.547,13.315,0.015,20.799-3.0325,20.799-8.4694,0-4.4659-3.536-5.594-28.798-9.1876-27.946-3.9755-40.623-6.9324-51.396-11.988-15.755-7.3933-20.343-17.775-13.253-29.989,6.2266-10.727,23.304-16.572,53.783-18.409,40.742-2.4556,70.271,3.8594,79.652,17.034,2.5008,3.512,5.2889,11.759,4.4399,13.133-0.3,0.49-11.33,0.89-24.51,0.89h-23.966l-0.93062-2.4477c-0.51183-1.3462-2.1302-3.2337-3.5965-4.1944-5.6495-3.7017-22.655-5.5321-30.683-3.3027-6.3398,1.7606-8.3645,7.4701-3.5608,10.041,1.0695,0.57236,11.029,2.1507,22.132,3.5074,43.662,5.335,64.167,12.793,70.55,25.659,5.7993,11.691-2.3915,23.308-21.862,31.006-13.136,5.1937-33.038,7.8083-57.856,7.6008-8.6-0.08-19.24-0.54-23.64-1.03zm110.74-50.58,0.26-47.77h59c57.885,0,59.158,0.0422,67.373,2.2329,14.642,3.9048,24.138,9.5198,27.678,16.366,1.8506,3.5788,1.8639,11.198,0.0257,14.753-2.3613,4.5662-10.353,11.171-17.417,14.395l-6.6601,3.0391,4,1.7833c2.2,0.9808,4.5262,1.8166,5.1694,1.8574,1.9793,0.12552,12.009,9.8757,13.174,12.807,1.3342,3.3568,5.0945,26.464,4.4779,27.517-0.59698,1.0198-51.074,0.9594-51.705-0.0619-0.27598-0.44655-1.2089-5.2062-2.0731-10.577-1.7723-11.014-3.1305-14.245-7.5523-17.965-4.8612-4.0905-9.0402-4.7793-26.991-4.4492l-16.51,0.31-0.5,16.5-0.5,16.5-25.76,0.2669-25.76,0.2669,0.2597-47.767zm99.483-9.2396c6.1011-3.72,5.4966-10.916-1.2392-14.749-3.8356-2.1828-4.7659-2.2581-24.984-2.0228l-21,0.24443-0.28753,9.25-0.28752,9.25,22.288-0.004c20.392-0.003,22.562-0.17086,25.511-1.969zm68.52,9.24,0.26-47.77,24.61-0.267c19.967-0.21674,24.83-0.0063,25.76,1.1146,0.83445,1.0055,1.0759,14.015,0.8867,47.767l-0.26,46.38-25.76,0.2669-25.76,0.2669,0.2597-47.767zm-252.47-73.02c4.471-5.9125,10.906-13.645,14.3-17.184,6.0208-6.2772,6.1135-6.4558,3.8028-7.3252-1.3-0.49-8.67-0.734-16.37-0.542-15.762,0.394-15.805,0.409-33.791,11.535-12.797,7.916-28.497,21.181-27.322,23.084,0.531,0.859,7.635,1.182,25.99,1.182h25.259l8.129-10.75zm52.31,8.75c0.43698-0.825,3.0455-6.225,5.7967-12s6.2674-12.647,7.8138-15.272c2.4166-4.1016,2.6009-4.9122,1.3117-5.7697-0.89605-0.59596-8.5777-0.88905-19.079-0.72794l-17.58,0.27-6.1836,5.3596c-5.7115,4.9503-19.022,19.949-22.742,25.626-0.87439,1.3345-1.2947,2.9038-0.93406,3.4873,0.44132,0.71406,8.854,0.97369,25.728,0.79398,21.07-0.224,25.19-0.506,25.86-1.767zm63.72,0.8c0.83184-0.83184,1.2-6.0366,1.2-16.965,0-14.563-0.14749-15.844-1.9343-16.8-2.3712-1.269-33.99-1.3966-37.251-0.15035-3.931,1.5024-19.68,30.42-18.393,33.773,0.70884,1.8472,54.537,1.9833,56.378,0.14247zm62.852-0.33421c1.2982-3.383-13.339-31.158-17.63-33.454-2.0182-1.0801-34.757-1.4338-37.44-0.40448-1.35,0.519-1.58,3.003-1.58,17.332,0,9.1995,0.3,17.026,0.66667,17.393,0.36,0.367,12.98,0.667,28.03,0.667,23.673,0,27.444-0.20698,27.953-1.5342zm59.785,0.63759c1.5412-2.4938-24.09-31.174-30.154-33.741-3.6852-1.5601-34.818-1.942-37.165-0.45587-1.1014,0.69757-0.33347,2.6939,3.7742,9.8113,2.8364,4.9146,6.5553,12.276,8.2643,16.359,1.709,4.0828,3.6106,7.754,4.2258,8.158,1.6171,1.0622,50.394,0.93677,51.055-0.1313zm59.56-0.482c0-2.975-20.46-18.987-37-28.959l-8.5-5.125-15.5-0.302c-8.841-0.17242-16.122,0.11208-16.948,0.66224-1.1593,0.77214,0.0487,2.5313,6.0561,8.8191,6.6659,6.9771,9.6853,10.709,18.634,23.032l2.36,3.25h25.449c20.95,0.001,25.45-0.242,25.45-1.377zm-262.5-45.016c4.4-3.2022,10.7-7.2201,14-8.9286,4.6895-2.4279,5.5265-3.1816,3.832-3.4505-4.71-0.748-33.9,7.895-47.33,14.014-5.5606,2.5348-6.211,3.09-4.5,3.8417,1.1,0.48331,7.4,0.75883,14,0.61227l12-0.26648,8-5.8222zm43.891-1.181c3.87-4.167,10.09-9.797,13.82-12.511,3.74-2.715,6.79-5.218,6.79-5.563,0-1.1708-14.878,0.71477-20.265,2.5684-12.668,4.3585-29.399,12.754-37.652,18.895-3.0886,2.298-3.2328,2.6146-1.5,3.2938,1.0544,0.41327,8.6345,0.78303,16.845,0.82169l14.92,0.07,7.0363-7.5753zm35.674,6.5401c1.74-0.931,1.94-2.188,1.94-12.441,0-7.1773-0.40551-11.656-1.0938-12.082-0.60159-0.37181-4.8688,1.1946-9.4826,3.4808-10.22,5.062-26.05,19.271-23.43,21.035,1.9847,1.3387,29.566,1.3448,32.066,0.0072zm39.788,0.14704c2.0251-1.2832,0.1907-4.0144-7.0888-10.555-6.2088-5.5781-23.099-15.087-24.863-13.997-1.4649,0.90537-1.1378,24.177,0.34825,24.777,2.1645,0.87339,30.185,0.67314,31.603-0.22586zm42.565,0.28115c0.87-0.334,1.58-0.979,1.58-1.433,0-2.386-26.23-16.116-39.24-20.54-7.26-2.47-20.76-4.275-20.76-2.775,0,0.49688,2.7205,2.8845,6.0455,5.3059s9.0342,7.5855,12.687,11.476c3.6529,3.8903,7.3449,7.3792,8.2045,7.7531,1.9578,0.85149,29.335,1.037,31.481,0.2133zm39.08-0.315c1.7688-0.69082,1.5254-1.0233-2.1047-2.8759-7.7-3.926-42.93-15.202-47.51-15.202-2.105,0-0.58217,1.8017,3.3595,3.9749,2.3375,1.2887,7.8286,4.8591,12.202,7.9341,4.3739,3.075,8.6489,5.8969,9.5,6.2707,2.1399,0.93988,22.092,0.85745,24.548-0.10142zm71.49,266.67c-5.81-3.96-7.49-7.15-7.49-14.25,0-10.195,5.2729-15.645,15.761-16.291,5.2924-0.32599,6.7668-0.0259,9.7154,1.9771,10.86,7.3774,10.91,21.257,0.10212,28.54-4.7004,3.1676-13.452,3.1791-18.088,0.0238zm17.578-4c8.9212-8.1946,4.5345-22.429-7.2246-23.444-9.072-0.78265-14.996,5.5468-14.083,15.047,0.40184,4.182,1.0873,5.5766,4.0966,8.3344,3.08,2.83,4.33,3.31,8.63,3.31,4.2817,0,5.5554-0.48314,8.5675-3.25zm-14.57-10.17,0-9.58h5.345c8.0481,0,11.214,4.6476,6.548,9.6138-1.9708,2.0978-2.0031,2.391-0.5,4.537,0.88382,1.2618,1.6069,2.8691,1.6069,3.5717,0,2.4659-1.9997,1.2383-4.5413-2.7879-2.97-4.69-4.75-4.67-5.46,0.07-0.275,1.8376-1.0625,3.5268-1.75,3.7538-0.94176,0.31103-1.25-1.9503-1.25-9.1705zm9.8196-4.3333c0.28018-1.9728-0.12023-2.25-3.25-2.25-3.1644,0-3.5696,0.29096-3.5696,2.5634,0,2.2896,0.34708,2.5299,3.25,2.25,2.491-0.24017,3.3246-0.83886,3.5696-2.5634z"/>
</svg>
