<?xml version="1.0" encoding="UTF-8" standalone="no"?>
<?xml-stylesheet type="text/css" href="r/fonts.css"?>
<svg xmlns="http://www.w3.org/2000/svg" version="1.1"
     viewBox="0 0 342.94 137.28">
<path d="m4.0368,64.33,334.87,0,0-18.164-334.87,0,0,18.164z" fill="#d9d9ff"/>
<path d="m4.0368,64.33,334.87,0,0,36.327,3.7378,2.8255-7.4757,5.651,7.4757,5.651-3.7378,2.8255,0,1.2109-334.87,0-3.7378-2.8255,7.4757-5.651-7.4757-5.651,3.7378-2.8255,0-1.2109" fill="#80cc80"/>
<path d="m4.0368,136.98,334.87,0,0-18.164-334.87,0,0,18.164z" fill="#8c8c8c"/>
<path d="m328.44,46.166,0,18.164" stroke="#000" stroke-dasharray="0.6,2" stroke-width="0.6" fill="none"/>
<path stroke="#000" stroke-width="0.6" fill="none" d="m4.0368,136.98h334.87v-19.4l3.7378-2.8255-7.4757-5.651,7.4757-5.651-3.7378-2.8255v-54.491h-334.87v55.75l-3.7378,2.8255,7.4757,5.651-7.4757,5.651,3.7378,2.8255zm0-18.164h334.87m0-18.164h-334.87m334.87-36.328h-334.87m83.716,0v-18.164m41.859,0v18.164m41.859,0v-18.164m20.929,0v18.164m-188.36-18.164v-18.164h230.22v-18.164h104.65v36.328m-104.65-18.164h10.465v-18.164"/>
<g font-family="cabin">
  <g font-size="7.2px">
    <text transform="rotate(90)" x="13.524554" y="-237.7758">pad</text>
    <text transform="rotate(90)" x="49.851109" y="-331.95566">pad</text>
  </g>
  <g font-size="11.2px">
    <text x="116.6476" y="39.774986">temporary key material</text>
    <text x="40.504734" y="58.092922">0</text>
    <text x="91.017075" y="58.092922">d ≥ 32</text>
    <text x="146.60497" y="58.092922" >p</text>
    <text x="173.90001" y="58.092922">NC</text>
    <text x="261.79822" y="58.092922">0</text>
    <text x="131.59322" y="85.182808">ECDH message 1</text>
    <text x="121.10512" y="112.42809">optional access token</text>
    <text x="128.63142" y="130.70264">authentication tag</text>
  </g>
  <g font-size="8px">
   <text x="1.0960039" y="5.7119999">0</text>
   <text x="22.275494" y="5.8239994">1</text>
   <text x="42.423" y="5.8239994">2</text>
   <text x="63.482494" y="5.7119999">3</text>
   <text x="84.597984" y="5.8239994">4</text>
   <text x="105.56948" y="5.7119999">5</text>
   <text x="126.46099" y="5.7119999">6</text>
   <text x="147.75647" y="5.8239994">7</text>
   <text x="168.52399" y="5.7119999">8</text>
   <text x="189.82346" y="5.8239994">9</text>
   <text x="208.9451" y="5.7119999">10</text>
   <text x="231.60858" y="5.8239994">11</text>
   <text x="251.8201" y="5.8239994">12</text>
   <text x="272.83957" y="5.7119999">13</text>
   <text x="293.85107" y="5.8239994">14</text>
   <text x="314.97058" y="5.7119999">15</text>
   <text x="335.90607" y="5.7119999">16</text>
  </g>
 </g>
</svg>
