<?xml version="1.0" encoding="UTF-8" standalone="no"?>
<?xml-stylesheet type="text/css" href="r/fonts.css"?>
<svg xmlns="http://www.w3.org/2000/svg" version="1.1"
     viewBox="0 0 425.06 80.786">
  <path fill="#d9d9ff" d="m2.1105,80.413,418.59,0,0-22.705-418.59,0,0,22.705z"/>
  <g stroke="#000" fill="none" stroke-width="0.74745595">
    <path d="m2.1106,80.413,418.59,0,0-22.705-418.59,0,0,22.705z"/>
    <path d="m2.1106,35.003,0,22.705,418.59,0,0-45.41-130.81,0,0,22.705-287.78,0z"/>
    <path d="m289.89,35.003,13.081,0,0-22.705"/>
    <path d="m106.76,57.708,0,22.705m52.322-22.705,0,22.705m52.324-22.705,0,22.705m26.162-22.705,0,22.705"/>
    <path d="m407.61,57.708,0,22.705" stroke-dasharray="0.747,3.737"/>
  </g>
<g font-family="cabin">
  <g font-size="8.96324635px">
    <text transform="rotate(90)" y="-294.01416" x="16.836655">pad</text>
    <text transform="rotate(90)" y="-411.25824" x="62.059418">pad</text>
  </g>
  <g font-size="13.94282818px">
    <text y="49.515697" x="143.22221">temporary key material</text>
    <text y="72.319611" x="20.26786">link ID ≠ 0</text>
    <text y="72.319611" x="127.14251">0</text>
    <text y="72.319611" x="180.51601">0</text>
    <text y="72.319611" x="215.11946">RC</text>
    <text y="72.319611" x="323.91956">0</text>
  </g>
  <g font-size="9.95916367px">
    <text y="7.1108427" x="-0.62742728">0</text>
    <text y="7.2502704" x="25.738823">1</text>
    <text y="7.2502704" x="50.820362">2</text>
    <text y="7.1108427" x="77.037231">3</text>
    <text y="7.2502704" x="103.32381">4</text>
    <text y="7.1108427" x="129.43112">5</text>
    <text y="7.1108427" x="155.43887">6</text>
    <text y="7.2502704" x="181.94951">7</text>
    <text y="7.1108427" x="207.8029">8</text>
    <text y="7.2502704" x="234.31851">9</text>
    <text y="7.1108427" x="258.12296">10</text>
    <text y="7.2502704" x="286.33661">11</text>
    <text y="7.2502704" x="311.49783">12</text>
    <text y="7.1108427" x="337.66489">13</text>
    <text y="7.2502704" x="363.82202">14</text>
    <text y="7.1108427" x="390.11359">15</text>
    <text y="7.1108427" x="416.17609">16</text>
  </g>
</g>
</svg>
