<?xml version="1.0"?>
<?xml-stylesheet type="text/css" href="r/fonts.css"?>
<svg xmlns="http://www.w3.org/2000/svg"
     version="1.1" viewBox="0 0 720.96 216.09">
<rect height="26" width="136.8" y="122.29" x="515" fill="#89f789"/>
<rect height="40.8" width="98.4" y="139.69" x="100.4" fill="#89f789"/>
<path d="m418.28,90.674,93.695,39.791" stroke="#558ed5" stroke-width="0.77267474" fill="none"/>
<path d="m417.98,91.226,94.303,65.344" stroke="#558ed5" stroke-width="0.77267474" fill="none"/>
<path d="m284.17,45.181,0-15.358" stroke="#558ed5" stroke-width="0.77267474" fill="none"/>
<path d="m415.44,32.908,0,12.267" stroke="#558ed5" stroke-width="0.77267474" fill="none"/>
<path d="m342.9,16.709,16.903,0" stroke="#558ed5" stroke-width="0.77267474" fill="none"/>
<path fill="#558ed5" d="m419.92,94.727-4.4815-5.2608,6.8969-0.42868"/>
<path fill="#558ed5" d="m510.34,126.41,4.4815,5.2614-6.8969,0.42791"/>
<path fill="#558ed5" d="m418.76,95.527-3.3194-6.0606,6.8413,0.97959"/>
<path fill="#558ed5" d="m511.5,152.27,3.3194,6.0613-6.8413-0.98037"/>
<path fill="#558ed5" d="m281.08,42.09,3.0907,6.1814,3.0907-6.1814"/>
<path fill="#558ed5" d="m412.35,35.998,3.0907-6.1814,3.0907,6.1814"/>
<path fill="#558ed5" d="m418.53,42.084-3.0907,6.1814-3.0907-6.1814"/>
<path fill="#558ed5" d="m345.99,19.8-6.1814-3.0907,6.1814-3.0907"/>
<path d="m202.3,160.01,309.47-20.076" stroke="#000" stroke-width="0.77267474" fill="none"/>
<path d="m202.3,160.26,309.46,4.924" stroke="#000" stroke-width="0.77267474" fill="none"/>
<path d="m201.61,90.85,24.571-20.046" stroke="#000" stroke-width="0.77267474" fill="none"/>
<path d="m669.71,66.293c-18.821,0-24.511-11.944-24.511-24.554" stroke="#000" stroke-width="0.77267474" fill="none"/>
<path d="m654.91,108.94c7.8689,0,26.413,0,33.002-16.479" stroke="#000" stroke-width="0.77267474" fill="none"/>
<path fill="#000" d="m666.85,62.987,5.9419,3.5302-6.39,2.6348"/>
<path fill="#000" d="m642.34,45.045,2.6379-6.3885,3.528,5.9419"/>
<path fill="#000" d="m205.18,156.73-5.9681,3.4843,6.3684,2.6844"/>
<path fill="#000" d="m508.88,143.22,5.9681-3.4849-6.3684-2.6838"/>
<path fill="#000" d="m205.34,163.4-6.1319-3.1891,6.2293-2.9916"/>
<path fill="#000" d="m508.72,162.05,6.1304,3.1885-6.2308,2.9923"/>
<path fill="#000" d="m202.05,86.501-2.8357,6.3021,6.7439-1.5128"/>
<path fill="#000" d="m225.74,75.153,2.8357-6.3022-6.7439,1.5127"/>
<path fill="#000" d="m657.78,105.64-5.948,3.5169,6.3823,2.6487"/>
<path fill="#000" d="m690.21,96.18-1.584-6.7277-4.4321,5.303"/>
<path d="m100.19,180.81,99.026,0,0-108.6-99.026,0,0,108.6z" stroke="#000" stroke-width="0.77267474" fill="none"/>
<path d="m199.21,139.62-198.05,0,0-26.215,198.05,0.0695" stroke="#000" stroke-width="0.77267474" fill="none"/>
<path d="m228.54,29.817,111.27,0,0-26.215-111.27,0,0,26.215z" stroke="#000" stroke-width="0.77267474" fill="none"/>
<path d="m228.54,89.466,111.27,0,0-41.195-111.27,0,0,41.195z" stroke="#000" stroke-width="0.77267474" fill="none"/>
<path d="m359.8,29.817,111.27,0,0-26.215-111.27,0,0,26.215z" stroke="#000" stroke-width="0.77267474" fill="none"/>
<path d="m359.8,89.466,111.27,0,0-41.196-111.27,0,0,41.196z" stroke="#000" stroke-width="0.77267474" fill="none"/>
<path d="m514.98,174.69,136.86,0,0-78.645-136.86,0,0,78.645z" stroke="#000" stroke-width="0.77267474" fill="none"/>
<path d="m514.98,148.48,136.86,0m-136.86-26.215,136.86,0" stroke="#000" stroke-width="0.77267474" fill="none"/>
<path d="m720.19,30.084c-2.2262,0.66373-4.7015,1.0276-7.3061,1.0137-3.2082-0.017-6.3483-0.61814-9.0697-1.737-3.2483,7.0901-14.58,11.097-25.31,8.9507-4.4954-0.90094-8.3804-2.8033-10.992-5.3824-10.984,4.3656-25.243,2.0167-31.848-5.2465-0.0819-0.0912-0.16381-0.1839-0.24417-0.27662-7.1905,0.55478-13.703-2.8264-14.546-7.5506-0.4497-2.5189,0.8113-5.0394,3.4492-6.8892-6.2262-2.4154-8.3171-7.7159-4.6716-11.84,0.10596-0.11982,0.21595-0.2376,0.32982-0.35327" stroke="#000" stroke-width="1.54534948" fill="none"/>
<path d="m632.08,13.881c-2.658,0.13599-5.316-0.26889-7.6155-1.1606m14.333,13.854c-1.0678,0.27971-2.1882,0.46824-3.3318,0.55633m32.041,5.5432c-0.80358-0.79431-1.4758-1.6427-2.0074-2.5328m39.131-3.7815c-0.11745,0.94112-0.38634,1.873-0.80049,2.7785" stroke="#000" stroke-width="1.54534948" fill="none"/>
<path d="m199.21,184.97c0,4.624-0.62432,8.3721-1.3954,8.3721h-96.235c-0.77035,0-1.3951,3.7481-1.3951,8.3714,0-4.6233-0.62478-8.3714-1.395-8.3714h-96.236c-0.77026,0-1.395-3.7481-1.395-8.3721" stroke="#000" stroke-width="2.31802416" fill="none"/>
<path d="m651.83,181.21c0,5.3876-0.72786,9.755-1.6257,9.755h-66.722c-0.89784,0-1.6257,4.3675-1.6257,9.7544,0-5.3869-0.72786-9.7544-1.6257-9.7544h-63.631c-0.89785,0-1.6257-4.3675-1.6257-9.755" stroke="#000" stroke-width="2.31802416" fill="none"/>
<path  d="m478.89,3.6031c2.5606,0,4.636,0.34462,4.636,0.77268v41.386c0,0.42652,2.0754,0.77268,4.636,0.77268-2.5606,0-4.636,0.34616-4.636,0.77267v41.386c0,0.42667-2.0754,0.77268-4.636,0.77268" stroke="#000" stroke-width="2.31802416" fill="none"/>
<path d="m64.466,55.27-0.10987,0.18389-0.25653,0.55169-0.40318,0.84686-0.51306,1.1405-0.62308,1.3615-0.62355,1.5824-0.62293,1.7665-0.62293,1.8767-0.58677,1.9873-0.47628,2.0609-0.33024,2.0609-0.18343,2.0609-0.03632,2.0609,0.21975,1.951,0.47628,1.8031,0.77036,1.6926,1.4662,2.9077,0.87946,2.3917,0.40334,1.9504,0,1.546-0.32962,1.2145-0.4769,0.95672-0.58615,0.7359-0.58677,0.58924-0.21975,0.29393-0.07356,0.29454,0,0.29454,0.10987,0.36764,0.18343,0.33148,0.29331,0.36826,0.36656,0.36763,0.43996,0.33133,0.51306,0.36825,0.58677,0.33086,0.65986,0.33133,0.7328,0.29454,0.73342,0.29408,0.80652,0.25776,0.87946,0.18406,0.88023,0.1842,0.95255,0.18405,1.0637,0.22099,1.0629,0.22021,1.1729,0.1842,1.1361,0.14728,1.1735,0.0737,1.136-0.0737,1.063-0.25777,1.063-0.40442,0.95317-0.62602,0.8433-0.91994,0.7328-1.1777,0.58677-1.5086,0.44012-1.8405,0.25653-2.2445,0.03678-2.6868-0.11049-5.7408-0.14665-5.4835-0.18297-5.189-0.33009-4.6741-0.51321-4.1218-0.69649-3.3859-0.98949-2.539-1.2833-1.5824-0.76974-0.5146-0.8433-0.40642-0.91639-0.36625-0.95317-0.25807-0.95317-0.1839-0.98933-0.14836-0.98995-0.0371-0.98933,0.0371-0.95317,0.11127-0.91701,0.1839-0.84268,0.29516-0.80652,0.3307-0.73342,0.44197-0.58615,0.5146-0.51367,0.58878-0.40334,0.66296" fill-rule="evenodd" fill="#FFF"/>
<path d="m64.797,55.601-0.10987,0.1839-0.25653,0.55169-0.36702,0.80976-0.51306,1.1405-0.58615,1.363-0.58677,1.5809-0.62293,1.7306-0.58677,1.8399-0.54999,1.9873-0.47628,2.0239-0.33024,2.0609-0.18282,2.0609,0,1.9872,0.21975,1.9505,0.43996,1.8036,0.73296,1.6558,1.4299,2.8703,0.87961,2.3924,0.3664,1.9504,0,1.5092-0.29331,1.2145-0.47643,0.95672-0.58661,0.7359-0.54999,0.55231-0.25653,0.29408-0.10988,0.33132-0.03678,0.33148,0.11034,0.3307,0.18297,0.36826,0.25653,0.33148,0.36702,0.36763,0.4395,0.33133,0.51306,0.36825,0.58677,0.29393,0.65986,0.33148,0.69664,0.29454,0.7328,0.25776,0.80636,0.22037,0.84345,0.22099,0.8433,0.14727,0.91624,0.18405,1.0263,0.22098,1.0267,0.22037,1.1,0.18405,1.136,0.14727,1.0998,0.0737,1.0998-0.0737,1.063-0.25776,0.98949-0.40442,0.91624-0.62602,0.80652-0.88317,0.69664-1.1777,0.58677-1.5086,0.40318-1.8405,0.25653-2.2075,0.03693-2.65-0.10987-5.6677-0.11049-5.4461-0.18297-5.1154-0.33009-4.6373-0.47628-4.0474-0.65986-3.3503-0.95317-2.539-1.2465-1.5824-0.73296-0.47906-0.8433-0.44042-0.8433-0.33225-0.91624-0.25653-0.95317-0.1839-0.95317-0.11126-0.95317-0.0356-0.95317,0.0356-0.91639,0.11126-0.87946,0.1839-0.8433,0.25653-0.76974,0.33225-0.69664,0.44042-0.58662,0.47906-0.51321,0.58878-0.3664,0.66295" fill-rule="evenodd" fill="#fcf9f7"/>
<path d="m65.163,55.969-0.07294,0.18389-0.25668,0.51615-0.40318,0.84531-0.4769,1.1049-0.54984,1.3614-0.58615,1.5454-0.58677,1.6926-0.58677,1.8773-0.51306,1.9504-0.4395,1.9873-0.33024,2.0609-0.14665,2.0239-0.03678,1.9873,0.22021,1.9136,0.4395,1.7668,0.69664,1.6558,1.3931,2.8336,0.80652,2.3554,0.3664,1.9136,0,1.546-0.25653,1.1777-0.47628,0.91994-0.54984,0.69912-0.54999,0.55231-0.25653,0.3307-0.18359,0.33148-0.03678,0.33132,0.07371,0.36764,0.18343,0.33148,0.25653,0.36826,0.3664,0.3307,0.44012,0.33148,0.47628,0.33132,0.58677,0.33086,0.62293,0.29454,0.69664,0.25777,0.7328,0.25776,0.77036,0.22037,0.80636,0.22098,0.84268,0.14728,0.88023,0.18405,0.98933,0.22098,0.98995,0.22099,1.063,0.18343,1.063,0.14727,1.0998,0.0369,1.0263-0.0369,1.0267-0.25776,0.95271-0.40442,0.88008-0.62602,0.80652-0.88317,0.69649-1.1408,0.54999-1.4718,0.3664-1.8399,0.25653-2.2082,0.03693-2.6132-0.11049-5.594-0.10987-5.3726-0.18297-5.0423-0.29331-4.5999-0.4769-4.0116-0.65986-3.3488-0.87946-2.5019-1.2097-1.5454-0.73342-0.47906-0.76974-0.40488-0.8433-0.33071-0.87946-0.29516-0.91639-0.1839-0.91639-0.11126-0.91686-0.0371-0.91639,0.0371-0.87946,0.11126-0.8433,0.1839-0.80652,0.25807-0.7328,0.3678-0.65986,0.40488-0.58677,0.47906-0.47628,0.58723-0.36702,0.66296" fill-rule="evenodd" fill="#fcf7f2"/>
<path d="m65.53,56.3-0.07356,0.1839-0.25653,0.51614-0.36656,0.84686-0.4769,1.0663-0.51306,1.3244-0.54984,1.5469-0.58615,1.6923-0.54999,1.8399-0.51367,1.9142-0.40272,1.9872-0.33009,2.0241-0.18359,2.0241,0,1.9504,0.18359,1.8767,0.43996,1.8037,0.65986,1.6191,1.3564,2.8336,0.80652,2.3185,0.32962,1.9136,0.03678,1.5092-0.29331,1.1777-0.44012,0.91994-0.51306,0.69912-0.54999,0.51553-0.29284,0.3307-0.18343,0.36826-0.07371,0.33132,0.07371,0.36764,0.14665,0.33148,0.25653,0.36826,0.32962,0.3307,0.44012,0.33148,0.51306,0.33132,0.54999,0.29408,0.62355,0.29454,0.69603,0.25777,0.69664,0.22098,0.76958,0.22083,0.7702,0.22037,0.80652,0.14727,0.84268,0.18421,0.95317,0.18405,0.99011,0.22098,0.98933,0.18344,1.0267,0.14727,1.0263,0.0737,1.0263-0.0737,0.98995-0.22021,0.91639-0.40504,0.8433-0.62602,0.76958-0.88317,0.62355-1.1409,0.54999-1.4349,0.3664-1.8031,0.21975-2.2082,0.03678-2.5764-0.07356-5.5204-0.14681-5.3362-0.14604-5.0049-0.29331-4.5636-0.44012-3.9739-0.62293-3.2761-0.88023-2.4648-1.1729-1.5469-0.69649-0.47752-0.73296-0.40488-0.80636-0.33225-0.8433-0.25653-0.87961-0.18389-0.88008-0.11127-0.87946-0.0355-0.88023,0.0355-0.84268,0.11127-0.80652,0.18389-0.7702,0.25653-0.7328,0.33225-0.62355,0.40488-0.54999,0.47752-0.47628,0.59032-0.32962,0.62432" fill-rule="evenodd" fill="#f9f2ea"/>
<path d="m65.86,56.669-0.0731,0.1839-0.25653,0.5146-0.33009,0.80976-0.44012,1.0663-0.51306,1.3259-0.54999,1.5083-0.54999,1.6932-0.51306,1.8031-0.47628,1.9142-0.40318,1.9498-0.29346,1.9878-0.14665,1.9873-0.03678,1.9504,0.18343,1.8767,0.40334,1.7296,0.65971,1.6195,1.2828,2.7968,0.7702,2.3186,0.32962,1.8767,0,1.5092-0.25653,1.1777-0.40318,0.88316-0.54999,0.69897-0.51306,0.51552-0.32962,0.36764-0.22037,0.36826-0.0731,0.36826,0.03632,0.3307,0.14665,0.36826,0.25653,0.33148,0.33024,0.3307,0.44012,0.2947,0.51306,0.33132,0.54984,0.29393,0.62308,0.25776,0.65971,0.25777,0.69664,0.22098,0.73342,0.22099,0.76974,0.18343,0.76958,0.14727,0.80652,0.18421,0.91624,0.18405,0.91639,0.22098,0.98995,0.18405,0.98949,0.14681,0.98995,0.0736,0.95317-0.0736,0.95317-0.22037,0.87946-0.40503,0.80652-0.6254,0.73342-0.84701,0.62293-1.1403,0.51321-1.4355,0.36702-1.8031,0.21975-2.1344,0.03678-2.5764-0.10987-5.4835-0.11049-5.2627-0.18282-4.9312-0.25668-4.49-0.43996-3.9376-0.58677-3.238-0.84268-2.4664-1.0998-1.5083-0.65986-0.47905-0.73342-0.40489-0.76974-0.3307-0.80636-0.25807-0.8433-0.1839-0.84268-0.10972-0.8433-0.0371-0.84345,0.0371-0.80636,0.10972-0.80652,0.1839-0.7328,0.25807-0.69664,0.3307-0.58677,0.40489-0.54984,0.47905-0.4395,0.58878-0.33024,0.62587" fill-rule="evenodd" fill="#f9efe5"/>
<path d="m66.226,57-0.07294,0.1839-0.22037,0.5146-0.32962,0.80976-0.44012,1.0678-0.47628,1.2873-0.51306,1.5098-0.54999,1.6558-0.4769,1.8031-0.47628,1.8768-0.3664,1.9504-0.29331,1.9872-0.14665,1.951,0,1.9136,0.14665,1.8399,0.40318,1.7663,0.62293,1.5828,1.2099,2.7598,0.73342,2.2819,0.32947,1.8399,0.03693,1.5092-0.25653,1.1409-0.40334,0.91994-0.51306,0.66219-0.51367,0.51552-0.3664,0.36764-0.21975,0.40504-0.10988,0.36826,0.03616,0.3307,0.14665,0.36826,0.22037,0.33148,0.32962,0.3307,0.44012,0.2947,0.47628,0.29454,0.54984,0.25777,0.62355,0.25714,0.62308,0.25777,0.69649,0.22098,0.73296,0.18405,0.73342,0.18405,0.7328,0.14681,0.7702,0.18405,0.87961,0.18405,0.87946,0.22099,0.95317,0.18421,0.91639,0.14727,0.95317,0.0362,0.95317-0.0362,0.88008-0.22099,0.84268-0.40503,0.77036-0.58863,0.69587-0.84685,0.6237-1.1403,0.47628-1.3987,0.33009-1.7663,0.21975-2.1344,0.03693-2.5396-0.07309-5.4098-0.11049-5.2259-0.18297-4.8944-0.25653-4.4531-0.40318-3.864-0.58677-3.2018-0.76958-2.4293-1.063-1.5083-0.6237-0.47906-0.69649-0.40488-0.76974-0.29362-0.76958-0.25807-0.80652-0.1839-0.80652-0.14681-0.80652-0.0371-0.80636,0.0371-0.76974,0.10972-0.76958,0.1839-0.69664,0.25807-0.65986,0.33071-0.58662,0.40488-0.51321,0.47906-0.40318,0.55169-0.33024,0.62586" fill-rule="evenodd" fill="#f7eadd"/>
<path d="m66.593,57.367-0.07356,0.18389-0.21975,0.47906-0.33024,0.80977-0.40318,1.0663-0.4395,1.2888-0.51367,1.4716-0.51321,1.6558-0.47628,1.7668-0.43996,1.8399-0.3664,1.9136-0.29346,1.9504-0.14665,1.9504,0,1.9142,0.18343,1.8031,0.3664,1.7294,0.58677,1.5829,1.1729,2.7231,0.7328,2.2817,0.33024,1.84,0,1.4723-0.21975,1.1409-0.40318,0.88316-0.47689,0.66219-0.51306,0.47859-0.40334,0.40457-0.25653,0.40504-0.10987,0.3681,0,0.36764,0.10987,0.33148,0.21975,0.33132,0.33024,0.33086,0.40318,0.29454,0.47628,0.2947,0.54999,0.25777,0.62293,0.22021,0.62355,0.25776,0.69664,0.18421,0.69602,0.18405,0.69664,0.18421,0.73342,0.14665,0.7328,0.18405,0.8433,0.18421,0.8433,0.22083,0.87946,0.1842,0.91639,0.14727,0.91639,0.0368,0.88008-0.0368,0.8433-0.22098,0.80652-0.40504,0.76958-0.58862,0.65986-0.84623,0.58615-1.1042,0.43996-1.3985,0.33024-1.7663,0.21975-2.0977,0.03678-2.5028-0.07356-5.373-0.10987-5.1522-0.18297-4.8207-0.25715-4.3795-0.3664-3.8646-0.54999-3.1653-0.76958-2.3906-1.0263-1.4727-0.58662-0.47906-0.65986-0.36779-0.7328-0.33071-0.73342-0.25807-0.73342-0.1839-0.80652-0.10972-0.76974-0.0371-0.76958,0.0371-0.73342,0.10972-0.7328,0.1839-0.65986,0.25807-0.62355,0.29362-0.54937,0.40488-0.51368,0.47906-0.40318,0.55169-0.29284,0.62587" fill-rule="evenodd" fill="#f4e5d6"/>
<path d="m66.959,57.698-0.07356,0.18544-0.18297,0.47752-0.33024,0.80976-0.3664,1.0308-0.43996,1.2873-0.47628,1.4726-0.51321,1.6189-0.43996,1.7302-0.44012,1.8399-0.32962,1.9136-0.25653,1.9136-0.14665,1.9135,0,1.8774,0.14665,1.8399,0.3664,1.6926,0.54999,1.546,1.136,2.7231,0.65986,2.2082,0.33024,1.84,0,1.4723-0.22037,1.1409-0.3664,0.88316-0.47628,0.62525-0.4769,0.47875-0.4395,0.44135-0.29346,0.40504-0.14665,0.3681,0,0.36764,0.10988,0.33148,0.21975,0.33132,0.29331,0.33086,0.40334,0.29454,0.4769,0.25777,0.54984,0.25776,0.58615,0.22037,0.65986,0.22099,0.65971,0.22083,0.65986,0.1842,0.69664,0.14727,0.69664,0.14727,0.73342,0.18359,0.76958,0.18405,0.80652,0.22099,0.8433,0.18405,0.87946,0.14727,0.8433,0.0369,0.84283-0.0737,0.8433-0.22098,0.76958-0.36826,0.69664-0.58847,0.65971-0.84639,0.51321-1.104,0.43996-1.3987,0.33024-1.7294,0.18297-2.0978,0.03678-2.4659-0.0731-5.2995-0.11049-5.0785-0.14665-4.7846-0.21975-4.3421-0.3664-3.7909-0.54984-3.1276-0.73342-2.3551-0.95271-1.4727-0.58661-0.47905-0.62308-0.3678-0.65971-0.3307-0.73342-0.25808-0.73342-0.18389-0.73296-0.10972-0.73342-0.0371-0.7328,0.0371-0.69664,0.10972-0.69649,0.14681-0.62308,0.25807-0.62293,0.33225-0.51368,0.40334-0.47628,0.44197-0.3664,0.55169-0.29346,0.62586" fill-rule="evenodd" fill="#f4e2d1"/>
<path d="m67.289,58.066-0.07309,0.1839-0.18343,0.47906-0.29346,0.77267-0.3664,1.0308-0.43996,1.2888-0.4395,1.4342-0.44012,1.5828-0.43996,1.7296-0.40334,1.8399-0.32962,1.8774-0.25653,1.8767-0.14665,1.9136,0,1.8399,0.14665,1.8037,0.32962,1.6558,0.54999,1.546,1.063,2.6863,0.65971,2.2082,0.33024,1.8399,0,1.4355-0.18359,1.1409-0.3664,0.84623-0.47628,0.66218-0.4769,0.44197-0.47628,0.4412-0.29331,0.40504-0.14665,0.40503-0.03693,0.36764,0.10987,0.33148,0.18359,0.33132,0.33024,0.29408,0.40318,0.29455,0.47628,0.25776,0.51306,0.22098,0.58677,0.22022,0.62293,0.22098,0.65986,0.18421,0.65971,0.18405,0.65986,0.14727,0.65971,0.14727,0.69664,0.18359,0.73342,0.18405,0.76974,0.22099,0.80652,0.18405,0.80636,0.14727,0.8433,0.0369,0.80652-0.0737,0.76974-0.22099,0.7328-0.3681,0.69664-0.58862,0.58662-0.80946,0.51321-1.1042,0.43996-1.3618,0.29346-1.7296,0.18282-2.0609,0.03693-2.429-0.07371-5.2259-0.10988-5.0417-0.14665-4.7476-0.21975-4.269-0.33024-3.7536-0.51306-3.0915-0.69603-2.3551-0.91686-1.4356-0.54999-0.44197-0.58615-0.40488-0.65971-0.33071-0.65986-0.22098-0.69664-0.1839-0.69664-0.10972-0.7328-0.0371-0.69664,0.0371-0.65971,0.0726-0.65986,0.18544-0.62355,0.25653-0.54984,0.33071-0.51321,0.36933-0.43996,0.47752-0.3664,0.51614-0.29346,0.62432" fill-rule="evenodd" fill="#f2ddc9"/>
<path d="m36.607,35.765,0.22037,0.0355,0.54999,0.18544,0.80636,0.25653,0.98949,0.33225,0.98995,0.44042,0.95317,0.51615,0.80652,0.62587,0.51306,0.66295,0.40318,0.47752,0.44012,0.0371,0.40318-0.29516,0.32962-0.58878,0.18359-0.73558-0.03693-0.84531-0.33009-0.8484-0.69602-0.77267-0.4769-0.36625-0.54999-0.33225-0.58615-0.3307-0.65971-0.29516-0.69664-0.25653-0.73342-0.22099-0.76974-0.18389-0.7328-0.14836-0.80652-0.0726-0.73342,0-0.76958,0.0355-0.73342,0.11127-0.69664,0.1839-0.65986,0.25807-0.62293,0.36779-0.54984,0.44197-0.87961,0.95657-0.58677,0.84531-0.33009,0.77267-0.10988,0.66296,0.07356,0.58878,0.14665,0.44197,0.25668,0.36779,0.29331,0.25807,0.29284,0.14681,0.22021,0.0742,0.21975-0.0371,0.18359-0.11126,0.10987-0.21944,0.10988-0.33225,0.03678-0.40489-0.03678-0.5146,0-0.5146,0.14665-0.51615,0.29331-0.40488,0.44012-0.3307,0.62293-0.25808,0.7328-0.18389,0.91701-0.0371,1.0992,0.0742" fill-rule="evenodd" fill="#FFF"/>
<path d="m32.171,37.643,0.07371-0.51615,0.21975-0.47751,0.33009-0.44197,0.47628-0.3678,0.62355-0.25807,0.76974-0.14681,0.91639,0,1.0261,0.1839,0.44012,0.10972,0.65971,0.18389,0.80652,0.29517,0.95317,0.3307,0.91639,0.40488,0.8433,0.47906,0.69664,0.5146,0.47628,0.58878,0.21975,0.33071,0.22021,0.14835,0.25653,0.0726,0.21975-0.0726,0.22037-0.1839,0.18297-0.25807,0.10987-0.36779,0.07356-0.40489,0-0.62586-0.07356-0.33071-0.10987-0.33225-0.14681-0.29361-0.21959-0.33071-0.25668-0.33225-0.33009-0.29516-0.47628-0.36625-0.58677-0.33225-0.62293-0.3307-0.65986-0.29516-0.73342-0.25653-0.76958-0.18544-0.76974-0.14681-0.76958-0.0726-0.69664-0.0371-0.69664,0.0371-0.65986,0.0726-0.65971,0.11126-0.58677,0.1839-0.58615,0.25653-0.54999,0.29516-0.47674,0.36779-0.29346,0.25807-0.25653,0.29362-0.21975,0.25807-0.21975,0.25808-0.18343,0.25807-0.18359,0.25653-0.14665,0.25807-0.10987,0.25808-0.21975,0.5146-0.07356,0.47906,0.03678,0.40333,0.07356,0.29516,0.0731,0.22099,0.14665,0.22098,0.14681,0.22099,0.18343,0.14681,0.4395,0.14681,0.29331-0.22099,0.18359-0.55169,0.03616-0.88239" fill-rule="evenodd" fill="#d1bab2"/>
<path d="m32.061,37.273,0.10987-0.44043,0.25715-0.47906,0.40318-0.40488,0.51321-0.3307,0.65971-0.25808,0.76974-0.11126,0.91624,0,1.0269,0.18544,0.62293,0.1839,0.7328,0.22098,0.84345,0.25653,0.88008,0.33225,0.84268,0.40488,0.7702,0.40334,0.58615,0.47906,0.40334,0.47906,0.21975,0.29361,0.22021,0.1839,0.25653,0.0371,0.21975-0.0371,0.18359-0.14681,0.14665-0.25807,0.10987-0.33071,0-0.44197-0.03678-0.25807-0.0731-0.29362-0.10987-0.29361-0.11049-0.29517-0.18282-0.29361-0.22037-0.29516-0.25653-0.29517-0.29284-0.25652-0.4769-0.3678-0.54984-0.33225-0.58615-0.29361-0.65986-0.25808-0.66033-0.22098-0.7328-0.1839-0.73358-0.10972-0.7328-0.0371-0.69664,0-0.65971,0.0371-0.65986,0.0726-0.58662,0.11127-0.58615,0.1839-0.51321,0.18389-0.51367,0.25653-0.4395,0.33225-0.25653,0.22098-0.25715,0.25653-0.21975,0.22099-0.18343,0.22098-0.18297,0.25808-0.18343,0.22098-0.14681,0.25653-0.14665,0.22098-0.21975,0.51615-0.10987,0.47751,0,0.36934,0.03693,0.25653,0.07294,0.1839,0.07309,0.22098,0.11049,0.25808,0.21975,0.18389,0.3664,0.0371,0.18343-0.29516,0.10987-0.58878,0.10988-0.80976" fill-rule="evenodd" fill="#a07266"/>
<path d="m31.951,36.905,0.18359-0.40488,0.29331-0.44042,0.4395-0.36934,0.54984-0.33071,0.65986-0.22098,0.80652-0.11127,0.88008,0,1.0263,0.22099,0.80636,0.22098,0.87961,0.29517,0.8433,0.29516,0.8433,0.3307,0.7328,0.33071,0.65986,0.36779,0.54984,0.36779,0.33024,0.40489,0.21975,0.25807,0.22037,0.1839,0.21959,0.0742,0.21975-0.0371,0.14681-0.1468,0.14665-0.22099,0.03678-0.3307-0.07371-0.44197-0.07294-0.25808-0.10987-0.22098-0.10987-0.25808-0.14665-0.29361-0.18359-0.25808-0.21975-0.25652-0.25653-0.22099-0.29331-0.25807-0.47689-0.33071-0.51306-0.33225-0.54999-0.29361-0.62293-0.25808-0.62308-0.18389-0.66033-0.14681-0.69603-0.11127-0.69664,0-0.69664,0.0371-0.65971,0.0742-0.62293,0.0726-0.54999,0.11127-0.54999,0.1468-0.47674,0.1839-0.47628,0.22098-0.40334,0.29517-0.25653,0.18389-0.21975,0.18235-0.18343,0.18545-0.21975,0.18389-0.18359,0.22099-0.14665,0.22098-0.18343,0.22099-0.14681,0.21944-0.25653,0.55323-0.14665,0.47752-0.03616,0.33225,0.03616,0.18389,0.03678,0.14681,0.03693,0.25653,0.14665,0.29516,0.21975,0.1839,0.25653,0,0.07356-0.40488,0.03632-0.62587,0.18343-0.77268" fill-rule="evenodd" fill="#722b19"/>
<path d="m31.108,37.605,0,0.10972,0.03678,0.25807,0.07371,0.29362,0.25653,0.22098,0.18297-0.10972-0.03632-0.44197-0.03678-0.66295,0.21975-0.73559,0.25653-0.36779,0.36702-0.40488,0.47628-0.33071,0.58677-0.33225,0.69603-0.21944,0.7702-0.11126,0.91639,0.0742,0.98933,0.21944,1.0269,0.33225,0.95317,0.29362,0.87946,0.3307,0.76974,0.29517,0.69664,0.29516,0.54984,0.29361,0.44012,0.29517,0.25653,0.29361,0.21975,0.25808,0.22037,0.18389,0.21959,0.0726,0.21975-0.0355,0.14681-0.11126,0.07356-0.21944,0-0.29517-0.14665-0.44197-0.10987-0.25652-0.18359-0.25808-0.21959-0.29516-0.22037-0.29516-0.29346-0.29362-0.32947-0.29361-0.36656-0.25808-0.40318-0.25807-0.40318-0.25653-0.4769-0.22098-0.44012-0.1839-0.51306-0.14835-0.51306-0.14681-0.51321-0.0726-0.54984-0.0371-0.54999,0.0371-1.0263,0.10972-0.91624,0.14681-0.80652,0.1468-0.69664,0.25808-0.62293,0.29516-0.58677,0.36779-0.51306,0.5146-0.4769,0.58878-0.32962,0.58878-0.14665,0.47906-0.07371,0.3307,0,0.11127" fill-rule="evenodd" fill="#400"/>
<path d="m46.761,89.238,0.03632-0.0368,0.07356-0.14727,0.14665-0.18421,0.18297-0.25776,0.25653-0.29393,0.25653-0.36826,0.36702-0.36825,0.3664-0.40442,0.40334-0.40504,0.43996-0.40503,0.51321-0.40442,0.51306-0.36826,0.54999-0.33147,0.58662-0.29393,0.62308-0.25776,0.62293-0.18406,0.62355-0.11049,0.62293,0,0.58677,0.0736,0.51306,0.14743,0.47643,0.22083,0.43996,0.25776,0.32962,0.36764,0.29331,0.36826,0.18359,0.47813,0.10987,0.47859,0,0.51553-0.10987,0.55185-0.25653,0.55169-0.33024,0.58908-0.51306,0.58863-0.62308,0.58908-0.73342,0.55185-0.76958,0.44181-0.80652,0.40442-0.80652,0.2947-0.8433,0.22083-0.76958,0.11049-0.76974,0.0737-0.69649-0.0369-0.65986-0.11034-0.54984-0.1842-0.47643-0.25777-0.36687-0.3307-0.21975-0.44197-0.10988-0.47813,0.07294-0.55231,0.22037-0.66218" fill-rule="evenodd" fill="#FFF"/>
<path d="m47.311,89.164,0.11049-0.14743,0.29269-0.40503,0.4769-0.62541,0.65986-0.69896,0.76958-0.73651,0.95317-0.69896,1.0263-0.58924,1.1366-0.40442,1.1368-0.1105,1.0261,0.22099,0.8433,0.44135,0.54937,0.69958,0.29331,0.80946-0.10988,0.99366-0.54984,1.0304-1.0263,1.0672-0.65971,0.51491-0.73342,0.40504-0.73296,0.36826-0.73342,0.25776-0.7328,0.18343-0.73342,0.14743-0.69664,0.0368-0.65971-0.0368-0.58615-0.0737-0.51368-0.18405-0.4395-0.22037-0.33024-0.29455-0.21975-0.40503-0.07356-0.44135,0.03678-0.51553,0.21975-0.58847" fill-rule="evenodd" fill="#edddd3"/>
<path d="m47.604,89.09,0.10987-0.14728,0.25715-0.36825,0.4395-0.55169,0.58677-0.62602,0.69664-0.69912,0.84268-0.62525,0.95317-0.51553,1.0267-0.36764,1.063-0.0737,0.91639,0.18359,0.7328,0.40504,0.54999,0.6254,0.25653,0.77329-0.10987,0.84623-0.47628,0.95688-0.95317,0.95673-0.62293,0.44182-0.62355,0.40457-0.69664,0.29454-0.65986,0.25777-0.69664,0.14727-0.65971,0.11049-0.62293,0.0729-0.58677-0.0362-0.54937-0.0737-0.44012-0.14727-0.40318-0.22084-0.29331-0.29469-0.21975-0.33071-0.07371-0.40503,0.07371-0.47875,0.18282-0.51491" fill-rule="evenodd" fill="#d6b7a5"/>
<path d="m48.007,89.017,0.07356-0.11034,0.25653-0.36825,0.40334-0.47813,0.51306-0.55231,0.65986-0.6254,0.76958-0.55231,0.8433-0.47813,0.91639-0.29455,0.95317-0.0737,0.80636,0.14727,0.69664,0.36826,0.47628,0.55169,0.22037,0.6628-0.11049,0.80961-0.4395,0.80945-0.8433,0.88317-0.54984,0.40504-0.58615,0.33132-0.58677,0.2573-0.62293,0.22083-0.58677,0.1842-0.62293,0.0736-0.54999,0.0368-0.51306,0-0.51367-0.0736-0.40334-0.14727-0.3664-0.1842-0.25653-0.25777-0.18359-0.29392-0.07294-0.36826,0.03678-0.40504,0.18297-0.47813" fill-rule="evenodd" fill="#c1967c"/>
<path d="m48.447,88.943,0.0731-0.11049,0.22037-0.29454,0.32962-0.44135,0.47674-0.4786,0.54999-0.55184,0.69603-0.4786,0.73342-0.40457,0.8433-0.29454,0.84268-0.0736,0.73342,0.14727,0.58677,0.33132,0.4395,0.47813,0.18343,0.58863-0.07356,0.6628-0.3664,0.73574-0.76974,0.77267-0.47628,0.36826-0.54984,0.29454-0.51383,0.22099-0.54922,0.22037-0.54999,0.11049-0.51367,0.11049-0.51306,0.0368-0.47628-0.0368-0.44012-0.0737-0.3664-0.1105-0.29346-0.14727-0.25653-0.22036-0.14665-0.25777-0.0731-0.33132,0.0731-0.36764,0.14665-0.40504" fill-rule="evenodd" fill="#af7551"/>
<path d="m10.983,73.817,0-0.10988,0.03622-0.33147,0.03681-0.51538,0.07305-0.69911,0.14668-0.84624,0.22034-0.99366,0.29337-1.1042,0.36642-1.2145,0.51312-1.2882,0.62296-1.325,0.73342-1.3613,0.91639-1.3987,1.0261-1.3992,1.2466-1.3599,1.4294-1.3259,1.6129-1.2517,2.3097-1.4712,2.1629-1.1034,2.0162-0.73713,1.8694-0.40489,1.7597-0.1468,1.6129,0.10972,1.5393,0.3307,1.3933,0.51615,1.3196,0.62586,1.2466,0.73559,1.136,0.80976,1.0998,0.80977,0.98995,0.84685,0.95317,0.77267,0.91639,0.73559,0.87961,0.58878,0.88008,0.62586,0.91639,0.77268,0.95317,0.95703,0.98933,1.0304,0.95317,1.1777,0.98995,1.2145,0.95317,1.2876,0.95317,1.325,0.87946,1.3619,0.8433,1.325,0.80652,1.3244,0.69664,1.2514,0.62293,1.1777,0.51321,1.1042,0.43996,0.95673,0.29346,0.84639,0.10987,0.77329-0.18359,0.73574-0.40318,0.77268-0.58677,0.73589-0.76974,0.69958-0.91624,0.7359-0.9901,0.69896-1.0992,0.69973-1.1366,0.7359-1.1729,0.69896-1.1368,0.69958-1.0992,0.69911-0.98995,0.69897-0.91639,0.69973-0.76958,0.73574-0.62355,0.69912-0.58615,0.6628-0.73358,0.58847-0.8433,0.51553-0.98933,0.44135-1.063,0.36825-1.1735,0.29455-1.2097,0.22036-1.2826,0.18406-1.3565,0.0737-1.3196,0.0736-1.3564-0.0368-1.3565-0.0737-1.3564-0.11049-1.2828-0.18343-1.2465-0.25777-1.1729-0.25776-1.1366-0.36826-1.1361-0.55169-1.0998-0.73589-1.0998-0.81007-1.063-0.99366-1.063-1.0672-0.98933-1.1777-0.95317-1.2508-0.91639-1.325-0.88008-1.3619-0.80652-1.4348-0.73287-1.4355-0.65979-1.4355-0.62358-1.4716-0.54993-1.4355-0.43945-1.3987" fill-rule="evenodd" fill="#FFF"/>
<path d="m20.661,57.846,2.1259-1.2888,2.0162-0.95657,1.9063-0.62586,1.7965-0.3678,1.686-0.10972,1.5763,0.10972,1.4668,0.25653,1.4294,0.44197,1.2828,0.58878,1.2465,0.66295,1.1729,0.73559,1.063,0.73713,1.0267,0.77268,0.95317,0.69849,0.91639,0.66296,0.84268,0.58878,0.8433,0.58878,0.88008,0.77267,0.95271,0.88348,0.91686,1.0304,0.95255,1.1042,0.95317,1.2139,0.91701,1.2514,0.91624,1.2882,0.84283,1.2882,0.8433,1.2882,0.73342,1.2876,0.69602,1.2145,0.62355,1.1409,0.51306,1.0672,0.40318,0.95673,0.29346,0.8096,0.0731,0.73636-0.14681,0.7359-0.3664,0.69911-0.58677,0.73636-0.76958,0.69912-0.87961,0.69896-0.95302,0.6628-1.063,0.69912-1.1,0.69896-1.1366,0.6628-1.0992,0.69896-1.063,0.66234-0.98995,0.69958-0.87961,0.66218-0.73342,0.69973-0.58677,0.69897-0.58615,0.66218-0.69664,0.55231-0.8433,0.51491-0.95317,0.40503-1.0261,0.36764-1.1361,0.2947-1.1735,0.22083-1.2459,0.14727-1.2834,0.11049-1.3196,0.0369-1.3196-0.0369-1.2834-0.0736-1.3196-0.1105-1.2459-0.1842-1.2097-0.22083-1.1368-0.25715-1.0998-0.36826-1.063-0.51552-1.0261-0.62541-1.063-0.80945-0.99011-0.88317-0.98933-1.0304-0.95317-1.1042-0.91639-1.1777-0.88008-1.2145-0.80652-1.2882-0.76958-1.3618-0.73342-1.3613-0.65983-1.3619-0.58615-1.3618-0.54991-1.3981-0.44007-1.325-0.03683-0.14728-0.03622-0.11049-0.03681-0.11049-0.03683-0.14727,0-0.47813,0.03683-0.51553,0.07303-0.69896,0.14668-0.84639,0.18351-0.95673,0.29338-1.1042,0.36642-1.1777,0.47628-1.2145,0.58677-1.2882,0.7328-1.3244,0.8433-1.3251,1.0269-1.3247,1.2097-1.2888,1.3925-1.2502,1.5763-1.1776" fill-rule="evenodd" fill="#f7efea"/>
<path d="m21.101,58.398,1.9433-1.1049,1.8694-0.80976,1.7591-0.55169,1.6866-0.29362,1.613-0.11126,1.5393,0.11126,1.4662,0.25653,1.3564,0.36934,1.3196,0.5146,1.2466,0.58878,1.1366,0.66295,1.0992,0.66141,1.0269,0.70004,0.95317,0.66141,0.87946,0.59033,0.8433,0.55169,0.8433,0.58878,0.84268,0.73558,0.91639,0.88301,0.88008,0.95689,0.95317,1.104,0.87961,1.1409,0.91639,1.2145,0.88008,1.2514,0.84268,1.2514,0.7702,1.2513,0.73296,1.2508,0.65971,1.1777,0.58677,1.1042,0.51306,1.0304,0.3664,0.91995,0.29346,0.77329,0.07356,0.69896-0.14665,0.69912-0.3664,0.69958-0.54999,0.69911-0.73342,0.69896-0.8433,0.66281-0.95317,0.66218-1.0261,0.66218-1.063,0.6628-1.063,0.66234-1.063,0.66218-1.0263,0.6628-0.95317,0.66218-0.88008,0.6628-0.69664,0.66218-0.58615,0.66219-0.54984,0.62602-0.69664,0.55169-0.80652,0.47875-0.87946,0.44135-1.0269,0.33132-1.0992,0.25777-1.1368,0.22098-1.2097,0.14665-1.2465,0.1105-1.246,0.0368-1.2833-0.0368-1.2828-0.0369-1.2465-0.14727-1.2099-0.14665-1.1728-0.22099-1.1-0.25776-1.0629-0.33132-1.0263-0.51491-1.0269-0.62603-0.98933-0.77267-0.98995-0.88317-0.95317-0.95672-0.91639-1.0672-0.87946-1.1409-0.8433-1.2146-0.76974-1.2513-0.7702-1.2876-0.69602-1.325-0.62355-1.3251-0.58618-1.3618-0.5131-1.3245-0.44007-1.288-0.03683-0.1105-0.03683-0.11049-0.03621-0.11049-0.03683-0.14727,0-0.47813,0.03683-0.55231,0.07303-0.66218,0.10987-0.84639,0.22032-0.95673,0.25656-1.0672,0.36642-1.1409,0.44004-1.2146,0.58615-1.2513,0.69664-1.2514,0.8433-1.2882,0.98933-1.2514,1.1735-1.2131,1.3564-1.1791,1.5393-1.0663" fill-rule="evenodd" fill="#f2e2d6"/>
<path d="m21.504,58.95,1.7595-0.91948,1.7229-0.70004,1.6498-0.44197,1.5761-0.25653,1.5761-0.0742,1.4662,0.0742,1.4301,0.25653,1.3565,0.33225,1.3196,0.44197,1.2097,0.5146,1.1729,0.55169,1.0998,0.62587,1.0261,0.58877,0.99011,0.58878,0.87946,0.58878,0.80652,0.5146,0.80652,0.55324,0.80636,0.73574,0.87961,0.84623,0.88008,0.95688,0.87961,1.0304,0.88008,1.1408,0.87946,1.1777,0.8433,1.1779,0.80652,1.2145,0.76958,1.2139,0.69664,1.1779,0.65986,1.1408,0.54984,1.1042,0.47628,0.95673,0.40334,0.88316,0.25653,0.7733,0.07371,0.69896-0.14681,0.66234-0.3664,0.69958-0.51306,0.66218-0.69664,0.66218-0.8433,0.62602-0.91639,0.66218-0.98995,0.6628-1.0263,0.62541-1.0261,0.6254-1.0269,0.6628-0.98933,0.6254-0.95317,0.6628-0.80652,0.62541-0.69664,0.6254-0.54984,0.6628-0.51306,0.58847-0.69664,0.55246-0.76974,0.47798-0.88008,0.36825-0.98933,0.33148-1.0269,0.29393-1.136,0.18405-1.1368,0.14742-1.2097,0.11034-1.246,0.0369-1.2097-0.0369-1.2465-0.0736-1.2097-0.11049-1.1729-0.14727-1.1368-0.18405-1.0629-0.2573-1.0263-0.33132-0.98995-0.47875-0.98949-0.62541-0.95317-0.73574-0.95317-0.88378-0.91624-0.91995-0.91639-1.0672-0.8433-1.1042-0.80652-1.1771-0.76958-1.2146-0.73342-1.2513-0.69664-1.2882-0.62293-1.2882-0.54999-1.2876-0.47628-1.2882-0.44007-1.2514-0.03681-0.11049,0-0.11034-0.03683-0.0737-0.03622-0.11049,0-1.0672,0.07305-0.69896,0.10986-0.80961,0.18351-0.95673,0.25656-1.0304,0.33013-1.1409,0.4395-1.1409,0.58677-1.2145,0.65986-1.2146,0.8433-1.2145,0.95317-1.214,1.136-1.1405,1.3196-1.0678,1.5032-0.99366" fill-rule="evenodd" fill="#ead3c1"/>
<path d="m21.907,59.502,1.5761-0.73558,1.5399-0.55169,1.5393-0.36779,1.5032-0.22099,1.503-0.0371,1.4294,0.0742,1.3933,0.1839,1.3564,0.29361,1.2828,0.40488,1.2465,0.44197,1.1729,0.47752,1.0998,0.55169,1.0263,0.55323,0.98995,0.5146,0.87961,0.55169,0.7702,0.47906,0.76974,0.55215,0.80636,0.66219,0.84268,0.84685,0.8433,0.91994,0.88023,0.99366,0.84268,1.0672,0.8433,1.1409,0.80652,1.1777,0.80636,1.1771,0.73296,1.1779,0.66033,1.1408,0.62293,1.1042,0.54999,1.0304,0.47628,0.95673,0.36702,0.84638,0.25653,0.73636,0.0731,0.66234-0.14665,0.66218-0.32962,0.6628-0.54999,0.62541-0.65971,0.62586-0.80652,0.62541-0.88023,0.6254-0.95302,0.62602-0.98949,0.6254-1.0267,0.62602-0.98949,0.58847-0.95317,0.62602-0.88008,0.62541-0.80652,0.58847-0.69602,0.62602-0.51306,0.6254-0.51367,0.58924-0.62293,0.51491-0.76974,0.4786-0.8433,0.36764-0.95317,0.33147-1.0261,0.25777-1.063,0.18405-1.1368,0.14665-1.136,0.11049-1.1735,0.0369-1.2097-0.0369-1.1729-0.0735-1.1729-0.10988-1.1366-0.14727-1.0994-0.18421-1.0267-0.25776-0.98949-0.33132-0.95317-0.47813-0.98995-0.58925-0.91639-0.73574-0.91624-0.80961-0.88023-0.91994-0.87946-0.99351-0.80652-1.1042-0.80636-1.104-0.73296-1.2146-0.69649-1.2145-0.65986-1.2146-0.58677-1.2513-0.54984-1.2508-0.47628-1.2514-0.40334-1.2145-0.03678-0.0737,0-0.11034-0.03678-0.0737-0.03632-0.0737,0-1.104,0.0731-0.66218,0.0731-0.84639,0.18343-0.91995,0.21975-1.0304,0.33024-1.104,0.43996-1.1042,0.51321-1.1777,0.65971-1.1777,0.80652-1.1777,0.95317-1.1043,1.0998-1.0663,1.2828-0.99366,1.4662-0.92103" fill-rule="evenodd" fill="#e2c1ad"/>
<path d="m22.347,60.053,1.3564-0.58877,1.3927-0.40334,1.4301-0.29516,1.3925-0.14681,1.3933-0.0371,1.3927,0.10972,1.3931,0.14836,1.3196,0.25652,1.2834,0.33225,1.246,0.3678,1.2097,0.44042,1.0998,0.44197,1.063,0.47906,0.95317,0.47751,0.87946,0.47906,0.77036,0.47844,0.7328,0.51491,0.80652,0.6628,0.76958,0.80946,0.8433,0.88316,0.80652,0.9575,0.8433,1.0672,0.80652,1.0666,0.76958,1.1409,0.76974,1.1042,0.69649,1.1408,0.65986,1.1042,0.58677,1.0672,0.54984,0.99366,0.4395,0.91995,0.33024,0.84639,0.25653,0.69958,0.07371,0.6254-0.14681,0.6628-0.33009,0.6254-0.47628,0.6254-0.65986,0.58909-0.7702,0.6254-0.84268,0.58909-0.91701,0.58863-0.95255,0.58924-0.98995,0.58847-0.95317,0.58862-0.91639,0.58909-0.8433,0.58862-0.76974,0.62602-0.65971,0.58847-0.51306,0.58924-0.51321,0.58847-0.58677,0.47875-0.73342,0.4412-0.84268,0.36826-0.91686,0.33085-0.95255,0.25777-1.063,0.18405-1.0637,0.11049-1.1361,0.1105-1.1366,0.0368-1.1361-0.0368-1.1366-0.0737-1.0992-0.0736-1.1-0.1842-1.063-0.18405-0.98995-0.22037-0.95317-0.33132-0.95317-0.44197-0.91624-0.58847-0.91639-0.69912-0.91639-0.81007-0.8433-0.88317-0.8433-0.95672-0.80652-1.0672-0.7328-1.0674-0.73342-1.1777-0.69602-1.1777-0.62355-1.1777-0.54999-1.2139-0.54984-1.2146-0.4395-1.2145-0.40318-1.1777,0-0.0737-0.03693-0.0368,0-0.0737-0.03678-0.0736,0-0.18421-0.03616-0.40441,0.03616-0.55231,0.03678-0.66218,0.10988-0.84639,0.14681-0.91995,0.21959-0.99366,0.29346-1.0672,0.40318-1.104,0.51321-1.1409,0.66033-1.1042,0.76958-1.104,0.91639-1.0672,1.063-0.99335,1.2828-0.92103,1.4301-0.80977" fill-rule="evenodd" fill="#dbb299"/>
<path d="m22.75,60.644,1.1729-0.40643,1.2465-0.3307,1.2828-0.1839,1.2834-0.10972,1.3557,0,1.3202,0.0726,1.3559,0.14835,1.3202,0.21944,1.2826,0.25808,1.2466,0.33225,1.2097,0.36779,1.1361,0.36779,1.0629,0.44197,0.9901,0.40334,0.8433,0.44243,0.76958,0.4412,0.69664,0.51553,0.76958,0.62602,0.76974,0.7359,0.76958,0.88301,0.80652,0.9201,0.77036,0.99351,0.76958,1.0672,0.76958,1.0674,0.73358,1.104,0.65971,1.0674,0.65986,1.0672,0.58615,1.0304,0.4769,0.95673,0.43996,0.88317,0.32962,0.77329,0.25653,0.69896,0.07371,0.62541-0.14665,0.62602-0.29346,0.58862-0.47628,0.58909-0.62355,0.58862-0.7328,0.58847-0.8433,0.58924-0.87961,0.58847-0.91686,0.55246-0.95317,0.58847-0.91639,0.55231-0.87946,0.58862-0.80652,0.55231-0.76974,0.58863-0.62355,0.5523-0.47628,0.58863-0.4769,0.55169-0.58615,0.47875-0.73342,0.40503-0.76958,0.36764-0.87961,0.29454-0.95317,0.25777-0.98995,0.18405-1.063,0.14665-1.063,0.0737-1.0998,0.0368-1.0998-0.0368-1.0992-0.0368-1.1-0.1105-1.0267-0.14665-1.0263-0.1842-0.95317-0.22084-0.91624-0.29469-0.91639-0.47798-0.91639-0.55246-0.88008-0.66218-0.84268-0.77268-0.8433-0.88378-0.80652-0.91995-0.76958-1.0304-0.73358-1.0672-0.69649-1.104-0.65986-1.1403-0.58615-1.1409-0.54984-1.1777-0.51321-1.1777-0.43996-1.1409-0.3664-1.1409,0-0.11049-0.03693-0.0736,0-0.0369-0.03678-0.22083,0-0.91995,0.03678-0.69911,0.0731-0.84624,0.14665-0.88316,0.18359-0.99428,0.29331-1.0666,0.3664-1.0674,0.51306-1.0672,0.58677-1.104,0.76974-1.0304,0.87946-0.99428,1.063-0.91917,1.2097-0.84685,1.4301-0.6985" fill-rule="evenodd" fill="#d6a587"/>
<path d="m23.19,61.268,0.95317-0.29362,1.063-0.18389,1.1734-0.11127,1.2099-0.0726,1.2459,0,1.2834,0.0726,1.3196,0.11127,1.3196,0.18389,1.2834,0.22099,1.2826,0.25653,1.2099,0.29516,1.136,0.29516,1.0998,0.36625,0.95317,0.36903,0.88023,0.40503,0.7328,0.40442,0.69664,0.4786,0.69649,0.6254,0.73296,0.73589,0.76958,0.81008,0.7702,0.91994,0.73296,0.95688,0.7702,0.99351,0.7328,1.0304,0.69664,1.0674,0.65971,1.0304,0.58677,1.0304,0.58615,0.9935,0.4769,0.91995,0.40334,0.84639,0.32947,0.77329,0.21975,0.66218,0.07371,0.58863-0.10988,0.58908-0.33024,0.58863-0.43996,0.55231-0.62308,0.58862-0.69649,0.55231-0.76974,0.55169-0.87946,0.5523-0.88023,0.55185-0.87946,0.55231-0.88008,0.55169-0.87961,0.5523-0.76958,0.55185-0.73342,0.55169-0.58677,0.55231-0.47628,0.55169-0.47628,0.51552-0.54999,0.47814-0.69664,0.40503-0.76958,0.33148-0.8433,0.29392-0.87961,0.22099-0.98995,0.18405-0.98995,0.14727-1.0263,0.0737-1.063,0.0368-1.063-0.0368-1.0629-0.0737-1.0269-0.0736-1.0263-0.14727-0.98995-0.1842-0.91639-0.22022-0.87946-0.29469-0.88008-0.44182-0.87961-0.51491-0.8433-0.6628-0.84268-0.7359-0.7702-0.84638-0.80652-0.91995-0.7328-0.95673-0.69664-1.0304-0.65971-1.0672-0.62308-1.1042-0.58677-1.1409-0.54984-1.104-0.47628-1.1409-0.40334-1.104-0.36702-1.1042,0-0.11049-0.03616-0.0368-0.03678-0.22098,0-1.6926,0.07294-0.80946,0.11049-0.91994,0.18297-0.99428,0.29331-1.0304,0.33024-1.0304,0.47628-1.0666,0.58677-1.0304,0.7328-0.99428,0.88008-0.88317,1.0263-0.84623,1.2097-0.69973,1.3927-0.58878" fill-rule="evenodd" fill="#ce9670"/>
<path d="m16.628,74.075,0-0.11049-0.03616-0.33086-0.03693-0.55231,0-0.66218,0.03693-0.84639,0.07294-0.92056,0.14665-0.99351,0.21975-1.0674,0.29346-1.0672,0.43996-1.0672,0.54999-1.0304,0.69664-0.99366,0.87946-0.88301,1.0263-0.77267,1.2465-0.62556,1.4294-0.44197,0.77036-0.14681,0.87946-0.0742,1.0269-0.0726,2.3089,0,1.2097,0.0726,1.2834,0.11127,1.3196,0.10972,1.2828,0.1839,1.2833,0.18389,1.2097,0.25808,1.1729,0.25745,1.0998,0.29454,0.98949,0.33086,0.8433,0.36826,0.73342,0.36826,0.65971,0.47797,0.69602,0.58925,0.69664,0.69896,0.73342,0.77267,0.7328,0.88317,0.73358,0.92056,0.7328,0.95688,0.69664,0.99351,0.65971,1.0304,0.62355,0.99366,0.58615,0.99366,0.54999,0.91994,0.43996,0.88317,0.40334,0.84624,0.32962,0.73651,0.22021,0.6254,0.0731,0.55231-0.14665,0.58847-0.29346,0.55184-0.43934,0.55231-0.58677,0.51491-0.65986,0.55231-0.76958,0.51491-0.80652,0.55231-0.88008,0.51506-0.84268,0.55231-0.88023,0.51491-0.80636,0.51553-0.76974,0.55169-0.65971,0.51553-0.58677,0.51491-0.4395,0.55231-0.44012,0.51491-0.54984,0.44197-0.65986,0.3681-0.73342,0.33086-0.80652,0.29454-0.87946,0.22099-0.91639,0.14727-0.95317,0.14727-0.98995,0.0731-2.0524,0-0.98995-0.0731-1.0263-0.0736-0.95317-0.14727-0.95317-0.14743-0.88008-0.22083-0.84283-0.29469-0.8433-0.40442-0.8433-0.51553-0.84268-0.6254-0.7702-0.73575-0.80652-0.81007-0.7328-0.88316-0.69664-0.91995-0.69664-0.99366-0.65971-1.0304-0.58677-1.0672-0.54937-1.1042-0.51368-1.0672-0.47628-1.1042-0.40318-1.0672-0.33024-1.0672" fill-rule="evenodd" fill="#c6875b"/>
<path d="m30.155,50.228-0.03616,0.0371-0.07371,0.10972-0.10987,0.14835-0.14665,0.25653-0.10987,0.29516-0.10987,0.40489-0.07356,0.44042-0.03632,0.51615,0.07309,0.62586,0.10988,0.66296,0.25653,0.77267,0.36702,0.84531,0.51306,0.92103,0.65986,0.99211,0.80652,1.0678,1.0261,1.1776,1.063,1.2146,0.98995,1.2517,0.87961,1.2874,0.7702,1.325,0.69603,1.3251,0.58677,1.325,0.54999,1.3611,0.40318,1.3987,0.3664,1.3987,0.25653,1.3981,0.18359,1.4355,0.10988,1.4355,0.03678,1.4349,0,1.4724-0.10987,1.4716-0.18359,1.4723,0.0731-0.14728,0.18359-0.40441,0.29331-0.69958,0.3664-0.91995,0.3664-1.1042,0.40334-1.3618,0.36702-1.5086,0.29331-1.6926,0.18297-1.8037,0.10988-1.9873-0.0731-2.0609-0.25653-2.1344-0.44012-2.2449-0.69664-2.2814-0.98933-2.318-1.2834-2.3196-0.07294,0-0.18359-0.0371-0.32962-0.0726-0.40318-0.11127-0.51367-0.14681-0.54937-0.22098-0.66033-0.25653-0.65986-0.29516-0.69602-0.3678-0.73342-0.44197-0.69664-0.5146-0.7328-0.58878-0.65971-0.66295-0.6237-0.77267-0.58615-0.84686-0.51367-0.95657" fill-rule="evenodd" fill="#FFF"/>
<path d="m34.114,57.884-0.14665-0.0742-0.40318-0.22099-0.54999-0.44197-0.65971-0.58878-0.65986-0.80976-0.62293-1.0292-0.4769-1.2517-0.25653-1.5098-0.03693-1.7663,0.11049-1.9873,0.25653-2.06,0.47628-2.0615,0.58677-1.9502,0.76974-1.6937,0.95317-1.3985,1.0998-0.91948,0.65971-0.29362,0.80652-0.25807,0.87961-0.14681,0.98995-0.0742,0.98933,0.0371,1.0269,0.14681,0.98933,0.25807,0.91639,0.40489,0.8433,0.5146,0.73342,0.6985,0.54999,0.84685,0.40318,0.99366,0.14665,1.2146-0.07356,1.3614-0.36656,1.5824-0.69649,1.8034-0.51321,1.142-0.54984,1.0663-0.58677,1.0678-0.58615,0.99366-0.58677,0.95657-0.62293,0.88239-0.62355,0.84685-0.58615,0.77268-0.6237,0.70004-0.62293,0.58878-0.58677,0.55169-0.58615,0.40488-0.58677,0.33071-0.54984,0.25807-0.51306,0.11126-0.51321,0" fill-rule="evenodd" fill="#FFF"/>
<path d="m34.627,38.635,0.62293-0.29362,0.73342-0.22098,0.8433-0.14681,0.91639-0.0371,0.91624,0.0371,0.95317,0.1839,0.91639,0.25807,0.8433,0.36779,0.76958,0.51461,0.69664,0.66295,0.51321,0.80976,0.3664,0.91949,0.18343,1.1049-0.07356,1.2873-0.29284,1.4712-0.58677,1.6195-0.47628,1.0678-0.51367,1.0678-0.51306,0.99366-0.54999,0.95657-0.58615,0.91948-0.54984,0.88394-0.58677,0.77268-0.58615,0.73558-0.58677,0.66296-0.58677,0.58878-0.58615,0.5146-0.54999,0.40488-0.54984,0.33071-0.54999,0.22098-0.47628,0.11127-0.4769,0-0.14665-0.0742-0.3664-0.22099-0.54999-0.40488-0.62293-0.55169-0.62355-0.77267-0.58615-0.95657-0.44012-1.2146-0.25653-1.4356-0.03678-1.6922,0.10987-1.8776,0.25653-1.9873,0.44012-1.9502,0.58662-1.8034,0.73296-1.6195,0.88008-1.3244,1.0263-0.88394" fill-rule="evenodd" fill="#f2e8e0"/>
<path d="m34.737,39.151,0.58662-0.25808,0.69664-0.22098,0.76974-0.10972,0.8433-0.0371,0.84268,0.0742,0.8433,0.14681,0.8433,0.25807,0.80652,0.40334,0.69649,0.47905,0.62308,0.62587,0.47628,0.73559,0.36702,0.88394,0.18282,1.0307-0.03616,1.1405-0.25715,1.3244-0.47628,1.4727-0.44012,1.0308-0.47628,0.99366-0.4769,0.95657-0.51306,0.91949-0.51306,0.88394-0.54999,0.84685-0.54999,0.77267-0.54984,0.6985-0.54937,0.62587-0.58677,0.55169-0.51306,0.5146-0.54999,0.36934-0.51306,0.3307-0.51368,0.22099-0.47628,0.10972-0.44012,0-0.14665-0.0726-0.32962-0.22099-0.51306-0.36779-0.58677-0.51615-0.58677-0.73559-0.54937-0.92102-0.43996-1.1405-0.22037-1.3614-0.03616-1.6195,0.07294-1.7663,0.25653-1.876,0.40334-1.8405,0.54984-1.7292,0.69664-1.5454,0.8433-1.2146,0.98949-0.84685" fill-rule="evenodd" fill="#e5d1c6"/>
<path d="m34.847,39.665,0.54999-0.25807,0.62355-0.1839,0.7328-0.0726,0.73358,0,0.76958,0.0726,0.80652,0.14835,0.73342,0.29362,0.7328,0.36934,0.65986,0.47751,0.54984,0.55169,0.4769,0.70004,0.32962,0.80977,0.18343,0.95657,0,1.0292-0.18343,1.1791-0.40334,1.3244-0.40318,0.99366-0.40318,0.95657-0.44012,0.91948-0.47628,0.88394-0.51306,0.80976-0.4769,0.80977-0.51306,0.73558-0.54999,0.66296-0.51306,0.62586-0.51321,0.51461-0.51306,0.47905-0.51306,0.3678-0.4769,0.29361-0.47628,0.22099-0.4769,0.11126-0.40334,0-0.10987-0.0742-0.3664-0.1839-0.4769-0.36779-0.54984-0.51615-0.58615-0.66141-0.51306-0.88394-0.40334-1.0663-0.22037-1.2888-0.03616-1.5083,0.10987-1.6937,0.21975-1.7663,0.40318-1.7292,0.51321-1.6566,0.65971-1.4356,0.80652-1.1776,0.91624-0.77267" fill-rule="evenodd" fill="#d6b7a5"/>
<path d="m35.031,40.144,0.51306-0.22099,0.58677-0.14681,0.65986-0.0742,0.65971,0,0.69664,0.11126,0.7328,0.1839,0.65986,0.25653,0.66033,0.36779,0.58615,0.47906,0.51306,0.55169,0.44012,0.62586,0.33024,0.73559,0.18282,0.84685,0.03693,0.95657-0.10988,1.0678-0.33024,1.1405-0.32962,0.91948-0.40318,0.92103-0.40334,0.84531-0.43996,0.84685-0.44012,0.80976-0.47628,0.73559-0.4769,0.70004-0.51306,0.66295-0.47628,0.58878-0.51306,0.5146-0.47689,0.44197-0.47628,0.3678-0.4769,0.25807-0.4395,0.21944-0.40318,0.11127-0.40334,0-0.11049-0.0742-0.32962-0.1839-0.43996-0.3307-0.51306-0.47906-0.54999-0.62432-0.47628-0.84685-0.36702-0.99366-0.21975-1.2146-0.03678-1.4356,0.07356-1.5824,0.21975-1.6566,0.3664-1.6551,0.4769-1.5098,0.62293-1.397,0.73358-1.1049,0.87946-0.73558" fill-rule="evenodd" fill="#cca38c"/>
<path d="m35.14,40.659,0.4769-0.22099,0.54984-0.10972,0.58615-0.0742,0.58677,0.0371,0.65986,0.10972,0.62293,0.22099,0.58677,0.25807,0.58677,0.3678,0.54937,0.44197,0.47674,0.51614,0.36656,0.62432,0.33009,0.66296,0.18297,0.77267,0.03678,0.80977-0.07309,0.91948-0.22021,0.99366-0.29346,0.88394-0.32962,0.84531-0.3664,0.84685-0.40318,0.77422-0.40318,0.77267-0.44012,0.6985-0.44012,0.66296-0.47628,0.62432-0.4769,0.55323-0.43934,0.5146-0.47689,0.40488-0.44012,0.3678-0.4395,0.25807-0.43996,0.1839-0.40334,0.11126-0.3664,0-0.10987-0.0742-0.29331-0.14681-0.40334-0.33225-0.51306-0.44043-0.4769-0.62741-0.47628-0.77267-0.33024-0.91949-0.18281-1.1405-0.03693-1.3259,0.07309-1.5083,0.22037-1.5454,0.32962-1.5453,0.47689-1.4356,0.54984-1.2888,0.69602-1.0292,0.80652-0.70004" fill-rule="evenodd" fill="#bc8c6d"/>
<path d="m34.884,55.012-0.10987-0.0371-0.25653-0.1839-0.40334-0.29362-0.43996-0.40642-0.47628-0.58724-0.40334-0.70004-0.33009-0.88394-0.18297-1.0663-0.03678-1.2517,0.07294-1.3986,0.22037-1.4356,0.29331-1.4341,0.4395-1.3614,0.54999-1.1776,0.62293-0.95812,0.7702-0.66141,0.4395-0.18389,0.4769-0.11127,0.51306-0.0371,0.54999,0.0371,0.54999,0.14836,0.54984,0.21944,0.54999,0.25807,0.51306,0.36779,0.44012,0.40488,0.4395,0.47906,0.36702,0.55169,0.25653,0.62587,0.18281,0.66141,0.10988,0.73713-0.03616,0.77268-0.14665,0.80976-0.25668,0.8453-0.25653,0.81131-0.33009,0.77268-0.3664,0.77267-0.36656,0.73559-0.40318,0.66295-0.40318,0.62432-0.44012,0.59033-0.40318,0.5146-0.44012,0.47906-0.44012,0.40333-0.43934,0.33225-0.40334,0.25808-0.40318,0.18235-0.36702,0.11126-0.3664,0" fill-rule="evenodd" fill="#af7551"/>
<path d="m42.876,44.929-0.03693,0.0371,0.03693,0.0726,0.03616,0.0371,0.03678,0,0.76974-0.80977,0.51306-0.88394,0.29331-0.91948,0.10988-0.91948,0-0.80977-0.03616-0.66295-0.07371-0.44197-0.03616-0.14681,0,1.3985-0.11049,0.88394-0.18282,0.91949-0.29346,0.88394-0.40318,0.77267-0.62293,0.58878" fill-rule="evenodd" fill="#140000"/>
<path d="m35.507,44.45-0.36702-0.0742-0.0731,0.0742,0.0731,0.1839,0.14665,0.11126,0.80652,0.44197,0.73342,0.21944,0.65986,0.0371,0.54984-0.10972,0.47628-0.14681,0.33024-0.18544,0.21975-0.14681,0.07294-0.0742-1.3557,0-0.62355-0.0356-0.58615-0.0742-0.58677-0.0742-0.47628-0.14681" fill-rule="evenodd" fill="#140000"/>
<path d="m42.876,48.352-0.14681,0.29361-0.22021,0.29362-0.18297,0.29516-0.22037,0.25808-0.25653,0.25652-0.21975,0.25808-0.25653,0.25807-0.22037,0.22099-0.21975,0.25652-0.21975,0.25808-0.22021,0.22098-0.21975,0.25808-0.21975,0.25652-0.18359,0.29517-0.18343,0.25807-0.18297,0.29361-0.25653,0.62587-0.22037,0.73559-0.14665,0.62586-0.03616,0.22099,0.14665-0.33071,0.14604-0.36933,0.14681-0.33071,0.18343-0.3307,0.14665-0.29517,0.21975-0.3307,0.22037-0.3307,0.21975-0.29517,0.25653-0.29361,0.25653-0.29516,0.25653-0.29362,0.25653-0.29516,0.22037-0.25808,0.25653-0.29361,0.25668-0.29516,0.25653-0.29362,0.3664-0.47906,0.29331-0.5146,0.21975-0.55169,0.18359-0.55324,0.03678-0.73558-0.03678-0.84531-0.10988-0.70004-0.03693-0.29362,0.03693,0.33071,0,0.84685-0.07371,1.0663-0.29269,0.92103" fill-rule="evenodd" fill="#140000"/>
<path d="m42.582,45.297-0.22037-0.0371-0.21975-0.0371-0.25653,0.0371-0.21975,0.0371-0.03678,0.0371-0.03678,0.0371,0,0.10972,0.07356,0.10972,0.07309,0.0742,0.10987,0.0742,0.10988,0.0356,0.18343,0.0371,0.18359-0.0371,0.21975,0,0.14665-0.0726,0.29346-0.18389,0.32947-0.25808,0.22037-0.18389,0.10987-0.10972-0.10987,0.0726-0.25653,0.11126-0.36702,0.10972-0.32962,0.0371" fill-rule="evenodd" fill="#140000"/>
<path d="m38.33,51.259-0.25668-0.0371-0.25653,0.0742-0.25653,0.10972-0.25653,0.0371-0.18297-0.0371-0.22021-0.0371-0.21975,0-0.18359-0.0371-0.03678,0,0,0.11127,0.25715,0.10972,0.21975,0.0742,0.21975,0.0371,0.25653,0.0371,0.22037,0,0.18282-0.0371,0.18359-0.0371,0.18343-0.0742,0.14619-0.0356,0.18343,0,0.18359,0.0356,0.21975,0.0742,0.29331,0,0.25653-0.1468,0.21975-0.1839,0.07371-0.0742-0.03693,0-0.07294,0.0742-0.11049,0.0355-0.14619,0.0371-0.22021,0.0371-0.25653,0-0.25668-0.0371-0.33009-0.10972" fill-rule="evenodd" fill="#140000"/>
<path d="m38.513,52.62-0.18343-0.0371-0.18297-0.0371-0.18343-0.0356-0.18297-0.0371-0.03678,0-0.03693,0.0726,0,0.0371,0.03693,0.0371,0.40318,0.1839,0.32962,0.0726,0.25653,0.0371,0.22037-0.0726,0.10988-0.0742,0.10987-0.10972,0.03678-0.11126,0.03678-0.10972-0.07356,0.0371-0.18297,0.0371-0.25715,0.0726-0.21975,0.0371" fill-rule="evenodd" fill="#140000"/>
<path d="m43.095,42.979-0.25653,0.14681-0.22021,0.1468-0.21975,0.22099-0.18297,0.22098-0.18343,0.22099-0.14681,0.25807-0.14665,0.25653-0.14665,0.25807-0.18297,0.62587-0.07356,0.62587,0,0.66141-0.07309,0.66295-0.11049,0.73559-0.14604,0.77267-0.22037,0.77268-0.25653,0.73713,0,0.0726,0.14665,0,0.03678-0.0355,0.36656-0.88394,0.29331-0.8824,0.21975-0.95811,0.10988-0.91949,0-0.55169-0.03632-0.25807,0-0.25807,0.07309-0.47752,0.14665-0.44197,0.21975-0.44197,0.25653-0.36779,0.25668-0.25807,0.36702-0.22099,0.43934-0.14681,0.4769-0.1468,0.44012-0.0742,0.3664-0.0726,0.21975-0.0371,0.10987,0-0.0731,0-0.14665-0.0371-0.25653,0-0.25653-0.0371-0.65986,0-0.29331,0.0371-0.25668,0.0742" fill-rule="evenodd" fill="#140000"/>
<path d="m38.916,43.088-0.14681-0.10972-0.18282-0.11127-0.18359-0.0726-0.18343-0.0742-0.18297-0.0371-0.18343-0.0371-0.21975-0.0371-0.18359-0.0355-0.43996-0.0742-0.40334-0.0742-0.80652,0-0.40318,0.0371-0.40318,0.0742-0.3664,0.14681-0.40334,0.1468-0.07294,0.0742-0.03693,0.10972,0.03693,0.0742,0.10972,0.0371,0.51321-0.0371,0.47628-0.0371,0.51368,0.0371,0.47628,0,0.51306,0.0742,0.4769,0.0726,0.51321,0.11126,0.47628,0.14681,0.65971,0.1839,0.54999,0.0371,0.4769,0,0.40318-0.0742,0.29346-0.10972,0.21959-0.0742,0.14681-0.0742,0.03678-0.0355-0.07371,0-0.14665,0.0355-0.21975,0.0742-0.62355,0-0.32962-0.0371-0.3664-0.14681-0.33009-0.18389" fill-rule="evenodd" fill="#140000"/>
<path d="m31.695,49.786,0.18359,0.66296,0.21959,0.62586,0.29346,0.62587,0.3664,0.55169,0.51306,0.55169,0.54999,0.55169,0.58677,0.5146,0.65971,0.47906,0.65986,0.40488,0.7328,0.29516,0.73342,0.1839,0.76974,0.0371,0.07356-0.0371,0.0731-0.0742,0-0.0742-0.03693-0.0356-0.69587-0.22098-0.65986-0.29516-0.66033-0.29362-0.58615-0.40488-0.58677-0.40488-0.58615-0.44197-0.54999-0.47752-0.51306-0.51614-0.25715-0.25808-0.21975-0.29361-0.18359-0.29516-0.18282-0.33071-0.14665-0.29362-0.14681-0.36933-0.14665-0.33071-0.10987-0.36779-0.18343-0.92103-0.0731-1.0663-0.07356-0.84685,0-0.3678-0.03631,0.33071-0.03678,0.80976,0.03678,1.1405,0.21975,1.2517" fill-rule="evenodd" fill="#140000"/>
<path d="m9.7001,71.426,0.14668,1.1042,0.21973,1.104,0.25656,1.1042,0.29337,1.0672,0.3302,1.0668,0.36642,1.0672,0.40324,1.0304,0.47688,1.0311,0.47629,0.99351,0.54991,0.99366,0.54994,0.95672,0.58615,0.9201,0.58677,0.91995,0.65971,0.91995,0.65986,0.88316,0.69664,0.84624,0.73342,0.847,0.7328,0.80946,0.73342,0.80945,0.80652,0.77267,0.80652,0.7733,0.80636,0.73589,0.84268,0.7359,0.8433,0.69958,0.14681,0.0368,0.10988-0.11049,0.07294-0.1105-0.07294-0.14727-2.786-2.8336-2.3826-2.7972-2.0162-2.7968-1.6497-2.7237-1.3196-2.6494-1.063-2.5396-0.80649-2.4285-0.58675-2.2449-0.36642-2.0977-0.25654-1.8768-0.10987-1.6565,0-1.4348,0.03622-1.1409,0.03683-0.84686,0.07305-0.51491,0.03681-0.18405-0.14668,0.99351-0.32959,2.3554-0.22034,2.9073,0.03683,2.65" fill-rule="evenodd" fill="#140000"/>
<path d="m19.965,61.673,0.40318,0.29516,0.4395,0.25653,0.40318,0.29516,0.40334,0.29455,0.40318,0.29392,0.40318,0.29454,0.40334,0.33148,0.40318,0.29455,0.40334,0.33086,0.3664,0.33132,0.36702,0.33148,0.40318,0.3307,0.32962,0.36826,0.36702,0.33147,0.3664,0.36826,0.32962,0.36764,0.58677,0.73574,0.58661,0.73651,0.47628,0.84624,0.44012,0.84639,0.32962,0.88316,0.18343,0.91995,0.03693,0.91995-0.11049,0.95734-0.25653,0.84639-0.32962,0.77267-0.40318,0.77268-0.44012,0.73651-0.47628,0.73574-0.44012,0.7359-0.40318,0.73589-0.33024,0.81008,0,0.11049,0.11049,0.0736,0.10987-0.0368,0.10988-0.0736,0.43996-0.81023,0.51321-0.77267,0.54984-0.73574,0.51321-0.77268,0.51306-0.73651,0.44012-0.80946,0.3664-0.84638,0.25653-0.88317,0.10988-0.91995-0.07309-0.88378-0.18343-0.88302-0.29346-0.84638-0.40318-0.80946-0.4395-0.77267-0.54984-0.69974-0.54999-0.69896-0.33024-0.40503-0.3664-0.36764-0.40318-0.36826-0.3664-0.33132-0.44012-0.33086-0.40318-0.33148-0.40334-0.29454-0.43996-0.33071-0.4395-0.2947-0.44012-0.29454-0.43996-0.29454-0.40334-0.33086-0.4395-0.29455-0.43996-0.29531-0.40334-0.33071-0.40318-0.3307-0.65986-0.51615-0.65971-0.47751-0.65986-0.44197-0.69649-0.40488-0.65986-0.3678-0.65971-0.3307-0.65986-0.25808-0.58677-0.25807-0.58677-0.22098-0.51306-0.1839-0.47628-0.14681-0.40324-0.10972-0.33021-0.11126-0.21972-0.0726-0.18351-0.0371-0.03622,0,0.07305,0.0371,0.14668,0.0726,0.25654,0.11126,0.36642,0.1839,0.4033,0.1839,0.4769,0.22098,0.54984,0.25807,0.54937,0.29362,0.58677,0.29362,0.62293,0.33225,0.62355,0.29361,0.58615,0.33225,0.58677,0.33071,0.58677,0.3307,0.51306,0.29516,0.44012,0.29362" fill-rule="evenodd" fill="#140000"/>
<path d="m30.778,57.146,0.44012,0.55169,0.4395,0.55169,0.4769,0.51615,0.43934,0.55169,0.44012,0.55323,0.44012,0.5146,0.43996,0.55169,0.40334,0.55169,0.40318,0.58878,0.40334,0.55231,0.40318,0.58862,0.3664,0.58909,0.3664,0.6254,0.33024,0.58925,0.32962,0.6254,0.29331,0.62587,0.62293,1.4718,0.58677,1.73,0.54999,1.8031,0.47628,1.8031,0.40318,1.6565,0.33024,1.3244,0.18297,0.91994,0.07356,0.2947-0.14665-1.4355-0.21975-1.3981-0.25653-1.4355-0.33024-1.3619-0.3664-1.3981-0.40318-1.3618-0.47689-1.325-0.54999-1.3245-0.29269-0.6628-0.33024-0.66219-0.32962-0.66218-0.36702-0.62602-0.40318-0.6254-0.40334-0.62541-0.40318-0.58877-0.4395-0.58878-0.44012-0.55169-0.47674-0.51615-0.47628-0.5146-0.47643-0.51615-0.51367-0.47751-0.51306-0.51615-0.47628-0.47751-0.51306-0.47906-0.03693,0" fill-rule="evenodd" fill="#140000"/>
<path d="m23.96,88.318,0.10987-0.51553,0.0731-0.88316,0-1.6565,0.03678-0.36764,0.03678-0.44182,0.14681-0.51491,0.18282-0.58909,0.29346-0.51491,0.43996-0.47875,0.54999-0.40441,0.7328-0.25777,0.58677-0.11049,0.58677-0.0368,0.58615-0.0369,0.58677,0.0369,0.54984,0.0736,0.58615,0.11049,0.51321,0.14727,0.54984,0.18421,0.51367,0.22021,0.51321,0.25776,0.47628,0.25777,0.51306,0.2947,0.47689,0.29392,0.47628,0.29455,0.4769,0.29454,0.47628,0.29408,0.4769,0.29454,0.51306,0.22099,0.51321,0.25776,0.51306,0.18405,0.51306,0.18359,0.54999,0.18405,0.54984,0.14727,0.51321,0.1105,0.54984,0.11049,0.54999,0.0736,0.54984,0.11049,0.58677,0.0368,0.54937,0.0737,0.54999,0.0368,0.58661,0.0363,0.54999,0,0.0731-0.0363,0.07356-0.0736,0-0.0737-0.07356-0.0736-0.54999-0.0737-0.54984-0.0737-0.54937-0.0736-0.54999-0.0737-0.54984-0.11049-0.54999-0.11034-0.51306-0.14727-0.51321-0.14742-0.54984-0.14666-0.4769-0.18405-0.51306-0.22098-0.51321-0.18406-0.4769-0.25776-0.51306-0.25715-0.47628-0.29469-0.4769-0.29455-0.4395-0.29392-0.40318-0.25777-0.44012-0.29454-0.43996-0.25777-0.4395-0.29408-0.44012-0.25776-0.43996-0.25776-0.44012-0.22083-0.47628-0.22099-0.44012-0.18359-0.47628-0.18405-0.51306-0.11049-0.4769-0.11049-0.51306-0.0736-0.51321-0.0368-0.54984,0-0.44012,0.0368-0.44012,0.0736-0.40318,0.14742-0.40256,0.14728-0.40395,0.22083-0.3664,0.22036-0.3664,0.25777-0.33024,0.29454-0.29269,0.33148-0.25653,0.3307-0.18359,0.36826-0.14665,0.40442-0.10987,0.40519-0.03678,0.40503-0.03693,0.4412,0,0.44182,0.07371,0.73589,0.07309,1.1042-0.10987,0.88317-0.51321,0.0736-0.21959-0.14727-0.2573-0.22037-0.25653-0.18405-0.21975-0.22098-0.21959-0.22099-0.14681-0.14727-0.10987-0.11049-0.03678-0.0368,0.07309,0.11049,0.18343,0.29454,0.25653,0.44197,0.29346,0.4412,0.3664,0.40504,0.3664,0.29469,0.33024,0.0729,0.29331-0.14665" fill-rule="evenodd" fill="#140000"/>
<path d="m30.412,54.719,0.21975,0.29361,0.25653,0.29362,0.25653,0.25807,0.29346,0.29362,0.29331,0.25807,0.29346,0.25808,0.29269,0.22098,0.29346,0.22099,0.29331,0.18389,0.33024,0.1839,0.32962,0.14681,0.33009,0.14681,0.32962,0.11126,0.3664,0.10972,0.33024,0.11127,0.32962,0.10972,0.07356,0,0.03693-0.0726,0-0.0371-0.03693-0.0371-0.25653-0.10972-0.25653-0.11127-0.25653-0.10972-0.22037-0.11126-0.25653-0.10972-0.25653-0.11127-0.25653-0.10972-0.25653-0.11126-0.29346-0.1839-0.29331-0.18389-0.29284-0.22099-0.25715-0.25653-0.25653-0.22098-0.25653-0.25808-0.25653-0.25807-0.25668-0.25653-0.47628-0.62586-0.4769-0.77268-0.43934-0.88394-0.40334-0.91948-0.33009-0.84685-0.25668-0.6985-0.14665-0.47906-0.07294-0.1839,0.03616,0.14681,0.10987,0.44197,0.14665,0.66296,0.25653,0.77267,0.25715,0.84685,0.32962,0.84531,0.33024,0.73559,0.40318,0.62741" fill-rule="evenodd" fill="#140000"/>
<path d="m35.104,63.182-0.03693,0.0729,0.03693,0.0369,0.07294,0,0.03678-0.0369,0.36656-0.73574,0.14665-0.88394,0.03678-0.91948-0.07371-0.95657-0.10972-0.84685-0.14681-0.6985-0.10987-0.47906-0.03678-0.1839,0.10987,0.62587,0.14665,1.5454-0.03616,1.8776-0.40318,1.5823" fill-rule="evenodd" fill="#140000"/>
<path d="m25.866,55.343,0.07371,0.95657,0.03678,0.99366,0.0731,0.99366,0.14665,0.95657,0.18343,0.92103,0.25668,0.91948,0.32947,0.84685,0.40334,0.84655,0.43996,0.80945,0.51321,0.77268,0.58677,0.73635,0.62293,0.69912,0.14665,0.0368,0.10987-0.0736,0.07371-0.14743,0-0.14727-0.47689-0.69896-0.47628-0.77267-0.44012-0.73652-0.40318-0.77283-0.3664-0.80976-0.33024-0.80976-0.29346-0.80977-0.21959-0.8453-0.21975-0.84685-0.14681-0.88394-0.14665-0.8824-0.10987-0.88394-0.10987-1.1776-0.07356-1.2873-0.03678-1.0308,0-0.44197-0.03632,0.40488-0.07356,0.91949-0.03693,1.1791,0,1.0663" fill-rule="evenodd" fill="#140000"/>
<path d="m32.098,65.28,0.47628,0,0.4769,0.0362,0.47628,0,0.44012,0.0368,0.47628,0.0369,0.47689,0.0368,0.47628,0.0368,0.44012,0.0737,0.03678,0,0.03678-0.0737,0-0.0368-0.03678-0.0368-0.4769-0.0737-0.51306-0.0729-0.47628-0.0737-0.51321-0.0368-0.4769,0-0.51306-0.0369-1.4294,0-0.51368,0.0737-0.54937,0.0368-0.51367,0.0737-0.47628,0.0729-0.3664,0.0369-0.25653,0.0736-0.11049,0,0.11049,0,0.25653-0.0368,0.4395-0.0368,0.4769-0.0369,0.54984,0,0.58615-0.0368,0.51367-0.0362,0.47628,0" fill-rule="evenodd" fill="#140000"/>
<path d="m33.967,67.414-0.18343,0.2947-0.18297,0.29454-0.18359,0.29454-0.14665,0.29393-0.18282,0.2947-0.14681,0.29454-0.14665,0.29454-0.10988,0.33086,0,0.0736,0.10988,0,0.0731-0.0368,0.14665-0.29392,0.14665-0.29455,0.18359-0.29469,0.14665-0.29455,0.18297-0.29392,0.18343-0.25777,0.18359-0.2947,0.18282-0.29454,0.21975-0.36764,0.18359-0.33132,0.18343-0.29454,0.21975-0.29408,0.18343-0.25777,0.18297-0.33132,0.14665-0.22099,0.03693-0.11049-0.03693,0.0737-0.14665,0.14728-0.18297,0.25776-0.25653,0.29454-0.25653,0.33148-0.25715,0.36764-0.25653,0.33132-0.21975,0.29393" fill-rule="evenodd" fill="#140000"/>
<path d="m31.365,68.997,0.88023,0.62525,0.8433,0.66295,0.76958,0.73574,0.7328,0.77268,0.65986,0.84701,0.58677,0.88316,0.54984,0.95673,0.47628,0.95672,0.40334,0.99366,0.36702,1.0304,0.29331,1.0672,0.29284,1.0674,0.22021,1.0672,0.21975,1.0672,0.21975,1.1042,0.18359,1.0672,0.07294,0.11049,0.14681-0.0369,0.11034-0.0736,0.0731-0.14727-0.0731-1.1409-0.11034-1.1409-0.10987-1.1409-0.18297-1.1409-0.25715-1.104-0.29284-1.1042-0.33009-1.104-0.44012-1.0672-0.25653-0.51491-0.25653-0.47875-0.29346-0.47813-0.32947-0.4786-0.33024-0.40457-0.32962-0.40504-0.40318-0.40503-0.3664-0.36764-0.40334-0.36826-0.44012-0.33132-0.43996-0.29393-0.47628-0.29469-0.47689-0.29455-0.47628-0.25776-0.51306-0.22037-0.51383-0.22083" fill-rule="evenodd" fill="#140000"/>
<path d="m38.293,62.777,0.21975,0.58847,0.18359,0.62602,0.14665,0.58847,0.14665,0.62602,0.14604,0.58862,0.11049,0.62602,0.10987,0.62525,0.10987,0.6254,0.29346,2.5028,0.14665,2.5389,0.07294,2.5396,0.07371,2.5396,0.10987,0.22021,0.18297,0.0369,0.22021-0.1105,0.10987-0.18358,0.44012-2.5764,0.14665-2.6126-0.18343-2.6132-0.47628-2.5396-0.14681-0.62525-0.18343-0.58862-0.18359-0.58925-0.18282-0.58846-0.25653-0.58925-0.22037-0.58847-0.25653-0.5523-0.29346-0.55185-0.14665-0.295-0.18297-0.29362-0.14665-0.29516-0.18343-0.29362-0.18297-0.29516-0.14665-0.25653-0.18359-0.29516-0.14665-0.29362-0.14665-0.29516-0.18297-0.36779-0.18343-0.33071-0.18359-0.36779-0.18282-0.33225-0.14665-0.25807-0.07371-0.14681-0.03616-0.0742,0.07294,0.14836,0.14665,0.3307,0.21975,0.55169,0.29346,0.66295,0.29331,0.73559,0.29346,0.73713,0.29331,0.73559,0.25653,0.62556" fill-rule="evenodd" fill="#140000"/>
<path d="m41.263,88.943-0.18343,0.25777-0.18359,0.29392-0.18297,0.25777-0.14665,0.29454-0.14665,0.2947-0.10987,0.29393-0.10988,0.29454-0.07356,0.29454-0.03693,0.58863,0.07371,0.58924,0.18297,0.55169,0.22021,0.51553,0.03693,0.0368,0.07294,0,0.0731-0.0737,0-0.0736-0.14604-0.62602-0.07371-0.55169,0-0.58924,0.10988-0.55169,0.14665-0.51553,0.22037-0.51491,0.29269-0.51553,0.33024-0.51491,0.3664-0.44181,0.4769-0.47813,0.54937-0.44182,0.58677-0.44135,0.54984-0.40504,0.44012-0.29454,0.29331-0.22037,0.10987-0.0737-0.10987,0.0737-0.36702,0.22037-0.47628,0.29454-0.58662,0.40504-0.65986,0.44135-0.58615,0.44182-0.54999,0.44119-0.40318,0.44197" fill-rule="evenodd" fill="#140000"/>
<path d="m44.085,89.642-0.29346,0.5523-0.22037,0.55185-0.18282,0.58909-0.14665,0.58862-0.03693,0.51553,0.07371,0.55169,0.10987,0.51553,0.10987,0.51491,0.03678,0.0737,0.0731-0.0369,0.07356-0.0736,0.03632-0.0737-0.10987-1.1409,0.10987-1.104,0.25653-1.0304,0.4769-1.0672,0.32962-0.51491,0.36702-0.55247,0.43934-0.51491,0.4769-0.51552,0.40334-0.4412,0.32962-0.36826,0.25653-0.25776,0.07356-0.0736-0.10987,0.0736-0.25653,0.25776-0.36702,0.36826-0.47628,0.4412-0.51306,0.55246-0.51321,0.55169-0.43996,0.55231-0.3664,0.51491" fill-rule="evenodd" fill="#140000"/>
<path d="m51.82,84.453,0.2196-0.25714,0.22037-0.29455,0.21975-0.25776,0.21975-0.25777,0.25653-0.22036,0.29346-0.1105,0.29331-0.0368,0.33024,0.0368,0.29269,0.1105,0.33024,0.10987,0.29331,0.11049,0.29284,0.14727,0.22037,0.1105,0.25653,0.11049,0.25653,0.0736,0.25653,0.11049,0.21975,0.0737,0.25715,0.11034,0.25653,0.0737,0.21975,0.10987,0.21975,0.11049,0.25653,0.0736,0.22037,0.11049,0.21975,0.1105,0.25653,0.11049,0.22037,0.11049,0.21975,0.11049,0.21959,0.11034,0.07371,0,0.03616-0.0368,0-0.0736-0.03616-0.0369-0.22037-0.11049-0.21975-0.14728-0.21959-0.11033-0.22037-0.1105-0.21975-0.11049-0.21975-0.11049-0.25653-0.10987-0.22037-0.1105-0.21975-0.11049-0.25653-0.11034-0.22037-0.0737-0.25653-0.11049-0.25653-0.1105-0.21975-0.11049-0.25653-0.11034-0.22037-0.11049-0.3664-0.18359-0.3664-0.18405-0.3664-0.14727-0.36702-0.11049-0.3664-0.0368-0.32962,0.0736-0.33024,0.14727-0.29331,0.2947-0.69664,0.80945-0.80652,0.80946-0.87946,0.80945-0.8433,0.73651-0.76974,0.66219-0.58677,0.51491-0.43934,0.36825-0.14681,0.1105,0.14681-0.0737,0.40318-0.25776,0.54999-0.36764,0.69602-0.4786,0.7702-0.55184,0.7328-0.55231,0.69664-0.58847,0.54999-0.58924" fill-rule="evenodd" fill="#140000"/>
<path d="m48.447,92.182,0.29346-0.0737,0.29331-0.11049,0.29284-0.11034,0.29331-0.14743,0.29346-0.14727,0.29331-0.14665,0.25653-0.18405,0.25653-0.14728,0.25653-0.14742,0.21975-0.18405,0.22037-0.22099,0.25653-0.18343,0.18359-0.22099,0.21975-0.22083,0.21975-0.25776,0.18343-0.22099,0.0731-0.14665-0.03632-0.1842-0.11049-0.1105-0.18282,0.0369-0.40318,0.22083-0.44012,0.18358-0.40334,0.18406-0.43996,0.1842-0.40334,0.18405-0.43934,0.22099-0.36702,0.22083-0.3664,0.29408-0.69664,0.40503-0.69602,0.14728-0.69664-0.0368-0.62355-0.14728-0.54937-0.1842-0.43996-0.22083-0.29346-0.18421-0.10987-0.0731,0.10987,0.0731,0.25653,0.22099,0.3664,0.33132,0.51321,0.33148,0.54984,0.3307,0.62355,0.2947,0.58615,0.14727,0.58677,0" fill-rule="evenodd" fill="#140000"/>
<path d="m52.993,91.924,0.03693-0.0368,0.03678-0.0369,0-0.0368-0.03678-0.0368-0.44012-0.0737-0.47628-0.11049-0.51367-0.10987-0.51321-0.14727-0.43934-0.1105-0.40334-0.11034-0.22037-0.0737-0.10972-0.0368,0,0.0368,0.07356,0.11049,0.10987,0.18406,0.25653,0.1842,0.3664,0.18343,0.54999,0.14728,0.7328,0.0737,0.98995,0" fill-rule="evenodd" fill="#140000"/>
<path d="m30.522,45.406-0.14665,0.84685-0.22037,0.77268-0.32962,0.77267-0.3664,0.70005-0.43996,0.66141-0.47628,0.58877-0.54999,0.59033-0.58677,0.55169-0.62293,0.5146-0.65986,0.47906-0.69649,0.44042-0.69664,0.40643-0.73342,0.40333-0.73296,0.36934-0.73342,0.36625-0.7328,0.33225-0.69664,0.33071-0.69649,0.3307-0.65986,0.33225-0.69664,0.33071-0.65971,0.36779-0.65986,0.36934-0.65971,0.36779-0.65986,0.40488-0.62293,0.40488-0.62355,0.44197-0.62308,0.44043-0.58661,0.47906-0.58621,0.5146-0.51312,0.51614-0.5137,0.58878-0.43945,0.58878-0.03683,0.14681,0.07305,0.0726,0.11046,0.0371,0.10986-0.0371,0.62298-0.55169,0.65979-0.55169,0.65983-0.5146,0.65971-0.51615,0.65986-0.5146,0.69664-0.47906,0.69649-0.44042,0.69664-0.47906,0.3664-0.22098,0.3664-0.22099,0.36702-0.22098,0.40334-0.1839,0.3664-0.22099,0.3664-0.18389,0.40318-0.1839,0.3664-0.1839,0.40334-0.18389,0.36702-0.1839,0.3664-0.1839,0.40318-0.22098,0.3664-0.1839,0.40334-0.18389,0.3664-0.1839,0.36702-0.22099,0.62293-0.36779,0.62293-0.36779,0.6237-0.40643,0.58615-0.40333,0.58661-0.44197,0.54999-0.47906,0.54999-0.47752,0.47628-0.51614,0.4769-0.55169,0.40318-0.55169,0.3664-0.58878,0.33024-0.62587,0.29269-0.66295,0.22037-0.6985,0.14665-0.6985,0.10987-0.77422" fill-rule="evenodd" fill="#140000"/>
<path d="m30.265,45.15,0.10987-0.88394,0.0731-0.88394,0.07356-0.8453,0-0.88394-0.07356-1.1034-0.03632-1.1049-0.03678-1.0663,0.0731-1.1049,0.18343-0.84531,0.3664-0.80976,0.4769-0.73559,0.62293-0.66295,0.73342-0.58878,0.76974-0.44197,0.84268-0.33225,0.8433-0.14681,0.07371-0.0355,0.07294-0.11127,0-0.0726-0.07294-0.0371-0.88023,0-0.80636,0.14681-0.80652,0.33071-0.7328,0.47905-0.62355,0.55169-0.58615,0.66296-0.44012,0.73558-0.3664,0.77268-0.22037,1.0308,0.03678,1.0663,0.14681,1.0678,0.14665,1.0678,0.07294,0.5146,0.03693,0.55169,0.07356,0.55324,0.03632,0.5146,0,0.66295-0.03632,0.66141-0.07356,0.66296-0.07309,0.66295" fill-rule="evenodd" fill="#140000"/>
<path d="m35.031,32.821,0.44012-0.11127,0.47628-0.10972,0.43996-0.0371,0.47628-0.0371,0.9901,0,0.47628,0.0742,0.4769,0.0742,0.47628,0.10972,0.43996,0.10972,0.4769,0.14835,0.4395,0.1839,0.44012,0.18389,0.43996,0.22099,0.40334,0.25653,0.3664,0.25807,0.32962,0.25807,0.33009,0.25808,0.29346,0.29361,0.29331,0.29362,0.25653,0.33225,0.25653,0.3307,0.21975,0.33071,0.22037,0.36934,0.29284,0.73558,0.22021,0.73559,0.10988,0.77268,0.10987,0.77267,0.03693,0.0371,0.03678,0,0.0731-0.0371,0-0.0355-0.0731-0.80977-0.11049-0.80976-0.18297-0.77267-0.25653-0.77268-0.22037-0.40643-0.21959-0.40333-0.29346-0.36934-0.29331-0.33071-0.32962-0.3307-0.36702-0.29516-0.32962-0.29362-0.3664-0.25807-0.40318-0.25807-0.40334-0.25653-0.40318-0.1839-0.4769-0.18544-0.4395-0.14681-0.4769-0.14681-0.47628-0.10972-0.4769-0.0742-0.47628-0.0371-0.95317,0-0.4769,0.0371-0.47628,0.0742-0.47628,0.10972-0.43996,0.11127-0.44012,0.14681" fill-rule="evenodd" fill="#140000"/>
<path d="m41.299,37.715,0.36702,0.5146,0.21975,0.55323,0.14681,0.66141,0.07294,0.62587,0.03678,0.0371,0.07371,0,0.03616-0.0371,0.03693-0.0355,0.03678-0.73713-0.07371-0.6985-0.25653-0.66296-0.47628-0.5146-0.43996-0.29516-0.47628-0.1839-0.44012-0.10972-0.3664-0.0742-0.62355,0-0.14681,0.0371-0.07294,0,0.07294,0,0.22037,0.0742,0.29284,0.0726,0.36702,0.0726,0.40318,0.14836,0.3664,0.14681,0.3664,0.18389,0.25653,0.22099" fill-rule="evenodd" fill="#140000"/>
<path d="m33.014,36.833-0.21975,0.21944-0.22037,0.25808-0.18282,0.25807-0.10987,0.29362-0.07371,0.25807,0,0.29516,0.07371,0.29362,0.18297,0.29516,0.18343,0.1839,0.18343,0.18389,0.14619,0.1839,0.14665,0.22098,0.11049,0.33071-0.03678,0.3307-0.14681,0.33225-0.18343,0.29362-0.21975,0.40488-0.21975,0.44197-0.18343,0.44197-0.14681,0.44197-0.21959,0.91948-0.07371,0.91949-0.03678,0.95657,0.07356,0.95657,0.03693-0.36625,0.10972-0.92103,0.14681-1.1776,0.25653-1.0308,0.10987-0.33071,0.18343-0.36779,0.14665-0.29516,0.18297-0.33071,0.18359-0.33225,0.18282-0.29361,0.18359-0.3678,0.14665-0.33225,0.03678-0.5146-0.18343-0.47905-0.32962-0.44043-0.33024-0.36779-0.18343-0.29516-0.10987-0.25808,0.03678-0.29361,0.10987-0.25808,0.14665-0.22098,0.21975-0.25808,0.25653-0.18235,0.25715-0.18389,0.21975-0.11127,0.29346-0.0742,0.32947-0.0355,0.33024-0.0371,0.76974,0-0.07309-0.0371-0.18359-0.0371-0.29331-0.0371-0.3664-0.0371-0.40334,0.0371-0.43996,0.0742-0.40334,0.1839-0.40318,0.29516" fill-rule="evenodd" fill="#140000"/>
<path d="m31.732,39.886-0.18343-0.18389-0.18359-0.10972-0.21975-0.0371-0.21959,0.0371-0.18359,0.0726-0.18343,0.11126-0.18297,0.14681-0.14665,0.1839-0.40334,0.70004-0.25653,0.77268-0.14665,0.80821-0.03678,0.81131,0.07356,0.44043,0.14681,0.47906,0.2196,0.47751,0.25668,0.44197,0.25653,0.36779,0.21975,0.25808,0.18343,0.18389,0.03678,0.0371-0.22021-0.40488-0.21975-0.44197-0.18359-0.40488-0.14604-0.44043-0.07371-0.59032,0-0.62432,0.03693-0.62587,0.07294-0.58878,0.07371-0.33225,0.14665-0.36779,0.14665-0.40488,0.21975-0.33071,0.21975-0.25807,0.29331-0.10972,0.29346,0.0742,0.32962,0.3307,0.29331,0.33071,0.18359,0.0742-0.07371-0.22098-0.4395-0.66296" fill-rule="evenodd" fill="#140000"/>
<path d="m62.854,52.62-0.73342,1.6566-0.73342,1.6551-0.73296,1.6566-0.65971,1.6551-0.62355,1.6937-0.54937,1.7297-0.4769,1.7662-0.3664,1.767-0.51306,3.5694-0.25653,3.6067,0,3.6062,0.32947,3.6068,0.03693,0.0369,0.07294,0,0.07371-0.0369,0-0.0736-0.10988-1.7296-0.07371-1.6932-0.03678-1.7294,0-1.7296,0.07371-1.8036,0.18343-1.8031,0.18297-1.8031,0.25653-1.8031,0.33024-1.8037,0.40318-1.7663,0.54999-1.7299,0.58615-1.7292,0.65971-1.7292,0.65986-1.6937,0.73342-1.6922,0.73342-1.6566" fill-rule="evenodd" fill="#140000"/>
<path d="m72.568,53.172-0.21975,0.40488-0.22021,0.3678-0.18297,0.40488-0.18359,0.40488-0.18343,0.44197-0.14665,0.40488-0.14619,0.40488-0.14665,0.44197-0.18343,0.47752-0.14681,0.44197-0.18343,0.47906-0.14604,0.47751-0.18359,0.47906-0.14665,0.44042-0.14665,0.47906-0.14665,0.47906-0.29346,0.95657-0.29269,0.95657-0.29346,0.95719-0.25653,0.95673-0.25653,0.99366-0.25653,0.95672-0.22037,0.95688-0.21975,0.99351-0.3664,1.9136-0.25715,1.9136-0.14604,1.951-0.07371,1.9504,0.03678,1.9872,0.14665,1.9505,0.18297,1.9872,0.22037,1.9872,0.0731,0.0737,0.07356,0,0.07309-0.0737,0.03678-0.0736-0.14665-1.9136-0.14665-1.9504-0.07309-1.9136,0-1.9136,0.07309-1.9878,0.14665-1.9504,0.21975-1.9504,0.33009-1.9504,0.18297-0.95688,0.18343-0.91995,0.21975-0.95672,0.22037-0.91995,0.25653-0.9575,0.21975-0.91963,0.25653-0.91949,0.25653-0.92103,0.14681-0.44197,0.11049-0.47751,0.14604-0.44197,0.14665-0.44197,0.10987-0.44197,0.14665-0.44042,0.14665-0.40488,0.14681-0.44197,0.14665-0.47906,0.14665-0.47752,0.18359-0.5146,0.18282-0.47906,0.18359-0.47905,0.18343-0.44197,0.21975-0.47752,0.25653-0.44197" fill-rule="evenodd" fill="#140000"/>
<path d="m62.964,83.092,0.65971,0.18343,0.69664,0.22099,0.65986,0.18405,0.65971,0.22098,0.65986,0.18405,0.65971,0.22037,0.69664,0.18405,0.65986,0.22099,0.03616,0,0.07371-0.0368,0-0.0737-0.03693-0.0368-0.7328-0.25776-0.69664-0.25715-0.73342-0.22098-0.7328-0.25777-0.69664-0.22083-0.73342-0.22036-0.7328-0.22099-0.73342-0.18405-0.29284-0.0737-0.29331-0.1105-0.29346-0.0736-0.25653-0.0737-0.29331-0.0736-0.29346-0.11049-0.29331-0.0737-0.29284-0.0729-0.22021-0.0369-0.21975-0.0368-0.25653,0-0.25668-0.0368-0.22021,0.0368-0.32962,0,0.14665,0.0368,0.40318,0.10988,0.58615,0.14727,0.65986,0.18421,0.73342,0.18405,0.65986,0.1842,0.58662,0.14727,0.40334,0.1105" fill-rule="evenodd" fill="#140000"/>
<path d="m71.798,81.951,0.47628,0,0.4769-0.0369,0.47628,0,0.47628-0.0368,0.51367,0,0.47628-0.0368,0.4769,0,0.47628-0.0368,0.47628,0,0.4769-0.0369,0.47628-0.0368,0.4769-0.0368,0.47628-0.0369,0.47689-0.0368,0.47628-0.0736,0.4769-0.0369,0.0731-0.0368,0.03678-0.0736,0-0.0737-0.07371-0.0368-0.43934,0.0368-0.88023,0-0.43996,0.0368-0.4395,0-0.44012,0.0369-0.87946,0-0.44012,0.0368-0.88008,0-0.4395,0.0368-0.88008,0-0.4395,0.0368-0.69664,0-0.36702,0.0369-0.87946,0-0.51321,0.0368-1.063,0-0.54984,0.0368-0.54999,0-0.47628,0.0368-0.88008,0-0.3664,0.0369-0.4769,0,0.18343,0,0.54999,0.0368,0.73342,0.0368,0.91639,0.0737,0.98933,0.0368,0.91639,0.0368,0.8433,0.0369,0.58677,0" fill-rule="evenodd" fill="#140000"/>
<path d="m49.437,94.279,0.29269,0.0368,0.51367,0.0369,0.65986,0.0368,0.7328,0.0736,0.76958,0.0737,0.73358,0.0737,0.62293,0.0736,0.51367,0.0731,0.4395,0.0736,0.43996,0.0369,0.40334,0.0736,0.43996,0.0737,0.4395,0.0735,0.44012,0.0737,0.40318,0.0736,0.44012,0.0737,0.44012,0.0737,0.40318,0.0736,0.4395,0.0737,0.40318,0.0736,0.44012,0.0737,0.43996,0.0729,0.40334,0.0737,0.4395,0.0737,0.07356,0,0.03678-0.0737,0-0.0737-0.03678-0.0362-0.40318-0.0736-0.40334-0.1105-0.40318-0.0737-0.40318-0.11049-0.44012-0.0736-0.40318-0.0737-0.40334-0.1105-0.40318-0.0735-0.40334-0.0737-0.43996-0.0736-0.40334-0.0737-0.40318-0.0731-0.40318-0.0368-0.4395-0.0736-0.40334-0.0737-0.40318-0.0368-0.25653-0.0369-0.33024-0.0368-0.43996,0-0.4395-0.0368-0.51306-0.0368-0.54999-0.0369-0.54999-0.0368-0.54984-0.0368-0.54999,0-0.51306-0.0369-0.44012,0-0.43996-0.0368-0.32962,0-0.25653-0.0368-0.22037,0,0.03678,0,0.10988,0.0368,0.10987,0,0.18343,0.0368,0.18359,0.0369,0.21975,0,0.18343,0.0368,0.14681,0" fill-rule="evenodd" fill="#140000"/>
<path d="m73.815,55.711-0.29346,0.58878-0.25653,0.62587-0.25653,0.58878-0.22037,0.62586-0.18282,0.62587-0.18359,0.66295-0.18359,0.62432-0.14604,0.62587-0.18343,0.73713-0.18359,0.73559-0.18282,0.73589-0.22037,0.69912-0.18297,0.7359-0.18343,0.73636-0.18359,0.69911-0.21975,0.73574-0.21975,0.69974-0.18343,0.69896-0.18359,0.69896-0.18282,0.69973-0.18359,0.69897-0.14665,0.69911-0.14665,0.73636-0.10987,0.69912-0.14665,1.5827-0.03632,1.5821,0.03632,1.5823,0.10987,1.5827,0.07356,0.1105,0.10987,0,0.10988-0.0737,0.03678-0.11049-0.03678-1.4723,0.03678-1.4348,0.07309-1.4355,0.14665-1.4718,0.11049-0.77329,0.10987-0.77268,0.14665-0.73574,0.14681-0.77267,0.18282-0.73651,0.18359-0.7359,0.18282-0.77268,0.18359-0.73635,0.21975-0.88317,0.29331-1.325,0.3664-1.5454,0.40318-1.6563,0.40334-1.6922,0.44012-1.5454,0.40318-1.2888,0.3664-0.88394-0.03616,0" fill-rule="evenodd" fill="#140000"/>
<path d="m82.246,60.311,0.03678,0,0.07309-0.0371,0-0.0726-0.03678-0.0371-0.58615-0.33071-0.58677-0.29516-0.58677-0.3307-0.58615-0.29516-0.58677-0.29362-0.62293-0.29516-0.58677-0.33071-0.58615-0.29516-0.43996-0.22098-0.58677-0.29362-0.69664-0.3307-0.69602-0.36934-0.69664-0.33071-0.54984-0.29516-0.36656-0.18235-0.14665-0.0742,0.07309,0.0371,0.25653,0.14681,0.33024,0.1839,0.47628,0.25807,0.58677,0.3307,0.65971,0.33071,0.69664,0.40488,0.7328,0.36934,0.77036,0.44042,0.7328,0.40488,0.76958,0.36934,0.69664,0.40334,0.62293,0.33225,0.58677,0.29362,0.4769,0.22098,0.3664,0.1839" fill-rule="evenodd" fill="#140000"/>
<path d="m73.118,55.454,0.18343-0.0371,0.32962-0.0371,0.44012-0.0742,0.58615-0.14681,0.66033-0.10972,0.7328-0.14835,0.76974-0.18235,0.80652-0.14836,0.7702-0.1468,0.76958-0.1839,0.69664-0.14835,0.62308-0.14681,0.51306-0.10972,0.40318-0.0742,0.25653-0.0355,0.07371-0.0371-0.54999,0.0726-0.54984,0.10972-0.54999,0.0742-0.51306,0.0742-0.54999,0.0726-0.54984,0.11126-0.51321,0.0742-0.54984,0.10972-0.44012,0.0742-0.62293,0.14681-0.80652,0.1839-0.80652,0.14681-0.76958,0.18389-0.58677,0.14836-0.29331,0.10972,0.03678,0.0371,0,0.0371" fill-rule="evenodd" fill="#140000"/>
<path d="m66.3,51.552,0.3664-0.0356,0.51306,0,0.65986-0.0371,0.80636-0.0371,0.8433,0,0.95317-0.0371,1.0263-0.0371,1.063-0.0371,2.1261,0,1.0267-0.0355,1.9427,0,0.8433,0.0355,0.76958,0,0.62355,0.0371,0.03632,0,0-0.0726-0.62308-0.0371-0.73342-0.0371-0.84268,0-0.95317-0.0371-6.9649,0-0.8433,0.0371-0.76974,0-0.62293,0.0371-0.4769,0-0.33024,0.0371-0.65971,0.0726-0.7328,0.0742-0.73342,0.0742-0.76974,0.0726-0.65971,0.0742-0.54999,0.0726-0.32962,0.0371-0.14665,0,0.10988,0,0.32962-0.0371,0.51367,0,0.58615-0.0355,0.69664-0.0371,0.65971-0.0371,0.65986-0.0371,0.58677-0.0371" fill-rule="evenodd" fill="#140000"/>
<path d="m75.391,52.841,0.3664-0.0371,0.3664-0.0371,0.36702-0.0355,0.3664-0.0371,0.3664-0.0371,0.36702,0,0.3664-0.0371,0.3664-0.0371,0.3664-0.0371,0.36718-0.0356,0.3664-0.0371,0.40318-0.0371,0.3664-0.0371,0.3664-0.0742,0.36702-0.0355,0.3664-0.0371,0.03693-0.0371,0.03616-0.0371,0-0.0371-0.07309-0.0371-0.3664,0.0371-0.36702,0.0371-0.3664,0.0371-0.3664,0.0371-0.3664,0-0.36702,0.0371-0.3664,0.0355-0.3664,0.0371-0.3664,0.0371-0.36702,0-0.36656,0.0371-0.3664,0.0371-0.36702,0.0371-0.3664,0-0.3664,0.0356-0.3664,0.0371-0.4769,0.0742-0.65971,0.10972-0.76974,0.10972-0.8433,0.18544-0.80652,0.14681-0.65971,0.14681-0.44012,0.0742-0.18282,0.0371,0.18282-0.0371,0.44012-0.0371,0.65971-0.10972,0.76974-0.0742,0.80652-0.11126,0.80636-0.10972,0.66048-0.0742,0.47628-0.0726" fill-rule="evenodd" fill="#140000"/>
<path d="m48.741,64.433,0.25653,0.44197,0.25653,0.4412,0.25653,0.44197,0.29346,0.40504,0.29331,0.44119,0.29284,0.40504,0.29331,0.40442,0.29331,0.40503,0.62308,0.77268,0.62355,0.77329,0.65971,0.77268,0.65986,0.73589,0.65971,0.73652,0.69664,0.69896,0.69664,0.69911,0.69602,0.69958,0.07371,0,0.07294-0.0368,0.03678-0.0369-0.03678-0.0736-0.65971-0.69958-0.62308-0.69911-0.65971-0.7359-0.62293-0.69958-0.62355-0.73589-0.58615-0.73575-0.6237-0.73589-0.58615-0.73651-0.29331-0.36826-0.29331-0.36764-0.29346-0.40504-0.29331-0.36763-0.25668-0.40504-0.29331-0.40504-0.25653-0.40441-0.25653-0.40504-0.25653-0.40442-0.29346-0.51553-0.29269-0.55169-0.29346-0.51553-0.25653-0.51506-0.22037-0.40488-0.14665-0.25808-0.03616-0.10972,0.03616,0.10972,0.11049,0.22099,0.14604,0.40488,0.18359,0.44166,0.18343,0.51553,0.21975,0.47813,0.21975,0.4786,0.22037,0.40441" fill-rule="evenodd" fill="#140000"/>
<path d="m45.368,67.966,0.29331,0.22083,0.29331,0.25715,0.29284,0.22098,0.33024,0.25777,0.32947,0.25776,0.29346,0.25715,0.33024,0.22098,0.29331,0.25777,0.03616-0.0737,0-0.3307-0.58615-0.47875-0.69649-0.55169-0.73342-0.58924-0.69602-0.55169-0.65986-0.51553-0.54984-0.40442-0.33024-0.25776-0.14665-0.1105,0.03678,0.0736,0.14665,0.14728,0.21975,0.22036,0.29331,0.2947,0.29346,0.33132,0.32962,0.29393,0.29331,0.2947,0.29346,0.25776" fill-rule="evenodd" fill="#140000"/>
<path d="m45.148,77.387-0.4769,0.9201-0.51321,0.88301-0.54984,0.84639-0.58677,0.84685-0.58615,0.80961-0.65986,0.80946-0.62355,0.77267-0.69603,0.73651-0.03678,0.0736,0.03678,0.0737,0.03632,0.0368,0.07356-0.0368,0.7328-0.73652,0.69664-0.77267,0.65986-0.80946,0.65971-0.81007,0.58677-0.80961,0.58677-0.88301,0.51306-0.88317,0.47628-0.91994,0.44012-1.1409,0.40318-1.325,0.29346-1.3981,0.25653-1.3987,0.18297-1.2882,0.11034-1.0304,0.07309-0.69897,0.03678-0.25776-0.03678,0.25776-0.10988,0.69897-0.18343,0.99366-0.25653,1.2513-0.29346,1.3987-0.3664,1.3613-0.40318,1.325-0.47628,1.104" fill-rule="evenodd" fill="#140000"/>
<path d="m46.688,62.63,0.14665,0.66234,0.18343,0.6628,0.18297,0.62525,0.22037,0.62602,0.21975,0.66218,0.18343,0.6254,0.18297,0.6628,0.14665,0.66218,0.25653,1.546,0.18343,1.5823,0.10987,1.6195,0,1.6191-0.10987,1.509-0.18343,1.4718-0.29331,1.4722-0.36656,1.4349-0.47628,1.3987-0.54984,1.3987-0.62355,1.3618-0.65986,1.3613-0.03616,0.14727,0.07294,0.0737,0.14681-0.0369,0.10988-0.0735,0.3664-0.66219,0.36702-0.62602,0.3664-0.66218,0.33009-0.69912,0.32962-0.6628,0.29346-0.69896,0.29331-0.69911,0.25653-0.69958,0.44012-1.4716,0.25653-1.4724,0.18297-1.509,0.03678-1.5454-0.03678-1.546-0.14665-1.5454-0.21975-1.5092-0.29346-1.5086-0.18281-0.69896-0.22037-0.69958-0.25653-0.69912-0.25653-0.69958-0.25668-0.66218-0.21975-0.69911-0.25715-0.69958-0.18281-0.69912-0.03678,0" fill-rule="evenodd" fill="#140000"/>
<path d="m66.446,90.452,0.03616,0.99366,0.03693,0.99366,0,0.9935,0.03678,0.99366,0.03678,0.0737,0.07309,0,0.03678-0.0369,0.03616-0.0736,0.03693-1.0672,0.03678-1.1042-0.03678-1.0672-0.03693-1.0672-0.10972-0.99366-0.18297-1.0672-0.14665-0.88317-0.07371-0.36826,0.03678,0.40504,0.07309,0.99366,0.07371,1.1777,0.03678,1.104" fill-rule="evenodd" fill="#140000"/>
<path d="m66.373,95.825,0.22037,0.0737,0.3664,0.0736,0.40334,0.0737,0.47628,0.0735,0.51306,0.0737,0.44012,0.0736,0.40318,0.0369,0.29331,0.0368,0.47628,0.0737,0.47689,0.0736,0.44012,0.0737,0.47628,0.0368,0.47628,0.0737,0.4769,0.0735,0.44012,0.0731,0.47628,0.0736,0.47628,0.0737,0.4769,0.0736,0.43996,0.0737,0.47628,0.0737,0.4769,0.0368,0.47628,0.0735,0.44012,0.0737,0.47628,0.0368,0.4769,0.0737,0.47628,0.0368,0.44012,0.0368,0.47628,0.0369,0.47689,0.0368,0.47628,0.0368,0.43996,0.0369,0.47628,0.0368,0.07371,0,0.03616-0.0737,0-0.0736-0.07294-0.0369-0.44012-0.0736-0.4395-0.0368-0.43996-0.0737-0.4769-0.0737-0.4395-0.0368-0.44012-0.0736-0.43996-0.0737-0.4395-0.0737-0.44012-0.0736-0.43996-0.0737-0.44012-0.0736-0.4395-0.0731-0.4769-0.0735-0.4395-0.0369-0.43996-0.0736-0.44012-0.0737-0.25653-0.0368-0.3664-0.0368-0.44012-0.0369-0.47628-0.0368-0.54984-0.0368-0.54999-0.0369-0.62355-0.0736-0.58615-0.0368-0.58677-0.0369-0.58615-0.0735-0.51368-0.0369-0.51306-0.0368-0.44012-0.0736-0.32962-0.0369-0.25653-0.0368-0.18359-0.0368,0,0.0368" fill-rule="evenodd" fill="#140000"/>
<path d="m73.118,88.649,0.54984,0.0736,0.51321,0.0368,0.54984,0.0737,0.54999,0.0737,0.51306,0.0736,0.54999,0.0368,0.51306,0.0737,0.54999,0.0737,0.54984,0.0736,0.51321,0.0737,0.54984,0.11034,0.54999,0.0731,0.51306,0.0737,0.54999,0.11049,0.51306,0.0736,0.54999,0.11049,0.07294-0.0368,0.07371-0.0737,0-0.0736-0.07371-0.0737-0.51306-0.1105-0.54999-0.10987-0.51306-0.11049-0.54999-0.11034-0.51306-0.11049-0.54984-0.0737-0.51321-0.11049-0.54984-0.0736-0.51321-0.0737-0.54984-0.11049-0.51321-0.0736-0.54984-0.0737-0.51306-0.0729-0.54999-0.0737-0.51306-0.0737-0.54999-0.0736-0.58677-0.0737-0.62293-0.0736-0.65986-0.0737-0.65971-0.0736-0.69664-0.0369-0.69664-0.0736-0.65971-0.0369-0.62308-0.0736-0.62355-0.0368-0.54984-0.0369-0.51321-0.0368-0.43996-0.0368-0.32962,0-0.29346-0.0369-0.21959,0,0.07294,0,0.14665,0.0369,0.29346,0.0368,0.3664,0.0737,0.44012,0.0736,0.51306,0.0737,0.54999,0.0736,0.62293,0.11049,0.65971,0.0737,0.66048,0.11049,0.65971,0.11034,0.65986,0.0737,0.65971,0.10988,0.62308,0.0735,0.58677,0.0737,0.51306,0.0737" fill-rule="evenodd" fill="#140000"/>
<path d="m81.696,85.962,0.03678,0,0.03616-0.0369,0-0.0368-0.03616-0.0368-0.66048-0.14727-0.69587-0.25777-0.69664-0.29408-0.73342-0.33132-0.73296-0.36826-0.73342-0.4412-0.69603-0.40503-0.69649-0.44135-0.65986-0.40504-0.58677-0.40504-0.51306-0.36763-0.4769-0.33148-0.3664-0.29455-0.29346-0.18405-0.14665-0.14727-0.07294-0.0363,0.03678,0.0363,0.07309,0.14727,0.14665,0.22099,0.18343,0.29454,0.29284,0.33132,0.33024,0.40442,0.40318,0.40519,0.4769,0.4412,0.54937,0.44182,0.62355,0.44197,0.7328,0.40441,0.80652,0.40504,0.88008,0.33086,0.95317,0.29454,1.063,0.22099,1.1729,0.14727" fill-rule="evenodd" fill="#140000"/>
<path d="m66.666,84.674,0.40318-0.18421,0.40334-0.18405,0.40318-0.14665,0.44012-0.18421,0.40318-0.14727,0.40318-0.14727,0.40334-0.1105,0.43934-0.14727,0.44012-0.11049,0.40318-0.11049,0.44012-0.10972,0.44012-0.1105,0.40318-0.11049,0.4395-0.11049,0.44012-0.0737,0.43996-0.11034,0.10987-0.0737,0.0731-0.14728-0.03632-0.11049-0.14665-0.0368-0.43996,0.0736-0.44012,0.0369-0.4395,0.0736-0.4769,0.0737-0.47628,0.0736-0.43996,0.0737-0.47628,0.11049-0.4769,0.11049-0.44012,0.14727-0.4395,0.14728-0.43996,0.18343-0.40334,0.18421-0.3664,0.25776-0.36702,0.25776-0.3664,0.29393-0.29331,0.33148,0,0.0368,0.03678,0" fill-rule="evenodd" fill="#140000"/>
<path d="m53.176,96.488-0.22037,0.14727-0.21975,0.14727-0.25653,0.10988-0.21975,0.11049-0.18343,0.0737-0.18359,0.0736-0.18282,0.0737-0.14681,0.0735-0.18343,0.0737-0.18359,0.0737-0.18281,0.0736-0.18359,0.0737-0.21975,0.1105-0.29331,0.11033-0.25653,0.10988-0.29346,0.11049-0.25653,0.14727-0.25653,0.14727-0.21975,0.14743-0.18343,0.22083-0.25668,0.36764-0.21959,0.36826-0.14681,0.40503-0.03678,0.4412,0.07309,0.1842,0.14665,0.14728,0.14665,0.11049,0.22037,0.11049,0.21975,0.0736,0.18343,0.0737,0.21975,0.0362,0.14665,0.0368,0.62308,0.14743,0.62293,0.0368,0.66033-0.0368,0.65986-0.11049,0.62293-0.14666,0.65986-0.14742,0.62293-0.22083,0.58677-0.18421,0.62293-0.22083,0.62355-0.25714,0.62293-0.22099,0.62308-0.22098,0.62355-0.22084,0.65971-0.14742,0.62308-0.11034,0.65971-0.0737,0.58677,0,0.29346,0.0368,0.25653,0.0369,0.29331,0.0736,0.25653,0.11049,0.29284,0.11049,0.25715,0.1105,0.32962,0.18405,0.29331,0.22098,0.25653,0.22037,0.25653,0.25761,0.25668,0.25776,0.25653,0.25777,0.25653,0.25714,0.29331,0.22099,0.51321,0.33148,0.51367,0.25776,0.51306,0.22021,0.54999,0.14743,0.58615,0.11034,0.54984,0.0369,0.54999-0.0369,0.54999-0.0736,0.54984-0.11049,0.54999-0.18359,0.51306-0.22083,0.51306-0.25777,0.47628-0.33147,0.44012-0.33071,0.44012-0.40503,0.3664-0.44197,0.18343-0.25715,0.21975-0.29454,0.18359-0.25777,0.14665-0.29392,0.18282-0.2947,0.14681-0.33133,0.14665-0.29454,0.14665-0.29408,0-0.0736-0.03678-0.0369-0.0731,0-0.07356,0.0737-0.32962,0.55169-0.33024,0.51553-0.3664,0.51491-0.3664,0.47875-0.44012,0.4412-0.43996,0.44197-0.47628,0.36825-0.54999,0.33071-0.65986,0.29454-0.69649,0.18421-0.73296,0.11049-0.69649,0-0.73342-0.0737-0.69664-0.18405-0.69602-0.25777-0.62355-0.33148-0.25668-0.18343-0.25653-0.22098-0.25653-0.22099-0.21975-0.22083-0.22021-0.22037-0.25668-0.22098-0.21975-0.22099-0.25653-0.22083-0.21975-0.14727-0.22021-0.14727-0.25653-0.10987-0.21975-0.1105-0.25668-0.0737-0.25653-0.0736-0.29331-0.0737-0.25653-0.0368-0.54999-0.0368-0.58677,0-0.58677,0.0736-0.54922,0.11049-0.58677,0.14727-0.54999,0.14666-0.54984,0.1842-0.51321,0.18405-0.69649,0.25777-0.69664,0.25776-0.65986,0.22037-0.65971,0.22083-0.69664,0.1842-0.69602,0.14728-0.73342,0.0737-0.7328,0.0368-0.51383,0-0.18281-0.0368-0.14665-0.0369-0.18359-0.0368-0.14665-0.0368-0.18297-0.0369-0.36702-0.14727-0.25653-0.22083-0.0731-0.33086,0.18359-0.47875,0.18297-0.29454,0.25653-0.25715,0.25653-0.22098,0.25653-0.18405,0.29331-0.14728,0.33024-0.14727,0.29346-0.14727,0.32947-0.14681,0.29346-0.14727,0.32962-0.14727,0.36702-0.14727,0.3664-0.14727,0.33024-0.18421,0.32947-0.18405,0.25668-0.25715,0.18343-0.25776,0-0.29454-0.25653-0.25777-0.40334-0.18359-0.54984-0.18405-0.58677-0.14727-0.54999-0.11049-0.47628-0.0368-0.29331-0.0369,0,0.0369,0.14665,0.0368,0.3664,0.11049,0.51321,0.18405,0.58661,0.18421,0.54999,0.22021,0.47628,0.22098,0.25653,0.22099-0.03616,0.18405" fill-rule="evenodd" fill="#140000"/>
<path d="m61.79,92.844,0.03678,0.18405,0.10988,0.47875,0.03693,0.69896-0.10987,0.77267-0.14681,0.58924,0.03693,0.18344,0.14665-0.0729,0.18282-0.25777,0.18359-0.51553,0.07309-0.73589-0.14681-0.77268-0.40318-0.5523" fill-rule="evenodd" fill="#140000"/>
<path d="m54.312,84.6-0.03616,0.22099,0.03616,0.51491,0.18359,0.77329,0.51306,0.84623,0.33024,0.40458,0.29269,0.40503,0.25668,0.40504,0.14665,0.40442,0.07356,0.36825,0,0.36826-0.10987,0.33071-0.22021,0.29469-0.25653,0.29455-0.29346,0.29392-0.29269,0.25777-0.25715,0.25776-0.25668,0.25777-0.25653,0.25776-0.18281,0.22037-0.14681,0.18405,0.0731-0.0368,0.18359-0.18421,0.25653-0.18343,0.32962-0.29454,0.33009-0.25777,0.33024-0.29454,0.29269-0.2573,0.22037-0.18405,0.29346-0.47875,0.18282-0.69896,0.03693-0.7359-0.25668-0.69958-0.22021-0.29454-0.25668-0.33086-0.25653-0.29455-0.25653-0.33147-0.25653-0.36764-0.21975-0.44182-0.18343-0.44135-0.14681-0.55231" fill-rule="evenodd" fill="#140000"/>
<path d="m54.056,84.932,0.10987,0.0368,0.29346,0.14727,0.40318,0.22037,0.54999,0.25776,0.58662,0.33133,0.62308,0.36825,0.58677,0.40442,0.51306,0.44197,0.44012,0.47813,0.32947,0.4786,0.29346,0.51491,0.29331,0.51553,0.29284,0.44135,0.36702,0.40503,0.47628,0.33133,0.62293,0.22036-0.03616-0.0362-0.10987-0.11049-0.14665-0.18421-0.22037-0.22083-0.21975-0.33147-0.25653-0.36764-0.21975-0.44182-0.25715-0.47813-0.25653-0.47859-0.25668-0.44197-0.25653-0.40442-0.25653-0.36826-0.25653-0.33132-0.29331-0.25715-0.32962-0.25776-0.33024-0.18421-0.40318-0.18405-0.54999-0.22037-0.62293-0.22098-0.62293-0.18405-0.51383-0.11049-0.3664-0.0368-0.14665,0.0735,0.14665,0.18421" fill-rule="evenodd" fill="#140000"/>
<path d="m59.078,85.52,0.07309,0,0.18343,0.0369,0.21975,0.22083,0.18359,0.58863,0.10988,0.44181,0.21975,0.51553,0.22021,0.55185,0.25668,0.51552,0.25653,0.51491,0.21975,0.40504,0.14665,0.25715,0.07356,0.11049-0.14665-0.40457-0.29331-0.88302-0.3664-1.031-0.25715-0.69912-0.0731-0.22098-0.10988-0.29393-0.10987-0.25776-0.11049-0.25777-0.14604-0.22083-0.18359-0.11049-0.18343,0.0368-0.18297,0.18405" fill-rule="evenodd" fill="#140000"/>
<path d="m62.89,52.178,0.07371,0,0.21975,0.0371,0.33009,0.0371,0.4395,0.0726,0.51306,0.0742,0.58677,0.11126,0.65986,0.10972,0.69664,0.11127,0.7328,0.14526,0.73342,0.14835,0.73342,0.14681,0.7328,0.14681,0.69664,0.18544,0.62293,0.14681,0.58677,0.1839,0.47628,0.18389,0.54999,0,0.07356-0.0371-0.03678-0.0742-0.18343-0.14681-0.40334-0.1839-0.29331-0.10972-0.3664-0.11126-0.3664-0.14681-0.44012-0.11126-0.47628-0.14681-0.51306-0.10972-0.54999-0.14681-0.54999-0.11127-0.62293-0.10971-0.58677-0.0742-0.65971-0.10972-0.65986-0.0371-0.65971-0.0742-0.69664,0-0.69664-0.0371-0.69664,0.0371" fill-rule="evenodd" fill="#140000"/>
<path d="m24.693,93.764,0.14681,0,0.3664,0.0737,0.58677,0.0735,0.76958,0.0737,0.95317,0.11049,1.0998,0.11034,1.2097,0.0737,1.2828,0.0737,1.3565,0.0736,1.3931,0.0368,1.4294,0,1.3933-0.0368,1.3564-0.0736,1.2828-0.14742,1.2097-0.22083,1.0998-0.25777,0.0731,0,0.18343-0.0368,0.47628,0,0.18359,0.0368,0.07309,0.1105-0.10987,0.18405-0.32962,0.29454-0.29346,0.14727-0.3664,0.18421-0.51306,0.14665-0.58677,0.11049-0.69664,0.1105-0.8433,0.11049-0.91624,0.0736-1.0263,0.0368-1.1368,0-1.2459-0.0736-1.3564-0.0737-1.4664-0.14727-1.6129-0.18405-1.6866-0.25714-1.7959-0.33148-1.9433-0.40504" fill-rule="evenodd" fill="#140000"/>
<path d="m48.337,93.544,0.10987,0,0.3664-0.0368,0.54999-0.0368,0.73342-0.0737,0.87946-0.0368,0.95317-0.0737,1.0263-0.11034,1.063-0.0737,1.063-0.0737,1.0637-0.11034,0.98933-0.0737,0.88008-0.0737,0.76974-0.0736,0.62293-0.0737,0.40318-0.0362,0.22037-0.0368,0.21975-0.0369,0.25653,0.0369,0.29346,0.0368,0.21975,0.0731,0.18343,0.11034,0,0.11049-0.10988,0.1105-0.36702,0.11049-0.3664,0.0368-0.54999,0.0737-0.69649,0.0368-0.87961,0.0368-0.95317,0.0369-1.0261,0.0368-1.1,0.0368-1.0998,0.0368-1.0998,0.0369-1.0263,0-0.98995,0.0368-0.84268,0-0.73342,0.0368-1.0263,0" fill-rule="evenodd" fill="#140000"/>
<path d="m62.157,92.844,0.21975-0.14728,0.54984-0.33086,0.73296-0.44181,0.88008-0.47813,0.8433-0.40504,0.69603-0.25776,0.44012,0,0.07356,0.33147-0.33024,0.47798-0.54984,0.40504-0.7328,0.2947-0.77036,0.22083-0.76958,0.1468-0.65986,0.11034-0.43996,0.0737-0.18297,0" fill-rule="evenodd" fill="#140000"/>
<path d="m61.607,91.666,5.5718-2.8703-0.10987,0.11049-0.3664,0.25777-0.58677,0.40442-0.69664,0.44181-0.84268,0.51491-0.95317,0.44182-0.98995,0.40519-1.0263,0.29392" fill-rule="evenodd" fill="#140000"/>
<path d="m38.77,55.601,0.03693,0.0371,0.07294,0.10972,0.18359,0.22099,0.21975,0.22098,0.29331,0.33071,0.33024,0.33225,0.4395,0.40333,0.47674,0.40643,0.54999,0.44042,0.62293,0.44197,0.65986,0.44197,0.76958,0.40488,0.80652,0.44197,0.88008,0.3678,0.91639,0.36779,1.0263,0.33071,0.03678,0,0.10987-0.0371,0.10988-0.0726,0.11049-0.11127,0.03616-0.0726-0.0731-0.14835-0.21975-0.14681-0.36687-0.14681-0.25668-0.0742-0.25653-0.0742-0.32962-0.10972-0.33009-0.10972-0.3664-0.11127-0.40334-0.14681-0.43996-0.18389-0.44012-0.22099-0.51306-0.25653-0.54999-0.29516-0.58615-0.36779-0.62355-0.40488-0.65986-0.44197-0.69649-0.5146-0.76974-0.58878-0.80652-0.66296" fill-rule="evenodd" fill="#140000"/>
<path d="m39.356,57.588,0.07309,0.1839,0.18343,0.47751,0.25653,0.77422,0.33024,1.0663,0.3664,1.2888,0.3664,1.5086,0.3664,1.7296,0.29346,1.8767,0.21975,2.0247,0.14665,2.1708,0,2.2449-0.10988,2.2819-0.32962,2.3554-0.54984,2.3922-0.73342,2.355-1.0263,2.3186,0.0731-0.1105,0.22021-0.36763,0.32962-0.58925,0.36702-0.77267,0.4395-1.0304,0.4769-1.2145,0.4395-1.4355,0.40318-1.5821,0.33024-1.8031,0.21975-1.9879,0.07356-2.1338-0.03678-2.2819-0.25653-2.4659-0.4769-2.6126-0.7328-2.7608-0.9901-2.8697-0.03616-0.29516-0.14665-0.55169-0.25653-0.36779-0.29346,0.18389" fill-rule="evenodd" fill="#140000"/>
<path d="m36.167,35.765,0.03632,0.0742,0.14665,0.14681,0.25653,0.22099,0.29346,0.25652,0.3664,0.33225,0.40318,0.25653,0.4769,0.25808,0.47628,0.22098,0.51306,0.14681,0.4769,0.14835,0.44012,0.10972,0.40318,0.14681,0.3664,0.1839,0.32962,0.25807,0.25715,0.36779,0.18297,0.44197,0-0.18389-0.03678-0.22099-0.14619-0.29516-0.33009-0.29362-0.47628-0.33225-0.73358-0.3307-0.98995-0.29362-0.03616,0-0.18359-0.0742-0.21975-0.0742-0.33009-0.14681-0.40334-0.1839-0.43996-0.29361-0.51321-0.36934-0.58615-0.47751" fill-rule="evenodd" fill="#140000"/>
<path fill-rule="evenodd" fill="#abcd03" d="m689.69,53.746-0.91948,3.6519c1.3025-2.5793,3.3711-4.5202,5.7464-6.2314-1.7367,2.0176-3.32,4.0353-4.2906,6.0528,1.6346-2.2986,3.8309-3.5754,6.3081-4.4183-3.2946,2.937-5.9096,6.0886-7.9018,9.2555l-1.5833-0.68947c0.28069-2.5284,1.2359-5.1181,2.6407-7.6211z"/>
<path fill-rule="evenodd" fill="#fffcdb" d="m685.46,60.696,3.0137,1.2503c0,0.76633-0.0623,3.1036,0.41689,3.7931,5.0122,6.4551,4.1689,19.394-1.0153,19.726-7.8945,0-10.905-5.363-10.905-10.292,0-4.4949,5.3886-7.483,8.6067-10.139,0.81719-0.71509,0.67528-2.2955-0.11667-4.3386z"/>
<path fill-rule="evenodd" fill="#7d4698" d="m688.48,61.901,1.0861,0.55405c-0.1021,0.7149,0.0511,2.2986,0.76595,2.707,3.167,1.9665,6.155,4.1118,7.3299,6.257,4.1884,7.5597-2.937,14.557-9.092,13.893,3.3456-2.4774,4.3162-7.5595,3.0648-13.102-0.5107-2.1709-1.3026-4.1374-2.7074-6.3593-0.60854-1.0907-0.39607-2.4433-0.44731-3.9504z"/>
<path fill="#000" d="m687.95,61.715,2.2474,0.30649c-0.66404,2.1963,1.3026,3.7286,1.9411,4.0864,1.4302,0.79176,2.8093,1.609,3.9076,2.6049,2.0688,1.8898,3.2435,4.546,3.2435,7.3553,0,2.7837-1.277,5.4653-3.4223,7.253-2.0176,1.6856-4.8012,2.4007-7.5085,2.4007-1.6856,0-3.1925-0.0765-4.8269-0.61299-3.7286-1.2514-6.5125-4.4437-6.7423-8.2748-0.20439-2.9881,0.45965-5.2611,2.7839-7.6362,1.2002-1.2514,3.6265-2.6816,5.2867-3.8309,0.81738-0.56194,1.6856-2.1455,0.0254-5.1334l0.33211-0.25544,2.4603,1.6478-2.0771-0.85609c0.17877,0.25544,0.66404,1.4048,0.76633,1.7367,0.22982,0.94492,0.12772,1.8646-0.0767,2.273-1.047,1.89-2.8348,2.4007-4.1372,3.4734-2.2986,1.8898-4.8014,3.3967-4.5206,8.5811,0.12773,2.5539,2.1198,5.6697,5.1077,7.1255,1.6856,0.81738,3.6267,1.1493,5.5932,1.2514,1.7621,0.0767,5.1334-0.97054,6.9721-2.5028,1.9665-1.6344,3.0648-4.1118,3.0648-6.64,0-2.5541-1.0216-4.9802-2.937-6.6914-1.0982-0.99597-2.9114-2.1963-4.0351-2.8349-1.1237-0.63842-2.5284-2.4262-2.0688-4.1372z"/>
<path fill="#000" d="m687.26,65.494c-0.22982,1.1749-0.48527,3.2946-1.5068,4.0863-0.43422,0.30631-0.86843,0.61299-1.3281,0.9193-1.8388,1.2516-3.6778,2.4261-4.5204,5.4398-0.17877,0.63861-0.0254,1.3281,0.12791,1.9665,0.45964,1.8388,1.7621,3.8309,2.7837,5.0058,0,0.0511,0.20439,0.17877,0.20439,0.22982,0.84282,0.99615,1.0983,1.277,4.2906,1.9919l-0.0767,0.35774c-1.9154-0.5107-3.4988-0.97035-4.4949-2.1198,0-0.0254-0.17877-0.20439-0.17877-0.20439-1.0726-1.226-2.3753-3.269-2.8604-5.1844-0.17877-0.76633-0.33192-1.3535-0.12772-2.1455,0.86825-3.1156,2.7583-4.3416,4.6737-5.6441,0.43422-0.28087,0.94492-0.5365,1.3535-0.86843,0.79157-0.58718,1.2256-2.3751,1.66-3.8307z"/>
<path fill="#000" d="m688.08,70.347c0.0256,1.3281-0.10402,1.9943,0.22791,2.9394,0.2042,0.56175,0.89424,1.328,1.0986,2.0687,0.28087,0.99616,0.58681,2.0942,0.561,2.7583,0,0.76632-0.0479,2.1958-0.37984,3.7283-0.25313,1.2662-0.8365,2.3528-1.8174,2.9686-1.0048-0.2069-2.1846-0.5601-2.881-1.1571-1.3535-1.1747-2.5523-3.1391-2.7057-4.8503-0.12753-1.4046,1.173-3.4761,2.9862-4.5231,1.5323-0.89387,1.8887-1.9126,2.2206-3.5472-0.45965,1.4302-0.89134,2.6291-2.3726,3.3952-2.1453,1.1237-3.246,3.01-3.144,4.7977,0.15315,2.2984,1.0737,3.8559,2.8868,5.1075,0.76614,0.53632,2.1975,1.1031,3.0914,1.2564v-0.11687c0.67787-0.12695,1.5555-1.2403,1.9927-2.7466,0.38317-1.3535,0.53422-3.0859,0.50841-4.1841-0.0256-0.63842-0.30724-2.0211-0.81813-3.2725-0.28087-0.68947-0.71238-1.3789-0.99344-1.8642-0.30612-0.48564-0.30832-1.5325-0.46166-2.7583z"/>
<path fill="#000" d="m687.93,75.355c0.0254,0.89387,0.38448,2.0392,0.53763,3.2141,0.12791,0.86843,0.0724,1.7406,0.0467,2.507-0.0252,0.88699-0.32074,2.4763-0.72463,3.2491-0.38087-0.17467-0.52976-0.37386-0.77722-0.69541-0.30631-0.43422-0.51439-0.86843-0.71878-1.3791-0.15316-0.38317-0.33221-0.82168-0.40907-1.3324-0.1021-0.76614-0.0735-1.9647,0.79475-3.1907,0.66404-0.97054,0.81622-1.0444,1.046-2.168-0.30668,0.99597-0.53529,1.0975-1.2506,1.9401-0.79157,0.91948-0.92331,2.2738-0.92331,3.3719,0,0.45983,0.18335,0.97002,0.36231,1.4551,0.20421,0.51088,0.37947,1.0195,0.66035,1.4025,0.42224,0.621,0.96267,0.97413,1.2272,1.0402,0.002,0.00037,0.004-0.00038,0.006,0,0.006,0.001,0.0121,0.005,0.0175,0.006v-0.0292c0.49551-0.55247,0.79371-1.1013,0.89409-1.6538,0.12773-0.66404,0.15708-1.3295,0.23376-2.1213,0.0765-0.66404,0.021-1.5585-0.15779-2.4778-0.25525-1.1493-0.6861-2.3211-0.86488-3.1381z"/>
<path fill="#000" d="m688,64.422c0.0256,1.3279,0.12772,3.8055,0.48526,4.7758,0.1021,0.33192,1.047,1.7877,1.7109,3.5498,0.45984,1.226,0.56194,2.3497,0.63861,2.6816,0.3065,1.4558-0.0767,3.9076-0.58756,6.2316-0.25525,1.2514-1.1237,2.8093-2.1196,3.4223l-0.20421,0.35755c0.56194-0.0256,1.9409-1.3791,2.4262-3.0648,0.81738-2.8604,1.1493-4.1884,0.76633-7.3553-0.0511-0.30668-0.17877-1.3535-0.66404-2.4774-0.71509-1.7112-1.7367-3.3456-1.8642-3.6778-0.23001-0.53613-0.5365-2.8602-0.58755-4.4435z"/>
<path fill="#000" d="m688.48,62.605c-0.0758,1.3648-0.096,1.8673,0.15923,2.8633,0.28087,1.0982,1.7112,2.6816,2.2986,4.4949,1.1237,3.4734,0.84281,8.0193,0.0254,11.569-0.30631,1.2512-1.7623,3.0648-3.2179,3.6519l1.0726,0.25544c0.58737-0.0256,2.094-1.4302,2.6816-3.0391,0.94473-2.5284,1.1237-5.542,0.74052-8.7088-0.0256-0.3065-0.5365-3.0391-1.0216-4.1884-0.68966-1.711-1.9156-3.2435-2.0432-3.5753-0.22964-0.56193-0.73426-1.7286-0.69536-3.3231z"/>
<g font-size="12px" font-family="cabin">
<text x="382.55554" y="66.196289">Address Pool</text>
<text x="393.21277" y="78.296127">Manager</text>
<text x="252.88258" y="66.196915">Rendezvous</text>
<text x="267.55194" y="78.788559">Server</text>
<text x="27.575996" y="130.64873">Browser</text>
<text x="110.79641" y="156.13011">Steganographic</text>
<text x="126.53994" y="170.41054">Transport</text>
<text x="119.09769" y="88.174988">Rendezvous</text>
<text x="135.46625" y="101.9327">Client</text>
<text x="252.9783" y="19.457487">NET Factory</text>
<text x="71.729401" y="211.74425">User Agent</text>
<text x="561.16199" y="211.74425">Gateway</text>
<text x="494.89062" y="50.974266">Infrastructure</text>
<text x="526.50604" y="138.39438">Steganographic Bridge</text>
<text x="558.0506" y="112.31967">Tor Bridge</text>
<text x="543.82446" y="164.51709">ACS Responder</text>
<text x="394.5611" y="21.149487">APRAdb</text>
<text x="126.30556" y="130.92473">Tor Client</text>
</g>
</svg>
