<?xml version="1.0" encoding="UTF-8" standalone="no"?>
<?xml-stylesheet type="text/css" href="r/fonts.css"?>
<svg xmlns="http://www.w3.org/2000/svg" viewBox="0 0 900 500" version="1.1">
<g transform="scale(1.398493)">
 <path fill="none" stroke="#7d7d7d" stroke-width="1.0632" stroke-linecap="round" d="m33.046,324.85,4.25,0m-4.25-76.98,4.25,0m-4.25-76.98,4.25,0m-4.25-76.98,4.25,0m-4.25-76.98,4.25,0m27.488,327.57,0-4.25m113.61,4.25,0-4.25m113.62,4.25,0-4.25m102.62,4.25,0-4.25m113.61,4.25,0-4.25m109.95,4.25,0-4.25"/>
 <rect fill="#e3e3e3" x="37.296" y="1.5315" width="604.72" height="338.72"/>
 <path fill="none" stroke="#f0f0f0" stroke-width="0.5315" d="m563.22,340.25,0-338.71m-111.78,338.71,0-338.71m-108.12,338.71,0-338.71m-108.12,338.71,0-338.71m-113.61,338.71,0-338.71m-84.297,53.887,604.72,0m-604.72,76.98,604.72,0m-604.72,76.98,604.72,0m-604.72,76.98,604.72,0"/>
 <path fill="none" stroke="#fff" stroke-width="1.0632" d="m618.19,340.25,0-338.71m-109.94,338.71v-338.71m-113.61,338.71,0-338.71m-102.62,338.71,0-338.71m-113.62,338.71,0-338.71m-113.62,338.71v-338.71m-27.488,15.395,604.72,0m-604.72,76.98,604.72,0m-604.72,76.98,604.72,0m-604.72,76.98,604.72,0m-604.72,76.98,604.72,0"/>
 <path fill="none" stroke="#000" stroke-width="1.0632" stroke-linecap="round" stroke-linejoin="round" d="m64.784,282.48,3.6641,11.824,3.668-5.4726,3.6641-44.762,3.6641,19.098,3.6641,13.84,3.668,3.3672,3.6641-2.4258,3.6641,22.895,3.6641-15.621,3.6641-5.9258,3.668-7.0898,3.6641,2.9922,3.6641,4.8281,3.6641,6.7969,3.668,0.5625,3.6641-7.5156,3.6641-10.035,3.6641-5.5664,3.668,14.27,3.6641-13.656,3.6641-4.5,3.6641,12.633,3.6641-0.71094,3.668-11.5,3.6641,0.31641,3.6641-4.4102,3.6641,10.367,3.668-13.379,3.6641,9.2774,3.6641,5.0625,3.6641-14.402,3.668,1.3711,3.6641-10.883,3.6641,5.1875,3.6641-11.293,3.668,11.508,3.6641,16.836,3.6641,30.816,3.6641,22.684,3.6641,0.97656,3.668,0.17969,3.6641,0.008,3.6641,1.6602,3.6641,0.92578,3.668-2.1328,3.6641,0.67579,3.6641-0.73829,3.6641,1.1641,3.668-0.55469,3.6641,0.625,3.6641,0.44531,3.6641-0.32422,3.668-0.33984,3.6641,0.21094,3.6641,0.35156,3.6641-0.28516,3.6641-0.80859,3.668,0.25391,3.6641-2.9531,3.6641-3.4492,3.6641,0.46875,3.668-2.4726,3.6641,1.8125,3.6641-0.35547,3.6641-3.9727,3.668-6.6602,3.6641-2.6602,3.6641-1.9805,3.6641,0.67187,3.6641,1.6367,3.668,8.875,3.6641-7.5586,3.6641-10.398,3.6641-6.543,3.668-11.363,3.6641-12.238,3.6641-16.352,3.6641,9.3047,3.668,3.6367,3.6641-8.1523,3.6641-15.875,3.6641,1.332,3.668-2.2031,3.6641-3.7617,3.6641,16.281,3.6641,9.6211,3.6641-8.5195,3.668,5.5039,3.6641,4.3711,3.6641-3.8477,3.6641-0.83984,3.668,21.152,3.6641,5.1055,3.6641-11.941,3.6641-29.527,3.668,5.125,3.6641,21.469,3.6641,6.1367,3.6641,5.6797,3.6641,1.4883,3.668-11.98,3.6641-6.2422,3.6641-5.0352,3.6641,7.0234,3.668,16.363,3.6641,0.33984,3.6641-0.66016,3.6641-3.1641,3.668,1.0078,3.6641,2.5547,3.6641,2.5938,3.6641,7.0742,3.668-0.96094,3.6641-4.9414,3.6641-6.7617,3.6641-6.5664,3.6641-0.26953,3.668,3.1328,3.6641,7.0781,3.6641-5.2227,3.6641,2.7109,3.668,4.7422,3.6641-22.215,3.6641,8.9961,3.6641-13.125,3.668-1.1836,3.6641,3.0859,3.6641-32.414,3.6641-68.023,3.6641-8.6523,3.668,61.902,3.6641,3.1094,3.6641,15.688,3.6641,2.6953,3.668-0.0547,3.6641-76.211,3.6641-44.57,3.6641,34.031,3.668,13.289,3.6641,43.609,3.6641,8.4219,3.6641-8.0781,3.668-106.79,3.6641-42.27,3.6641,117.65,3.6641-6.875,3.6641,5.2969,3.668,57.449,3.6641-8.2656,3.6641-22.832"/>
 <g style="font-family:cabin;font-size:9px;text-anchor:end;text-align:end;fill:#7d7d7d">
  <text x="31.635719" y="20.076027">40000</text>
  <text x="31.635719" y="97.056496">30000</text>
  <text x="31.635719" y="174.03697">20000</text>
  <text x="31.635719" y="251.01744">10000</text>
  <text x="31.635719" y="327.99792">0</text>
 </g>
 <g style="font-family:cabin;font-size:9px;text-anchor:middle;text-align:center;fill:#7d7d7d">
  <text xml:space="preserve" x="64.711555" y="354.14822">Dec 2010</text>
  <text xml:space="preserve" x="178.93065" y="354.14822">Jan 2011</text>
  <text xml:space="preserve" x="292.11136" y="354.14822">Feb 2011</text>
  <text xml:space="preserve" x="394.87253" y="354.14822">Mar 2011</text>
  <text xml:space="preserve" x="507.97751" y="354.14822">Apr 2011</text>
  <text xml:space="preserve" x="618.435" y="354.14822">May 2011</text>
 </g>
</g>
</svg>
