<?xml version="1.0" encoding="UTF-8" standalone="no"?>
<?xml-stylesheet type="text/css" href="r/fonts.css"?>
<svg xmlns="http://www.w3.org/2000/svg" version="1.1"
     viewBox="0 0 533.34 495.77">
<g font-family="cabin">
  <g font-size="14px">
    <text x="55.987648" y="40.648937">2,000</text>
    <text x="68.538429" y="104.68366">500</text>
    <text x="86.120461" y="151.96243">0</text>
    <text x="60.225929" y="199.22823">—500</text>
    <text x="40.264992" y="335.56506">—10,000</text>
    <text x="27.577492" y="491.07959">—300,000</text>
    <text x="252.84663" y="186.19536">sports.yahoo.com</text>
    <text x="267.03287" y="209.28447">thesaurus.com</text>
    <text x="184.47456" y="213.37788">paypal.com</text>
    <text x="201.56824" y="232.4735">twitter.com</text>
    <text x="283.49197" y="239.29134">yahoo.com</text>
    <text x="204.96999" y="367.2023">undetected Facebook visit</text>
  </g>
  <g font-size="16px">
    <text x="452.61966" y="31.905382">Facebook</text>
    <text x="452.61966" y="51.628021">Similar</text>
    <text x="452.61966" y="71.350662">Other</text>
  </g>
  <text font-size="24px" transform="rotate(-90)" x="-376.03833" y="17.999981">Shifted log-probability</text>
</g>
<path fill="none" stroke="#000" stroke-width="0.546" stroke-linecap="round" d="m102.48,36.448,9.8658,0m-9.8658,63.429,9.8658,0m-9.8658,47.323,9.8658,0m-9.8658,47.31,9.8658,0m-9.8658,137.13,9.8658,0m-9.8658,155.66,9.8658,0"/>
<path fill="none" stroke="#eee" stroke-width="0.546" d="m112.35,57.964,301.07,0m-301.07,73.636,420.99,0m-420.99,31.19,420.99,0m-420.99,139.33,420.99,0m-420.99,154.96,420.99,0"/>
<path fill="none" stroke="#ccc" stroke-width="0.546" d="m112.35,36.448,301.07,0m-301.07,63.429,420.99,0m-420.99,47.323,420.99,0m-420.99,47.31,420.99,0m-420.99,137.13,420.99,0m-420.99,155.66,420.99,0"/>
<path d="m433.97,28.931,5.805,0,0-5.8432-5.805,0,0,5.8432z"/>
<path d="m439.78,45.783c0-1.6136-1.3057-2.9217-2.9162-2.9217-1.6106,0-2.9162,1.3081-2.9162,2.9217,0,1.6135,1.3056,2.9216,2.9162,2.9216,1.6105,0,2.9162-1.3081,2.9162-2.9216z"/>
<path fill="none" stroke="#000" d="m439.78,65.524c0-1.6134-1.3057-2.9216-2.9161-2.9216-1.6107,0-2.9161,1.3081-2.9161,2.9216,0,1.6134,1.3054,2.9216,2.9161,2.9216,1.6104,0,2.9161-1.3081,2.9161-2.9216z"/>
<path d="m378.59,340.87,5.805,0,0-5.8432-5.805,0,0,5.8432zm-138.05-257.92h5.8323v-5.8159h-5.8323v5.8159zm-6.89-0.847,5.805,0,0-5.8159-5.805,0,0,5.8159zm-6.9-1.501,5.805,0,0-5.8432-5.805,0,0,5.8432zm-6.89-18.213,5.805,0,0-5.8432-5.805,0,0,5.8432zm-6.93-8.491,5.8323,0,0-5.8432-5.8323,0,0,5.8432zm-6.89-7.454,5.8323,0,0-5.8432-5.8323,0,0,5.8432zm-6.9-2.431,5.805,0,0-5.8159-5.805,0,0,5.8159zm-6.89-0.163,5.805,0,0-5.8159-5.805,0,0,5.8159zm-6.92-1.639,5.8323,0,0-5.8432-5.8323,0,0,5.8432zm-6.9-1.228,5.8323,0,0-5.816-5.8323,0,0,5.816zm-6.9-0.082,5.805,0,0-5.8159-5.805,0,0,5.8159zm-6.89-1.447,5.805,0,0-5.8159-5.805,0,0,5.8159zm-6.9-0.574,5.805,0,0-5.816-5.805,0,0,5.816zm-6.92-0.328,5.8323,0,0-5.816-5.8323,0,0,5.816zm-6.89-0.327,5.8051,0,0-5.816-5.8051,0,0,5.816zm-6.9-0.765,5.805,0,0-5.816-5.805,0,0,5.816zm-6.89-0.437,5.805,0,0-5.8432-5.805,0,0,5.8432zm-6.93-1.556,5.8323,0,0-5.8159-5.8323,0,0,5.8159zm-6.89-0.655,5.8323,0,0-5.8159-5.8323,0,0,5.8159z"/>
<path d="m280.89,231.16c0-1.6135-1.3056-2.9216-2.9162-2.9216-1.6105,0-2.9161,1.3081-2.9161,2.9216,0,1.6136,1.3056,2.9217,2.9161,2.9217,1.6106,0,2.9162-1.3081,2.9162-2.9217zm-6.9-9.7c0-1.6136-1.3056-2.9217-2.9162-2.9217-1.6105,0-2.9162,1.3081-2.9162,2.9217,0,1.6135,1.3057,2.9216,2.9162,2.9216,1.6106,0,2.9162-1.3081,2.9162-2.9216zm-6.89-9.31c0-1.6135-1.3056-2.9216-2.9162-2.9216-1.6105,0-2.9161,1.3081-2.9161,2.9216,0,1.6136,1.3056,2.9216,2.9161,2.9216,1.6106,0,2.9162-1.308,2.9162-2.9216zm-6.93-1.06c0-1.6136-1.3056-2.9216-2.9162-2.9216-1.6105,0-2.9161,1.308-2.9161,2.9216,0,1.6135,1.3056,2.9216,2.9161,2.9216,1.6106,0,2.9162-1.3081,2.9162-2.9216zm-6.89-19.33c0-1.6135-1.3056-2.9216-2.9162-2.9216-1.6105,0-2.9161,1.3081-2.9161,2.9216,0,1.6136,1.3056,2.9217,2.9161,2.9217,1.6106,0,2.9162-1.3081,2.9162-2.9217z"/>
<path fill="none" stroke="#000" d="m529.33,474.01c0-1.6136-1.3057-2.9216-2.9164-2.9216-1.6104,0-2.9161,1.3081-2.9161,2.9216,0,1.6136,1.3057,2.9216,2.9161,2.9216,1.6107,0,2.9164-1.3081,2.9164-2.9216zm-6.89-8.85c0-1.6135-1.3054-2.9216-2.9161-2.9216-1.6104,0-2.9161,1.3081-2.9161,2.9216,0,1.6136,1.3057,2.9216,2.9161,2.9216,1.6107,0,2.9161-1.308,2.9161-2.9216zm-6.9-2.95c0-1.6136-1.3057-2.9216-2.9161-2.9216s-2.9161,1.3081-2.9161,2.9216,1.3057,2.9216,2.9161,2.9216,2.9161-1.3081,2.9161-2.9216zm-6.89-14.69c0-1.6135-1.3057-2.9216-2.9164-2.9216-1.6104,0-2.9161,1.3081-2.9161,2.9216s1.3057,2.9216,2.9161,2.9216c1.6107,0,2.9164-1.3081,2.9164-2.9216zm-6.93-13.16c0-1.6135-1.3057-2.9216-2.9161-2.9216-1.6107,0-2.9161,1.3081-2.9161,2.9216s1.3054,2.9216,2.9161,2.9216c1.6104,0,2.9161-1.3081,2.9161-2.9216zm-6.89-9.45c0-1.6135-1.3054-2.9216-2.9161-2.9216-1.6104,0-2.9161,1.3081-2.9161,2.9216,0,1.6136,1.3057,2.9217,2.9161,2.9217,1.6107,0,2.9161-1.3081,2.9161-2.9217zm-6.9-19.68c0-1.6135-1.3054-2.9216-2.9161-2.9216-1.6104,0-2.9161,1.3081-2.9161,2.9216,0,1.6136,1.3057,2.9216,2.9161,2.9216,1.6107,0,2.9161-1.3081,2.9161-2.9216zm-6.89-21.9c0-1.6136-1.3054-2.9216-2.9161-2.9216-1.6104,0-2.9161,1.3081-2.9161,2.9216s1.3057,2.9217,2.9161,2.9217c1.6107,0,2.9161-1.3081,2.9161-2.9217zm-6.92,0c0-1.6136-1.3054-2.9216-2.9161-2.9216-1.6104,0-2.9161,1.3081-2.9161,2.9216s1.3057,2.9217,2.9161,2.9217c1.6107,0,2.9161-1.3081,2.9161-2.9217zm-6.9-4.84c0-1.6136-1.3054-2.9216-2.9161-2.9216-1.6104,0-2.9161,1.3081-2.9161,2.9216s1.3057,2.9216,2.9161,2.9216c1.6107,0,2.9161-1.3081,2.9161-2.9216zm-6.89-4.8c0-1.6135-1.3057-2.9216-2.9164-2.9216-1.6104,0-2.9161,1.3081-2.9161,2.9216,0,1.6136,1.3057,2.9216,2.9161,2.9216,1.6107,0,2.9164-1.3081,2.9164-2.9216zm-6.9-2.62c0-1.6136-1.3057-2.9216-2.9161-2.9216-1.6107,0-2.9164,1.3081-2.9164,2.9216s1.3057,2.9216,2.9164,2.9216c1.6104,0,2.9161-1.3081,2.9161-2.9216zm-6.9-6.04c0-1.6135-1.3057-2.9216-2.9161-2.9216-1.6107,0-2.9164,1.3081-2.9164,2.9216,0,1.6136,1.3057,2.9216,2.9164,2.9216,1.6104,0,2.9161-1.3081,2.9161-2.9216zm-6.92-1.69c0-1.6136-1.3054-2.9216-2.9161-2.9216-1.6104,0-2.9161,1.3081-2.9161,2.9216,0,1.6136,1.3057,2.9216,2.9161,2.9216,1.6107,0,2.9161-1.3081,2.9161-2.9216zm-6.89-11.17c0-1.6136-1.3057-2.9216-2.9161-2.9216-1.6107,0-2.9164,1.3081-2.9164,2.9216,0,1.6136,1.3057,2.9216,2.9164,2.9216,1.6104,0,2.9161-1.3081,2.9161-2.9216zm-6.9-1.72c0-1.6135-1.3057-2.9216-2.9161-2.9216-1.6107,0-2.9164,1.3081-2.9164,2.9216,0,1.6136,1.3057,2.9217,2.9164,2.9217,1.6104,0,2.9161-1.3081,2.9161-2.9217zm-6.89-2.1c0-1.6135-1.3057-2.9216-2.9161-2.9216-1.6107,0-2.9164,1.3081-2.9164,2.9216s1.3057,2.9217,2.9164,2.9217c1.6104,0,2.9161-1.3082,2.9161-2.9217zm-6.93-0.44c0-1.6136-1.3057-2.9216-2.9161-2.9216-1.6107,0-2.9164,1.3081-2.9164,2.9216s1.3057,2.9216,2.9164,2.9216c1.6104,0,2.9161-1.3081,2.9161-2.9216zm-6.89-1.03c0-1.6135-1.3057-2.9216-2.9161-2.9216-1.6107,0-2.9164,1.3082-2.9164,2.9216,0,1.6135,1.3057,2.9216,2.9164,2.9216,1.6104,0,2.9161-1.3081,2.9161-2.9216zm-6.9-6.53c0-1.6135-1.3057-2.9216-2.9161-2.9216-1.6107,0-2.9164,1.3081-2.9164,2.9216,0,1.6136,1.3057,2.9216,2.9164,2.9216,1.6104,0,2.9161-1.308,2.9161-2.9216zm-6.89-1.45c0-1.6135-1.3057-2.9216-2.9161-2.9216s-2.9161,1.308-2.9161,2.9216,1.3057,2.9216,2.9161,2.9216,2.9161-1.308,2.9161-2.9216zm-13.82-3.98c0-1.6136-1.3057-2.9216-2.9161-2.9216s-2.9161,1.3081-2.9161,2.9216c0,1.6136,1.3057,2.9216,2.9161,2.9216s2.9161-1.3081,2.9161-2.9216zm-6.89-1.21c0-1.6135-1.3054-2.9216-2.9161-2.9216-1.6104,0-2.9161,1.3081-2.9161,2.9216,0,1.6136,1.3057,2.9217,2.9161,2.9217,1.6107,0,2.9161-1.3081,2.9161-2.9217zm-6.9-0.02c0-1.6135-1.3057-2.9216-2.9164-2.9216-1.6104,0-2.9161,1.3081-2.9161,2.9216,0,1.6136,1.3057,2.9217,2.9161,2.9217,1.6107,0,2.9164-1.3081,2.9164-2.9217zm-6.89-1.97c0-1.6136-1.3057-2.9216-2.9164-2.9216-1.6104,0-2.9161,1.3081-2.9161,2.9216s1.3057,2.9216,2.9161,2.9216c1.6107,0,2.9164-1.3081,2.9164-2.9216zm-6.93-12.12c0-1.6135-1.3057-2.9216-2.9161-2.9216s-2.9161,1.308-2.9161,2.9216,1.3057,2.9216,2.9161,2.9216,2.9161-1.3081,2.9161-2.9216zm-6.89-4.1c0-1.6135-1.3057-2.9216-2.9161-2.9216s-2.9161,1.3081-2.9161,2.9216,1.3057,2.9216,2.9161,2.9216,2.9161-1.3081,2.9161-2.9216zm-6.9-4.53c0-1.6135-1.3057-2.9216-2.9164-2.9216-1.6104,0-2.9161,1.308-2.9161,2.9216s1.3057,2.9216,2.9161,2.9216c1.6107,0,2.9164-1.308,2.9164-2.9216zm-6.89-1.01c0-1.6136-1.3057-2.9216-2.9161-2.9216-1.6107,0-2.9164,1.3081-2.9164,2.9216,0,1.6136,1.3057,2.9216,2.9164,2.9216,1.6104,0,2.9161-1.3081,2.9161-2.9216zm-6.93-2.51c0-1.6135-1.3057-2.9216-2.9161-2.9216s-2.9161,1.3081-2.9161,2.9216c0,1.6136,1.3057,2.9216,2.9161,2.9216s2.9161-1.3081,2.9161-2.9216zm-6.89-5.3c0-1.6135-1.3054-2.9216-2.9161-2.9216-1.6104,0-2.9161,1.308-2.9161,2.9216s1.3057,2.9216,2.9161,2.9216c1.6107,0,2.9161-1.3081,2.9161-2.9216zm-6.9-7.67c0-1.6135-1.3057-2.9216-2.9161-2.9216-1.6107,0-2.9164,1.3081-2.9164,2.9216,0,1.6136,1.3057,2.9216,2.9164,2.9216,1.6104,0,2.9161-1.3081,2.9161-2.9216zm-6.89-18.62c0-1.6134-1.3057-2.9216-2.9161-2.9216-1.6107,0-2.9164,1.3081-2.9164,2.9216,0,1.6137,1.3057,2.9218,2.9164,2.9218,1.6104,0,2.9161-1.3081,2.9161-2.9218zm-6.9-16.11c0-1.6134-1.3057-2.9216-2.9161-2.9216s-2.9161,1.3081-2.9161,2.9216c0,1.6134,1.3057,2.9216,2.9161,2.9216s2.9161-1.3081,2.9161-2.9216zm-6.92-1.1c0-1.6137-1.3057-2.9216-2.9164-2.9216-1.6104,0-2.9161,1.3078-2.9161,2.9216,0,1.6134,1.3057,2.9216,2.9161,2.9216,1.6107,0,2.9164-1.3081,2.9164-2.9216z"/>
<path fill="none" stroke="#000" d="m379.98,343.27-17.715,19.113"/>
</svg>
