<?xml version="1.0" encoding="UTF-8" standalone="no"?>
<?xml-stylesheet type="text/css" href="r/fonts.css"?>
<svg xmlns="http://www.w3.org/2000/svg" version="1.1"
     viewBox="0 0 688.75 342.49">
<g fill="none" stroke-width="0.644">
  <path stroke="#f2f2f2" d="M636.07,273.77,636.07,6.82m-65.29,266.95,0-266.95m-65.26,266.95,0-266.95m-65.25,266.95,0-266.95m-65.26,266.95,0-266.95m-65.25,266.95,0-266.95m-65.29,266.95,0-266.95m-65.26,266.95,0-266.95m-65.25,266.95,0-266.95m-32.642,22.506,587.36,0m-587.36,44.46,587.36,0m-587.36,44.424,587.36,0m-587.36,44.46,587.36,0m-587.36,44.42,587.36,0m-587.36,44.46,587.36,0"/>
  <path stroke="#e6e6e6" d="M668.68,273.77,668.68,6.82m-65.26,266.95,0-266.95m-65.25,266.95,0-266.95m-65.26,266.95,0-266.95m-65.29,266.95,0-266.95m-65.25,266.95,0-266.95m-65.26,266.95,0-266.95m-65.25,266.95,0-266.95m-65.26,266.95,0-266.95m-65.282,0.2942,587.36,0m-587.36,44.457,587.36,0m-587.36,44.427,587.36,0m-587.36,44.452,587.36,0m-587.36,44.43,587.36,0m-587.36,44.43,587.36,0"/>
  <path stroke="#000" stroke-linecap="round" d="m668.68,287.48-0.001-13.714c-200.36,0.00004-400.72,0.00005-601.08,0.00005m535.82,13.714,0-13.714m-65.25,13.714,0-13.714m-65.26,13.714,0-13.714m-65.29,13.714,0-13.714m-65.25,13.714,0-13.714m-65.26,13.714,0-13.714m-65.25,13.714,0-13.714m-65.26,13.714,0-13.714m-78.999-266.66l13.717-0.0001998v267.91,12.461m-13.717-235.91h13.717m-13.717,44.427,13.717,0m-13.717,44.452,13.717,0m-13.717,44.43,13.717,0m-13.717,44.43,13.717,0"/>
</g>
<path fill="#fff" d="m505.84,162.35,162.51,0,0-66.027-162.51,0z"/>
<g fill="none" stroke-width="1.931" stroke-linejoin="round">
  <path stroke="#1c9e78" d="m81.318,166.6,65.286-71.726,65.254-25.754,65.257-10.111,65.254-12.008,65.257-9.206,65.289-7.403,65.254-2.9631,65.257-6.1169,65.254-2.2845M510.55,108.91h22.312"/>
  <path stroke="#d95e03" d="m81.318,178.7,65.286-63.676,65.254-33.415,65.257,11.588,65.254-39.823,65.257,1.7708,65.289-14.518,65.254-0.73997,65.257-14.198,65.254,2.4784M510.55,128.36h22.312"/>
  <path stroke="#7570b2" d="m81.318,262.82,65.286-0.38452,65.254-0.99848,65.257,0.28758,65.254,0.61072,65.257-0.0937,65.289-0.0323,65.254-0.19388,65.257-0.35544,65.254-0.12925M510.55,147.8h22.312"/>
</g>
<path fill="#1c9e78" d="m673.83,19.025c0-2.8435-2.3039-5.1507-5.1508-5.1507-2.8436,0-5.1508,2.3072-5.1508,5.1507,0,2.8436,2.3072,5.1507,5.1508,5.1507,2.8469,0,5.1508-2.3071,5.1508-5.1507zm-65.25,2.284c0-2.8436-2.3072-5.1508-5.1508-5.1508-2.8468,0-5.1507,2.3072-5.1507,5.1508,0,2.8467,2.3039,5.1507,5.1507,5.1507,2.8436,0,5.1508-2.304,5.1508-5.1507zm-65.26,6.117c0-2.8435-2.304-5.1507-5.1508-5.1507-2.8435,0-5.1507,2.3072-5.1507,5.1507,0,2.8468,2.3072,5.1508,5.1507,5.1508,2.8468,0,5.1508-2.304,5.1508-5.1508zm-65.26,2.963c0-2.8468-2.3072-5.1508-5.1508-5.1508-2.8468,0-5.1507,2.304-5.1507,5.1508,0,2.8436,2.3039,5.1507,5.1507,5.1507,2.8436,0,5.1508-2.3071,5.1508-5.1507zm-65.28,7.403c0-2.8435-2.3072-5.1507-5.1508-5.1507s-5.1507,2.3072-5.1507,5.1507c0,2.8468,2.3071,5.1508,5.1507,5.1508s5.1508-2.304,5.1508-5.1508zm-65.26,9.206c0-2.8436-2.3072-5.1507-5.154-5.1507-2.8436,0-5.1475,2.3071-5.1475,5.1507,0,2.8468,2.3039,5.1539,5.1475,5.1539,2.8468,0,5.154-2.3071,5.154-5.1539zm-65.25,12.008c0-2.8436-2.3071-5.1475-5.1507-5.1475-2.8435,0-5.1507,2.3039-5.1507,5.1475,0,2.8468,2.3072,5.1539,5.1507,5.1539,2.8436,0,5.1507-2.3071,5.1507-5.1539zm-65.26,10.111c0-2.8436-2.3072-5.1508-5.154-5.1508-2.8436,0-5.1475,2.3072-5.1475,5.1508s2.3039,5.1507,5.1475,5.1507c2.8468,0,5.154-2.3071,5.154-5.1507zm-65.25,25.753c0-2.8435-2.3072-5.1507-5.1508-5.1507s-5.1507,2.3072-5.1507,5.1507c0,2.8436,2.3071,5.1508,5.1507,5.1508s5.1508-2.3072,5.1508-5.1508zm-65.291,71.73c0-2.8436-2.3072-5.1507-5.1508-5.1507-2.8468,0-5.154,2.3071-5.154,5.1507,0,2.8468,2.3072,5.1507,5.154,5.1507,2.8436,0,5.1508-2.3039,5.1508-5.1507zM526.84,108.91c0-2.8468-2.3072-5.1507-5.1508-5.1507-2.8468,0-5.154,2.3039-5.154,5.1507,0,2.8435,2.3072,5.1507,5.154,5.1507,2.8436,0,5.1508-2.3072,5.1508-5.1507z"/>
<path fill="#d95e03" d="m668.68,20.149,6.9539,12.011-13.875,0m-58.34-14.457l6.9215,12.008h-13.875m-58.296,2.158,6.9215,12.008-13.875,0m-58.29-11.268l6.9183,12.04h-13.872m-58.326,2.479,6.9538,12.04-13.875,0m-58.33-13.811l6.9538,12.04h-13.872m-58.34,27.783l6.9216,12.008h-13.875m-58.3-23.596l6.9247,12.008h-13.878m-58.307,21.41,6.9216,12.008-13.875,0m-58.329,51.702,6.9538,12.008-13.879,0M521.69,122.34l6.9506,12.04-13.875,0"/>
<path fill="#7570b2" d="m663.53,266.68,10.302,0,0-10.301-10.302,0,0,10.301zm-65.26,0.13,10.302,0,0-10.301-10.302,0,0,10.301zm-65.25,0.36,10.302,0,0-10.302-10.302,0,0,10.302zm-65.29,0.19,10.334,0,0-10.302-10.334,0,0,10.302zm-65.26,0.03,10.301,0,0-10.334-10.301,0,0,10.334zm-65.25,0.1,10.301,0,0-10.302-10.301,0,0,10.302zm-65.26-0.61,10.301,0,0-10.301-10.301,0,0,10.301zm-65.25-0.29,10.301,0,0-10.302-10.301,0,0,10.302zm-65.29,0.99,10.334,0,0-10.301-10.334,0,0,10.301zm-65.256,0.39,10.302,0,0-10.301-10.302,0,0,10.301zM516.54,152.96l10.301,0,0-10.302-10.301,0,0,10.302z"/>
<g font-family="cabin">
<g font-size="12px">
<text x="37.016682" y="11.314214">600</text>
<text x="37.344807" y="55.771099">500</text>
<text x="37.133869" y="100.19818">400</text>
<text x="37.274494" y="144.65027">300</text>
<text x="37.555744" y="189.08035">200</text>
<text x="39.571369" y="233.51044">100</text>
<text x="52.415119" y="277.97052">0</text>
<text x="70.785973" y="301.81885">100</text>
<text x="134.96431" y="301.81827">200</text>
<text x="200.14369" y="301.81827">300</text>
<text x="265.47937" y="301.81827">400</text>
<text x="330.62283" y="301.81827">500</text>
<text x="395.64279" y="301.81827">600</text>
<text x="461.52780" y="301.81827">700</text>
<text x="525.96466" y="301.81827">800</text>
<text x="591.53308" y="301.81827">900</text>
<text x="653.85907" y="301.81827">1000</text>
</g>
<g font-size="14px">
<text x="540.90533" y="113.73755" >Tor</text>
<text x="540.90533" y="151.30664">StegoTorus (HTTP)</text>
<text x="541.4436"  y="131.85693">StegoTorus (chopper)</text>
</g>
<g font-size="18px">
<text x="-198.17062" y="22.798326" transform="rotate(-90)">Goodput (kB/s)</text>
<text x="329.11786" y="329.92798" >File size (kB)</text>
</g></g>
</svg>
