<?xml version="1.0" encoding="UTF-8" standalone="no"?>
<?xml-stylesheet type="text/css" href="r/fonts.css"?>
<svg xmlns="http://www.w3.org/2000/svg" xmlns:xlink="http://www.w3.org/1999/xlink"
   viewBox="0 0 773.5 346" version="1.1">
 <defs>
  <marker id="AsR" orient="auto" overflow="visible">
   <path d="M5.2312,2.4202-1.3244,0.0096078,5.2312-2.401c-1.0743,1.4233-1.0412,3.3705-3.6e-7,4.8212z" fill="#d90606"/>
  </marker>
  <marker id="AsG" orient="auto" overflow="visible">
   <path d="M5.2312,2.4202-1.3244,0.0096078,5.2312-2.401c-1.0743,1.4233-1.0412,3.3705-3.6e-7,4.8212z" fill="#19a61b"/>
  </marker>
  <marker id="AeR" orient="auto" overflow="visible">
   <path d="M-5.2312-2.4202,1.3244-0.0096078-5.2312,2.401c1.0743-1.4233,1.0412-3.3705,3.6e-7-4.8212z" fill="#d90606"/>
  </marker>
  <marker id="AeG" orient="auto" overflow="visible">
   <path d="M-5.2312-2.4202,1.3244-0.0096078-5.2312,2.401c1.0743-1.4233,1.0412-3.3705,3.6e-7-4.8212z" fill="#19a61b"/>
  </marker>
  <marker id="SG" orient="auto" overflow="visible">
    <path d="M-2-3,2,3M2-3-2,3" fill="none" stroke="#000"/>
  </marker>
  <linearGradient id="lg1" x1="0.5" x2="0.5" y1="0" y2="1">
   <stop stop-color="#fff" offset="0"/>
   <stop stop-color="#fcfcd8" offset="1"/>
  </linearGradient>
  <linearGradient id="lg2" x1="0.5" x2="0.5" y1="1" y2="0">
   <stop stop-color="#f0eec3" offset="0"/>
   <stop stop-color="#fbfbfa" offset="1"/>
  </linearGradient>
  <linearGradient id="lg3" x1="0" x2="1" y1="0.5" y2="0.5">
   <stop stop-color="#565f6b" offset="0"/>
   <stop stop-color="#b8bdc6" offset="0.10274"/>
   <stop stop-color="#d6dde6" offset="0.5"/>
   <stop stop-color="#b8bdc6" offset="0.89726"/>
   <stop stop-color="#565f6b" offset="1"/>
  </linearGradient>
  <radialGradient id="rg2" cx="0.1" cy="0.1" r="0.65">
   <stop stop-color="#909090" offset="0"/>
   <stop stop-color="#666" offset="1"/>
  </radialGradient>
  <filter id="f1">
   <feFlood flood-opacity="0.5"/>
   <feComposite operator="in" in2="SourceGraphic"/>
   <feGaussianBlur stdDeviation="2"/>
   <feOffset result="result1" dx="1" dy="1"/>
   <feComposite operator="over" in2="result1" in="SourceGraphic"/>
  </filter>
  <clipPath id="clipSclera" clipPathUnits="userSpaceOnUse">
   <use xlink:href="#sclera"/>
  </clipPath>
 </defs>
 <g filter="url(#f1)">
  <rect x="649.19" y="299.63" width="108.25" height="10.38" fill="url(#lg3)"/>
  <path d="m728.53,310.75,0-5.9316m-25.209,5.9316,0-5.9316m-25.209,5.9316,0-5.9316m-28.175,5.9316,106.77,0" fill="none" stroke="#90908e" stroke-linecap="square"/>
  <path d="m661.8,303.34,81.559,0" fill="none" stroke="#b8bdc6" stroke-linecap="square"/>
  <rect x="676.63" y="300.37" width="19.278" height="2.9658" fill="#888b8e" stroke="#a8a8a6"/>
  <rect x="715.18" y="300.37" width="8.8973" height="2.9658" fill="#888b8e" stroke="#a8a8a6"/>
  <path d="m672.18,301.86a1.4829,1.4829,0,0,1,-2.9658,0,1.4829,1.4829,0,1,1,2.9658,0z" fill="#4e4e4e" stroke="#888b8e"/>
 </g>
 <g id="toron">
  <path d="m627.58,2.2773-0.68607,2.7249c0.97183-1.9246,2.5153-3.3727,4.2876-4.6496-1.2958,1.5054-2.4772,3.0109-3.2014,4.5163,1.2196-1.7151,2.8584-2.6678,4.7068-3.2967-2.4583,2.1915-4.4095,4.543-5.8959,6.906l-1.1814-0.51445c0.20944-1.8866,0.92221-3.8188,1.9703-5.6865z" fill="#abcd03"/>
  <path d="m624.42,7.4626,2.2487,0.93289c0,0.5718-0.0465,2.3158,0.31107,2.8303,3.7398,4.8165,3.1106,14.471-0.75759,14.719-5.8906,0-8.137-4.0016-8.137-7.6795,0-3.3539,4.0207-5.5835,6.4219-7.5652,0.60975-0.53357,0.50386-1.7127-0.0871-3.2373z" fill="#fffcdb"/>
  <path d="m626.67,8.3626,0.81039,0.4134c-0.0762,0.53343,0.0381,1.7151,0.57152,2.0199,2.3631,1.4673,4.5925,3.068,5.4692,4.6687,3.1252,5.6407-2.1915,10.862-6.784,10.366,2.4964-1.8485,3.2205-5.6406,2.2868-9.7758-0.38106-1.6198-0.97198-3.0871-2.0201-4.745-0.45406-0.81382-0.29552-1.8231-0.33375-2.9476z" fill="#7d4698"/>
  <path d="m626.28,8.223,1.6769,0.22869c-0.49548,1.6388,0.97197,2.7821,1.4483,3.049,1.0671,0.59078,2.0962,1.2005,2.9156,1.9437,1.5436,1.4101,2.4202,3.392,2.4202,5.4882,0,2.0771-0.95286,4.0779-2.5536,5.4119-1.5054,1.2577-3.5825,1.7913-5.6025,1.7913-1.2577,0-2.3821-0.05707-3.6016-0.45738-2.7821-0.93374-4.8593-3.3157-5.0308-6.1743-0.15251-2.2296,0.34297-3.9256,2.0772-5.6978,0.89551-0.93374,2.7059-2.0009,3.9447-2.8584,0.60989-0.41929,1.2577-1.6008,0.019-3.8303l0.2478-0.1906,1.8358,1.2295-1.5499-0.63877c0.13339,0.1906,0.49548,1.0482,0.5718,1.2958,0.17148,0.70505,0.0953,1.3913-0.0572,1.696-0.78123,1.4102-2.1152,1.7913-3.087,2.5917-1.7151,1.4101-3.5826,2.5344-3.373,6.4028,0.0953,1.9056,1.5817,4.2304,3.8112,5.3167,1.2577,0.60989,2.7061,0.85756,4.1734,0.93374,1.3148,0.05721,3.8303-0.72417,5.2023-1.8675,1.4673-1.2195,2.2868-3.068,2.2868-4.9545,0-1.9057-0.76226-3.716-2.1915-4.9928-0.81946-0.74314-2.1724-1.6388-3.0108-2.1153-0.83844-0.47636-1.8866-1.8103-1.5436-3.087z" fill="#000"/>
  <path d="m625.77,11.043c-0.17148,0.87667-0.36208,2.4583-1.1243,3.049-0.32399,0.22855-0.64798,0.45738-0.99095,0.68594-1.372,0.93388-2.7442,1.8103-3.3729,4.059-0.13339,0.4765-0.019,0.99095,0.0954,1.4673,0.34297,1.372,1.3148,2.8584,2.0771,3.7351,0,0.03809,0.15251,0.13339,0.15251,0.17148,0.62887,0.74328,0.81947,0.95286,3.2014,1.4863l-0.0572,0.26692c-1.4292-0.38106-2.6106-0.72403-3.3539-1.5817,0-0.01898-0.13339-0.15251-0.13339-0.15251-0.80035-0.91477-1.7723-2.4391-2.1343-3.8684-0.13339-0.5718-0.24766-1.0099-0.0953-1.6008,0.64785-2.3247,2.0581-3.2395,3.4873-4.2113,0.32399-0.20958,0.70505-0.40032,1.0099-0.64798,0.59064-0.43813,0.91449-1.7722,1.2386-2.8583z" fill="#000"/>
  <path d="m626.38,14.664c0.0191,0.99095-0.0776,1.4881,0.17007,2.1933,0.15236,0.41915,0.66723,0.99088,0.81974,1.5435,0.20958,0.74328,0.43785,1.5626,0.41859,2.0581,0,0.5718-0.0358,1.6384-0.28341,2.7818-0.18887,0.94478-0.62415,1.7556-1.3561,2.2151-0.74974-0.15438-1.63-0.41792-2.1496-0.86335-1.0099-0.87654-1.9045-2.3422-2.0189-3.6192-0.0952-1.048,0.87525-2.5936,2.2282-3.375,1.1433-0.66696,1.4093-1.4271,1.6569-2.6468-0.34296,1.0671-0.66507,1.9617-1.7704,2.5333-1.6007,0.83844-2.422,2.2459-2.3458,3.5798,0.11428,1.715,0.80112,2.8771,2.1541,3.8109,0.57166,0.40018,1.6396,0.82307,2.3066,0.93748v-0.08721c0.50578-0.09473,1.1606-0.92547,1.4868-2.0494,0.2859-1.0099,0.39862-2.3025,0.37936-3.122-0.0191-0.47636-0.22925-1.5081-0.61045-2.4418-0.20958-0.51445-0.53154-1.0289-0.74126-1.391-0.22841-0.36236-0.23006-1.1435-0.34447-2.0581z" fill="#000"/>
  <path d="m626.26,18.4c0.019,0.66696,0.28688,1.5216,0.40115,2.3983,0.0954,0.64798,0.054,1.2988,0.0349,1.8706-0.0188,0.66182-0.23932,1.8477-0.54068,2.4244-0.28418-0.13033-0.39528-0.27895-0.57992-0.51889-0.22855-0.32399-0.38382-0.64798-0.53633-1.029-0.11428-0.2859-0.24788-0.6131-0.30522-0.99416-0.0762-0.57166-0.0548-1.4659,0.593-2.3807,0.49548-0.72417,0.60903-0.77925,0.78051-1.6177-0.22883,0.74314-0.3994,0.81891-0.93311,1.4476-0.59064,0.68608-0.68894,1.6966-0.68894,2.5159,0,0.34311,0.13681,0.72378,0.27034,1.0857,0.15237,0.3812,0.28314,0.76072,0.49272,1.0465,0.31506,0.46336,0.7183,0.72685,0.91567,0.77614,0.001,0.000279,0.003-0.000279,0.004,0,0.004,0.000977,0.009,0.0036,0.0131,0.0044v-0.0218c0.36973-0.41223,0.59222-0.82174,0.66713-1.234,0.0953-0.49548,0.1172-0.99204,0.17441-1.5828,0.0571-0.49548,0.0157-1.1629-0.11773-1.8488-0.19046-0.85756-0.51194-1.7319-0.64533-2.3415z" fill="#000"/>
  <path d="m626.32,10.243c0.0191,0.99081,0.0953,2.8395,0.36208,3.5635,0.0762,0.24767,0.78124,1.3339,1.2766,2.6487,0.34311,0.91477,0.41929,1.7532,0.4765,2.0009,0.22869,1.0862-0.0572,2.9156-0.43841,4.6497-0.19046,0.93374-0.83844,2.0962-1.5816,2.5536l-0.15237,0.26678c0.41929-0.01911,1.4482-1.029,1.8103-2.2868,0.60989-2.1343,0.85756-3.1252,0.5718-5.4882-0.0381-0.22883-0.1334-1.0099-0.49548-1.8485-0.53357-1.2768-1.2958-2.4964-1.391-2.7442-0.17162-0.40004-0.40031-2.1341-0.4384-3.3155z" fill="#000"/>
  <path d="m626.68,8.8872c-0.0565,1.0183-0.0717,1.3933,0.11881,2.1365,0.20957,0.81947,1.2768,2.0009,1.7151,3.3539,0.83845,2.5917,0.62887,5.9837,0.019,8.6324-0.22855,0.9336-1.3149,2.2868-2.401,2.7249l0.80035,0.1906c0.43827-0.01912,1.5625-1.0671,2.0009-2.2677,0.70491-1.8866,0.83844-4.1351,0.55254-6.4981-0.0191-0.22869-0.40032-2.2677-0.76226-3.1252-0.51459-1.2767-1.4294-2.4202-1.5245-2.6677-0.17134-0.41929-0.54787-1.2898-0.51884-2.4796z" fill="#000"/>
  <rect height="17.584" width="0.076799" y="8.1714" x="626.07" fill="#000"/>
 </g>
 <g id="relay">
  <g filter="url(#f1)">
   <rect x="19.136" y="316.26" width="34.106" height="2.9658" fill="#fcfcd8"   stroke="#cfcead"/>
   <rect x="6.5316" y="271.77" width="59.316" height="44.487" fill="url(#lg2)" stroke="#e8e8e1"/>
   <rect x="10.981" y="274.74" width="50.418" height="38.555" fill="url(#rg2)" stroke="#9d9d9b"/>
   <rect x="19.136" y="322.19" width="34.106" height="4.4487" fill="#f7f7e6"   stroke="#cfcead"/>
   <rect x="9.4975" y="326.84" width="53.384" height="11.863" fill="#adadac"   stroke="#adadac"/>
   <path d="m22.843,320.71,26.692,0" fill="none" stroke="#e7e7cb"/>
   <path d="m9.4975,326.84,10.38,11.863,32.624,0,10.38-11.863z" fill="url(#lg1)" stroke="#b2b199" stroke-linejoin="bevel"/>
  </g>
  <use xlink:href="#toron" x="-590.14" y="280.64"/>
 </g>
 <g id="router">
  <path fill="#e1e1e1" stroke="#7d7d7d" stroke-width="2" d="m58.23,150.37,8.2121-8.2121,49.273,0,8.2121,8.2121,0,19.162-65.697,0z"/>
  <g stroke="#9c9c9c" stroke-width="0.68434">
   <path fill="#bdbdbd" d="m63.705,150.37,5.4747-5.4748,45.167,0,5.4748,5.4748z"/>
   <path fill="#bdbdbd" d="m61.652,153.1,58.854,0c0.37692,0,0.68434,0.30741,0.68434,0.68435v12.318c0,0.37954-0.30742,0.68434-0.68434,0.68434h-58.854c-0.37693,0-0.68434-0.3048-0.68434-0.68434v-12.318c0-0.37694,0.30742-0.68435,0.68434-0.68435"/>
   <g fill="#515151">
    <path d="m87.658,154.47,4.2798,0c0.37692,0,0.68435,0.30741,0.68435,0.68434v2.7374c0,0.37953-0.30743,0.68434-0.68435,0.68434h-4.2798c-0.37692,0-0.68434-0.30481-0.68434-0.68434v-2.7374c0-0.37693,0.30742-0.68434,0.68434-0.68434"/>
    <path d="m87.658,161.32,4.2798,0c0.37692,0,0.68435,0.30741,0.68435,0.68435v2.7374c0,0.37954-0.30743,0.68435-0.68435,0.68435h-4.2798c-0.37692,0-0.68434-0.30481-0.68434-0.68435v-2.7374c0-0.37694,0.30742-0.68435,0.68434-0.68435"/>
    <path d="m95.868,154.47,4.2798,0c0.37692,0,0.68435,0.30741,0.68435,0.68434v2.7374c0,0.37953-0.30743,0.68434-0.68435,0.68434h-4.2798c-0.37693,0-0.68435-0.30481-0.68435-0.68434v-2.7374c0-0.37693,0.30742-0.68434,0.68435-0.68434"/>
    <path d="m95.868,161.32,4.2798,0c0.37692,0,0.68435,0.30741,0.68435,0.68435v2.7374c0,0.37954-0.30743,0.68435-0.68435,0.68435h-4.2798c-0.37693,0-0.68435-0.30481-0.68435-0.68435v-2.7374c0-0.37694,0.30742-0.68435,0.68435-0.68435"/>
    <path d="m63.02,154.47,4.2798,0c0.37692,0,0.68434,0.30741,0.68434,0.68434v2.7374c0,0.37953-0.30742,0.68434-0.68434,0.68434h-4.2798c-0.37693,0-0.68434-0.30481-0.68434-0.68434v-2.7374c0-0.37693,0.30742-0.68434,0.68434-0.68434"/>
    <path d="m63.02,161.32,4.2798,0c0.37692,0,0.68434,0.30741,0.68434,0.68435v2.7374c0,0.37954-0.30742,0.68435-0.68434,0.68435h-4.2798c-0.37693,0-0.68434-0.30481-0.68434-0.68435v-2.7374c0-0.37694,0.30742-0.68435,0.68434-0.68435"/>
    <path d="m71.233,154.47,4.2798,0c0.37692,0,0.68434,0.30741,0.68434,0.68434v2.7374c0,0.37953-0.30742,0.68434-0.68434,0.68434h-4.2798c-0.37693,0-0.68434-0.30481-0.68434-0.68434v-2.7374c0-0.37693,0.30742-0.68434,0.68434-0.68434"/>
    <path d="m71.233,161.32,4.2798,0c0.37692,0,0.68434,0.30741,0.68434,0.68435v2.7374c0,0.37954-0.30742,0.68435-0.68434,0.68435h-4.2798c-0.37693,0-0.68434-0.30481-0.68434-0.68435v-2.7374c0-0.37694,0.30742-0.68435,0.68434-0.68435"/>
    <path d="m79.445,154.47,4.2798,0c0.37692,0,0.68434,0.30741,0.68434,0.68434v2.7374c0,0.37953-0.30742,0.68434-0.68434,0.68434h-4.2798c-0.37692,0-0.68434-0.30481-0.68434-0.68434v-2.7374c0-0.37693,0.30742-0.68434,0.68434-0.68434"/>
    <path d="m79.445,161.32,4.2798,0c0.37692,0,0.68434,0.30741,0.68434,0.68435v2.7374c0,0.37954-0.30742,0.68435-0.68434,0.68435h-4.2798c-0.37692,0-0.68434-0.30481-0.68434-0.68435v-2.7374c0-0.37694,0.30742-0.68435,0.68434-0.68435"/>
   </g>
   <g stroke="#7d7d7d">
    <path fill="#00c700" d="m105.45,155.84c0,0.91428-1.3687,0.91428-1.3687,0,0-0.91155,1.3687-0.91155,1.3687,0"/>
    <path fill="#c51900" d="m105.45,158.58c0,0.91428-1.3687,0.91428-1.3687,0,0-0.91154,1.3687-0.91154,1.3687,0"/>
    <path fill="#00c700" d="m105.45,161.32c0,0.91429-1.3687,0.91429-1.3687,0,0-0.91154,1.3687-0.91154,1.3687,0"/>
    <path fill="#00c700" d="m105.45,164.05c0,0.91428-1.3687,0.91428-1.3687,0,0-0.91155,1.3687-0.91155,1.3687,0"/>
    <path fill="#9c9c9c" d="m111.61,154.47,1.3687,0,0,10.95-1.3687,0z"/>
    <path fill="#9c9c9c" d="m114.35,154.47,1.3687,0,0,10.95-1.3687,0z"/>
    <path fill="#9c9c9c" d="m117.09,154.47,1.3687,0,0,10.95-1.3687,0z"/>
   </g>
  </g>
 </g>
 <g id="censor" transform="scale(0.25) translate(120,460)">
  <path id="sclera" d="m251.2,18.625s-53.758,48.454-157.11,17.646c-5.442-1.622-24.385-9.353-28.829-13.335-22.623-20.27-19.278-46.464-19.278-46.464,6.419-20.024,65.903-25.936,107.62-21.509,52.194,5.5386,78.098,34.334,97.604,63.663z" fill="#f4d7d7"/>
  <g clip-path="url(#clipSclera)">
   <path d="m127.95-27.463c-4.4532,23.164,10.715,45.553,33.879,50.006,23.164,4.4532,45.553-10.715,50.006-33.879,4.4532-23.164-10.715-45.553-33.879-50.006-23.164-4.4532-45.553,10.715-50.006,33.879z" fill="#800000"/>
   <path d="m130.67-26.938c-4.1636,21.658,10.018,42.59,31.676,46.754,21.658,4.1636,42.59-10.018,46.754-31.676,4.1636-21.658-10.018-42.59-31.676-46.754-21.658-4.1636-42.59,10.018-46.754,31.676z" fill="#ff2a2a"/>
   <path d="m147.33-23.737c-2.3954,12.46,5.7637,24.503,18.224,26.899,12.46,2.3954,24.503-5.7637,26.899-18.224,2.3954-12.46-5.7637-24.503-18.224-26.899-12.46-2.3954-24.503,5.7637-26.899,18.224z" fill="#000"/>
   <path d="m159.03-25.714c-0.48025,2.4981,1.1555,4.9125,3.6536,5.3927,2.4981,0.48025,4.9125-1.1555,5.3927-3.6536,0.48025-2.4981-1.1555-4.9125-3.6536-5.3927-2.4981-0.48024-4.9125,1.1555-5.3927,3.6536z" fill="#FFF"/>
  </g>
  <path d="M7.3917-112.33c92.55,26.467,120.8,38.144,159.83,56.886,39.702,19.063,57.399,34.025,88.312,74.392,0,0-61.788,61.609-171.33,28.955-35.136-10.474-50.229-77.469-50.229-77.469,6.8034-21.224,54.192-38.826,119.01-20.894,0,0-90.418-19.015-129.2-34.822-34.965-14.25-22.877-28.902-16.391-27.048zm42.56,93.767c-2.2824,15.613,17.056,43.801,38.75,49.381,112.72,28.992,158.44-13.83,158.44-13.83-11.828-20.769-41.504-49.283-74.61-56.665-21.476-4.7884-119.17-2.2222-122.58,21.113z" fill="#000"/>
 </g>
 <use xlink:href="#relay" x="207.578" y="0"/>
 <use xlink:href="#relay" x="316.57" y="0"/>
 <use xlink:href="#relay" x="425.563" y="0"/>
 <use xlink:href="#router" x="152.68881" y="0"/>
 <use xlink:href="#router" x="261.68081" y="0"/>
 <use xlink:href="#router" x="370.67381" y="0"/>
 <use xlink:href="#router" x="512" y="0"/>
 <path style="fill:none;stroke:#19a61b;stroke-width:3;marker-start:url(#AsG);marker-end:url(#SG)"
       d="m75,291c51.967-18.659,26-69.507,26-110"/>
 <path style="fill:none;stroke:#19a61b;stroke-width:3;marker-end:url(#AeG)"
       d="m591.44,41.236,39,0" marker-start="none"/>
 <path style="fill:none;stroke:#d90606;stroke-width:3;stroke-dasharray:6,6;marker-end:url(#AeR)"
       d="m591.44,63.2,39,0" marker-start="none"/>
 <g font-size="18px" font-family="Cabin">
   <text x="16.900071" y="259.848620" >Alice</text>
   <text x="686.87915" y="336.06915">Bob</text>
   <text x="647.14819" y="45.806053" xml:space="preserve">Encrypted link</text>
   <text x="646.50415" y="69.633629" xml:space="preserve">Cleartext link</text>
   <text x="646.99017" y="19.598104" xml:space="preserve">Tor node</text>
 </g>
</svg>
