<?xml version="1.0" encoding="UTF-8" standalone="no"?>
<?xml-stylesheet type="text/css" href="r/fonts.css"?>
<svg xmlns="http://www.w3.org/2000/svg" xmlns:xlink="http://www.w3.org/1999/xlink"
     viewBox="0 0 773.5 346" version="1.1">
 <defs>
  <marker id="AsR" orient="auto" overflow="visible">
   <path d="M5.2312,2.4202-1.3244,0.0096078,5.2312-2.401c-1.0743,1.4233-1.0412,3.3705-3.6e-7,4.8212z" fill="#d90606"/>
  </marker>
  <marker id="AsG" orient="auto" overflow="visible">
   <path d="M5.2312,2.4202-1.3244,0.0096078,5.2312-2.401c-1.0743,1.4233-1.0412,3.3705-3.6e-7,4.8212z" fill="#19a61b"/>
  </marker>
  <marker id="AsB" orient="auto" overflow="visible">
   <path d="M5.2312,2.4202-1.3244,0.0096078,5.2312-2.401c-1.0743,1.4233-1.0412,3.3705-3.6e-7,4.8212z" fill="#2323e7"/>
  </marker>
  <marker id="AeR" orient="auto" overflow="visible">
   <path d="M-5.2312-2.4202,1.3244-0.0096078-5.2312,2.401c1.0743-1.4233,1.0412-3.3705,3.6e-7-4.8212z" fill="#d90606"/>
  </marker>
  <marker id="AeG" orient="auto" overflow="visible">
   <path d="M-5.2312-2.4202,1.3244-0.0096078-5.2312,2.401c1.0743-1.4233,1.0412-3.3705,3.6e-7-4.8212z" fill="#19a61b"/>
  </marker>
  <marker id="AeB" orient="auto" overflow="visible">
   <path d="M-5.2312-2.4202,1.3244-0.0096078-5.2312,2.401c1.0743-1.4233,1.0412-3.3705,3.6e-7-4.8212z" fill="#2323e7"/>
  </marker>
  <linearGradient id="lg1" x1="0.5" x2="0.5" y1="0" y2="1">
   <stop stop-color="#fff" offset="0"/>
   <stop stop-color="#fcfcd8" offset="1"/>
  </linearGradient>
  <linearGradient id="lg2" x1="0.5" x2="0.5" y1="1" y2="0">
   <stop stop-color="#f0eec3" offset="0"/>
   <stop stop-color="#fbfbfa" offset="1"/>
  </linearGradient>
  <linearGradient id="lg3" x1="0" x2="1" y1="0.5" y2="0.5">
   <stop stop-color="#565f6b" offset="0"/>
   <stop stop-color="#b8bdc6" offset="0.10274"/>
   <stop stop-color="#d6dde6" offset="0.5"/>
   <stop stop-color="#b8bdc6" offset="0.89726"/>
   <stop stop-color="#565f6b" offset="1"/>
  </linearGradient>
  <radialGradient id="rg2" cx="0.1" cy="0.1" r="0.65">
   <stop stop-color="#909090" offset="0"/>
   <stop stop-color="#666" offset="1"/>
  </radialGradient>
  <filter id="f1">
   <feFlood flood-opacity="0.5"/>
   <feComposite operator="in" in2="SourceGraphic"/>
   <feGaussianBlur stdDeviation="2"/>
   <feOffset dx="1" dy="1"/>
   <feComposite operator="over" in="SourceGraphic"/>
  </filter>
  <filter id="f2">
   <feFlood flood-color="#fff" flood-opacity="0.8"/>
   <feComposite operator="in" in2="SourceGraphic"/>
   <feGaussianBlur stdDeviation="1"/>
   <feComposite operator="over" in="SourceGraphic"/>
  </filter>
 <g id="stegmonster" filter="url(#f2)">
 <path fill="#ab8f3c" d="m3.0828,25.429c-0.0261-0.026-0.0481-0.162-0.049-0.302-0.0041-0.663-0.4309-2.732-0.7489-3.632-0.3667-1.038-0.4443-1.286-0.5217-1.671-0.2932-1.456-0.488-2.114-0.5763-1.947-0.028587,0.05418-0.071398,0.29475-0.095135,0.53462-0.023738,0.23986-0.091994,0.57996-0.15168,0.75576-0.063257,0.18632-0.090017,0.41215-0.064159,0.54144,0.038869,0.19435,0.025079,0.22181-0.11139,0.22181-0.24852,0-0.43079-0.13316-0.43079-0.31472,0-0.12064-0.051161-0.18037-0.18279-0.21341-0.23404-0.05874-0.19107-0.18733,0.095078-0.28457,0.123-0.0418,0.25977-0.11232,0.30394-0.15672,0.044168-0.0444,0.20201-0.68426,0.35076-1.4219,0.14888-0.7383,0.35041-1.518,0.44833-1.7346,0.20929-0.46286,1.249-1.5001,1.7602-1.7561,0.17442-0.08733,1.1424-0.48224,2.151-0.87757,2.0471-0.80234,2.5957-1.115,3.3256-1.8953,0.29223-0.31239,0.52179-0.65471,0.72027-1.074,0.26498-0.55982,0.30332-0.7152,0.42384-1.7175,0.406-3.3736,0.434-3.5681,0.662-4.5118,0.2-0.8308,0.448-1.4238,0.802-1.9213,0.32-0.4479,1.122-1.2806,1.405-1.4571,0.41-0.25606,1.316-0.49619,1.883-0.49896,0.29327-0.001429,0.65666-0.031246,0.80753-0.066255,0.15893-0.036877,0.44304-0.037541,0.67541-0.0015783,0.2206,0.034139,0.67303,0.099325,1.0054,0.14486,0.70731,0.096895,1.2586,0.26752,1.9739,0.61096,0.6305,0.3027,0.90378,0.52527,1.0877,0.88585,0.07728,0.15149,0.17148,0.27544,0.20933,0.27544s0.3038-0.23729,0.59101-0.52731c0.84291-0.85116,1.3543-0.96249,2.1405-0.46597,0.61384,0.38768,0.68049,0.50595,0.68049,1.2076,0,0.65898-0.06254,0.81598-0.57954,1.4549-0.33071,0.40871-0.3447,0.44421-0.3447,0.87422,0,0.30224,0.04462,0.53566,0.13699,0.71674,0.16767,0.32865,0.25952,0.40631,0.55537,0.46957,0.26678,0.057038,0.36381,0.16938,0.22321,0.25843-0.149,0.0959-1.113,0.0709-1.589-0.041-0.337-0.0795-0.478-0.1574-0.675-0.3744l-0.24883-0.27402-0.41438,0.40709-0.41438,0.40709,0.03198,0.55636c0.01794,0.31216,0.11696,0.83721,0.2256,1.1962,0.35168,1.1622,0.36734,1.297,0.1896,1.6321-0.3363,0.63392-1.1178,0.86011-1.8243,0.52802-0.35475-0.16675-0.53717-0.38462-0.6734-0.80427-0.0845-0.26029-0.07977-0.28825,0.0691-0.4088,0.25346-0.20524,0.55479-0.16896,0.69835,0.084069,0.13302,0.23446,0.34378,0.3388,0.45655,0.22603,0.04084-0.040841,0.06007-0.28363,0.0442-0.55805-0.036-0.5969-0.352-1.3156-0.793-1.8025-0.164-0.1822-0.437-0.4963-0.606-0.6981-0.351-0.4219-0.539-0.464-0.801-0.18-0.261,0.2831-1.106,0.6662-1.47,0.6662-0.39899,0-0.44161-0.11716-0.24392-0.67047,0.0848-0.23733,0.17359-0.57548,0.19732-0.75144,0.055-0.4032-0.112-1.0657-0.345-1.372-0.096-0.1252-0.243-0.3637-0.328-0.5299-0.084-0.1661-0.198-0.3021-0.253-0.3021-0.14564,0-0.53723,0.34943-0.53723,0.47938,0,0.061196-0.10865,0.3063-0.24144,0.54467-0.25908,0.46508-0.30327,0.60102-0.56845,1.7487-0.33436,1.4471-0.3917,2.6776-0.1938,4.1591,0.11868,0.88846,0.29186,1.9831,0.36553,2.3106,0.30031,1.3348,0.37721,1.6457,0.49249,1.9907,0.07186,0.21506,0.26557,0.82293,0.43048,1.3508,0.16491,0.52788,0.39398,1.2317,0.50906,1.5641,0.26536,0.76643,0.37697,1.1574,0.55814,1.9551,0.07992,0.35192,0.22316,0.87981,0.31831,1.1731,0.24136,0.74397,0.48767,2.2658,0.38646,2.3877-0.04261,0.05134-0.19489,0.1311-0.33839,0.17725-0.14351,0.04615-0.3409,0.12676-0.43866,0.17914-0.31138,0.16686-0.72333,0.31299-0.8823,0.31299-0.11072,0-0.2381-0.12795-0.45344-0.45548-0.1647-0.25052-0.29946-0.49153-0.29946-0.53558,0-0.16862-0.72295-1.4262-0.81988-1.4262-0.01527,0-0.07349,0.15197-0.12938,0.3377-0.05589,0.18574-0.2196,0.60451-0.36378,0.9306s-0.30825,0.774-0.3646,0.99534c-0.21823,0.85731-0.34224,0.96195-0.9487,0.8005-0.29098-0.07746-0.49935-0.16446-1.355-0.56575-0.37174-0.17434-0.36669-0.39975,0.01868-0.83374,0.55726-0.62757,0.6755-0.86448,0.39012-0.78168-0.63247,0.1835-1.8835,0.39571-2.3355,0.39618-0.48509,0.000498-0.98817,0.09829-0.98817,0.19206,0,0.01947,0.045056,0.12032,0.10012,0.22411,0.20317,0.38293,0.40788,1.1666,0.32611,1.2484-0.042749,0.04279-0.46807,0.10979-0.94516,0.14889l-0.86744,0.07109v0.52531c0,0.60308-0.030941,0.63417-0.63986,0.64283-0.37012,0.0053-1.2403,0.16622-1.564,0.28928-0.21774,0.08278-0.3483,0.09026-0.41482,0.02374zm2.2987-0.735c0-0.0391-0.030105-0.07109-0.066899-0.07109-0.036795,0-0.086673,0.03199-0.11084,0.07109s0.00594,0.0711,0.066899,0.0711c0.060962,0,0.11084-0.03199,0.11084-0.0711zm10.7-2.4883c0-0.09124-0.03999-0.17922-0.08887-0.19551-0.05862-0.01954-0.08887,0.047-0.08887,0.19551s0.03025,0.21505,0.08887,0.19551c0.04888-0.01629,0.08887-0.10427,0.08887-0.19551z"/>
 <path fill="#8a7939" d="m3.1539,25.429c-0.0261-0.026-0.0476-0.146-0.0478-0.267-0.0002-0.12-0.0285-0.331-0.0628-0.468-0.0344-0.137-0.1013-0.489-0.1488-0.782-0.2115-1.306-0.4626-2.263-0.8016-3.057-0.1302-0.305-0.1958-0.564-0.4491-1.777-0.1822-0.872-0.3958-1.521-0.4649-1.412-0.033489,0.05285-0.06138,0.19797-0.061978,0.3225-0.00139,0.28835-0.19138,1.1974-0.28798,1.3779-0.049971,0.09337-0.050447,0.18074-0.00149,0.27223,0.051438,0.09611,0.047061,0.15472-0.015273,0.2045-0.14452,0.11541-0.36878-0.01639-0.40776-0.23965-0.025751-0.14749-0.0826-0.21284-0.19961-0.22948-0.22714-0.03229-0.16149-0.15792,0.13213-0.25282,0.216-0.06981,0.25971-0.12665,0.36176-0.47043,0.063843-0.21506,0.1697-0.69496,0.23523-1.0664,0.27599-1.5644,0.47084-2.049,1.0473-2.6045,0.50213-0.48389,1.2234-1.0023,1.5038-1.0808,0.1242-0.03477,0.97764-0.35998,1.8966-0.7227,1.8755-0.74032,2.5668-1.1394,3.2487-1.8754,0.57926-0.62524,0.98608-1.5204,1.0914-2.4015,0.04365-0.36527,0.09697-0.71213,0.1185-0.77078,0.02152-0.058654,0.04745-0.26661,0.05762-0.46212,0.04953-0.95221,0.11748-1.5696,0.21317-1.937,0.05781-0.22193,0.1051-0.49618,0.1051-0.60946,0-0.20804,0.14213-0.89438,0.33396-1.6127,0.11404-0.42701,0.39386-1.018,0.68498-1.4468,0.24405-0.35942,1.0166-1.1759,1.3111-1.3856,0.40749-0.29016,1.25-0.50742,2.2802-0.58803,0.84861-0.0664,1.0476-0.058417,1.884,0.075578,1.014,0.16245,1.5158,0.31442,2.286,0.6923,0.56752,0.27845,0.85062,0.51997,1.0198,0.87,0.06477,0.13404,0.15483,0.2557,0.20014,0.27037,0.0453,0.014664,0.31748-0.21306,0.60483-0.50606,0.54017-0.55079,0.99298-0.82128,1.3795-0.82405,0.2879-0.002062,1.0865,0.48073,1.2926,0.7814,0.12481,0.18211,0.15996,0.33315,0.15996,0.68729,0,0.56622-0.10409,0.81782-0.60118,1.4531-0.36806,0.4704-0.39416,0.52935-0.39416,0.89034,0,0.60454,0.35837,1.2331,0.7042,1.2352,0.20116,0.00119,0.41833,0.1087,0.35252,0.17451-0.02263,0.022629-0.25578,0.061187-0.51811,0.085684-0.72504,0.067705-1.4685-0.13611-1.7885-0.49028-0.1335-0.14777-0.25593-0.26867-0.27207-0.26867s-0.21426,0.17768-0.44027,0.39484c-0.39232,0.37695-0.41226,0.41325-0.44033,0.80133-0.02826,0.39076,0.07025,0.82824,0.4511,2.0031,0.23388,0.7215,0.03824,1.2685-0.5567,1.5565-0.38736,0.18752-0.58381,0.18795-1.0799,0.00235-0.46336-0.17336-0.74321-0.49217-0.79933-0.91061-0.03681-0.27441-0.03127-0.28311,0.225-0.35387,0.3305-0.091254,0.43053-0.052547,0.53862,0.20841,0.06691,0.16154,0.13178,0.20818,0.28954,0.20818,0.15932,0,0.21328-0.039739,0.24941-0.18368,0.143-0.5753-0.277-1.6533-0.948-2.427-0.579-0.6664-0.868-0.9435-0.985-0.9435-0.05576,0-0.22144,0.10774-0.36819,0.23943-0.319,0.2862-0.992,0.6148-1.359,0.6641-0.38,0.0508-0.482-0.0907-0.328-0.4529,0.064-0.1501,0.158-0.47,0.209-0.711,0.123-0.5739,0.01-1.1483-0.329-1.6728-0.133-0.2076-0.286-0.4637-0.339-0.5691-0.053-0.1055-0.144-0.2101-0.202-0.2324-0.15189-0.058286-0.57564,0.28914-0.62962,0.51621-0.02514,0.10577-0.15129,0.38427-0.28032,0.61889s-0.28694,0.65052-0.35091,0.92424-0.16184,0.68963-0.21749,0.92424c-0.24787,1.045-0.32072,2.7208-0.16691,3.8392,0.38746,2.8171,0.58214,3.6171,1.73,7.1096,0.46861,1.4258,0.5012,1.5383,0.71492,2.4676,0.0963,0.41873,0.2215,0.8724,0.27822,1.0082,0.11748,0.28116,0.35056,1.5759,0.35824,1.9901,0.0033,0.17562-0.03363,0.2975-0.10152,0.33541-0.19116,0.10674-1.0241,0.47021-1.3075,0.57052-0.25329,0.08968-0.28323,0.08681-0.35548-0.03399-0.04339-0.07255-0.16293-0.23995-0.26564-0.372-0.10271-0.13204-0.25994-0.4246-0.34939-0.65014-0.08946-0.22553-0.25336-0.54763-0.36424-0.71578s-0.2016-0.33115-0.2016-0.36223-0.06317-0.11368-0.14038-0.18356c-0.13605-0.12313-0.14263-0.12113-0.21329,0.06471-0.0401,0.10546-0.0729,0.22347-0.0729,0.26223,0,0.03877-0.15996,0.43789-0.35548,0.88694-0.19551,0.44906-0.35548,0.85735-0.35548,0.90732s-0.04965,0.25806-0.11034,0.46241c-0.14387,0.48446-0.31962,0.5628-0.87928,0.39192-0.21821-0.06662-0.43322-0.14888-0.4778-0.18278-0.04458-0.03391-0.28265-0.14066-0.52905-0.23722-0.695-0.27237-0.70959-0.35376-0.17351-0.96844,0.41294-0.47348,0.60257-0.84223,0.43312-0.84223-0.05184,0-0.20394,0.04583-0.33799,0.10184-0.37151,0.15523-1.4285,0.33552-2.2759,0.38822-0.41823,0.02601-0.78271,0.06958-0.80996,0.09683s0.057979,0.37357,0.1894,0.76959c0.29546,0.89037,0.30523,0.87887-0.80494,0.94847-0.44005,0.02759-0.82884,0.07849-0.86397,0.11311-0.037743,0.0372-0.030562,0.22882,0.017552,0.4684,0.10303,0.51302,0.04276,0.59722-0.4275,0.59722-0.40625,0-1.3261,0.17341-1.7138,0.32309-0.31017,0.11974-0.29817,0.11788-0.35996,0.05608zm1.6589-0.66356c0-0.0391-0.04799-0.0711-0.10664-0.0711-0.058654,0-0.10664,0.03199-0.10664,0.0711,0,0.0391,0.047989,0.0711,0.10664,0.0711,0.058654,0,0.10664-0.03199,0.10664-0.0711zm0.60431-0.07207c0-0.15239-0.20658-0.13038-0.23654,0.0252-0.018297,0.09501,0.010658,0.12397,0.10567,0.10567,0.07198-0.01386,0.13087-0.07276,0.13087-0.13088zm6.3631-1.1366c0-0.0391-0.04799-0.0711-0.10664-0.0711s-0.10664,0.03199-0.10664,0.0711c0,0.0391,0.04799,0.07109,0.10664,0.07109s0.10664-0.03199,0.10664-0.07109zm-4.5501-0.0711c0-0.0391-0.04799-0.0711-0.10664-0.0711-0.058654,0-0.10664,0.03199-0.10664,0.0711,0,0.0391,0.047989,0.0711,0.10664,0.0711,0.058654,0,0.10664-0.03199,0.10664-0.0711zm8.3537-0.99534c-0.02417-0.0391-0.07593-0.07109-0.11504-0.07109-0.0391,0-0.05132,0.03199-0.02716,0.07109,0.02417,0.0391,0.07593,0.0711,0.11503,0.0711s0.05132-0.03199,0.02716-0.0711zm0.58572-0.21329c0.02833-0.16409-0.09625-0.31009-0.22307-0.26142-0.06399,0.02456-0.11382,0.12463-0.11382,0.22859,0,0.15088,0.02931,0.18073,0.15924,0.1622,0.08758-0.0125,0.16752-0.07071,0.17765-0.12936zm-8.1224-0.558c0.98143-0.07809,1.7731-0.23713,2.2573-0.45347,0.33393-0.1492,0.3377-0.15464,0.3377-0.48677,0-0.21442-0.07713-0.51713-0.21329-0.8371-0.11731-0.27567-0.21329-0.55208-0.21329-0.61426,0-0.0847-0.03119-0.09696-0.12442-0.04889-0.23406,0.12069-1.0486,0.22999-2.2573,0.30291-0.66474,0.04011-1.3846,0.08954-1.5997,0.10984l-0.39103,0.03692-0.00186,0.86534c-0.00102,0.47594-0.026364,0.95627-0.056322,1.0674l-0.054469,0.20207,0.73173-0.03807c0.40245-0.02094,1.1156-0.06862,1.5849-0.10595zm5.0312-3.4613c0.22379-0.44267,0.40758-1.2981,0.4076-1.8972,0.000009-0.3223,0.03114-0.43503,0.15093-0.54664,0.18676-0.17399,0.14846-0.44828-0.13478-0.96544-0.23264-0.42477-0.4899-0.55226-0.78526-0.38915-0.29059,0.16047-0.43967,0.55219-0.58781,1.5446-0.1915,1.2828-0.18677,1.3385,0.14972,1.758,0.15679,0.19551,0.33745,0.47545,0.40145,0.62209,0.064,0.14663,0.13551,0.26575,0.15891,0.26471,0.0234-0.001,0.13106-0.177,0.23924-0.391zm-8.0738-2.797c-0.0188-0.142-0.0725-0.562-0.1192-0.933-0.0468-0.372-0.0963-0.687-0.1101-0.701-0.0437-0.0437-0.77664,0.21566-0.87762,0.31055-0.081187,0.0763-0.058716,0.16266,0.13868,0.53301,0.26937,0.5054,0.82565,1.1581,0.93133,1.0928,0.03911-0.02417,0.055713-0.16018,0.036895-0.30224zm1.3401-0.11237c0.048271-0.25731,0.00108-1.3083-0.079169-1.7633-0.039041-0.22136-0.026653-0.26661,0.072988-0.26661,0.12146,0,0.99512,0.68104,1.3121,1.0228,0.32998,0.3558,0.36086,0.28082,0.36086-0.8764,0-0.58423-0.025224-1.0778-0.056052-1.0969-0.030829-0.01905-0.21479,0.07004-0.4088,0.19799s-0.54471,0.30555-0.77932,0.39467c-0.23462,0.08912-0.55455,0.21972-0.71096,0.29022s-0.42835,0.18374-0.60431,0.25165-0.33008,0.13108-0.34248,0.14038c-0.012405,0.0093,0.054514,0.17206,0.14871,0.36169,0.094194,0.18962,0.2121,0.4954,0.26202,0.6795,0.095183,0.35104,0.51306,0.90944,0.68058,0.90944,0.055293,0,0.11789-0.10665,0.14386-0.24511zm3.6137-2.729c-0.0775-0.42-0.2233-0.783-0.4651-1.156-0.1243-0.192-0.2344-0.349-0.2446-0.349-0.01019,0-0.17905,0.16796-0.37524,0.37325l-0.35671,0.37325,0.38197,0.194c0.21479,0.10909,0.51488,0.34829,0.68562,0.54652,0.16701,0.19389,0.33032,0.33604,0.36291,0.3159s0.03761-0.1541,0.01115-0.29768zm0.95515-2.3015c-0.028-0.19-0.351-0.3887-0.735-0.4501-0.2747-0.0438-0.2907-0.0356-0.4077,0.2101l-0.12175,0.25532,0.33655,0.0084c0.1851,0.0046,0.43253,0.03283,0.54984,0.06268,0.35849,0.09122,0.4024,0.08132,0.3782-0.08527zm-0.05827-1.7508c0-0.096452-0.30584-0.35306-0.51544-0.43247-0.17127-0.064887-0.19684-0.05666-0.20618,0.06636-0.0059,0.077238-0.01386,0.18042-0.01777,0.2293-0.0043,0.05336,0.12072,0.10591,0.31282,0.13151,0.17596,0.023454,0.34392,0.047448,0.37325,0.053322,0.02933,0.00587,0.05332-0.015738,0.05332-0.048025zm-0.07109-1.494c0-0.070947-0.3185-0.2247-0.46547-0.2247-0.05681,0-0.1033,0.063986-0.1033,0.14219,0,0.11849,0.0474,0.14219,0.28438,0.14219,0.15641,0,0.28438-0.026858,0.28438-0.059683zm0.0515-1.4812c0.0128-0.038406-0.05436-0.1052-0.14925-0.14844-0.15006-0.06837-0.17763-0.059099-0.2117,0.071183-0.02154,0.082386-0.0237,0.17482-0.0048,0.20542,0.0427,0.069095,0.33401-0.032989,0.36574-0.12817zm-0.01971-1.4512c-0.02289-0.037039-0.07192-0.048614-0.10896-0.025722-0.03704,0.022891-0.04861,0.071924-0.02572,0.10896,0.02289,0.037039,0.07192,0.048614,0.10896,0.025722,0.03704-0.022891,0.04861-0.071924,0.02572-0.10896z"/>
 <path fill="#48604f" d="m3.1539,25.429c-0.026069-0.02607-0.047397-0.16094-0.047397-0.29972,0-0.75956-0.63531-3.4704-1.0183-4.3452-0.0771-0.176-0.1637-0.464-0.1924-0.64-0.0887-0.542-0.4085-1.906-0.6167-2.63-0.05905-0.20539-0.14513,0.08184-0.23436,0.78205-0.04734,0.37147-0.1318,0.78593-0.18769,0.92102-0.058664,0.14179-0.08267,0.3319-0.05679,0.44973,0.041912,0.19083,0.031657,0.20261-0.15751,0.18096-0.16309-0.01866-0.20686-0.06266-0.22562-0.22676-0.014912-0.13043-0.073446-0.21673-0.16287-0.24011-0.17526-0.04583-0.13594-0.18891,0.059877-0.21788,0.33041-0.04889,0.44565-0.38633,0.76948-2.2533,0.061042-0.35192,0.17324-0.76082,0.24933-0.90866s0.13835-0.30855,0.13835-0.35714c0-0.12801,1.0365-1.1261,1.4804-1.4256,0.20816-0.14041,0.4801-0.28382,0.60431-0.31868,0.3232-0.09,3.2725-1.265,3.6112-1.437,0.6787-0.347,1.7604-1.331,1.9877-1.809,0.0744-0.157,0.1643-0.333,0.1999-0.391,0.1894-0.312,0.3203-0.7787,0.3917-1.3961,0.0491-0.4244,0.1137-0.7013,0.1681-0.7194,0.05937-0.019789,0.08829,0.054017,0.08829,0.22533,0,0.22033,0.02268,0.25476,0.16782,0.25476,0.0923,0,0.31625,0.020345,0.49767,0.045211,0.26143,0.035834,0.32985,0.023846,0.32985-0.057794,0-0.15793-0.35288-0.4606-0.73295-0.62866-0.3887-0.1714-0.4284-0.2326-0.3461-0.5318,0.0573-0.208,0.0683-0.2127,0.4481-0.1896,0.639,0.0388,0.751-0.2934,0.164-0.4872-0.262-0.0862-0.387-0.0497-0.387,0.1123,0,0.056346-0.03199,0.10245-0.07109,0.10245-0.08747,0-0.08737-0.025453,0.0033-0.81673,0.07031-0.6138,0.14885-0.83224,0.25946-0.72163,0.0285,0.028499,0.01231,0.11507-0.03597,0.19239-0.07243,0.11597-0.06875,0.14788,0.021,0.18232,0.1573,0.06036,0.57717-0.031947,0.67354-0.14808,0.06611-0.079655,0.02903-0.13564-0.1871-0.2825-0.14825-0.10074-0.3421-0.18316-0.43078-0.18316-0.18591,0-0.18746-0.00961-0.08255-0.51194,0.09118-0.43656,0.16815-0.54938,0.29101-0.42652,0.10503,0.10503,0.31684,0.11124,0.37873,0.011104,0.0782-0.12653-0.12212-0.29525-0.30829-0.25966-0.16615,0.031762-0.17121,0.021249-0.13097-0.27236,0.1084-0.7909,0.7882-1.9273,1.6189-2.7065,0.46702-0.438,0.53479-0.47582,1.2677-0.70733,1.0313-0.32579,2.4805-0.33954,3.9849-0.037817,0.5776,0.11585,0.81935,0.20273,1.5473,0.55609,0.64786,0.3145,0.85775,0.49296,1.0977,0.93336,0.06661,0.12224,0.15485,0.22225,0.19609,0.22225s0.31524-0.24182,0.60888-0.53737c0.58895-0.59278,0.86162-0.74235,1.3533-0.74235,0.26678,0,0.41458,0.056358,0.78296,0.29856,0.57841,0.38028,0.70015,0.61554,0.65379,1.2635-0.03657,0.51114-0.09475,0.6304-0.64091,1.3138-0.32604,0.40796-0.33808,0.43962-0.33808,0.88951,0,0.40673,0.02968,0.51186,0.23168,0.82057,0.16859,0.25765,0.288,0.36392,0.43848,0.39021,0.11374,0.019876,0.2201,0.076129,0.23636,0.12501,0.04276,0.12853-1.0033,0.11697-1.5251-0.016857-0.39258-0.10068-0.72132-0.34619-0.82243-0.61422-0.02478-0.065695-0.19056,0.057362-0.50652,0.37599l-0.46968,0.47365v0.47282c0,0.2776,0.05848,0.65445,0.14164,0.91272,0.47844,1.486,0.5049,1.6898,0.26547,2.0451-0.25757,0.38221-0.58318,0.5632-1.0133,0.5632-0.66244,0-1.1651-0.33005-1.3273-0.87153-0.07574-0.2528-0.07045-0.29376,0.04921-0.38126,0.2353-0.17206,0.51669-0.12341,0.6375,0.11022,0.12732,0.2462,0.35496,0.33893,0.51203,0.20857,0.08856-0.0735,0.10486-0.19734,0.07899-0.60034-0.04-0.6205-0.344-1.3193-0.786-1.808-0.165-0.1822-0.438-0.496-0.606-0.6974-0.449-0.5388-0.513-0.5573-0.875-0.2544-0.46502,0.38851-1.0716,0.66874-1.4475,0.66874-0.2977,0-0.32196-0.01366-0.32196-0.18127,0-0.099698,0.04425-0.26766,0.09834-0.37325,0.356-0.6942,0.295-1.5556-0.16-2.2394-0.142-0.2138-0.312-0.4884-0.379-0.6102-0.066-0.1219-0.169-0.2216-0.228-0.2216-0.15134,0-0.61009,0.41794-0.61009,0.55581,0,0.062979-0.12956,0.36354-0.28792,0.66792-0.15835,0.30438-0.33234,0.76942-0.38664,1.0334-0.0543,0.26401-0.1456,0.68798-0.2029,0.94214-0.27019,1.1985-0.31691,2.2973-0.15115,3.5548,0.37961,2.8798,0.56461,3.6464,1.7327,7.1807,0.51134,1.5471,0.55331,1.6904,0.68386,2.3346,0.05815,0.28692,0.18197,0.75082,0.27515,1.0309,0.13992,0.42052,0.46977,2.0496,0.46977,2.3201,0,0.07491-0.4439,0.29493-1.2399,0.61456-0.23225,0.09326-0.4312,0.16957-0.4421,0.16957-0.07749,0-0.6159-0.8406-0.7289-1.138-0.18988-0.49971-0.71868-1.3616-0.81596-1.3299-0.0435,0.01417-0.13195,0.18835-0.19654,0.38707s-0.23651,0.62501-0.38204,0.94733c-0.14553,0.32231-0.31009,0.78104-0.3657,1.0194-0.0556,0.23835-0.15083,0.50927-0.21162,0.60204-0.09638,0.14709-0.153,0.1646-0.4424,0.13679-0.18253-0.01754-0.49252-0.11258-0.68886-0.21119-0.19634-0.09862-0.4837-0.22017-0.63857-0.27012-0.58509-0.1887-0.59643-0.33644-0.07439-0.96933,0.33107-0.40137,0.52917-0.77199,0.45323-0.84793-0.01205-0.01205-0.2022,0.03897-0.42258,0.11337-0.58023,0.19588-1.5568,0.36919-2.3497,0.41696-0.79097,0.04766-0.90562,0.1104-0.74633,0.40841,0.088467,0.16551,0.40535,1.0967,0.40535,1.1911,0,0.08559-0.34526,0.14358-1.0664,0.17912l-0.8176,0.04029,0.019029,0.52824c0.021854,0.60667-0.0052,0.64214-0.49107,0.64374-0.43163,0.0014-1.4579,0.19768-1.7068,0.3264-0.22456,0.11613-0.23374,0.11779-0.29767,0.05386zm1.73-0.656c0-0.07991-0.18493-0.15446-0.24188-0.0975-0.085583,0.08558-0.038886,0.16099,0.099692,0.16099,0.078205,0,0.14219-0.02857,0.14219-0.06349zm0.56876-0.07451c0-0.19229-0.10965-0.23987-0.24376-0.10576s-0.086532,0.24376,0.10576,0.24376c0.089199,0,0.138-0.0488,0.138-0.138zm6.292-1.2128c-0.0344-0.05566-0.0753-0.05979-0.12269-0.01239-0.0391,0.0391-0.04788,0.10866-0.0195,0.15458,0.0344,0.05566,0.0753,0.05979,0.12269,0.01239,0.0391-0.0391,0.04788-0.10866,0.0195-0.15458zm-5.0122,0.0711c0-0.0391-0.033881-0.0711-0.075292-0.0711-0.04141,0-0.055518,0.03199-0.031352,0.0711,0.024167,0.0391,0.058048,0.07109,0.075292,0.07109,0.017243,0,0.031352-0.03199,0.031352-0.07109zm0.52824,0.0081c0.021429-0.03467-0.00583-0.10021-0.06057-0.14564-0.11082-0.09197-0.2243,0.01371-0.14774,0.13759,0.054402,0.08802,0.15645,0.09197,0.20831,0.0081zm8.3451-1.0798c-0.01401-0.04203-0.05587-0.07643-0.09302-0.07643s-0.07901,0.03439-0.09302,0.07643,0.02784,0.07643,0.09302,0.07643c0.06517,0,0.10703-0.03439,0.09302-0.07643zm0.5414-0.15886c0.05398-0.08558,0.05321-0.15601-0.0027-0.2446-0.1111-0.17613-0.27204-0.15426-0.29967,0.04072-0.0497,0.3508,0.13226,0.47351,0.30234,0.20388zm-8.3482-0.474c0.44968-0.03353,0.88158-0.07783,0.95979-0.09845,0.0782-0.02061,0.4133-0.08938,0.74466-0.1528,0.57464-0.11,0.88283-0.2305,1.1571-0.45247,0.18397-0.14886,0.15207-0.53799-0.09079-1.1075-0.11625-0.27259-0.21136-0.58263-0.21136-0.68899,0-0.25234-0.07951-0.29317-0.32907-0.16897-0.21655,0.10778-1.7975,0.28589-3.3324,0.37542l-0.92424,0.05391,0.021605,0.53812c0.011882,0.29596-0.011685,0.8036-0.052371,1.1281-0.040686,0.32448-0.053783,0.62264-0.029104,0.66257,0.02889,0.04675,0.26277,0.05469,0.65668,0.02231,0.3365-0.02766,0.97973-0.07773,1.4294-0.11126zm5.3453-3.5373c0.27312-0.58104,0.41342-1.2218,0.41342-1.8882,0-0.34964,0.0229-0.41634,0.17774-0.5178,0.09776-0.06405,0.17774-0.1774,0.17774-0.25189,0-0.21176-0.34008-0.99574-0.51073-1.1774-0.21271-0.22642-0.6851-0.22847-0.89047-0.0039-0.32901,0.35982-0.39871,0.65731-0.61966,2.6449-0.02787,0.25074,0.0065,0.32907,0.31933,0.72711,0.19282,0.24535,0.40207,0.5748,0.46501,0.7321s0.13563,0.286,0.16153,0.286,0.16365-0.24794,0.3061-0.55099zm-8.0828-2.868c-0.0002133-0.25072-0.026917-0.70381-0.059387-1.0069-0.089231-0.83281,0.052115-0.71434,0.44876,0.37615,0.18195,0.50022,0.65397,0.9933,0.83923,0.87666,0.067409-0.04244,0.14277-0.16972,0.16747-0.28285,0.074922-0.34313,0.066423-1.1366-0.016305-1.5224-0.042922-0.20014-0.060721-0.3812-0.039555-0.40237,0.042345-0.04235,0.97561,0.70441,1.2497,0.99998,0.21953,0.2367,0.4155,0.24062,0.47352,0.0095,0.02435-0.09701,0.02591-0.6169,0.0035-1.1553-0.02244-0.5384-0.04175-1.0029-0.04292-1.0322-0.0046-0.11525-0.23025-0.04206-0.60038,0.19471-0.41053,0.26262-1.0354,0.53402-1.2295,0.53402-0.063903,0-0.1667,0.04285-0.22843,0.09523-0.061733,0.05238-0.3042,0.1666-0.53881,0.25384-0.23462,0.08723-0.52255,0.20333-0.63986,0.258s-0.39945,0.16752-0.62698,0.25077-0.43304,0.20178-0.45668,0.2634c-0.10733,0.2797,0.97557,1.8541,1.2188,1.772,0.045984-0.01552,0.078003-0.21401,0.077796-0.48224zm4.9993-2.6463c0.01225-0.14831-0.0319-0.43277-0.09812-0.63214-0.1312-0.397-0.6471-1.266-0.7509-1.266-0.0357,0-0.09571,0.08099-0.13334,0.17997s-0.22812,0.32708-0.42332,0.50688c-0.36567,0.33684-0.39567,0.45068-0.11878,0.45068,0.25116,0,0.80662,0.39305,1.0565,0.74762,0.27502,0.39016,0.4369,0.39446,0.46846,0.01243zm0.99669-2.39c0.01389-0.09487-0.04171-0.2309-0.13495-0.33015-0.162-0.174-0.867-0.4224-1.0237-0.3621-0.1106,0.0425-0.3997,0.6181-0.3504,0.6981,0.02016,0.03262,0.23472,0.0631,0.47681,0.06772,0.24208,0.0046,0.53613,0.03263,0.65344,0.06223,0.29077,0.07337,0.35158,0.05148,0.37911-0.1365z"/>
 <path fill="#242c25" d="m3.1776,25.084c0-0.14666-0.029828-0.38234-0.066285-0.52373-0.0365-0.141-0.1346-0.657-0.218-1.146-0.1517-0.888-0.4699-2.028-0.7346-2.63-0.0773-0.176-0.1638-0.48-0.1922-0.675-0.0283-0.196-0.1-0.532-0.1593-0.747s-0.1307-0.532-0.1588-0.704c-0.028052-0.17198-0.09538-0.4189-0.14962-0.54871-0.054238-0.12981-0.10086-0.35702-0.10361-0.50491s-0.029469-0.33146-0.05938-0.40793c-0.053972-0.13799-0.055033-0.13799-0.14029,0-0.076749,0.12422-0.082272,0.11631-0.051836-0.07425,0.018736-0.11731,0.05459-0.37325,0.079675-0.56876s0.10713-0.46128,0.18231-0.5906c0.075187-0.12932,0.1367-0.27415,0.1367-0.32184,0-0.09886,0.8164-0.90961,1.2466-1.238,0.33548-0.25608,0.53636-0.35038,1.4767-0.69328,0.38341-0.13981,0.87529-0.333,1.0931-0.4293,0.3905-0.1727,0.68672-0.23441,0.55243-0.11509-0.037147,0.03301-0.2595,0.13171-0.49411,0.21935-0.23462,0.08764-0.50656,0.20042-0.60431,0.25062-0.097756,0.0502-0.34672,0.14636-0.55325,0.21369-0.64881,0.21149-1.3087,0.62372-1.8825,1.1759-0.53764,0.51744-0.55709,0.54794-0.65757,1.0309-0.11814,0.56787-0.13962,1.7153-0.037154,1.9848,0.037868,0.0996,0.1526,0.58762,0.25496,1.0845,0.10236,0.49686,0.34137,1.3692,0.53112,1.9386,0.40858,1.226,0.58615,1.954,0.74668,3.0615,0.065185,0.44968,0.12891,0.85372,0.14161,0.89786,0.016407,0.05702,0.15317,0.04625,0.47232-0.03719,0.33905-0.08865,0.45562-0.15193,0.47531-0.258,0.041412-0.22316,0.15453-0.31828,0.37849-0.31828,0.11446,0,0.29952-0.04727,0.41125-0.10504l0.2032-0.106-0.0383-0.695c-0.0256-0.466-0.001-0.929,0.0748-1.406,0.1948-1.224,0.207-1.448,0.12-2.191-0.1104-0.943-0.2468-1.513-0.4928-2.061-0.1691-0.377-0.2505-0.472-0.5294-0.62-0.3303-0.176-0.4167-0.324-0.2299-0.396,0.12907-0.04953,0.60426,0.19467,0.796,0.40907,0.176,0.1968,0.47422,0.93116,0.61881,1.5238,0.11814,0.48425,0.15963,2.5001,0.058566,2.846-0.1091,0.37343-0.033366,0.411,0.71291,0.35359,0.36544-0.02811,1.0484-0.07957,1.5176-0.11436,1.1384-0.08439,2.1233-0.28921,2.5417-0.52856,0.32368-0.18518,0.3377-0.2064,0.3377-0.51096,0-0.19428-0.08288-0.51251-0.21329-0.81896-0.118-0.276-0.214-0.588-0.214-0.693,0-0.10539-0.03786-0.22948-0.08413-0.27575s-0.06073-0.10753-0.03214-0.13612c0.09802-0.09802,0.29039,0.0984,0.34263,0.34982,0.02873,0.13829,0.13956,0.43925,0.24628,0.6688,0.15935,0.34274,0.19444,0.51906,0.19628,0.98612,0.0027,0.68082-0.13885,1.0225-0.67931,1.6401-0.19498,0.22281-0.32839,0.42753-0.29647,0.45494,0.03191,0.02741,0.20965,0.10562,0.39497,0.17381,0.30794,0.11331,0.35598,0.11448,0.55818,0.01361,0.15302-0.07634,0.3396-0.09942,0.60508-0.07485,0.35562,0.0329,0.38384,0.02436,0.38384-0.11628,0-0.08349,0.14079-0.47622,0.31287-0.87275s0.36404-0.89473,0.42657-1.1071c0.14415-0.48955,0.14836-1.278,0.0082-1.5454-0.058-0.1107-0.21788-0.44122-0.35528-0.73449s-0.32989-0.64192-0.42776-0.77479c-0.19921-0.27045-0.22118-0.36274-0.08635-0.36274,0.13546,0,0.60174,0.58695,0.76049,0.95731,0.07601,0.17733,0.1691,0.32242,0.20686,0.32242s0.17921-0.23195,0.31432-0.51544c0.26665-0.55948,0.47522-1.4519,0.47522-2.0333,0-0.27808,0.02565-0.36616,0.10664-0.36616,0.0851,0,0.10639,0.10412,0.10541,0.51544-0.0015,0.648-0.14197,1.3185-0.38924,1.8587-0.37623,0.82191-0.3945,0.9146-0.28924,1.4671,0.05253,0.27567,0.17404,0.61993,0.27004,0.76502,0.38242,0.578,0.62311,0.99259,0.77266,1.3309,0.08627,0.19516,0.25551,0.4828,0.37609,0.63921s0.22608,0.29622,0.23444,0.3107c0.0084,0.01447,0.09795,0.0055,0.19908-0.01984,0.16634-0.04175,0.17945-0.06977,0.13744-0.2937-0.05182-0.27624,0.05099-0.45928,0.25797-0.45928,0.07078,0,0.14676-0.05599,0.16885-0.12442s0.13216-0.17659,0.24462-0.24036l0.204-0.118-0.127-0.595c-0.07-0.32726-0.16537-0.69099-0.21193-0.8083-0.07622-0.19203-0.39769-1.4502-0.56677-2.2182-0.03616-0.16424-0.09669-0.3562-0.13452-0.42657-0.08129-0.15124-0.40099-1.1096-0.71864-2.1542-0.12485-0.41058-0.30055-0.97045-0.39044-1.2442-0.19049-0.58005-0.42153-1.5811-0.5743-2.4883-0.38152-2.2657-0.45736-3.4256-0.31338-4.7927,0.08808-0.83628,0.44218-2.318,0.66992-2.8032,0.09468-0.20174,0.19349-0.45398,0.21958-0.56055,0.05592-0.2284,0.50927-0.76365,0.76085-0.89829,0.09698-0.0519,0.22778-0.20228,0.29068-0.33418,0.07902-0.1657,0.2286-0.29771,0.48402-0.42714,0.33772-0.17113,0.41626-0.18324,0.90874-0.14012,0.69325,0.060705,1.2025,0.29766,1.4953,0.6957,0.24385,0.33159,0.26054,0.39681,0.11576,0.45237-0.06071,0.023296-0.2383-0.10263-0.44435-0.31506-0.38751-0.39953-0.67608-0.50939-1.3386-0.5096-0.59746-0.0002133-0.88929,0.18051-0.88711,0.54928,0.000917,0.15557,0.0598,0.34208,0.14061,0.44539,0.07647,0.097756,0.13974,0.21333,0.14061,0.25683,0.000867,0.043502,0.09522,0.19692,0.20967,0.34094,0.36757,0.46252,0.46552,1.3968,0.22059,2.1039-0.0745,0.21506-0.11344,0.41303-0.08655,0.43992,0.08772,0.087719,1.0494-0.36628,1.2801-0.60433l0.22495-0.23208-0.14156-0.38729c-0.08-0.2139-0.144-0.4787-0.144-0.5893,0-0.25928,0.26697-0.88098,0.40028-0.93214,0.17818-0.068373,0.18856,0.15582,0.02543,0.54938-0.14405,0.34754-0.14855,0.39767-0.05274,0.58755,0.05761,0.11418,0.1253,0.29344,0.15043,0.39837,0.02616,0.10923,0.22796,0.34931,0.4721,0.56165,0.23452,0.20398,0.42641,0.40862,0.42641,0.45474,0,0.046126,0.17741,0.27992,0.39425,0.51953,0.2329,0.25737,0.49477,0.65322,0.63986,0.96725,0.21636,0.46828,0.24561,0.60042,0.24561,1.1097,0,0.74871-0.05661,0.85313-0.4625,0.85313-0.26789,0-0.33901-0.032068-0.47299-0.21329-0.137-0.1876-0.343-0.2895-0.343-0.1706,0,0.2028,0.26072,0.5209,0.53691,0.65508,0.5694,0.27664,1.0573,0.14878,1.3713-0.35939l0.152-0.2452-0.179-0.6331c-0.098-0.3482-0.228-0.7844-0.29-0.9693-0.331-0.9991-0.146-1.8576,0.471-2.1879,0.085-0.0453,0.202-0.1974,0.261-0.338,0.14-0.3353,0.08-0.7597-0.201-1.419-0.207-0.4833-0.228-0.7311-0.063-0.7311,0.16006,0,0.61292,1.1249,0.78426,1.9481,0.10749,0.51642,0.2806,0.70067,0.80032,0.85175,0.64056,0.18621,0.65608,0.16986,0.36579-0.38531-0.157-0.301-0.182-0.4245-0.157-0.8045,0.029-0.4581,0.049-0.4992,0.564-1.1327,0.317-0.3903,0.419-0.6589,0.419-1.1078,0-0.23336-0.0201-0.47667-0.04467-0.54069-0.025-0.064-0.239-0.2426-0.476-0.3969-0.506-0.32862-0.808-0.35902-1.195-0.1201-0.235,0.1454-1.051,0.9604-1.293,1.2909-0.156,0.2138-0.317,0.0901-0.545-0.4185-0.236-0.5256-0.488-0.7249-1.395-1.1025-0.888-0.36932-1.764-0.52354-2.95-0.51929-1.2858,0.004593-1.9502,0.115-2.5493,0.4236-0.47257,0.24344-0.57221,0.27544-0.57069,0.18329,0.0019-0.11225,0.52285-0.3838,1.0648-0.55501,0.46937-0.14828,1.583-0.31317,2.1691-0.32119,0.18374-0.0025168,1.2789,0.17522,1.927,0.31273,0.50447,0.10704,1.4669,0.50298,1.9594,0.80608,0.15368,0.094578,0.34062,0.30741,0.45565,0.51876,0.10728,0.19711,0.22224,0.35839,0.25547,0.35839,0.12703,0,0.65669-0.43764,0.85342-0.70516,0.43192-0.58732,1.155-0.73072,1.8061-0.35818,0.56513,0.32333,0.7411,0.56657,0.7411,1.0244,0,0.61113-0.06177,0.77156-0.53834,1.3982-0.44619,0.58667-0.45326,0.60297-0.45511,1.0494-0.0016,0.37709,0.03456,0.51715,0.21443,0.83154,0.11897,0.20794,0.2794,0.3981,0.35651,0.42257,0.07711,0.024473,0.11987,0.07739,0.09502,0.11759-0.04758,0.076987-0.67164,0.029281-1.0589-0.080944-0.117-0.0335-0.301-0.0803-0.408-0.1041-0.121-0.0269-0.266-0.1504-0.383-0.3263-0.103-0.1557-0.214-0.2831-0.247-0.2831-0.0328,0-0.26849,0.21301-0.52377,0.47336l-0.46414,0.47336v0.48871c0,0.26879,0.04294,0.59166,0.09543,0.71749s0.1358,0.40474,0.18513,0.6198c0.04934,0.21506,0.13436,0.52811,0.18895,0.69567,0.1461,0.44843,0.12379,0.7162-0.08216,0.98622-0.23651,0.31008-0.51971,0.45098-0.90643,0.45098-0.64217,0-1.1233-0.30332-1.2728-0.80246-0.09424-0.31456-0.02458-0.40318,0.31843-0.40507,0.1458-0.0008034,0.21499,0.045516,0.26518,0.17752,0.03735,0.098237,0.1484,0.21529,0.24679,0.26011,0.1495,0.068119,0.20358,0.059219,0.32934-0.054195,0.13328-0.1202,0.14678-0.19343,0.11824-0.64129-0.04002-0.62809-0.33421-1.2942-0.81843-1.8532-0.62386-0.72015-1.1061-1.2315-1.1613-1.2315-0.03011,0-0.1932,0.11115-0.36243,0.247-0.44414,0.35655-1.0508,0.65989-1.3764,0.68821-0.24488,0.021296-0.28498,0.00408-0.30415-0.1306-0.01215-0.085322,0.02411-0.24528,0.08057-0.35546s0.14348-0.38432,0.19339-0.60921c0.1183-0.53312,0.0033-1.0693-0.35106-1.6366-0.14096-0.22566-0.32137-0.5136-0.40092-0.63986-0.20411-0.32397-0.39322-0.32649-0.70122-0.00936-0.14087,0.14505-0.25613,0.31586-0.25613,0.37957,0,0.063711-0.10927,0.32275-0.24281,0.57563-0.45897,0.86911-0.89585,2.9909-0.89414,4.3426,0.0011,0.8325,0.41659,3.5243,0.77799,5.0397,0.07947,0.33322,0.64693,2.1409,1.1717,3.7325,0.38192,1.1584,0.43524,1.344,0.61269,2.1329,0.07916,0.35192,0.20487,0.81582,0.27937,1.0309,0.0745,0.21506,0.1697,0.59898,0.21156,0.85315s0.09355,0.56821,0.11486,0.69788c0.03655,0.22231,0.03016,0.23115-0.11208,0.15503-0.11374-0.06087-0.17595-0.05989-0.25294,0.004-0.11982,0.09944-0.13623,0.50242-0.02499,0.61366,0.08482,0.08482-0.12535,0.212-0.75252,0.45537l-0.35548,0.13794-0.12137-0.16103c-0.06675-0.08857-0.18554-0.24464-0.26397-0.34683s-0.20767-0.3597-0.28719-0.57224-0.24067-0.53795-0.35811-0.72314-0.21353-0.36263-0.21353-0.39431c0-0.10926-0.27933-0.31008-0.37841-0.27206-0.05463,0.02096-0.13674,0.18668-0.18246,0.36826s-0.22617,0.64841-0.40099,1.0374c-0.17482,0.38898-0.31786,0.74922-0.31786,0.80053,0,0.17879-0.21924,0.83006-0.27943,0.83006-0.03335,0-0.08124-0.08211-0.10643-0.18246-0.06244-0.2488-0.2818-0.20372-0.31258,0.06424-0.01787,0.15555-0.04974,0.18961-0.14219,0.15195-0.06554-0.0267-0.21024-0.07586-0.32156-0.10924-0.11132-0.03339-0.24327-0.09462-0.29323-0.13608-0.04995-0.04146-0.2628-0.13367-0.473-0.20491-0.52409-0.17763-0.529-0.30553-0.03474-0.90475,0.34867-0.42271,0.54637-0.8302,0.44968-0.92689-0.01871-0.01871-0.2377,0.03503-0.48666,0.11942-0.6052,0.20515-1.4335,0.35177-2.3166,0.41004-0.86803,0.05729-1.0322,0.1509-0.85089,0.48523,0.12674,0.23374,0.26201,0.63989,0.26201,0.78673,0,0.06718-0.045693,0.08632-0.13691,0.05737-0.089488-0.0284-0.16099-0.000426-0.20641,0.08072-0.053831,0.09619-0.091608,0.10582-0.16763,0.04273-0.14251-0.11827-0.29674,0.002-0.23837,0.18593,0.045459,0.14323,0.02446,0.15107-0.40475,0.15107-0.52652,0-0.62332,0.06846-0.62332,0.44079,0,0.23975-0.019728,0.27016-0.17524,0.27016-0.21133,0-0.33999,0.19959-0.24177,0.37509,0.057405,0.10258,0.037597,0.12258-0.12138,0.12258-0.16649,0-0.17825-0.01414-0.095086-0.11434,0.08044-0.09693,0.0753-0.12866-0.033753-0.2084-0.070754-0.05174-0.17352-0.07684-0.22838-0.05579-0.12368,0.04746-0.13149,0.28373-0.010863,0.32879,0.11458,0.0428,0.019829,0.07751-0.62209,0.22792-0.27372,0.06413-0.56965,0.134-0.65763,0.15525-0.14432,0.03486-0.15996,0.01257-0.15996-0.22801zm3.1421-1.65c0.0704-0.146,0.1674-0.208,0.4032-0.254,0.3055-0.061,0.3099-0.066,0.271-0.305-0.0218-0.134-0.1019-0.332-0.1782-0.439-0.1343-0.189-0.1547-0.193-0.662-0.159l-0.52337,0.03555-0.020971,0.56248c-0.011535,0.30936-0.00454,0.6053,0.015542,0.65763,0.022028,0.0574,0.14869,0.09515,0.31925,0.09515,0.23752,0,0.29757-0.03092,0.37548-0.1933zm4.9735,0.01556c0-0.03715-0.03439-0.079-0.07643-0.09302-0.04204-0.01401-0.07643,0.02784-0.07643,0.09302,0,0.06517,0.03439,0.10703,0.07643,0.09302s0.07643-0.05587,0.07643-0.09302zm4.355-1.0108c-0.10758-0.17055-0.23478-0.19308-0.28922-0.05123-0.05929,0.15451,0.17932,0.35394,0.29048,0.24278,0.05036-0.05036,0.04997-0.11034-0.0013-0.19155zm-8.898,1.2419c0.016293-0.04888,0.072281-0.08887,0.12442-0.08887,0.052136,0,0.10812,0.03999,0.12442,0.08887,0.017622,0.05287-0.032783,0.08887-0.12442,0.08887-0.091634,0-0.14204-0.036-0.12442-0.08887zm0.55099-0.04493c0-0.0391,0.031993-0.09087,0.071096-0.11504s0.071096-0.01195,0.071096,0.02716c0,0.0391-0.031993,0.09087-0.071096,0.11504s-0.071096,0.01195-0.071096-0.02716zm8.9271-1.2379c0.0267-0.07012,0.06645-0.10957,0.08834-0.08768s0.000045,0.07926-0.04854,0.12748c-0.07022,0.06969-0.07838,0.06153-0.0398-0.0398zm-15.752-2.808c0-0.10949-0.035214-0.23428-0.078252-0.27732-0.05694-0.05694-0.040321-0.09029,0.061016-0.12246,0.13867-0.04401,0.3024-0.34942,0.44123-0.82307,0.06552-0.22352,0.069427-0.20835,0.038402,0.1492-0.018995,0.21892-0.083279,0.53618-0.14285,0.70504-0.059574,0.16885-0.089701,0.36565-0.066949,0.43734,0.031008,0.0977,0.00456,0.13034-0.10561,0.13034-0.11358,0-0.14698-0.04523-0.14698-0.19907zm6.4341-6.9393c0.35192-0.16843,0.76423-0.40682,0.91624-0.52975,0.28729-0.23234,0.39902-0.27459,0.39902-0.1509,0,0.03994-0.08798,0.11068-0.19551,0.1572s-0.28468,0.15674-0.39366,0.24493c-0.25708,0.20805-1.0639,0.59268-1.2339,0.58822-0.072615-0.0019,0.15591-0.14127,0.50783-0.3097zm1.7443-1.232c0.17468-0.19676,0.32911-0.327,0.3432-0.28943,0.02994,0.07986-0.318,0.46153-0.52094,0.57143-0.07692,0.04166,0.0031-0.08524,0.17774-0.282zm0.56643-0.72152c0-0.16534,0.18073-0.33219,0.24579-0.22691,0.05412,0.08757-0.08002,0.3604-0.1772,0.3604-0.03773,0-0.06859-0.06007-0.06859-0.13349zm0.28664-0.57942c-0.0012-0.05973,0.04274-0.17285,0.09774-0.25137,0.055-0.078525,0.12104-0.3016,0.14676-0.49571,0.0788-0.59476,0.11713-0.74397,0.19111-0.74397,0.10384,0-0.0063,0.93501-0.12631,1.072-0.05406,0.061733-0.09829,0.1436-0.09829,0.18192,0,0.038325-0.04697,0.13179-0.10438,0.20769-0.08139,0.10761-0.10488,0.11408-0.10664,0.02941zm0.3533-1.7716c0-0.036795,0.03199-0.086673,0.0711-0.11084,0.0391-0.024167,0.07109,0.00594,0.07109,0.066899,0,0.060962-0.03199,0.11084-0.07109,0.11084s-0.0711-0.030105-0.0711-0.066899zm0.07207-0.65591c0.0019-0.18406,0.08755-0.41472,0.15402-0.41472,0.09932,0,0.0379,0.4462-0.06612,0.48034-0.04888,0.016046-0.08843-0.013483-0.0879-0.06562zm0.1883-1.3517c0.06001-0.54106,0.17869-0.61876,0.15195-0.099492-0.01284,0.24932-0.05679,0.43253-0.10779,0.44935-0.06357,0.020963-0.07513-0.070621-0.04416-0.34986zm0.16582-1.2651c0-0.18598,0.16388-0.71281,0.22173-0.71281,0.07156,0,0.07171,0.3079,0.000284,0.56349-0.04966,0.17771-0.22201,0.29363-0.22201,0.14932zm7.8704-0.18899c-0.09232-0.092324-0.05082-0.63299,0.06082-0.79239,0.15123-0.21591,0.41383-0.20116,0.5985,0.033616,0.1576,0.20036,0.17101,0.52337,0.02372,0.5717-0.04658,0.015285-0.13692-0.073201-0.20076-0.19664-0.13863-0.26808-0.21222-0.22252-0.21222,0.13138,0,0.24978-0.14094,0.38146-0.27008,0.25232zm1.4195-0.28684c-0.11016-0.11016-0.0386-0.46553,0.12711-0.63124,0.20705-0.20705,0.32485-0.21795,0.53305-0.049363,0.2053,0.16624,0.29464,0.728,0.11577,0.728-0.06978,0-0.16346-0.10488-0.2248-0.2517-0.118-0.2848-0.209-0.2719-0.278,0.0392-0.043,0.1994-0.164,0.2727-0.272,0.1651zm-8.979-0.919c0.02384-0.16004,0.11482-0.44797,0.20218-0.63986,0.13242-0.29087,0.16306-0.32154,0.18422-0.18444,0.0303,0.19628-0.18512,0.85804-0.32833,1.0086-0.0884,0.092957-0.09585,0.069301-0.05807-0.18433zm0.47287-1.1843c0.000568-0.048878,0.11136-0.21684,0.24616-0.37325,0.28866-0.33492,0.33779-0.19709,0.07015,0.19678-0.18077,0.26602-0.31829,0.34275-0.31631,0.17647zm0.798-1.0273c0.14468-0.14468,0.28401-0.24209,0.30963-0.21648,0.06068,0.060682-0.35816,0.47953-0.47953,0.47953-0.05124,0,0.02522-0.11837,0.1699-0.26305z"/>
</g>
 </defs>
 <g filter="url(#f1)">
  <rect x="649.19" y="299.63" width="108.25" height="10.38" fill="url(#lg3)"/>
  <path d="m728.53,310.75,0-5.9316m-25.209,5.9316,0-5.9316m-25.209,5.9316,0-5.9316m-28.175,5.9316,106.77,0" fill="none" stroke="#90908e" stroke-linecap="square"/>
  <path d="m661.8,303.34,81.559,0" fill="none" stroke="#b8bdc6" stroke-linecap="square"/>
  <rect x="676.63" y="300.37" width="19.278" height="2.9658" fill="#888b8e" stroke="#a8a8a6"/>
  <rect x="715.18" y="300.37" width="8.8973" height="2.9658" fill="#888b8e" stroke="#a8a8a6"/>
  <path d="m672.18,301.86a1.4829,1.4829,0,0,1,-2.9658,0,1.4829,1.4829,0,1,1,2.9658,0z" fill="#4e4e4e" stroke="#888b8e"/>
 </g>
 <g id="toron">
  <path d="m627.58,2.2773-0.68607,2.7249c0.97183-1.9246,2.5153-3.3727,4.2876-4.6496-1.2958,1.5054-2.4772,3.0109-3.2014,4.5163,1.2196-1.7151,2.8584-2.6678,4.7068-3.2967-2.4583,2.1915-4.4095,4.543-5.8959,6.906l-1.1814-0.51445c0.20944-1.8866,0.92221-3.8188,1.9703-5.6865z" fill="#abcd03"/>
  <path d="m624.42,7.4626,2.2487,0.93289c0,0.5718-0.0465,2.3158,0.31107,2.8303,3.7398,4.8165,3.1106,14.471-0.75759,14.719-5.8906,0-8.137-4.0016-8.137-7.6795,0-3.3539,4.0207-5.5835,6.4219-7.5652,0.60975-0.53357,0.50386-1.7127-0.0871-3.2373z" fill="#fffcdb"/>
  <path d="m626.67,8.3626,0.81039,0.4134c-0.0762,0.53343,0.0381,1.7151,0.57152,2.0199,2.3631,1.4673,4.5925,3.068,5.4692,4.6687,3.1252,5.6407-2.1915,10.862-6.784,10.366,2.4964-1.8485,3.2205-5.6406,2.2868-9.7758-0.38106-1.6198-0.97198-3.0871-2.0201-4.745-0.45406-0.81382-0.29552-1.8231-0.33375-2.9476z" fill="#7d4698"/>
  <path d="m626.28,8.223,1.6769,0.22869c-0.49548,1.6388,0.97197,2.7821,1.4483,3.049,1.0671,0.59078,2.0962,1.2005,2.9156,1.9437,1.5436,1.4101,2.4202,3.392,2.4202,5.4882,0,2.0771-0.95286,4.0779-2.5536,5.4119-1.5054,1.2577-3.5825,1.7913-5.6025,1.7913-1.2577,0-2.3821-0.05707-3.6016-0.45738-2.7821-0.93374-4.8593-3.3157-5.0308-6.1743-0.15251-2.2296,0.34297-3.9256,2.0772-5.6978,0.89551-0.93374,2.7059-2.0009,3.9447-2.8584,0.60989-0.41929,1.2577-1.6008,0.019-3.8303l0.2478-0.1906,1.8358,1.2295-1.5499-0.63877c0.13339,0.1906,0.49548,1.0482,0.5718,1.2958,0.17148,0.70505,0.0953,1.3913-0.0572,1.696-0.78123,1.4102-2.1152,1.7913-3.087,2.5917-1.7151,1.4101-3.5826,2.5344-3.373,6.4028,0.0953,1.9056,1.5817,4.2304,3.8112,5.3167,1.2577,0.60989,2.7061,0.85756,4.1734,0.93374,1.3148,0.05721,3.8303-0.72417,5.2023-1.8675,1.4673-1.2195,2.2868-3.068,2.2868-4.9545,0-1.9057-0.76226-3.716-2.1915-4.9928-0.81946-0.74314-2.1724-1.6388-3.0108-2.1153-0.83844-0.47636-1.8866-1.8103-1.5436-3.087z" fill="#000"/>
  <path d="m625.77,11.043c-0.17148,0.87667-0.36208,2.4583-1.1243,3.049-0.32399,0.22855-0.64798,0.45738-0.99095,0.68594-1.372,0.93388-2.7442,1.8103-3.3729,4.059-0.13339,0.4765-0.019,0.99095,0.0954,1.4673,0.34297,1.372,1.3148,2.8584,2.0771,3.7351,0,0.03809,0.15251,0.13339,0.15251,0.17148,0.62887,0.74328,0.81947,0.95286,3.2014,1.4863l-0.0572,0.26692c-1.4292-0.38106-2.6106-0.72403-3.3539-1.5817,0-0.01898-0.13339-0.15251-0.13339-0.15251-0.80035-0.91477-1.7723-2.4391-2.1343-3.8684-0.13339-0.5718-0.24766-1.0099-0.0953-1.6008,0.64785-2.3247,2.0581-3.2395,3.4873-4.2113,0.32399-0.20958,0.70505-0.40032,1.0099-0.64798,0.59064-0.43813,0.91449-1.7722,1.2386-2.8583z" fill="#000"/>
  <path d="m626.38,14.664c0.0191,0.99095-0.0776,1.4881,0.17007,2.1933,0.15236,0.41915,0.66723,0.99088,0.81974,1.5435,0.20958,0.74328,0.43785,1.5626,0.41859,2.0581,0,0.5718-0.0358,1.6384-0.28341,2.7818-0.18887,0.94478-0.62415,1.7556-1.3561,2.2151-0.74974-0.15438-1.63-0.41792-2.1496-0.86335-1.0099-0.87654-1.9045-2.3422-2.0189-3.6192-0.0952-1.048,0.87525-2.5936,2.2282-3.375,1.1433-0.66696,1.4093-1.4271,1.6569-2.6468-0.34296,1.0671-0.66507,1.9617-1.7704,2.5333-1.6007,0.83844-2.422,2.2459-2.3458,3.5798,0.11428,1.715,0.80112,2.8771,2.1541,3.8109,0.57166,0.40018,1.6396,0.82307,2.3066,0.93748v-0.08721c0.50578-0.09473,1.1606-0.92547,1.4868-2.0494,0.2859-1.0099,0.39862-2.3025,0.37936-3.122-0.0191-0.47636-0.22925-1.5081-0.61045-2.4418-0.20958-0.51445-0.53154-1.0289-0.74126-1.391-0.22841-0.36236-0.23006-1.1435-0.34447-2.0581z" fill="#000"/>
  <path d="m626.26,18.4c0.019,0.66696,0.28688,1.5216,0.40115,2.3983,0.0954,0.64798,0.054,1.2988,0.0349,1.8706-0.0188,0.66182-0.23932,1.8477-0.54068,2.4244-0.28418-0.13033-0.39528-0.27895-0.57992-0.51889-0.22855-0.32399-0.38382-0.64798-0.53633-1.029-0.11428-0.2859-0.24788-0.6131-0.30522-0.99416-0.0762-0.57166-0.0548-1.4659,0.593-2.3807,0.49548-0.72417,0.60903-0.77925,0.78051-1.6177-0.22883,0.74314-0.3994,0.81891-0.93311,1.4476-0.59064,0.68608-0.68894,1.6966-0.68894,2.5159,0,0.34311,0.13681,0.72378,0.27034,1.0857,0.15237,0.3812,0.28314,0.76072,0.49272,1.0465,0.31506,0.46336,0.7183,0.72685,0.91567,0.77614,0.001,0.000279,0.003-0.000279,0.004,0,0.004,0.000977,0.009,0.0036,0.0131,0.0044v-0.0218c0.36973-0.41223,0.59222-0.82174,0.66713-1.234,0.0953-0.49548,0.1172-0.99204,0.17441-1.5828,0.0571-0.49548,0.0157-1.1629-0.11773-1.8488-0.19046-0.85756-0.51194-1.7319-0.64533-2.3415z" fill="#000"/>
  <path d="m626.32,10.243c0.0191,0.99081,0.0953,2.8395,0.36208,3.5635,0.0762,0.24767,0.78124,1.3339,1.2766,2.6487,0.34311,0.91477,0.41929,1.7532,0.4765,2.0009,0.22869,1.0862-0.0572,2.9156-0.43841,4.6497-0.19046,0.93374-0.83844,2.0962-1.5816,2.5536l-0.15237,0.26678c0.41929-0.01911,1.4482-1.029,1.8103-2.2868,0.60989-2.1343,0.85756-3.1252,0.5718-5.4882-0.0381-0.22883-0.1334-1.0099-0.49548-1.8485-0.53357-1.2768-1.2958-2.4964-1.391-2.7442-0.17162-0.40004-0.40031-2.1341-0.4384-3.3155z" fill="#000"/>
  <path d="m626.68,8.8872c-0.0565,1.0183-0.0717,1.3933,0.11881,2.1365,0.20957,0.81947,1.2768,2.0009,1.7151,3.3539,0.83845,2.5917,0.62887,5.9837,0.019,8.6324-0.22855,0.9336-1.3149,2.2868-2.401,2.7249l0.80035,0.1906c0.43827-0.01912,1.5625-1.0671,2.0009-2.2677,0.70491-1.8866,0.83844-4.1351,0.55254-6.4981-0.0191-0.22869-0.40032-2.2677-0.76226-3.1252-0.51459-1.2767-1.4294-2.4202-1.5245-2.6677-0.17134-0.41929-0.54787-1.2898-0.51884-2.4796z" fill="#000"/>
  <rect height="17.584" width="0.076799" y="8.1714" x="626.07" fill="#000"/>
 </g>
  <g filter="url(#f1)" id="comp">
   <rect x="19.136" y="316.26" width="34.106" height="2.9658" fill="#fcfcd8"   stroke="#cfcead"/>
   <rect x="6.5316" y="271.77" width="59.316" height="44.487" fill="url(#lg2)" stroke="#e8e8e1"/>
   <rect x="10.981" y="274.74" width="50.418" height="38.555" fill="url(#rg2)" stroke="#9d9d9b"/>
   <rect x="19.136" y="322.19" width="34.106" height="4.4487" fill="#f7f7e6"   stroke="#cfcead"/>
   <rect x="9.4975" y="326.84" width="53.384" height="11.863" fill="#adadac"   stroke="#adadac"/>
   <path d="m22.843,320.71,26.692,0" fill="none" stroke="#e7e7cb"/>
   <path d="m9.4975,326.84,10.38,11.863,32.624,0,10.38-11.863z" fill="url(#lg1)" stroke="#b2b199" stroke-linejoin="bevel"/>
  </g>
 <use xlink:href="#comp" x="207.578" y="0"/>
 <use xlink:href="#comp" x="316.57" y="0"/>
 <use xlink:href="#comp" x="425.563" y="0"/>
 <use xlink:href="#toron" x="-605.14" y="280.64"/>
 <use xlink:href="#stegmonster" x="34" y="282.64"/>
 <use xlink:href="#toron" x="-367.56" y="280.64"/>
 <use xlink:href="#stegmonster" transform="scale(-1,1)" x="-246" y="282.64"/>
 <use xlink:href="#toron" x="-273.57" y="280.64"/>
 <use xlink:href="#toron" x="-164.58" y="280.64"/>
 <path fill="#000" d="m60,135c1.2834-2.1501,2.7053-4.3015,3.4724-6.6873-3.0777,1.5745-5.8916,3.8743-9.2996,4.7072,1.8682-1.6228,4.3539-3.0558,5.2604-5.5422-2.9291,1.6839-6.055,3.1812-9.4491,3.5836,2.1197-1.4486,4.841-2.8534,5.1143-5.7065-3.771,1.9352-8.0889,3.6244-12.352,2.3293-0.4033-0.19154,1.9042-0.19824,2.4266-0.37569,2.0005-0.3698,5.1911-1.1963,5.0849-3.749-3.9669,0.53375-8.0604,0.81207-12.028,0.0567-1.3276-0.43095-3.9339-1.1834-4.3567-1.8304,4.2477,0.53577,8.641,1.2538,12.873,0.27274,1.5609-0.61381,0.56274-0.73969-0.5509-0.76606-4.5816-0.36483-9.5764-1.1425-12.901-4.6299,2.7583,1.0575,5.5743,2.3275,8.6007,2.0749,2.4765-0.83575,0.51902-3.0348-0.13671-4.5481-0.91265-1.3648,0.006-0.70507,0.84567-0.13264,4.6497,2.8398,9.0678,6.0827,13.931,8.552,7.4722,2.8916,15.836,2.724,23.564,1.0038,4.8606-1.1437,9.0671-4.5238,14.224-4.5262,3.4399,0.2682-2.225,1.8428-2.9781,2.7169-2.5456,0.90004,1.9006,2.7914,0.36499,2.6067-1.4819,0.0843-4.873-2.1508-3.4792,0.93029,0.13689,1.1969,2.3806,3.418,0.007,2.1567-1.7758-0.0615-3.3591-2.8444-4.0068-3.1626-1.1985,2.2885,0.0473,4.8864,1.4926,6.7262-1.9526-0.89705-4.0188-2.7689-4.8967-4.8897-0.31312-1.8814-0.57783-0.43856-0.62126,0.7042-0.4912,1.5516,1.0742,4.9857,0.60505,5.3478-1.5526-1.7342-3.2262-3.7861-3.5592-6.0592-0.93132,2.7732-0.7937,5.8074-0.83357,8.7193-1.6903-1.6869-2.6331-3.9649-2.6951-6.347-0.5601,1.9222-1.0257,3.8771-1.1907,5.8768-0.573-1.6105-0.996-3.2877-1.756-4.8197-0.9006,2.1166-2.1821,4.3215-4.3742,5.3296,0.0738-1.7536,1.4615-4.5104,0.7187-5.678-2.4009,2.2191-4.6736,4.644-7.498,6.3428,0.12584-0.19602,0.25169-0.39204,0.37753-0.58806zm34.124-19.1c-7.5801-10.463-20.722-16.406-33.567-15.708-2.7191-0.0576-5.4423,0.46598-8.1091,0.66481,5.484-1.5364,11.328-1.2868,16.988-1.1098,9.2365,0.99992,18.226,5.7752,23.384,13.642,0.45406,0.71345,2.5634,3.7445,1.7783,3.1482l-0.21158-0.27827-0.26302-0.35922zm-43.596-14.676c1.0455-0.1727-0.13304,0.42856,0-0.00006v0.00006zm1.1754-0.23507c1.0455-0.17271-0.13309,0.4286,0-0.00005v0.00005z"/>
 <g id="router">
  <path fill="#e1e1e1" stroke="#7d7d7d" stroke-width="2" d="m58.23,150.37,8.2121-8.2121,49.273,0,8.2121,8.2121,0,19.162-65.697,0z"/>
  <g stroke="#9c9c9c" stroke-width="0.68434">
   <path fill="#bdbdbd" d="m63.705,150.37,5.4747-5.4748,45.167,0,5.4748,5.4748z"/>
   <path fill="#bdbdbd" d="m61.652,153.1,58.854,0c0.37692,0,0.68434,0.30741,0.68434,0.68435v12.318c0,0.37954-0.30742,0.68434-0.68434,0.68434h-58.854c-0.37693,0-0.68434-0.3048-0.68434-0.68434v-12.318c0-0.37694,0.30742-0.68435,0.68434-0.68435"/>
   <g fill="#515151">
    <path d="m87.658,154.47,4.2798,0c0.37692,0,0.68435,0.30741,0.68435,0.68434v2.7374c0,0.37953-0.30743,0.68434-0.68435,0.68434h-4.2798c-0.37692,0-0.68434-0.30481-0.68434-0.68434v-2.7374c0-0.37693,0.30742-0.68434,0.68434-0.68434"/>
    <path d="m87.658,161.32,4.2798,0c0.37692,0,0.68435,0.30741,0.68435,0.68435v2.7374c0,0.37954-0.30743,0.68435-0.68435,0.68435h-4.2798c-0.37692,0-0.68434-0.30481-0.68434-0.68435v-2.7374c0-0.37694,0.30742-0.68435,0.68434-0.68435"/>
    <path d="m95.868,154.47,4.2798,0c0.37692,0,0.68435,0.30741,0.68435,0.68434v2.7374c0,0.37953-0.30743,0.68434-0.68435,0.68434h-4.2798c-0.37693,0-0.68435-0.30481-0.68435-0.68434v-2.7374c0-0.37693,0.30742-0.68434,0.68435-0.68434"/>
    <path d="m95.868,161.32,4.2798,0c0.37692,0,0.68435,0.30741,0.68435,0.68435v2.7374c0,0.37954-0.30743,0.68435-0.68435,0.68435h-4.2798c-0.37693,0-0.68435-0.30481-0.68435-0.68435v-2.7374c0-0.37694,0.30742-0.68435,0.68435-0.68435"/>
    <path d="m63.02,154.47,4.2798,0c0.37692,0,0.68434,0.30741,0.68434,0.68434v2.7374c0,0.37953-0.30742,0.68434-0.68434,0.68434h-4.2798c-0.37693,0-0.68434-0.30481-0.68434-0.68434v-2.7374c0-0.37693,0.30742-0.68434,0.68434-0.68434"/>
    <path d="m63.02,161.32,4.2798,0c0.37692,0,0.68434,0.30741,0.68434,0.68435v2.7374c0,0.37954-0.30742,0.68435-0.68434,0.68435h-4.2798c-0.37693,0-0.68434-0.30481-0.68434-0.68435v-2.7374c0-0.37694,0.30742-0.68435,0.68434-0.68435"/>
    <path d="m71.233,154.47,4.2798,0c0.37692,0,0.68434,0.30741,0.68434,0.68434v2.7374c0,0.37953-0.30742,0.68434-0.68434,0.68434h-4.2798c-0.37693,0-0.68434-0.30481-0.68434-0.68434v-2.7374c0-0.37693,0.30742-0.68434,0.68434-0.68434"/>
    <path d="m71.233,161.32,4.2798,0c0.37692,0,0.68434,0.30741,0.68434,0.68435v2.7374c0,0.37954-0.30742,0.68435-0.68434,0.68435h-4.2798c-0.37693,0-0.68434-0.30481-0.68434-0.68435v-2.7374c0-0.37694,0.30742-0.68435,0.68434-0.68435"/>
    <path d="m79.445,154.47,4.2798,0c0.37692,0,0.68434,0.30741,0.68434,0.68434v2.7374c0,0.37953-0.30742,0.68434-0.68434,0.68434h-4.2798c-0.37692,0-0.68434-0.30481-0.68434-0.68434v-2.7374c0-0.37693,0.30742-0.68434,0.68434-0.68434"/>
    <path d="m79.445,161.32,4.2798,0c0.37692,0,0.68434,0.30741,0.68434,0.68435v2.7374c0,0.37954-0.30742,0.68435-0.68434,0.68435h-4.2798c-0.37692,0-0.68434-0.30481-0.68434-0.68435v-2.7374c0-0.37694,0.30742-0.68435,0.68434-0.68435"/>
   </g>
   <g stroke="#7d7d7d">
    <path fill="#00c700" d="m105.45,155.84c0,0.91428-1.3687,0.91428-1.3687,0,0-0.91155,1.3687-0.91155,1.3687,0"/>
    <path fill="#c51900" d="m105.45,158.58c0,0.91428-1.3687,0.91428-1.3687,0,0-0.91154,1.3687-0.91154,1.3687,0"/>
    <path fill="#00c700" d="m105.45,161.32c0,0.91429-1.3687,0.91429-1.3687,0,0-0.91154,1.3687-0.91154,1.3687,0"/>
    <path fill="#00c700" d="m105.45,164.05c0,0.91428-1.3687,0.91428-1.3687,0,0-0.91155,1.3687-0.91155,1.3687,0"/>
    <path fill="#9c9c9c" d="m111.61,154.47,1.3687,0,0,10.95-1.3687,0z"/>
    <path fill="#9c9c9c" d="m114.35,154.47,1.3687,0,0,10.95-1.3687,0z"/>
    <path fill="#9c9c9c" d="m117.09,154.47,1.3687,0,0,10.95-1.3687,0z"/>
   </g>
  </g>
 </g>
 <use xlink:href="#router" x="152.68881" y="0"/>
 <use xlink:href="#router" x="261.68081" y="0"/>
 <use xlink:href="#router" x="370.67381" y="0"/>
 <use xlink:href="#router" x="512" y="0"/>
 <g style="fill:none;stroke:#2323e7;stroke-width:3;stroke-dasharray:3,3;marker-start:url(#AsB);marker-end:url(#AeB)">
  <path d="m75,291c51.967-18.659,26-69.507,26-110"/>
  <path d="m102.76,133s35.612-22.588,62.131-22.588,62.131,22.589,62.131,22.589"/>
  <path d="m233.27,180.04,0,81.75"/>
  <path d="m591.44,87.028,39,0" marker-start="none"/>
 </g>
 <g style="fill:none;stroke:#19a61b;stroke-width:3;marker-start:url(#AsG);marker-end:url(#AeG)">
  <path d="m263.02,133s21.138-16.588,36.879-16.588,36.879,16.589,36.879,16.589"/>
  <path d="m371.02,133s21.138-16.588,36.879-16.588,36.879,16.589,36.879,16.589"/>
  <path d="m253.27,180.04,0,81.75"/>
  <path d="m342.26,180.04,0,81.75"/>
  <path d="m362.26,180.04,0,81.75"/>
  <path d="m451.8,180.04,0,81.75"/>
  <path d="m591.44,41.236,39,0" marker-start="none"/>
 </g>
 <g style="fill:none;stroke:#d90606;stroke-width:3;stroke-dasharray:6,6;marker-start:url(#AsR);marker-end:url(#AeR)">
  <path d="m471.70,261.79,0-81.75"/>
  <path d="m476.76,133s35.612-22.588,62.131-22.588,62.131,22.589,62.131,22.589"/>
  <path d="m610,179.42,76,108.5"/>
  <path d="m591.44,63.2,39,0" marker-start="none"/>
 </g>
 <g font-size="18px" font-family="Cabin">
   <text x="16.900071" y="259.848620" >Alice</text>
   <text x="686.87915" y="336.06915">Bob</text>
   <text x="646.99017" y="19.598104" xml:space="preserve">Tor node</text>
   <text x="647.14819" y="45.806053" xml:space="preserve">Encrypted link</text>
   <text x="646.50415" y="69.633629" xml:space="preserve">Cleartext link</text>
   <text x="647.14819" y="93.461208" xml:space="preserve">Disguised link</text>
 </g>
</svg>
