<?xml version="1.0" encoding="UTF-8" standalone="no"?>
<?xml-stylesheet type="text/css" href="r/fonts.css"?>
<svg xmlns="http://www.w3.org/2000/svg" version="1.1"
     viewBox="0 0 736 283.97">
<g font-family="cabin">
  <g font-size="16px">
    <text transform="rotate(-90)" x="-168.00737" y="12" >Pr(<tspan font-style="italic">x</tspan> ≤ <tspan font-style="italic">X</tspan>)</text>
    <text x="55.782654" y="280.09799">Connection length (seconds)</text>
    <text x="275.40048" y="280.09799">Connection payload (decimal kB)</text>
    <text x="529.6734" y="280.09799">Per-packet payload (bytes)</text>
    <text x="166.51019" y="11.999999">CAIDA port 80</text>
    <text x="490.11469" y="11.999999">Tor</text>
  </g>
  <g font-size="12px">
    <text x="18.707962" y="241.67999">0.0</text>
    <text x="20.669025" y="201.323">0.2</text>
    <text x="20.309025" y="160.98599">0.4</text>
    <text x="20.021025" y="120.629">0.6</text>
    <text x="19.721025" y="80.292">0.8</text>
    <text x="22.809525" y="39.955002">1.0</text>
    <text x="43.949001" y="257.02066">0</text>
    <text x="71.463188" y="257.02066">10</text>
    <text x="99.812378" y="257.02066">20</text>
    <text x="129.18475" y="257.02066">30</text>
    <text x="158.72343" y="257.02066">40</text>
    <text x="188.05991" y="257.02066">50</text>
    <text x="217.28284" y="257.02066">60</text>
    <text x="247.40126" y="257.02066">70</text>
    <text x="277.896" y="257.02066">0</text>
    <text x="316.06839" y="257.02066">20</text>
    <text x="357.30844" y="257.02066">40</text>
    <text x="398.19684" y="257.02066">60</text>
    <text x="439.20374" y="257.02066">80</text>
    <text x="477.82312" y="257.02066">100</text>
    <text x="511.827" y="257.02066">0</text>
    <text x="573.10083" y="257.02066">500</text>
    <text x="638.74506" y="257.02066">1000</text>
    <text x="708.52502" y="257.02066">1500</text>
  </g>
</g>
<g stroke-linejoin="round" stroke-linecap="round" fill="none">
  <g stroke-width="0.39">
    <path stroke="#f2f2f2" d="m48.233,217.29h206.19m-206.19-40.337h206.19m-206.19-40.337h206.19m-206.19-40.353h206.19m-206.19-40.337h206.19m-191.46,181.56v-201.73m29.473,201.73v-201.73m29.453,201.73v-201.73m29.453,201.73v-201.73m29.453,201.73v-201.73m29.453,201.73v-201.73m29.453,201.73v-201.73m276.41,181.54h206.19m-206.19-40.337h206.19m-206.19-40.337h206.19m-206.19-40.357h206.19m-206.19-40.337h206.19m-171.82,181.56v-201.73m68.718,201.73v-201.73m68.737,201.73v-201.73m-405.75,181.54,206.17,0m-206.17-40.337,206.17,0m-206.17-40.337,206.17,0m-206.17-40.357,206.17,0m-206.17-40.337,206.17,0m-185.56,181.56v-201.73m41.235,201.73v-201.73m41.235,201.73v-201.73m41.234,201.73v-201.73m41.235,201.73v-201.73"/>
    <path stroke="#e6e6e6" d="m48.233,237.48h206.19m-206.19-40.357h206.19m-206.19-40.337h206.19m-206.19-40.357h206.19m-206.19-40.331h206.19m-206.19-40.337h206.19m-206.19,201.73v-201.73m29.473,201.73v-201.73m29.453,201.73v-201.73m29.453,201.73v-201.73m29.453,201.73v-201.73m29.453,201.73v-201.73m29.453,201.73v-201.73m29.453,201.73v-201.73m261.69,201.73h206.19m-206.19-40.357h206.19m-206.19-40.337h206.19m-206.19-40.357h206.19m-206.19-40.337h206.19m-206.19-40.337h206.19m-206.19,201.73v-201.73m68.737,201.73v-201.73m68.718,201.73v-201.73m68.737,201.73v-201.73m-440.12,201.73,206.17,0m-206.17-40.357,206.17,0m-206.17-40.337,206.17,0m-206.17-40.357,206.17,0m-206.17-40.337,206.17,0m-206.17-40.337,206.17,0m-206.17,201.73v-201.73m41.235,201.73v-201.73m41.235,201.73v-201.73m41.235,201.73v-201.73m41.235,201.73v-201.73m41.235,201.73v-201.73"/>
    <path stroke="#000" d="m722.3,245.79v-8.3093m-68.737,8.3093v-8.3093m-68.718,8.3093v-8.3093m-68.737,8.3093v-8.3093h206.19m-233.95,8.3093v-8.3093m-41.235,8.3093v-8.3093m-41.235,8.3093v-8.3093m-41.235,8.3093v-8.3093m-41.235,8.3093v-8.3093m-41.235,8.3093v-8.3093h206.17m-233.86,8.3093v-8.3093m-29.523,8.3093v-8.3093m-29.453,8.3093v-8.3093m-29.453,8.3093v-8.3093m-29.453,8.3093v-8.3093m-29.453,8.3093v-8.3093m-29.453,8.3093v-8.3093m-29.473,8.3093v-8.3093h206.19m-214.47-201.72h8.3093m-8.3093,40.337h8.3093m-8.3093,40.337h8.3093m-8.3093,40.357h8.3093m-8.3093,40.337h8.3093m-8.3093,40.357h8.3093v-201.73"/>
  </g>
  <g stroke-width="1.17">
    <path stroke="#000" d="m137.19,8.224,23.406,0"/>
    <path stroke="#1c9e78" d="m460.41,8.224,23.406,0"/>
    <path stroke="#000" d="m516.11,237.48c0.49302-0.17685,0.97271-0.36702,1.6579-0.3517,1.4316-0.2592,3.2732-0.10829,4.6618-0.4105,1.7419-0.23125,3.6888-0.25744,5.5091-0.4103,0.68723,0.0146,1.2686-0.0766,1.803-0.21492,2.2478-0.30214,4.8347-0.26509,7.122-0.5276,1.3045-0.20416,2.7278-0.28955,4.1351-0.3909,0.30543-0.39968,1.2197-0.19052,1.7836-0.33174,0.84804-0.15045,1.7986-0.19836,2.6051-0.3904,0.52379-0.0745,0.81468-0.38192,1.3654-0.4295,0.69215-0.0585,1.3219-0.1794,1.9394-0.3125,1.116-0.11672,2.2705-0.19499,3.288-0.4102,1.4638-0.0868,2.815-0.28609,4.1438-0.5078,2.0621-0.30508,4.3239-0.41036,6.4561-0.6453,1.8644-0.21362,3.911-0.24497,5.6286-0.6054,0.73599-0.17071,1.5824-0.231,2.3492-0.3709,1.8702-0.24063,3.7472-0.47442,5.6286-0.7038,0.92198-0.23549,2.052-0.26295,3.0233-0.4491,1.4414-0.32116,3.1168-0.40835,4.6618-0.6259,0.87322-0.10215,1.6844-0.2663,2.6139-0.3122,0.0164-0.52992,0.87983-0.21278,1.2483-0.39059,0.67617-0.0651,1.3556-0.12692,2.0479-0.1759-0.19361-0.79853,0.82506-0.38476,1.2485-0.56621,2.809-0.22797,5.537-0.53684,8.3874-0.7234,2.007-0.26517,4.2443-0.30012,6.3283-0.4883,4.0311-0.27366,8.0959-0.51364,12.093-0.821,0.56015-0.11609,1.4667,0.1142,1.7664-0.26237,0.51578-0.24518,1.4246-0.0973,2.0763-0.20659,3.1714-0.20712,6.3524-0.40469,9.6075-0.5281,5.2189-0.28869,10.526-0.48936,15.682-0.8402-0.0328-0.67655,1.0683-0.21912,1.5018-0.42926,2.342-0.16154,4.7713-0.23569,7.022-0.4885,0.57107-0.0857,1.4316,0.11792,1.5018-0.46861,3.4395-0.14349,6.9029-0.26299,10.319-0.4303,0.19684-0.49239,1.2578-0.12069,1.775-0.29274,3.8547-0.0978,7.6598-0.24528,11.428-0.4299,1.0571,0.32155,0.2158-1.2552,0.68527-1.5213,2.7076-0.10145,5.4526-0.16548,8.0947-0.3324-0.31288-1.0867,0.37314-1.1744,1.2483-1.073,1.6132-0.0708,3.2015-0.16657,4.7984-0.2537,0.76562-0.23574,1.9931-0.01,2.7502-0.2539,0.51326-0.15648,1.6089,0.26945,1.385-0.62425,0.63664-0.0879,1.4785,0.0295,1.9114-0.26217v-2.9953c0.52142-0.11867,1.3389,0.0588,1.6579-0.26237,0.20675-0.61622-0.45617-2.1021,0.40978-2.0591,0.0985-0.78574-0.19243-1.9609,0.13645-2.5162,1.0527,0.23711,0.0931-1.5381,1.1119-1.335,0.58851-0.16976,1.4427-0.0739,1.0923-1.1826,0.14003-0.70688-0.45378-2.1476,0.70832-1.8324,0.2586-0.64875,0.037-1.7777,0.11084-2.6112-0.053-0.7821-0.018-1.4761,0.70228-1.4849,1.0674,0.24571,1.043-0.60051,0.95581-1.5094v-10.74c0.6119-0.30112,0.10922-1.7168,0.27293-2.4661,0.5899-0.29158,0.12578-1.6372,0.27331-2.3711v-2.9063c1.0254,0.2358,0.69473-0.88446,1.3654-1.0034,0.53722-0.29942,0.20224-1.471,0.2925-2.2174v-53.755c1.2105,0.35078,0.73353-0.98598,0.81916-1.7601-0.32672-1.099,0.98857-0.55589,1.2289-1.0878,0.43136-0.32127,1.7679,0.26263,1.5214-0.73647v-3.5939c0.41327-0.39584,0.18875-1.4295,1.0923-1.3351v-38.281c1.0156,0.14351,0.36142-1.3828,0.54623-2.07v-4.64c1.1465,0.27939,1.2508-0.48337,1.1116-1.4896v-33.249h5.5005m-440.14,201.75c0.5872-4.3311,0.26599-8.7644,0.3781-13.137,0.19132-26.434,0.41897-52.869,0.77074-79.301,0.31181-16.841,0.45843-33.719,2.2062-50.485,0.73479-4.4545,0.73056-9.044,2.1828-13.353,0.48908-2.2813,1.1802-4.5197,1.908-6.7138,1.3601-2.9187,2.9795-5.7595,5.329-8.0125,2.2515-1.9946,4.282-4.2602,6.9738-5.7041,2.5715-2.0739,5.7109-3.3319,8.7359-4.6236,6.4783-2.6448,13.358-4.0863,20.192-5.4512,7.5091-1.4205,15.105-2.309,22.65-3.4941,16.402-1.9964,32.916-2.7949,49.408-3.6381,14.24-0.56754,28.477-1.2286,42.718-1.7728,14.262-0.46218,28.529-0.76811,42.796-1.058m-440.21,196.75c0.74244-29.85,0.53134-60.653,1.1148-90.662,0.319-16.932,0.13061-34.372,2.1318-49.622,0.38491-5.1771,1.3741-9.7499,3.2273-13.459,0.67346-3.4206,2.7787-5.4094,4.107-8.1751,1.1868-1.1967,2.1738-2.5932,2.367-4.7834,0.58767-1.6923,2.5198-2.0402,2.776-4.064,0.68687-2.2136,2.3847-3.4162,3.7937-4.9077,2.6795-2.271,6.1735-3.7277,9.7753-5.0764,1.2283-0.76482,2.3579-1.6284,3.9802-1.9992,3.4636-1.3718,7.8193-1.8517,11.645-2.8616,5.7917-1.7688,12.975-2.1454,19.271-3.4104,8.1589-0.98623,16.85-1.4399,25.26-2.1756,16.757-1.224,34.604-1.3586,51.631-2.3128,2.3937-0.05207,4.7747-0.11682,6.73-0.6073,11.075-0.47347,23.246,0.14801,33.666-0.98,8.0007-0.62671,16.413-0.90209,24.772-1.1564"/>
    <path stroke="#1c9e78" d="m516.11,237.48c1.565-0.0541,3.0916-0.14672,4.6814-0.176-0.27845-1.0521,1.0277-0.51965,1.6383-0.68276,0.47252-0.29745,1.3522-0.18772,2.0758-0.23414,1.3733-0.13588,2.8104-0.20794,4.2932-0.2342,1.3631-0.0511,2.655-0.17336,4.0861-0.1565,0.40656-0.38289,1.6292,0.0503,2.0562-0.31215,1.245,0.0317,2.2091-0.21742,3.4444-0.1954,0.22493-0.57538,1.4482-0.1524,2.0889-0.31198,1.2018,0.00055,2.3055-0.0969,3.4084-0.1953,0.83475,0.0832,1.2662-0.23687,2.0594-0.1953,0.88187,0.0524,1.4256-0.23325,2.3325-0.15585,0.21868-0.52257,0.84163-0.64087,1.6579-0.56583,0.68054-0.11827,1.4863-0.11135,2.2011-0.1953,1.0243-0.0234,2.0433-0.0522,3.007-0.1363,0.8682-0.0688,1.7848-0.0891,2.6548-0.1562,0.99865,0.23989,1.0391-0.4784,0.93441-1.3419-0.35468-1.0972,0.72479-0.76029,1.3652-0.86242,0.60678-0.19561,1.1809-0.42387,2.0758-0.33139,0.82014,0.0696,1.3128-0.1882,2.0564-0.19518,1.0588,0.0111,1.9556-0.13995,3.0264-0.1168,0.53957-0.18858,1.3998-0.0565,1.9114-0.273,0.73772-0.0128,1.5028,0.002,2.0758-0.17564,2.2947-0.0433,4.5561-0.11992,6.7213-0.2928,0.90203,0.11526,1.3985-0.17505,2.2041-0.15624,0.80841,0.009,1.2854-0.31416,2.2042-0.19522,0.58645-0.17424,1.031-0.49033,1.9114-0.37061,1.7929-0.13174,3.8174-0.032,5.5005-0.2735,0.87863,0.11512,1.38-0.14704,2.076-0.21455,0.96201,0.17355,1.2242-0.3527,2.0727-0.29264,0.94677-0.005,1.811-0.0917,2.7369-0.1172v-39.089c1.5625-0.0435,3.1308-0.0813,4.6618-0.1562,0.0334-0.74039,1.3341-0.21343,1.931-0.39028,0.42346-0.37259,1.5284-0.0637,2.0758-0.3124,1.2517,0.0319,2.1888-0.25065,3.4248-0.2344,0.39514-0.36086,1.4512-0.0609,2.0728-0.19526,0.97207-0.008,1.9383-0.0221,2.8622-0.0783,0.59461-0.2117,1.5921-0.0205,2.2042-0.2148,0.98122,0.22158,1.2416-0.27767,1.9473-0.33162,1.0413,0.25357,0.97805-0.59748,1.9146-0.44865,0.8808,0.009,1.5904-0.1523,2.4579-0.1562,1.1408,0.009,2.1278-0.1348,3.2962-0.0977,0.4764-0.21284,1.3121-0.0664,1.9312-0.1365,0.40536-0.38788,1.6419,0.0554,1.931-0.44871,0.56239-0.19637,1.883,0.36543,1.6385-0.63777,0.32272-0.35827,1.2762-0.0857,1.8026-0.24035,1.2766-0.0266,2.5051-0.10132,3.7141-0.1955,0.9345,0.0687,1.4911-0.24052,2.4608-0.1366,0.52277-0.29071-0.0173-1.6442,1.27-1.1705,0.8645,0.12321,1.0169-0.46566,1.931-0.29284,1.25-0.0303,2.4094-0.15116,3.665-0.1759,1.8613-0.0438,3.6624-0.14796,5.5006-0.2149,0.39281-0.34194,1.4398-0.0297,1.931-0.27325,2.2886,0.0192,4.3174-0.2214,6.5928-0.2153,0.42463-0.31668,1.4616-0.021,1.9312-0.2927,0.71353-0.0212,1.5062,0.0367,1.931-0.27326,1.1064-0.0316,2.2176-0.0584,3.2964-0.1175,0.18957-0.55178,1.3712-0.11148,1.9116-0.31239,1.0372,0.0814,1.7167-0.19499,2.7502-0.1173,0.53185-0.30693,1.7743,0.0967,2.2042-0.3122,1.1876,0.0497,2.1662-0.10956,3.2964-0.1172v-4.6618c0.84228-0.0464,1.7203-0.057,2.51-0.1561,0.74108-0.009,1.407-0.0925,2.1712-0.078,0.22698-0.56905,1.6053,0.0132,2.0564-0.33173,0.48576-0.23603,1.4038-0.0398,1.931-0.23434,0.76512-0.0308,1.587-0.005,2.0758-0.31197,0.90942,0.15623,1.2089-0.29744,1.928-0.33158,1.4726-0.0379,2.9581-0.0629,4.3754-0.1562,0.71751-0.12296,1.6078-0.0732,2.3652-0.1562,1.0041,0.1739,1.2441-0.4163,2.2175-0.27314,0.70834-0.0658,1.0534-0.49498,2.0102-0.31226,0.72057-0.0272,0.56278-0.93273,1.6579-0.58538,1.2114-0.0306,2.3419-0.14202,3.5696-0.1563,0.6439-0.16882,1.689,0.0636,2.2041-0.23408,0.90406,0.12863,1.31-0.24087,2.0725-0.25376,1.0049,0.24685,1.0851-0.431,1.7865-0.48763,0.76689,0.0117,1.6922,0.18178,1.3684-0.8972,0.68218-0.1183,1.9555,0.35458,1.6385-0.76291v-133.95h7.1584m-440.14,200.87h33.062c0.0675-0.61632,0.50337-0.86428,0.31207-1.7394-0.0932-0.76644,0.11245-1.234,0.15604-1.8636-0.10209-0.76023,0.23157-1.0847,0.13647-1.838,0.0554-0.59814-0.0254-1.3325,0.82818-1.1324,0.22387-0.42446,0.66889-0.62778,1.4574-0.48761,0.91331,0.23676,1.1031-0.25001,1.5225-0.50714,0.91322,0.23704,1.1021-0.25029,1.5214-0.50713,0.53845-0.13908,0.55929-0.79575,1.5254-0.50717h2.3518c-0.22639-0.91822,1.0315-0.35213,1.5683-0.50716,1.0408,0.36425,0.59142-0.76167,1.5225-0.50712h4.3212c-0.23339-0.9031,0.97766-0.36176,1.502-0.50713-0.10009-0.75989,0.92643-0.39318,0.98466-0.99476,0.95502,0.30018,0.442-0.86769,1.4574-0.50715,1.0416,0.36375,0.59585-0.75989,1.5265-0.50714,0.63623-0.0139-0.18659-1.487,0.93623-1.0143,0.10898-0.5137,0.52059-0.72478,0.53722-1.3308-0.1384-0.7496,0.45999-0.7624,0.31213-1.5215,0.30434-0.31666,0.46917-0.77282,0.67764-1.1853-0.12198-0.76218,1.0407-0.23967,0.64879-1.2718,0.0766-0.53149,0.41379-0.80246,0.57995-1.2444,0.38743-0.24327,0.33371-0.92769,0.78525-1.1068,0.0311-0.59788,0.50664-0.75143,0.76082-1.1263,0.0009-0.69294-0.23298-1.6207,0.78417-1.2974,0.79401,0.16149,1.1708-0.0943,1.1664-0.7312-0.0787-0.74022,1.5703,0.24738,1.3848-0.59965-0.13597-0.77795,0.51972-0.76423,0.2925-1.6334,0.41275-0.19197-0.0432-1.2526,0.74079-1.0734,0.25578-0.35869,0.56882-0.66011,0.84864-0.99476,0.95502,0.30017,0.44201-0.86768,1.4574-0.50714,0.22432-0.42253,0.55782-0.73589,0.42519-1.5154,0.29584-0.26204,0.23653-0.87923,0.44874-1.2249,0.25593-0.36991,0.40732-0.84437,0.58014-1.2974,0.56997-0.10135-0.28049-1.6231,0.49255-1.5214-0.0179-0.68257-0.0283-1.3576,0.15604-1.838,0.10291-0.55215,1.648,0.33793,1.346-0.61916,0.85362,0.20998,0.76319-0.52409,1.3648-0.56616,0.38751-0.24319,0.1893-1.0721,0.89727-0.99482,0.99973,0.32355,0.89735-0.455,1.5214-0.50713,0.0241-0.63876,0.79445-0.53122,1.4814-0.50712h5.5802c-0.22639-0.91823,1.0315-0.35214,1.5683-0.50717h6.3118c-0.38705-1.0631,1.3895,0.0374,1.0729-0.95519,0.88983-0.13807,2.0363-0.0195,3.0246-0.0591,0.64239-0.0122,1.5047,0.19563,1.4565-0.50714h3.6527c0.11951-0.52251,0.35125-0.93278,0.4241-1.5019,0.66167,0.044,0.51942-0.7159,1.2338-0.61918,0.30251-0.33779-0.14119-1.4218,0.51149-1.4094,0.46201-0.11187,0.61829-0.52947,1.01-0.71169-0.095-0.73215,0.57291-0.70145,0.89727-1.0143,0.0409-0.6171,0.34359-0.97231,1.1836-0.79022-0.17093-0.763,0.93716-0.24699,0.64989-1.1263-0.0701-0.68293,0.46926-0.75635,0.44854-1.3899,0.63195,0.009-0.0351-1.2802,0.74124-1.1263,0.15308-0.50659,0.26837-1.051,1.0962-0.88275,0.72178,0.0925,0.73237-0.52629,0.87371-1.0143,0.4363-0.15539-0.0463-1.2297,0.76082-1.0143,0.10127-0.53571,0.39376-0.88019,0.89663-1.0143,0.77705,0.12182,0.60548-0.70499,1.366-0.59968,0.16445-0.50172,0.25866-1.0737,1.0962-0.90225,0.89286,0.2782,0.51168-0.71764,0.82969-1.0143,0.39998-0.25189-0.14226-1.446,0.9413-1.0143,0.0399-0.60513,0.0809-1.2091,0.94021-0.99477,0.46635-0.12548,0.33715-0.84652,0.4252-1.3503,0.1095-0.55203,1.6601,0.33707,1.3654-0.6192,0.36216-0.27516,1.6407,0.3661,1.3458-0.56616h2.8674c-0.21611-0.90144,1.0437-0.32699,1.5683-0.48764h5.0829c-0.22638-0.91821,1.0315-0.35212,1.5683-0.50715h5.5318c-0.31566-0.97066,1.0982-0.21176,1.3458-0.61918,0.16444-0.50173,0.25867-1.0736,1.0962-0.90224,0.51518-0.14671,1.7241,0.40032,1.4785-0.50716h3.0235c-0.11563-0.77544,0.90722-0.41241,0.98466-0.99479,1.0196,0.37265,0.56407-0.7299,1.4338-0.50714-0.31564-0.97061,1.0983-0.2117,1.3458-0.61913,0.16444-0.50174,0.25866-1.0737,1.0962-0.90228,0.84107,0.19718,0.17506-1.1127,0.91734-1.0143,0.47891-0.095,0.62604-0.52171,1.0099-0.71168,0.17418-0.41743,0.87829-0.30494,0.98466-0.79019,1.0143,0.38521,0.078-1.1801,0.87286-1.0143,0.83007,0.17989,0.19941-1.101,0.93624-1.0143h2.9407c0.046-0.60556,0.10265-1.2004,0.95979-0.99477,0.30893-0.32839,0.40104-0.8736,0.8977-1.0143h2.5314c-0.22637-0.91818,1.0316-0.35208,1.5683-0.50712h2.1962c-0.0232-0.65874,0.19769-1.0733,0.7802-1.1263-0.29907-1.0041,0.46099-0.94903,1.2323-0.88277h2.0835c-0.22638-0.9182,1.0315-0.3521,1.5683-0.50714h5.6682c-0.22636-0.91817,1.0316-0.35206,1.5683-0.50711h3.5812c-0.22639-0.91823,1.0315-0.35214,1.5683-0.50717h5.9607c-0.10859-0.76191,0.88537-0.42128,0.94571-1.0143h5.9788c-0.21612-0.90145,1.0436-0.32701,1.5683-0.48766h2.957c-0.22638-0.9182,1.0315-0.3521,1.5683-0.50714,0.63817-0.0124-0.18612-1.4872,0.93731-1.0143-0.15327-0.82426,0.92887-0.41311,1.5058-0.50715h3.5761c-0.12002-0.75226,0.87057-0.39391,0.56584-1.3309-0.0591-0.22739,0.0738-0.16858,0.23415-0.17103m-440.18,83.71c0.01286-11.736-0.02584-23.523,0.01958-35.227,0.17055-0.71038,0.76357-0.9983,1.8431-0.79972h55.855c-0.0666-0.89377,0.56686-1.0875,0.44861-2.033,0.16463-0.64011-0.33403-1.9435,0.44862-1.9656-0.0559-0.91441,0.23793-1.479,0.23404-2.3414-0.007-1.1246,0.12019-2.1159,0.078-3.2761,0.26179-0.55773,0.0522-1.5869,0.13665-2.3219,0.0572-11.76,0.1017-23.532,0.1762-35.274,0.0561-11.649,0.0709-23.338,0.176-34.938,0.0492-3.0153,0.056-6.0731,0.0782-9.1154,0.17949-1.0834-0.0224-2.5481,0.1561-3.6324,0.035-2.0312,0.17814-3.9541,0.234-5.9644,0.0804-0.70123,0.1551-1.4082,0.31204-2.0329,0.0663-0.90102,0.10183-1.8328,0.1366-2.7654,0.49779-0.30728-0.0159-1.6261,0.50726-1.908-0.0277-1.3292,0.17675-2.4264,0.1951-3.7096,0.14956-0.71957,0.71024-1.028,0.50716-2.1002,0.13631-0.66168,0.24464-1.3513,0.49557-1.8984-0.10517-0.87243,0.80093-0.73358,0.55782-1.744,0.15368-0.68533-0.0751-1.7531,1.0621-1.455h2.9366c-0.38781-1.2805,1.126-0.65947,1.8785-0.7997h45.09c-0.38782-1.2806,1.126-0.65951,1.8785-0.79973,0.765-0.1069,1.9512,0.20741,2.4712-0.1445,0.0561-0.74122,0.31035-1.2844,0.21464-2.1774,0.0522-2.8138,0.0993-5.6326,0.215-8.3829,0.12935-0.64823-0.0868-1.6419,0.2226-2.1101,0.89363,0.07556-0.16757-1.8037,0.85464-1.5996,1.0168,0.16512,0.80988-0.8935,1.322-1.2331,0.27722-0.52378,0.13341-1.4686,0.43715-1.9658,0.12958-0.79368,0.0491-1.7975,0.22616-2.5436-0.29248-1.1852,1.33-0.45537,2.023-0.65508h18.438c-0.01-0.83555,0.23647-1.4156,0.15607-2.322,0.0736-0.99,0.0148-2.1124,0.1364-3.0544,0.38003-0.51272,1.7079-0.07757,2.4565-0.22177h32.03c-0.0959-0.91003,0.15547-1.4728,0.38996-2.0524,0.11865-2.9945,0.13518-6.0911,0.1761-9.1633,0.18982-0.75831-0.005-1.9008,0.1562-2.6882,0.0436-0.76375,0.1731-1.4417,0.31206-2.1101-0.38782-1.2806,1.1259-0.65957,1.8785-0.79977,0.12369-0.7487,0.76711-0.97768,1.8176-0.79958h24.82"/>
  </g>
</g>
</svg>
